<?xml version="1.0" encoding="utf-8"?>
<!-- Generator: Adobe Illustrator 19.2.0, SVG Export Plug-In . SVG Version: 6.00 Build 0)  -->
<svg version="1.1" id="Слой_1" xmlns="http://www.w3.org/2000/svg" xmlns:xlink="http://www.w3.org/1999/xlink" x="0px" y="0px"
	 viewBox="0 0 158 158" style="enable-background:new 0 0 158 158;" xml:space="preserve">
<style type="text/css">
	.st0{fill:#2749FF;}
</style>
<path class="st0" d="M79,0C35.4,0,0,35.4,0,79c0,43.6,35.4,79,79,79s79-35.4,79-79C158,35.4,122.6,0,79,0z M79,18
	c16.3,0,31.1,6.4,42.1,16.9l-95.2,74c-5-8.8-7.9-19-7.9-29.9C18,45.4,45.4,18,79,18z M79,140c-16.3,0-31.1-6.4-42.1-16.9l95.2-74
	c5,8.8,7.9,19,7.9,29.9C140,112.6,112.6,140,79,140z"/>
</svg>
