<?xml version="1.0" encoding="utf-8"?>
<!-- Generator: Adobe Illustrator 22.0.0, SVG Export Plug-In . SVG Version: 6.00 Build 0)  -->
<svg version="1.1" id="h-2" xmlns="http://www.w3.org/2000/svg" xmlns:xlink="http://www.w3.org/1999/xlink" x="0px" y="0px"
	 viewBox="0 0 81.3 102.5" style="enable-background:new 0 0 81.3 102.5;" xml:space="preserve">
<style type="text/css">
	.st0{fill:none;stroke:#ffffff;stroke-miterlimit:10;}
</style>
<path id="_x32_" class="st0" d="M72.6,100.8H9.4V84c0.1-0.1,2.4-2.3,6.9-6.6l7.7-7.7c1.7-1.9,3.9-4.2,6.7-7c3.2-3.4,5.4-6,6.7-8
	l4.6-7.1c3.3-4.9,4.9-10,4.9-15.3c0-6.4-3-9.7-9-9.7c-2.7,0-4.9,0.9-6.4,2.6c-1.6,1.7-3,4.4-4.3,7.9l-17.5-8
	c1.7-7.4,5.2-13.1,10.4-17.3c5.3-4.2,12.1-6.2,20.4-6.2c9.1,0,16.1,2.6,21.1,7.7c5.1,5.1,7.7,11.4,7.7,18.8
	c0,18.6-10.9,36.3-32.8,53.1h36.1C72.6,81.2,72.6,100.8,72.6,100.8z"/>
</svg>
