<?xml version="1.0" encoding="utf-8"?>
<!-- Generator: Adobe Illustrator 22.0.0, SVG Export Plug-In . SVG Version: 6.00 Build 0)  -->
<svg version="1.1" id="h-3" xmlns="http://www.w3.org/2000/svg" xmlns:xlink="http://www.w3.org/1999/xlink" x="0px" y="0px"
	 viewBox="0 0 81.3 102.5" style="enable-background:new 0 0 81.3 102.5;" xml:space="preserve">
<style type="text/css">
	.st0{fill:none;stroke:#ffffff;stroke-miterlimit:10;}
</style>
<path id="_x33_" class="st0" d="M40.5,101.9c-7.5,0-14-1.5-19.6-4.4s-9.8-6.9-12.7-11.8l11.6-15.5C26.1,77.4,32.6,81,39.1,81
	c3.9,0,7-0.9,9.1-2.7c2.1-1.8,3.2-4.1,3.2-6.9c0-7.2-5.6-10.8-16.7-10.8h-6.2v-21h5.6c4,0,7.3-0.9,9.7-2.6c2.5-1.7,3.7-4.1,3.7-7.2
	c0-2.4-0.7-4.4-2.2-6c-1.5-1.5-3.7-2.3-6.7-2.3c-6.5,0-12.2,2.9-16.9,8.8l-11.4-15c6-9.8,16.1-14.7,30.4-14.7
	c8.7,0,15.7,2.3,21.1,6.9C67.3,11.9,70,18,70,25.6c0,10.9-4.9,18.6-14.6,23V49c5.8,1.1,10.3,3.8,13.5,7.9c3.2,4.2,4.8,9.3,4.8,15.3
	c0,9-3.2,16.2-9.5,21.7C58.1,99.3,50.1,101.9,40.5,101.9z"/>
</svg>
