<?xml version="1.0" encoding="utf-8"?>
<!-- Generator: Adobe Illustrator 22.0.0, SVG Export Plug-In . SVG Version: 6.00 Build 0)  -->
<svg version="1.1" id="h-6" xmlns="http://www.w3.org/2000/svg" xmlns:xlink="http://www.w3.org/1999/xlink" x="0px" y="0px"
	 viewBox="0 0 81.3 102.5" style="enable-background:new 0 0 81.3 102.5;" xml:space="preserve">
<style type="text/css">
	.st0{fill:none;stroke:#31CB87;stroke-miterlimit:10;}
</style>
<path id="_x36_" class="st0" d="M6.4,65.5c0-8.4,1.5-16.5,4.5-24.2s7-14.3,11.9-19.8c10.3-11,21-18,32.3-21l8.5,15.8
	c-7.5,2.5-14,6.2-19.7,11.1c-5.6,4.9-9.9,10.6-12.7,17c3.8-3.5,9.6-5.3,17.2-5.3c7.3,0,13.6,2.8,18.9,8.4c5.4,5.5,8.1,12.6,8.1,21.4
	c0,10.3-3.3,18.3-9.9,24.2c-6.6,5.8-14.3,8.7-23.1,8.7c-10.7,0-19.5-3.5-26.2-10.5C9.7,84.4,6.4,75.7,6.4,65.5z M28.8,65.7
	c0,4.8,1.2,8.5,3.6,11.2c2.4,2.7,5.8,4.1,10.2,4.1c3.3,0,5.8-1,7.7-2.9c1.9-2,2.8-4.4,2.8-7.4c0-3.5-1-6.4-3.1-8.5S45,59,41.2,59
	C36.1,58.8,32,61.1,28.8,65.7z"/>
</svg>
