<svg xmlns="http://www.w3.org/2000/svg" width="17" height="17" viewBox="0 0 17 17">
  <path fill="#2749FF" d="M8.5,0 C3.81325104,0 0,3.81325104 0,8.5 C0,13.186749 3.81325104,17 8.5,17 C13.186749,17 17,13.186749 17,8.5 C17,3.81325104 13.186749,0 8.5,0 Z M8.5,1.30769231 C12.4792672,1.30769231 15.6923077,4.5207335 15.6923077,8.5 C15.6923077,12.4792672 12.4792672,15.6923077 8.5,15.6923077 C4.5207335,15.6923077 1.30769231,12.4792672 1.30769231,8.5 C1.30769231,4.5207335 4.5207335,1.30769231 8.5,1.30769231 Z M7.84615385,4.57692308 L7.84615385,5.88461538 L9.15384615,5.88461538 L9.15384615,4.57692308 L7.84615385,4.57692308 Z M7.84615385,7.19230769 L7.84615385,12.4230769 L9.15384615,12.4230769 L9.15384615,7.19230769 L7.84615385,7.19230769 Z"/>
</svg>
