<svg width="24" height="24" viewBox="0 0 24 24" fill="none" xmlns="http://www.w3.org/2000/svg">
<path d="M7.5 20.5V18.5" stroke="#A3A3A3" stroke-width="1.5" stroke-miterlimit="10"/>
<path d="M15.5 20.5V18.5" stroke="#A3A3A3" stroke-width="1.5" stroke-miterlimit="10"/>
<path d="M16 5H7C5.89543 5 5 5.89543 5 7V16C5 17.1046 5.89543 18 7 18H16C17.1046 18 18 17.1046 18 16V7C18 5.89543 17.1046 5 16 5Z" stroke="#A3A3A3" stroke-width="1.5" stroke-miterlimit="10"/>
<path d="M8.5 16C9.05228 16 9.5 15.5523 9.5 15C9.5 14.4477 9.05228 14 8.5 14C7.94772 14 7.5 14.4477 7.5 15C7.5 15.5523 7.94772 16 8.5 16Z" fill="#A3A3A3"/>
<path d="M14.5 16C15.0523 16 15.5 15.5523 15.5 15C15.5 14.4477 15.0523 14 14.5 14C13.9477 14 13.5 14.4477 13.5 15C13.5 15.5523 13.9477 16 14.5 16Z" fill="#A3A3A3"/>
<path d="M5 12H18" stroke="#A3A3A3" stroke-width="1.5" stroke-miterlimit="10"/>
</svg>
