<svg width="24" height="24" viewBox="0 0 24 24" fill="none" xmlns="http://www.w3.org/2000/svg">
<path d="M9.76038 19.6133H15.1441" stroke="white" stroke-width="1.5" stroke-miterlimit="10"/>
<path d="M15.8641 8.62044C16.08 8.05167 16.1682 7.44238 16.1223 6.83574C16.0765 6.22911 15.8978 5.63998 15.5988 5.11011C15.2999 4.58024 14.8881 4.12261 14.3926 3.76963C13.8971 3.41666 13.3301 3.17699 12.7316 3.0676C12.1332 2.95822 11.518 2.9818 10.9297 3.13668C10.3413 3.29156 9.79429 3.57394 9.32727 3.96382C8.86025 4.35369 8.4847 4.84151 8.22723 5.39271C7.96977 5.94391 7.83668 6.54499 7.83742 7.15335C7.83742 7.16974 7.8421 7.1849 7.84226 7.20129C7.36341 7.47769 6.95291 7.85833 6.64121 8.315C6.3295 8.77166 6.12459 9.29263 6.04167 9.83928C5.95874 10.3859 5.99993 10.9442 6.16218 11.4728C6.32443 12.0013 6.60357 12.4866 6.97892 12.8926C7.35426 13.2986 7.81618 13.6148 8.33041 13.818C8.84465 14.0211 9.39801 14.1059 9.94947 14.066C10.5009 14.0261 11.0363 13.8626 11.516 13.5876C11.9957 13.3126 12.4073 12.9332 12.7203 12.4775C12.9181 12.9018 13.2204 13.269 13.5989 13.5446C13.9774 13.8201 14.4197 13.995 14.8842 14.0529C15.3488 14.1107 15.8205 14.0496 16.255 13.8753C16.6895 13.701 17.0726 13.4192 17.3684 13.0563C17.6642 12.6934 17.863 12.2613 17.9461 11.8005C18.0292 11.3398 17.9939 10.8655 17.8436 10.4221C17.6932 9.97875 17.4327 9.58083 17.0865 9.26569C16.7402 8.95055 16.3196 8.72855 15.8641 8.62044Z" stroke="white" stroke-width="1.5" stroke-miterlimit="10"/>
<path d="M12.4521 19.1517V12.6909" stroke="white" stroke-width="1.5" stroke-miterlimit="10"/>
</svg>
