<svg width="24" height="24" viewBox="0 0 24 24" fill="none" xmlns="http://www.w3.org/2000/svg">
<path d="M18.5507 5.44929C18.8385 5.73878 19 6.13039 19 6.53859C19 6.94679 18.8385 7.3384 18.5507 7.62789L15.8274 10.3511L17.4518 17.39C17.4547 17.4027 17.4544 17.416 17.4508 17.4285C17.4472 17.4411 17.4404 17.4525 17.4312 17.4617L15.9156 18.9773C15.9063 18.9866 15.8948 18.9934 15.8821 18.997C15.8695 19.0006 15.8562 19.0009 15.8434 18.9979C15.8306 18.9949 15.8188 18.9886 15.8091 18.9798C15.7994 18.9709 15.7922 18.9597 15.788 18.9472L13.6488 12.5297L10.3809 15.7976L10.9256 17.4316L9.8363 18.5209L8.20235 15.7976L5.47911 14.1637L6.5684 13.0744L8.20235 13.619L11.4702 10.3511L5.05269 8.21195C5.04023 8.20781 5.02904 8.20054 5.02018 8.19085C5.01131 8.18116 5.00508 8.16936 5.00206 8.15658C4.99904 8.1438 4.99934 8.13046 5.00294 8.11783C5.00653 8.1052 5.01329 8.09369 5.02258 8.08441L6.53824 6.56878C6.54748 6.55955 6.55891 6.55283 6.57146 6.54923C6.58401 6.54564 6.59727 6.54529 6.60999 6.54823L13.6488 8.17258L16.3721 5.44934C16.6616 5.16154 17.0532 5 17.4614 5C17.8696 5 18.2612 5.16154 18.5507 5.44934V5.44934" stroke="white" stroke-width="1.5" stroke-miterlimit="10"/>
</svg>
