<svg width="24" height="24" viewBox="0 0 24 24" fill="none" xmlns="http://www.w3.org/2000/svg">
<path d="M12 5H3V18H12V5Z" stroke="#A3A3A3" stroke-width="1.5" stroke-miterlimit="10"/>
<path d="M9.91663 13.75H8.41663V15.25H9.91663V13.75Z" fill="#A3A3A3"/>
<path d="M6.91663 13.75H5.41663V15.25H6.91663V13.75Z" fill="#A3A3A3"/>
<path d="M9.91663 10.75H8.41663V12.25H9.91663V10.75Z" fill="#A3A3A3"/>
<path d="M6.91663 10.75H5.41663V12.25H6.91663V10.75Z" fill="#A3A3A3"/>
<path d="M9.91663 7.75H8.41663V9.25H9.91663V7.75Z" fill="#A3A3A3"/>
<path d="M6.91663 7.75H5.41663V9.25H6.91663V7.75Z" fill="#A3A3A3"/>
<path d="M12 17.9995H21V11.6665L12 8.49951" stroke="#A3A3A3" stroke-width="1.5" stroke-miterlimit="10"/>
<path d="M18.9166 13.75H17.4166V15.25H18.9166V13.75Z" fill="#A3A3A3"/>
<path d="M15.9166 13.75H14.4166V15.25H15.9166V13.75Z" fill="#A3A3A3"/>
</svg>
