<?xml version="1.0" encoding="utf-8"?>
<!-- Generator: Adobe Illustrator 22.0.0, SVG Export Plug-In . SVG Version: 6.00 Build 0)  -->
<svg version="1.1" id="Слой_1" xmlns="http://www.w3.org/2000/svg" xmlns:xlink="http://www.w3.org/1999/xlink" x="0px" y="0px"
	 viewBox="0 0 22 19.2" style="enable-background:new 0 0 22 19.2;" xml:space="preserve">
<style type="text/css">
	.st0{fill:#18191E;}
</style>
<path class="st0" d="M19.5,13.1c-0.1,1.3-0.4,2.5-1.4,3.5s-2.2,1.3-3.5,1.4c-1.2,0.1-2.3,0.1-3.5,0.1s-2.3,0-3.5-0.1
	c-1.3-0.1-2.5-0.4-3.5-1.4s-1.3-2.2-1.4-3.5c0-1.2,0-2.3,0-3.5s0-2.3,0.1-3.5c0-1.3,0.3-2.5,1.3-3.5s2.2-1.3,3.5-1.4
	c1.2-0.1,2.3-0.1,3.5-0.1s2.3,0,3.5,0.1c1.3,0.1,2.5,0.4,3.5,1.4s1.3,2.2,1.4,3.5c0.1,1.2,0.1,2.3,0.1,3.5S19.5,11.9,19.5,13.1z
	 M6.1,3c-0.4,0.2-0.7,0.3-1,0.6C4.9,4,4.7,4.3,4.5,4.6c-0.4,1.1-0.3,3.8-0.3,5s-0.1,3.9,0.3,5c0.2,0.4,0.3,0.7,0.6,1s0.6,0.5,1,0.6
	c1.1,0.4,3.7,0.3,5,0.3s3.9,0.1,5-0.3c0.4-0.2,0.7-0.3,1-0.6s0.5-0.6,0.6-1c0.4-1.1,0.3-3.7,0.3-5s0.1-3.9-0.3-5
	c-0.2-0.4-0.3-0.7-0.6-1s-0.6-0.5-1-0.6c-1.1-0.4-3.8-0.3-5-0.3S7.2,2.6,6.1,3z M11.1,13.9c-2.4,0-4.3-1.9-4.3-4.3s1.9-4.3,4.3-4.3
	s4.3,1.9,4.3,4.3S13.5,13.9,11.1,13.9z M11.1,6.8c-1.5,0-2.8,1.3-2.8,2.8s1.3,2.8,2.8,2.8s2.8-1.3,2.8-2.8S12.6,6.8,11.1,6.8z
	 M15.6,6.1c-0.6,0-1-0.4-1-1s0.4-1,1-1s1,0.4,1,1S16.1,6.1,15.6,6.1z"/>
</svg>
