<?xml version="1.0" encoding="utf-8"?>
<!-- Generator: Adobe Illustrator 22.0.0, SVG Export Plug-In . SVG Version: 6.00 Build 0)  -->
<svg version="1.1" id="Layer_1" xmlns="http://www.w3.org/2000/svg" xmlns:xlink="http://www.w3.org/1999/xlink" x="0px" y="0px"
	 viewBox="0 0 728 437" style="enable-background:new 0 0 728 437;" xml:space="preserve">
<style type="text/css">
	.st0{fill:none;stroke:#FFFFFF;stroke-width:2;}
	.st1{fill:none;stroke:#FFFFFF;stroke-linecap:round;}
	.st2{fill:none;stroke:#FFFFFF;}
	.st3{fill:none;stroke:#FFFFFF;stroke-width:1.5;stroke-linecap:round;}
	.st4{fill:none;stroke:#FFFFFF;stroke-width:2;stroke-linecap:round;}
	.st5{fill:#FFFFFF;}
	.st6{filter:url(#Adobe_OpacityMaskFilter);}
	.st7{mask:url(#group-269-b_1_);fill:none;stroke:#FFFFFF;stroke-width:2;}
	.st8{filter:url(#Adobe_OpacityMaskFilter_1_);}
	.st9{mask:url(#group-269-b_2_);fill:none;stroke:#FFFFFF;stroke-width:2;}
	.st10{filter:url(#Adobe_OpacityMaskFilter_2_);}
	.st11{mask:url(#group-269-b_3_);fill:none;stroke:#FFFFFF;}
	.st12{filter:url(#Adobe_OpacityMaskFilter_3_);}
	.st13{mask:url(#group-269-b_4_);fill:none;stroke:#FFFFFF;stroke-width:2;}
</style>
<g>
	<path class="st0" d="M265,269h-81c-1.6,0-3-1.4-3-3s1.4-3,3-3h81 M211,269v87 M194,269l16.4,16.4"/>
	<polyline class="st0" points="256,352 256,277 376,277 376,369 	"/>
	<path class="st1" d="M308.5,296v21 M333.5,312v21 M358.5,328v21"/>
	<polyline class="st0" points="265,277 265,202 346,202 346,277 	"/>
	<path class="st2" d="M244.5,353v-20c0-6.1-10.5-16-10.5-16s-10.5,9.9-10.5,16v22"/>
	<polyline class="st0" points="184,263 184,242 226,242 	"/>
	<path class="st2" d="M247.5,263v-36c0-6.1-10.5-16-10.5-16s-10.5,9.9-10.5,16v36 M417.5,393.9v-16c0-1.7,3-7,3-7s3,5.3,3,7v16
		 M428.5,393.9v-16c0-1.7,3-7,3-7s3,5.3,3,7v16 M439.5,393.9v-16c0-1.7,3-7,3-7s3,5.3,3,7v16 M450.5,393.9v-16c0-1.7,3-7,3-7
		s3,5.3,3,7v16 M461.5,393.9v-16c0-1.7,3-7,3-7s3,5.3,3,7v16 M472.5,393.9v-16c0-1.7,3-7,3-7s3,5.3,3,7v16 M483.5,393.9v-16
		c0-1.7,3-7,3-7s3,5.3,3,7v16 M494.5,393.9v-16c0-1.7,3-7,3-7s3,5.3,3,7v16 M505.5,393.9v-16c0-1.7,3-7,3-7s3,5.3,3,7v16
		 M516.5,393.9v-16c0-1.7,3-7,3-7s3,5.3,3,7v16 M527.5,393.9v-16c0-1.7,3-7,3-7s3,5.3,3,7v16 M538.5,393.9v-16c0-1.7,3-7,3-7
		s3,5.3,3,7v16 M549.5,393.9v-16c0-1.7,3-7,3-7s3,5.3,3,7v16 M190.5,242v21 M196.5,242v21 M202.5,242v21 M208.5,242v21 M214.5,242
		v21 M220.5,242v21 M253.5,242v21 M259.5,242v21 M352.5,242v21 M358.5,242v21 M364.5,242v21 M370.5,242v21 M301.5,256v-25.6
		c0-4.3-7.5-11.4-7.5-11.4s-7.5,7.1-7.5,11.4V256H301.5z M325.5,256v-25.6c0-4.3-7.5-11.4-7.5-11.4s-7.5,7.1-7.5,11.4V256H325.5z
		 M560.5,369v-36c0-6.1-10.5-16-10.5-16s-10.5,9.9-10.5,16v36"/>
	<polygon class="st0" points="394,215 400,179 401,179 407,215 	"/>
	<polyline class="st0" points="395,263 395,215 406,215 406,263 	"/>
	<polygon class="st0" points="484,215 490,179 491,179 497,215 	"/>
	<polyline class="st0" points="485,263 485,215 496,215 496,263 	"/>
	<polyline class="st0" points="376,263 376,238 395,238 	"/>
	<polyline class="st0" points="406,238 425,238 425,263 	"/>
	<polyline class="st0" points="436,263 436,238 455,238 455,263 	"/>
	<polyline class="st0" points="466,263 466,238 485,238 	"/>
	<polyline class="st0" points="376,263 509,263 515,263 515,238 496,238 	"/>
	<path class="st2" d="M307,152.5H205c-1.6,0-3-1.4-3-3s1.4-3,3-3h102c1.6,0,3,1.4,3,3S308.6,152.5,307,152.5z M307,118.5H205
		c-1.6,0-3-1.3-3-3s1.4-3,3-3h102c1.6,0,3,1.3,3,3S308.6,118.5,307,118.5z"/>
	<polyline class="st0" points="208.2,152 211,176 302.2,176 305,152 	"/>
	<path class="st0" d="M211,176v66 M302,176v4"/>
	<path class="st2" d="M455.5,355v-36c0-6.1-10.5-16-10.5-16s-10.5,9.9-10.5,16v36H455.5z"/>
	<path class="st0" d="M346,242h30 M346,263h30 M346,269h30"/>
	<polyline class="st0" points="208,100 208,88 220,88 220,100 	"/>
	<polyline class="st0" points="229,100 229,88 241,88 241,100 	"/>
	<polyline class="st0" points="250,100 250,88 262,88 262,100 	"/>
	<polyline class="st0" points="271,100 271,88 283,88 283,100 	"/>
	<polyline class="st0" points="292,100 292,88 304,88 304,100 	"/>
	<polyline class="st0" points="208,112 208,100 304,100 304,112 	"/>
	<polygon class="st0" points="212,65 221,29 223,29 231,65 	"/>
	<polyline class="st0" points="214,88 214,65 229,65 229,88 	"/>
	<polyline class="st0" points="510,302 590,302 590,356.9 	"/>
	<polyline class="st0" points="574,302 574,285 590,285 590,302 	"/>
	<polyline class="st0" points="552,302 552,285 568,285 568,302 	"/>
	<polyline class="st0" points="530,302 530,285 546,285 546,302 	"/>
	<polyline class="st0" points="510,285 524,285 524,302 	"/>
	<path class="st0" d="M222,0v21 M226,25c0,2.2-1.8,4-4,4s-4-1.8-4-4s1.8-4,4-4S226,22.8,226,25z"/>
	<polygon class="st0" points="281,65 290,29 292,29 300,65 	"/>
	<polyline class="st0" points="283,88 283,65 298,65 298,88 	"/>
	<path class="st0" d="M291,0v21 M295,25c0,2.2-1.8,4-4,4s-4-1.8-4-4s1.8-4,4-4S295,22.8,295,25z"/>
	<polyline class="st0" points="265,202 259,202 259,181 271,181 271,190 277,190 277,181 286,181 286,190 293,190 293,181 302,181 
		302,190 309,190 309,181 318,181 318,190 325,190 325,181 334,181 334,190 340,190 340,181 352,181 352,202 346,202 	"/>
	<path class="st0" d="M331,369h237 M728,394H398 M180,394H0 M208,146v-28 M304,118v28 M509,369V263 M247.8,242h18 M376,242v35
		 M380.7,416.4c0-11.8-9.6-21.4-21.4-21.4c-11.8,0-21.4,9.6-21.4,21.4c0,0-0.2,3.4,0.8,7.5l-102.2-1.7c0.4-1.3,0.9-6.3,0.9-6.3
		c0-11.5-9.4-21-21-21s-21,9.4-21,21l0.1,2.2c0,0-3-0.3-3-0.3c-5.5-0.6-13.3-2.4-15.8-8c-1.4-3.1-0.2-6.9,0.5-10
		c0.4-1.8,0.9-3.7,2.3-5c1.9-1.7,2.1-2.8,2.1-2.8l0.1-14.2c0,0-0.6-2.1,1.9-3.4c2.5-1.3,8.2-6.8,8.2-6.8s7.6-5.5,8.9-6.3
		c0,0-2.1-2.1-0.6-3.6c0,0,0.4-0.6,5-1.2c0,0,47.2-4.7,66-4c0,0,23.4,1,35.6,6c12.1,4.9,21,8.2,39.1,18c0,0,21,2.3,40,9.1
		c0,0,11.6,4,12.1,8.3c0,0,4.4,4.2,4.4,9.3c0,5.1-0.9,11-0.9,11s0,0.8,0.6,1.3c0.6,0.6,1.3,1.7,0.9,2.1c-0.4,0.4-8.3,4.7-22.8,5.9
		L380.7,416.4z"/>
	<path class="st3" d="M278.1,359.4c0,0,16.9,0.8,27.5,5.7c0,0,12.7,5.5,17.4,8.2c0,0,5.1,2.3,5.7,2.7c0.6,0.4,0.8,0.8,0.8,1.9
		c0,1.1-1.5,4-1.5,4s-0.6,1.1-2.1,1.1s-44.7-3.6-44.7-3.6L278.1,359.4z M294.9,388.4c-4.9-0.4-9.5-0.8-12.9-1.1 M244.7,384.7
		c-4.9-0.4-9.5-0.8-12.9-1.1 M269.8,359l0.6,19.3l-35.3-3c0,0-0.8-6.4,1.1-9.1c1.9-2.7,4-5.5,4-5.5S256.7,358.3,269.8,359z"/>
	<path class="st1" d="M227.2,370.7c-2.4,3-4.2,6.2-4.2,9.8c0,3.4,0.8,6.3,2,8.8 M333.5,384.6c0.6,1.4,1.1,2.7,1.5,4.2
		c1.2,4.2,1.2,9.2,0.8,14.2"/>
	<path class="st4" d="M204.4,416.4c0,6.6,5.3,11.9,11.9,11.9c6.6,0,11.9-5.3,11.9-11.9s-5.3-11.9-11.9-11.9
		C209.8,404.4,204.4,409.8,204.4,416.4z"/>
	<path class="st4" d="M199.4,416.4c0,9.4,7.6,17,17,17c9.4,0,17-7.6,17-17s-7.6-17-17-17C207,399.4,199.4,407,199.4,416.4z"/>
	<path class="st3" d="M196.5,370.7c0,0,2.7,4.2,5.7,4.7c0,0,8.4,1.6,9.4,2.4c0.9,0.8,0.9,1.1,0.9,1.1s-1.3,1.3-3,1.7
		c-1.7,0.4-8.2,0.6-8.7,0.6s-3.6,0.2-4.6,1.5s-3.4,4.4-4,5.9l-6.4-1.1c0,0-2.7-0.8-3-2.1c-0.4-1.3-0.8-4,0-5.5
		c0.8-1.5,1.3-2.5,1.3-2.5s0.4-0.9,4.2-2.8C192.1,372.7,196.5,370.7,196.5,370.7z M372.3,389.1c0,0,11.8-0.4,17.3,1.7
		c0,0,6.5,2.6,8.4,5.6c0,0,0.2,0.6,0,1.7c-0.2,1.1-0.9,0.8-2.3,0.6c-1.3-0.2-7.4-1.3-7.4-1.3s-4-0.8-6.8-2.7
		C378.6,392.8,372.3,389.1,372.3,389.1z"/>
	<path class="st1" d="M274.2,359.3c1.7,19.4,1.6,38.6,2,58.1"/>
	<path class="st4" d="M303,436h84.8 M156.5,436h75 M119.9,436h20.5 M94,436h11.6 M347.3,416.4c0,6.6,5.3,11.9,11.9,11.9
		c6.6,0,11.9-5.3,11.9-11.9s-5.3-11.9-11.9-11.9C352.6,404.4,347.3,409.8,347.3,416.4z"/>
	<path class="st4" d="M342.3,416.4c0,9.4,7.6,17,17,17c9.4,0,17-7.6,17-17s-7.6-17-17-17C349.9,399.4,342.3,407,342.3,416.4z"/>
	<path class="st0" d="M696.7,393.2c0.9-2.2,1.3-4.6,1.3-7.2c0-8.9-5.8-16.3-13.4-17.7c0.3-0.9,0.4-1.8,0.4-2.8c0-2.6-1-5-2.7-6.8
		 M575,369c0.1-0.7,0.2-1.3,0.4-2c1.5-5.7,7.2-10,14.1-10c2.3,0,4.6,0.5,6.5,1.4c0-0.1,0-0.3,0-0.4c0-5.2,3.3-9.6,7.9-11.3"/>
	<path class="st0" d="M640.7,342.9c3.9-6.8,11.2-11.4,19.6-11.4c12.5,0,22.5,10.1,22.5,22.5c0,12.5-10.1,22.5-22.5,22.5
		c-9.4,0-17.5-5.8-20.9-14"/>
	<path class="st3" d="M665.9,356.6l-5.8,5.6 M651.5,360.4l8.8,8.6"/>
	<path class="st4" d="M660,352.9V394"/>
	<path class="st0" d="M637,337.9c-1.5-1.7-1.6-4.5-0.3-6.2c0,0,3.3-4.4,3.3-9.5c0-6.4-5.9-12.1-5.9-12.1c-1.6-1.5-1.8-4.2-0.5-6
		c0,0,1.8-2.5,1.8-6.2c0-7-5.7-12.6-12.6-12.6c-7,0-12.6,5.7-12.6,12.6c0,3.7,1.8,6.2,1.8,6.2c1.3,1.8,1.1,4.5-0.5,6
		c0,0-5.9,5.7-5.9,12.1c0,5,3.3,9.5,3.3,9.5c1.3,1.8,1.2,4.6-0.3,6.2c0,0-5.7,6.5-5.7,13.2c0,11,8.9,19.8,19.8,19.8
		c11,0,19.8-8.9,19.8-19.8C642.7,344.4,637,337.9,637,337.9z"/>
	<path class="st3" d="M622.9,362.8l5.4-5.4 M622.9,332.2l5.4-5.4 M622.9,348.4l-5.4-5.4"/>
	<g transform="translate(622 319)">
		<path class="st5" d="M1,0.2V75"/>
		<path class="st4" d="M1,0.2V75"/>
	</g>
	<path class="st0" d="M183.1,374.6c-1.7-2.9-4.1-5.3-7-7.2 M139.3,362.4c-0.8-0.2-1.7-0.4-2.7-0.4c-4.4,0-8.1,2.9-9.1,6.7
		c-1-0.3-2-0.4-3.1-0.4c-3.1,0-5.9,1.3-7.8,3.3"/>
	<path class="st0" d="M172.5,337c0.8-1.8,1.2-3.9,1.2-6c0-8.3-6.7-15-15-15c-8.3,0-15,6.7-15,15c0,2.1,0.4,4.1,1.2,6
		c-4.7,3.9-7.7,9.9-7.7,16.5c0,11.9,9.6,21.5,21.5,21.5c11.9,0,21.5-9.6,21.5-21.5C180.3,346.9,177.2,340.9,172.5,337z"/>
	<path class="st3" d="M164.9,351.6l-5.8,5.6 M150.5,355.4l8.8,8.6"/>
	<path class="st4" d="M159,347v47"/>
	<path class="st0" d="M24.9,307.6c0-4.9,4-8.9,8.9-8.9c4.9,0,8.9,4,8.9,8.9 M21.3,307.6h24.3"/>
	<polyline class="st0" points="26.7,307.6 28.5,325.7 39.3,325.7 41.1,307.6 	"/>
	<path class="st0" d="M33.9,325.7v37.9"/>
	<polygon class="st0" points="28.5,393.3 32.1,363.5 35.7,363.5 39.3,393.3 	"/>
	<path class="st0" d="M53,386h67 M61,386v8 M112,386v8"/>
	<defs>
		<filter id="Adobe_OpacityMaskFilter" filterUnits="userSpaceOnUse" x="56" y="376" width="61" height="7">
			<feColorMatrix  type="matrix" values="1 0 0 0 0  0 1 0 0 0  0 0 1 0 0  0 0 0 1 0"/>
		</filter>
	</defs>
	<mask maskUnits="userSpaceOnUse" x="56" y="376" width="61" height="7" id="group-269-b_1_">
		<g class="st6">
			<polygon id="group-269-a_1_" class="st5" points="0,437 728,437 728,0 0,0 			"/>
		</g>
	</mask>
	<polygon class="st7" points="57,382 116,382 116,377 57,377 	"/>
	<defs>
		<filter id="Adobe_OpacityMaskFilter_1_" filterUnits="userSpaceOnUse" x="56" y="368" width="61" height="7">
			<feColorMatrix  type="matrix" values="1 0 0 0 0  0 1 0 0 0  0 0 1 0 0  0 0 0 1 0"/>
		</filter>
	</defs>
	<mask maskUnits="userSpaceOnUse" x="56" y="368" width="61" height="7" id="group-269-b_2_">
		<g class="st8">
			<polygon id="group-269-a_2_" class="st5" points="0,437 728,437 728,0 0,0 			"/>
		</g>
	</mask>
	<polygon class="st9" points="57,374 116,374 116,369 57,369 	"/>
	<defs>
		<filter id="Adobe_OpacityMaskFilter_2_" filterUnits="userSpaceOnUse" x="351.1" y="370" width="61.9" height="24">
			<feColorMatrix  type="matrix" values="1 0 0 0 0  0 1 0 0 0  0 0 1 0 0  0 0 0 1 0"/>
		</filter>
	</defs>
	<mask maskUnits="userSpaceOnUse" x="351.1" y="370" width="61.9" height="24" id="group-269-b_3_">
		<g class="st10">
			<polygon id="group-269-a_3_" class="st5" points="0,437 728,437 728,0 0,0 			"/>
		</g>
	</mask>
	<path class="st11" d="M351.6,377.4c0.5-2,2.9-6.4,2.9-6.4s3,5.3,3,7 M362.5,378.9v-1c0-1.7,3-7,3-7s3,5.3,3,7v3 M373.5,381.9v-4
		c0-1.7,3-7,3-7s3,5.3,3,7v5 M384.5,384.9v-7c0-1.7,3-7,3-7s3,5.3,3,7v9 M395.5,389.9v-12c0-1.7,3-7,3-7s3,5.3,3,7v16 M406.5,393.9
		v-16c0-1.7,3-7,3-7s3,5.3,3,7v16"/>
	<defs>
		<filter id="Adobe_OpacityMaskFilter_3_" filterUnits="userSpaceOnUse" x="554" y="367" width="21" height="27.3">
			<feColorMatrix  type="matrix" values="1 0 0 0 0  0 1 0 0 0  0 0 1 0 0  0 0 0 1 0"/>
		</filter>
	</defs>
	<mask maskUnits="userSpaceOnUse" x="554" y="367" width="21" height="27.3" id="group-269-b_4_">
		<g class="st12">
			<polygon id="group-269-a_4_" class="st5" points="0,437 728,437 728,0 0,0 			"/>
		</g>
	</mask>
	<path class="st13" d="M556.3,393.9c-0.8-2.1-1.3-4.5-1.3-6.9c0-10.5,8.3-19,18.5-19c0.5,0,1,0,1.5,0.1"/>
</g>
</svg>
