<svg xmlns="http://www.w3.org/2000/svg" xmlns:xlink="http://www.w3.org/1999/xlink" width="728" height="437" viewBox="0 0 728 437">
  <defs>
    <polygon id="group-269-a" points="0 437 728 437 728 0 0 0"/>
  </defs>
  <g fill="none" fill-rule="evenodd">
    <path stroke="#2749FF" stroke-width="2" d="M265 269L184 269C182.35 269 181 267.65 181 266 181 264.35 182.35 263 184 263L265 263M211 269L211 356M194 269L210.375 285.375"/>
    <polyline stroke="#2749FF" stroke-width="2" points="256 352 256 277 376 277 376 369"/>
    <path stroke="#2749FF" stroke-linecap="round" d="M308.5 296L308.5 317M333.5 312L333.5 333M358.5 328L358.5 349"/>
    <polyline stroke="#2749FF" stroke-width="2" points="265 277 265 202 346 202 346 277"/>
    <path stroke="#2749FF" d="M244.5,353 L244.5,333 C244.5,326.925 234,317 234,317 C234,317 223.5,326.925 223.5,333 L223.5,355"/>
    <polyline stroke="#2749FF" stroke-width="2" points="184 263 184 242 226 242"/>
    <path stroke="#2749FF" d="M247.5 263L247.5 227C247.5 220.925 237 211 237 211 237 211 226.5 220.925 226.5 227L226.5 263M417.5 393.9375L417.5 377.9815C417.5 376.3295 420.5 371.0005 420.5 371.0005 420.5 371.0005 423.5 376.3295 423.5 377.9815L423.5 393.9995M428.5 393.9375L428.5 377.9815C428.5 376.3295 431.5 371.0005 431.5 371.0005 431.5 371.0005 434.5 376.3295 434.5 377.9815L434.5 393.9995M439.5 393.9375L439.5 377.9815C439.5 376.3295 442.5 371.0005 442.5 371.0005 442.5 371.0005 445.5 376.3295 445.5 377.9815L445.5 393.9995M450.5 393.9375L450.5 377.9815C450.5 376.3295 453.5 371.0005 453.5 371.0005 453.5 371.0005 456.5 376.3295 456.5 377.9815L456.5 393.9995M461.5 393.9375L461.5 377.9815C461.5 376.3295 464.5 371.0005 464.5 371.0005 464.5 371.0005 467.5 376.3295 467.5 377.9815L467.5 393.9995M472.5 393.9375L472.5 377.9815C472.5 376.3295 475.5 371.0005 475.5 371.0005 475.5 371.0005 478.5 376.3295 478.5 377.9815L478.5 393.9995M483.5 393.9375L483.5 377.9815C483.5 376.3295 486.5 371.0005 486.5 371.0005 486.5 371.0005 489.5 376.3295 489.5 377.9815L489.5 393.9995M494.5 393.9375L494.5 377.9815C494.5 376.3295 497.5 371.0005 497.5 371.0005 497.5 371.0005 500.5 376.3295 500.5 377.9815L500.5 393.9995M505.5 393.9375L505.5 377.9815C505.5 376.3295 508.5 371.0005 508.5 371.0005 508.5 371.0005 511.5 376.3295 511.5 377.9815L511.5 393.9995M516.5 393.9375L516.5 377.9815C516.5 376.3295 519.5 371.0005 519.5 371.0005 519.5 371.0005 522.5 376.3295 522.5 377.9815L522.5 393.9995M527.5 393.9375L527.5 377.9815C527.5 376.3295 530.5 371.0005 530.5 371.0005 530.5 371.0005 533.5 376.3295 533.5 377.9815L533.5 393.9995M538.5 393.9375L538.5 377.9815C538.5 376.3295 541.5 371.0005 541.5 371.0005 541.5 371.0005 544.5 376.3295 544.5 377.9815L544.5 393.9995M549.5 393.9375L549.5 377.9815C549.5 376.3295 552.5 371.0005 552.5 371.0005 552.5 371.0005 555.5 376.3295 555.5 377.9815L555.5 393.9995M190.5 242L190.5 263M196.5 242L196.5 263M202.5 242L202.5 263M208.5 242L208.5 263M214.5 242L214.5 263M220.5 242L220.5 263M253.5 242L253.5 263M259.5 242L259.5 263M352.5 242L352.5 263M358.5 242L358.5 263M364.5 242L364.5 263M370.5 242L370.5 263M301.5 256L301.5 230.385C301.5 226.062 294 219 294 219 294 219 286.5 226.062 286.5 230.385L286.5 256 301.5 256zM325.5 256L325.5 230.385C325.5 226.062 318 219 318 219 318 219 310.5 226.062 310.5 230.385L310.5 256 325.5 256zM560.5 369L560.5 333C560.5 326.925 550 317 550 317 550 317 539.5 326.925 539.5 333L539.5 369"/>
    <polygon stroke="#2749FF" stroke-width="2" points="394 215 400 179 401 179 407 215"/>
    <polyline stroke="#2749FF" stroke-width="2" points="395 263 395 215 406 215 406 263"/>
    <polygon stroke="#2749FF" stroke-width="2" points="484 215 490 179 491 179 497 215"/>
    <polyline stroke="#2749FF" stroke-width="2" points="485 263 485 215 496 215 496 263"/>
    <polyline stroke="#2749FF" stroke-width="2" points="376 263 376 238 395 238"/>
    <polyline stroke="#2749FF" stroke-width="2" points="406 238 425 238 425 263"/>
    <polyline stroke="#2749FF" stroke-width="2" points="436 263 436 238 455 238 455 263"/>
    <polyline stroke="#2749FF" stroke-width="2" points="466 263 466 238 485 238"/>
    <polyline stroke="#2749FF" stroke-width="2" points="376 263 509 263 515 263 515 238 496 238"/>
    <path stroke="#2749FF" d="M307 152.5L205 152.5C203.35 152.5 202 151.15 202 149.5 202 147.85 203.35 146.5 205 146.5L307 146.5C308.65 146.5 310 147.85 310 149.5 310 151.15 308.65 152.5 307 152.5zM307 118.5L205 118.5C203.35 118.5 202 117.15 202 115.5 202 113.85 203.35 112.5 205 112.5L307 112.5C308.65 112.5 310 113.85 310 115.5 310 117.15 308.65 118.5 307 118.5z"/>
    <polyline stroke="#2749FF" stroke-width="2" points="208.25 152 211 176 302.25 176 305 152"/>
    <path stroke="#2749FF" stroke-width="2" d="M211 176L211 242M302 176L302 180"/>
    <path stroke="#2749FF" d="M455.5,355 L455.5,319 C455.5,312.925 445,303 445,303 C445,303 434.5,312.925 434.5,319 L434.5,355 L455.5,355 Z"/>
    <path stroke="#2749FF" stroke-width="2" d="M346 242L376 242M346 263L376 263M346 269L376 269"/>
    <polyline stroke="#2749FF" stroke-width="2" points="208 100 208 88 220 88 220 100"/>
    <polyline stroke="#2749FF" stroke-width="2" points="229 100 229 88 241 88 241 100"/>
    <polyline stroke="#2749FF" stroke-width="2" points="250 100 250 88 262 88 262 100"/>
    <polyline stroke="#2749FF" stroke-width="2" points="271 100 271 88 283 88 283 100"/>
    <polyline stroke="#2749FF" stroke-width="2" points="292 100 292 88 304 88 304 100"/>
    <polyline stroke="#2749FF" stroke-width="2" points="208 112 208 100 304 100 304 112"/>
    <polygon stroke="#2749FF" stroke-width="2" points="212 65 221 29 223 29 231 65"/>
    <polyline stroke="#2749FF" stroke-width="2" points="214 88 214 65 229 65 229 88"/>
    <polyline stroke="#2749FF" stroke-width="2" points="510 302 590 302 590 356.938"/>
    <polyline stroke="#2749FF" stroke-width="2" points="574 302 574 285 590 285 590 302"/>
    <polyline stroke="#2749FF" stroke-width="2" points="552 302 552 285 568 285 568 302"/>
    <polyline stroke="#2749FF" stroke-width="2" points="530 302 530 285 546 285 546 302"/>
    <polyline stroke="#2749FF" stroke-width="2" points="510 285 524 285 524 302"/>
    <path stroke="#2749FF" stroke-width="2" d="M222 0L222 21M226 25C226 27.209 224.209 29 222 29 219.791 29 218 27.209 218 25 218 22.791 219.791 21 222 21 224.209 21 226 22.791 226 25z"/>
    <polygon stroke="#2749FF" stroke-width="2" points="281 65 290 29 292 29 300 65"/>
    <polyline stroke="#2749FF" stroke-width="2" points="283 88 283 65 298 65 298 88"/>
    <path stroke="#2749FF" stroke-width="2" d="M291 0L291 21M295 25C295 27.209 293.209 29 291 29 288.791 29 287 27.209 287 25 287 22.791 288.791 21 291 21 293.209 21 295 22.791 295 25z"/>
    <polyline stroke="#2749FF" stroke-width="2" points="265 202 259 202 259 181 271 181 271 190 277 190 277 181 286 181 286 190 293 190 293 181 302 181 302 190 309 190 309 181 318 181 318 190 325 190 325 181 334 181 334 190 340 190 340 181 352 181 352 202 346 202"/>
    <path stroke="#2749FF" stroke-width="2" d="M331 369L568 369M728 394L398 394M180 394L0 394M208 146L208 118M304 118L304 146M509 369L509 263M247.75 242L265.75 242M376 242L376 277M380.6733 416.3525C380.6733 404.5645 371.0283 394.9185 359.2393 394.9185 347.4513 394.9185 337.8063 404.5645 337.8063 416.3525 337.8063 416.3525 337.6493 419.7975 338.6213 423.8795L236.4233 422.1735C236.8483 420.8505 237.3373 415.9065 237.3373 415.9065 237.3373 404.3635 227.8923 394.9185 216.3493 394.9185 204.8063 394.9185 195.3623 404.3635 195.3623 415.9065L195.4523 418.1385C195.4523 418.1385 192.4973 417.8095 192.4963 417.8095 186.9853 417.1975 179.1783 415.4235 176.7323 409.8325 175.3613 406.6995 176.5313 402.9665 177.2283 399.8635 177.6293 398.0815 178.1303 396.1395 179.5403 394.8715 181.4363 393.1645 181.6813 392.0265 181.6813 392.0265L181.8163 377.8055C181.8163 377.8055 181.2473 375.7195 183.7123 374.3925 186.1763 373.0655 191.8653 367.5675 191.8653 367.5675 191.8653 367.5675 199.4493 362.0685 200.7763 361.3095 200.7763 361.3095 198.6913 359.2245 200.2073 357.7065 200.2073 357.7065 200.5873 357.1385 205.2323 356.4745 205.2323 356.4745 252.4443 351.7345 271.2153 352.4935 271.2153 352.4935 294.6323 353.5365 306.7673 358.4655 318.9023 363.3955 327.8133 366.6195 345.8263 376.4785 345.8263 376.4785 366.8723 378.7535 385.8333 385.5805 385.8333 385.5805 397.3993 389.5615 397.9683 393.9215 397.9683 393.9215 402.3293 398.0935 402.3293 403.2125 402.3293 408.3315 401.3813 414.2095 401.3813 414.2095 401.3813 414.2095 401.3813 414.9685 401.9493 415.5375 402.5183 416.1065 403.2773 417.2445 402.8983 417.6235 402.5183 418.0025 394.5553 422.3635 380.1453 423.5005L380.6733 416.3525z"/>
    <path stroke="#2749FF" stroke-linecap="round" stroke-width="1.5" d="M278.1362 359.4141C278.1362 359.4141 295.0112 360.1721 305.6292 365.1011 305.6292 365.1011 318.3332 370.6011 323.0732 373.2551 323.0732 373.2551 328.1932 375.5301 328.7612 375.9091 329.3302 376.2891 329.5202 376.6681 329.5202 377.8061 329.5202 378.9431 328.0032 381.7871 328.0032 381.7871 328.0032 381.7871 327.4342 382.9251 325.9172 382.9251 324.4002 382.9251 281.1702 379.3221 281.1702 379.3221L278.1362 359.4141zM294.8711 388.4482C290.0161 388.0492 285.4041 387.6682 281.9831 387.3842M244.7046 384.6553C239.8506 384.2573 235.2376 383.8753 231.8176 383.5923M269.7935 359.0342L270.3625 378.3752 235.0955 375.3412C235.0955 375.3412 234.3365 368.8942 236.2325 366.2392 238.1295 363.5852 240.2145 360.7412 240.2145 360.7412 240.2145 360.7412 256.7105 358.2762 269.7935 359.0342z"/>
    <path stroke="#2749FF" stroke-linecap="round" d="M227.1841 370.707C224.8011 373.697 222.9601 376.917 222.9601 380.461 222.9611 383.86 223.7101 386.722 224.9261 389.31M333.5107 384.5527C334.0767 385.9177 334.5927 387.3007 334.9867 388.7287 336.1377 392.9007 336.2367 397.8837 335.7577 402.9287"/>
    <path stroke="#2749FF" stroke-linecap="round" stroke-width="2" d="M204.416,416.3525 C204.416,422.9435 209.759,428.2865 216.35,428.2865 C222.94,428.2865 228.283,422.9435 228.283,416.3525 C228.283,409.7615 222.94,404.4185 216.35,404.4185 C209.759,404.4185 204.416,409.7615 204.416,416.3525 Z"/>
    <path stroke="#2749FF" stroke-linecap="round" stroke-width="2" d="M199.3813,416.3525 C199.3813,425.7235 206.9783,433.3215 216.3493,433.3215 C225.7213,433.3215 233.3183,425.7235 233.3183,416.3525 C233.3183,406.9815 225.7213,399.3845 216.3493,399.3845 C206.9783,399.3845 199.3813,406.9815 199.3813,416.3525 Z"/>
    <path stroke="#2749FF" stroke-linecap="round" stroke-width="1.5" d="M196.5103 370.6953C196.5103 370.6953 199.1653 374.8673 202.1983 375.4353 202.1983 375.4353 210.6363 377.0473 211.5843 377.8053 212.5323 378.5643 212.5323 378.9433 212.5323 378.9433 212.5323 378.9433 211.2053 380.2703 209.4983 380.6493 207.7923 381.0293 201.3453 381.2183 200.7763 381.2183 200.2073 381.2183 197.1743 381.4083 196.2263 382.7353 195.2783 384.0623 192.8133 387.0963 192.2443 388.6133L185.7973 387.4753C185.7973 387.4753 183.1433 386.7163 182.7633 385.3893 182.3853 384.0623 182.0053 381.4083 182.7633 379.8913 183.5223 378.3753 184.0913 377.4263 184.0913 377.4263 184.0913 377.4263 184.4703 376.4783 188.2623 374.5823 192.0543 372.6863 196.5103 370.6953 196.5103 370.6953zM372.2764 389.0869C372.2764 389.0869 384.0324 388.7079 389.5304 390.7939 389.5304 390.7939 396.0724 393.3539 397.9684 396.3879 397.9684 396.3879 398.1574 396.9559 397.9684 398.0939 397.7784 399.2319 397.0204 398.8529 395.6934 398.6619 394.3654 398.4729 388.2984 397.3349 388.2984 397.3349 388.2984 397.3349 384.3164 396.5769 381.4724 394.6809 378.6284 392.7849 372.2764 389.0869 372.2764 389.0869z"/>
    <path stroke="#2749FF" stroke-linecap="round" d="M274.2495,359.3193 C275.9325,378.7653 275.8535,397.9653 276.2525,417.4333"/>
    <path stroke="#2749FF" stroke-linecap="round" stroke-width="2" d="M302.9771 436L387.8181 436M156.5146 436L231.5316 436M119.8989 436L140.4399 436M94 436L105.61 436M347.3062 416.3525C347.3062 422.9435 352.6492 428.2865 359.2402 428.2865 365.8302 428.2865 371.1732 422.9435 371.1732 416.3525 371.1732 409.7615 365.8302 404.4185 359.2402 404.4185 352.6492 404.4185 347.3062 409.7615 347.3062 416.3525z"/>
    <path stroke="#2749FF" stroke-linecap="round" stroke-width="2" d="M342.2715,416.3525 C342.2715,425.7235 349.8685,433.3215 359.2395,433.3215 C368.6115,433.3215 376.2085,425.7235 376.2085,416.3525 C376.2085,406.9815 368.6115,399.3845 359.2395,399.3845 C349.8685,399.3845 342.2715,406.9815 342.2715,416.3525 Z"/>
    <path stroke="#2749FF" stroke-width="2" d="M696.6621 393.2158C697.5221 391.0068 698.0001 388.5668 698.0001 385.9998 698.0001 377.0588 692.1991 369.6598 684.6031 368.2588 684.8541 367.3788 685.0001 366.4568 685.0001 365.4998 685.0001 362.8858 683.9991 360.4948 682.3441 358.6568M575 369C575.106 368.306 575.233 367.653 575.413 366.976 576.932 361.256 582.655 357 589.5 357 591.848 357 594.058 357.512 596.02 358.4 596.016 358.266 596 358.135 596 358 596 352.813 599.291 348.396 603.897 346.72"/>
    <path stroke="#2749FF" stroke-width="2" d="M640.6675,342.9287 C644.5545,336.1477 651.8645,331.5777 660.2415,331.5777 C672.6925,331.5777 682.7865,341.6717 682.7865,354.1227 C682.7865,366.5747 672.6925,376.6687 660.2415,376.6687 C650.8205,376.6687 642.7495,370.8897 639.3785,362.6847"/>
    <path stroke="#2749FF" stroke-linecap="round" stroke-width="1.5" d="M665.8774 356.6289L660.0324 362.2649M651.4736 360.3857L660.2416 368.9447"/>
    <path stroke="#2749FF" stroke-linecap="round" stroke-width="2" d="M660,352.8711 L660,394.0001"/>
    <path stroke="#2749FF" stroke-width="2" d="M637.0034,337.9463 C635.5504,336.2943 635.4314,333.4943 636.7374,331.7243 C636.7374,331.7243 640.0084,327.2933 640.0084,322.2563 C640.0084,315.8423 634.1284,310.1153 634.1284,310.1153 C632.5524,308.5803 632.3404,305.8823 633.6584,304.1203 C633.6584,304.1203 635.5004,301.6553 635.5004,297.9073 C635.5004,290.9343 629.8474,285.2823 622.8744,285.2823 C615.9014,285.2823 610.2494,290.9343 610.2494,297.9073 C610.2494,301.6553 612.0914,304.1203 612.0914,304.1203 C613.4084,305.8823 613.1964,308.5803 611.6204,310.1153 C611.6204,310.1153 605.7404,315.8423 605.7404,322.2563 C605.7404,327.2933 609.0114,331.7243 609.0114,331.7243 C610.3184,333.4943 610.1984,336.2943 608.7454,337.9463 C608.7454,337.9463 603.0354,344.4393 603.0354,351.1133 C603.0354,362.0703 611.9174,370.9533 622.8744,370.9533 C633.8324,370.9533 642.7144,362.0703 642.7144,351.1133 C642.7144,344.4393 637.0034,337.9463 637.0034,337.9463 Z"/>
    <path stroke="#2749FF" stroke-linecap="round" stroke-width="1.5" d="M622.8745 362.8369L628.2855 357.4259M622.8745 332.1758L628.2855 326.7648M622.8745 348.4082L617.4635 342.9972"/>
    <g transform="translate(622 319)">
      <path fill="#FFF" d="M1,0.1504 L1,75.0004"/>
      <path stroke="#2749FF" stroke-linecap="round" stroke-width="2" d="M1,0.1504 L1,75.0004"/>
    </g>
    <path stroke="#2749FF" stroke-width="2" d="M183.1411 374.6406C181.4221 371.7526 179.0061 369.2916 176.1121 367.4666M139.2705 362.3662C138.4205 362.1312 137.5225 362.0002 136.5905 362.0002 132.1565 362.0002 128.4475 364.8652 127.4505 368.7192 126.4725 368.4302 125.4335 368.2752 124.3535 368.2752 121.2635 368.2752 118.4885 369.5482 116.5915 371.5642"/>
    <path stroke="#2749FF" stroke-width="2" d="M172.5034,336.9795 C173.3014,335.1465 173.7504,333.1265 173.7504,331.0005 C173.7504,322.7155 167.0344,316.0005 158.7504,316.0005 C150.4654,316.0005 143.7504,322.7155 143.7504,331.0005 C143.7504,333.1265 144.1984,335.1465 144.9964,336.9795 C140.2644,340.9235 137.2504,346.8585 137.2504,353.5005 C137.2504,365.3745 146.8764,375.0005 158.7504,375.0005 C170.6244,375.0005 180.2504,365.3745 180.2504,353.5005 C180.2504,346.8585 177.2354,340.9235 172.5034,336.9795 Z"/>
    <path stroke="#2749FF" stroke-linecap="round" stroke-width="1.5" d="M164.8774 351.6289L159.0324 357.2649M150.4736 355.3857L159.2416 363.9447"/>
    <path stroke="#2749FF" stroke-linecap="round" stroke-width="2" d="M159,347 L159,394"/>
    <path stroke="#2749FF" stroke-width="2" d="M24.8936 307.6309C24.8936 302.7269 28.8696 298.7509 33.7726 298.7509 38.6766 298.7509 42.6526 302.7269 42.6526 307.6309M21.2866 307.6309L45.6356 307.6309"/>
    <polyline stroke="#2749FF" stroke-width="2" points="26.697 307.631 28.501 325.667 39.322 325.667 41.126 307.631"/>
    <path stroke="#2749FF" stroke-width="2" d="M33.9116,325.667 L33.9116,363.542"/>
    <polygon stroke="#2749FF" stroke-width="2" points="28.501 393.302 32.108 363.542 35.715 363.542 39.323 393.302"/>
    <path stroke="#2749FF" stroke-width="2" d="M53 386L120 386M61 386L61 394M112 386L112 394"/>
    <mask id="group-269-b" fill="#fff">
      <use xlink:href="#group-269-a"/>
    </mask>
    <polygon stroke="#2749FF" stroke-width="2" points="57 382 116 382 116 377 57 377" mask="url(#group-269-b)"/>
    <polygon stroke="#2749FF" stroke-width="2" points="57 374 116 374 116 369 57 369" mask="url(#group-269-b)"/>
    <path stroke="#2749FF" d="M351.5728 377.4326C352.0308 375.3846 354.4998 370.9996 354.4998 370.9996 354.4998 370.9996 357.4998 376.3286 357.4998 377.9816M362.5 378.9375L362.5 377.9815C362.5 376.3295 365.5 371.0005 365.5 371.0005 365.5 371.0005 368.5 376.3295 368.5 377.9815L368.5 381.0005M373.5 381.9375L373.5 377.9815C373.5 376.3295 376.5 370.9995 376.5 370.9995 376.5 370.9995 379.5 376.3295 379.5 377.9815L379.5 382.9995M384.5 384.9375L384.5 377.9815C384.5 376.3295 387.5 370.9995 387.5 370.9995 387.5 370.9995 390.5 376.3295 390.5 377.9815L390.5 387.0005M395.5 389.9375L395.5 377.9815C395.5 376.3295 398.5 371.0005 398.5 371.0005 398.5 371.0005 401.5 376.3295 401.5 377.9815L401.5 393.9995M406.5 393.9375L406.5 377.9815C406.5 376.3295 409.5 371.0005 409.5 371.0005 409.5 371.0005 412.5 376.3295 412.5 377.9815L412.5 393.9995" mask="url(#group-269-b)"/>
    <path stroke="#2749FF" stroke-width="2" d="M556.2583,393.9014 C555.4463,391.7614 555.0003,389.4344 555.0003,387.0004 C555.0003,376.5064 563.2823,368.0004 573.5003,368.0004 C573.9933,368.0004 574.4823,368.0194 574.9663,368.0584" mask="url(#group-269-b)"/>
  </g>
</svg>
