<svg xmlns="http://www.w3.org/2000/svg" xmlns:xlink="http://www.w3.org/1999/xlink" width="1431" height="478" viewBox="0 0 1431 478">
  <defs>
    <polygon id="main-illustration3-a" points="0 478 1431 478 1431 0 0 0"/>
  </defs>
  <g fill="none" fill-rule="evenodd">
    <path stroke="#2749FF" d="M98.5,211 L98.5,221"/>
    <polygon stroke="#2749FF" points="115.5 285.5 142.5 285.5 142.5 247.5 115.5 247.5"/>
    <path stroke="#2749FF" d="M143.5,361.5 L115.5,361.5 L115.5,321 C115.5,313.544 121.544,307.5 129,307.5 L130,307.5 C137.456,307.5 143.5,313.544 143.5,321 L143.5,361.5 Z"/>
    <path stroke="#2749FF" stroke-width="2" d="M39.8936 308.6309C39.8936 303.7269 43.8696 299.7509 48.7726 299.7509 53.6766 299.7509 57.6526 303.7269 57.6526 308.6309M36.2866 308.6309L60.6356 308.6309"/>
    <polyline stroke="#2749FF" stroke-width="2" points="41.697 308.631 43.501 326.667 54.322 326.667 56.126 308.631"/>
    <path stroke="#2749FF" stroke-width="2" d="M48.9116,326.667 L48.9116,364.542"/>
    <polygon stroke="#2749FF" stroke-width="2" points="43.501 394.302 47.108 364.542 50.715 364.542 54.323 394.302"/>
    <mask id="main-illustration3-b" fill="#fff">
      <use xlink:href="#main-illustration3-a"/>
    </mask>
    <polygon stroke="#2749FF" points="196.5 393.5 246.5 393.5 246.5 389.5 196.5 389.5" mask="url(#main-illustration3-b)"/>
    <path stroke="#2749FF" d="M129.5 307.5L129.5 361.5M115.5 327.3779L143.5 327.3779" mask="url(#main-illustration3-b)"/>
    <polygon stroke="#2749FF" stroke-width="2" points="90 211 260 211 260 204 90 204" mask="url(#main-illustration3-b)"/>
    <polygon stroke="#2749FF" points="113.5 289.5 144.5 289.5 144.5 285.5 113.5 285.5" mask="url(#main-illustration3-b)"/>
    <polyline stroke="#2749FF" stroke-width="2" points="956 369 1378 369 1378 394 943 394" mask="url(#main-illustration3-b)"/>
    <path stroke="#2749FF" d="M970.5 393.9375L970.5 377.9815C970.5 376.3295 973.5 371.0005 973.5 371.0005 973.5 371.0005 976.5 376.3295 976.5 377.9815L976.5 393.9995M981.5 393.9375L981.5 377.9815C981.5 376.3295 984.5 371.0005 984.5 371.0005 984.5 371.0005 987.5 376.3295 987.5 377.9815L987.5 393.9995" mask="url(#main-illustration3-b)"/>
    <path stroke="#2749FF" stroke-width="2" d="M1027 269L946 269C944.35 269 943 267.65 943 266 943 264.35 944.35 263 946 263L1027 263M973 269L973 369M956 269L972.375 285.375" mask="url(#main-illustration3-b)"/>
    <polyline stroke="#2749FF" stroke-width="2" points="1018 369 1018 277 1138 277 1138 369" mask="url(#main-illustration3-b)"/>
    <path stroke="#2749FF" stroke-linecap="round" d="M1070.5 296L1070.5 317M1095.5 312L1095.5 333M1120.5 328L1120.5 349" mask="url(#main-illustration3-b)"/>
    <polyline stroke="#2749FF" stroke-width="2" points="1027 277 1027 202 1108 202 1108 277" mask="url(#main-illustration3-b)"/>
    <path stroke="#2749FF" d="M992.5 393.9375L992.5 377.9815C992.5 376.3295 995.5 371.0005 995.5 371.0005 995.5 371.0005 998.5 376.3295 998.5 377.9815L998.5 393.9995M1003.5 393.9375L1003.5 377.9815C1003.5 376.3295 1006.5 371.0005 1006.5 371.0005 1006.5 371.0005 1009.5 376.3295 1009.5 377.9815L1009.5 393.9995M1014.5 393.9375L1014.5 377.9815C1014.5 376.3295 1017.5 371.0005 1017.5 371.0005 1017.5 371.0005 1020.5 376.3295 1020.5 377.9815L1020.5 393.9995M1025.5 393.9375L1025.5 377.9815C1025.5 376.3295 1028.5 371.0005 1028.5 371.0005 1028.5 371.0005 1031.5 376.3295 1031.5 377.9815L1031.5 393.9995M1036.5 393.9375L1036.5 377.9815C1036.5 376.3295 1039.5 371.0005 1039.5 371.0005 1039.5 371.0005 1042.5 376.3295 1042.5 377.9815L1042.5 393.9995M1047.5 393.9375L1047.5 377.9815C1047.5 376.3295 1050.5 371.0005 1050.5 371.0005 1050.5 371.0005 1053.5 376.3295 1053.5 377.9815L1053.5 393.9995M1058.5 393.9375L1058.5 377.9815C1058.5 376.3295 1061.5 371.0005 1061.5 371.0005 1061.5 371.0005 1064.5 376.3295 1064.5 377.9815L1064.5 393.9995M1069.5 393.9375L1069.5 377.9815C1069.5 376.3295 1072.5 371.0005 1072.5 371.0005 1072.5 371.0005 1075.5 376.3295 1075.5 377.9815L1075.5 393.9995M1080.5 393.9375L1080.5 377.9815C1080.5 376.3295 1083.5 371.0005 1083.5 371.0005 1083.5 371.0005 1086.5 376.3295 1086.5 377.9815L1086.5 393.9995M1091.5 393.9375L1091.5 377.9815C1091.5 376.3295 1094.5 371.0005 1094.5 371.0005 1094.5 371.0005 1097.5 376.3295 1097.5 377.9815L1097.5 393.9995M1102.5 393.9375L1102.5 377.9815C1102.5 376.3295 1105.5 371.0005 1105.5 371.0005 1105.5 371.0005 1108.5 376.3295 1108.5 377.9815L1108.5 393.9995M1113.5 393.9375L1113.5 377.9815C1113.5 376.3295 1116.5 371.0005 1116.5 371.0005 1116.5 371.0005 1119.5 376.3295 1119.5 377.9815L1119.5 393.9995M1006.5 369L1006.5 333C1006.5 326.925 996 317 996 317 996 317 985.5 326.925 985.5 333L985.5 369" mask="url(#main-illustration3-b)"/>
    <polyline stroke="#2749FF" stroke-width="2" points="946 263 946 242 988 242" mask="url(#main-illustration3-b)"/>
    <path stroke="#2749FF" d="M1009.5 263L1009.5 227C1009.5 220.925 999 211 999 211 999 211 988.5 220.925 988.5 227L988.5 263M1079 368.5C1079 358.283 1070.717 350 1060.5 350 1050.283 350 1042 358.283 1042 368.5M1124.5 393.9375L1124.5 377.9815C1124.5 376.3295 1127.5 371.0005 1127.5 371.0005 1127.5 371.0005 1130.5 376.3295 1130.5 377.9815L1130.5 393.9995M1135.5 393.9375L1135.5 377.9815C1135.5 376.3295 1138.5 371.0005 1138.5 371.0005 1138.5 371.0005 1141.5 376.3295 1141.5 377.9815L1141.5 393.9995M1146.5 393.9375L1146.5 377.9815C1146.5 376.3295 1149.5 371.0005 1149.5 371.0005 1149.5 371.0005 1152.5 376.3295 1152.5 377.9815L1152.5 393.9995M1157.5 393.9375L1157.5 377.9815C1157.5 376.3295 1160.5 371.0005 1160.5 371.0005 1160.5 371.0005 1163.5 376.3295 1163.5 377.9815L1163.5 393.9995M1168.5 393.9375L1168.5 377.9815C1168.5 376.3295 1171.5 371.0005 1171.5 371.0005 1171.5 371.0005 1174.5 376.3295 1174.5 377.9815L1174.5 393.9995M1179.5 393.9375L1179.5 377.9815C1179.5 376.3295 1182.5 371.0005 1182.5 371.0005 1182.5 371.0005 1185.5 376.3295 1185.5 377.9815L1185.5 393.9995M1190.5 393.9375L1190.5 377.9815C1190.5 376.3295 1193.5 371.0005 1193.5 371.0005 1193.5 371.0005 1196.5 376.3295 1196.5 377.9815L1196.5 393.9995M1201.5 393.9375L1201.5 377.9815C1201.5 376.3295 1204.5 371.0005 1204.5 371.0005 1204.5 371.0005 1207.5 376.3295 1207.5 377.9815L1207.5 393.9995M1212.5 393.9375L1212.5 377.9815C1212.5 376.3295 1215.5 371.0005 1215.5 371.0005 1215.5 371.0005 1218.5 376.3295 1218.5 377.9815L1218.5 393.9995M1223.5 393.9375L1223.5 377.9815C1223.5 376.3295 1226.5 371.0005 1226.5 371.0005 1226.5 371.0005 1229.5 376.3295 1229.5 377.9815L1229.5 393.9995M1234.5 393.9375L1234.5 377.9815C1234.5 376.3295 1237.5 371.0005 1237.5 371.0005 1237.5 371.0005 1240.5 376.3295 1240.5 377.9815L1240.5 393.9995M1245.5 393.9375L1245.5 377.9815C1245.5 376.3295 1248.5 371.0005 1248.5 371.0005 1248.5 371.0005 1251.5 376.3295 1251.5 377.9815L1251.5 393.9995M1256.5 393.9375L1256.5 377.9815C1256.5 376.3295 1259.5 371.0005 1259.5 371.0005 1259.5 371.0005 1262.5 376.3295 1262.5 377.9815L1262.5 393.9995M1267.5 393.9375L1267.5 377.9815C1267.5 376.3295 1270.5 371.0005 1270.5 371.0005 1270.5 371.0005 1273.5 376.3295 1273.5 377.9815L1273.5 393.9995M1278.5 393.9375L1278.5 377.9815C1278.5 376.3295 1281.5 371.0005 1281.5 371.0005 1281.5 371.0005 1284.5 376.3295 1284.5 377.9815L1284.5 393.9995M1289.5 393.9375L1289.5 377.9815C1289.5 376.3295 1292.5 371.0005 1292.5 371.0005 1292.5 371.0005 1295.5 376.3295 1295.5 377.9815L1295.5 393.9995M1300.5 393.9375L1300.5 377.9815C1300.5 376.3295 1303.5 371.0005 1303.5 371.0005 1303.5 371.0005 1306.5 376.3295 1306.5 377.9815L1306.5 393.9995M1311.5 393.9375L1311.5 377.9815C1311.5 376.3295 1314.5 371.0005 1314.5 371.0005 1314.5 371.0005 1317.5 376.3295 1317.5 377.9815L1317.5 393.9995M1322.5 393.9375L1322.5 377.9815C1322.5 376.3295 1325.5 371.0005 1325.5 371.0005 1325.5 371.0005 1328.5 376.3295 1328.5 377.9815L1328.5 393.9995M1333.5 393.9375L1333.5 377.9815C1333.5 376.3295 1336.5 371.0005 1336.5 371.0005 1336.5 371.0005 1339.5 376.3295 1339.5 377.9815L1339.5 393.9995M1344.5 393.9375L1344.5 377.9815C1344.5 376.3295 1347.5 371.0005 1347.5 371.0005 1347.5 371.0005 1350.5 376.3295 1350.5 377.9815L1350.5 393.9995M1355.5 393.9375L1355.5 377.9815C1355.5 376.3295 1358.5 371.0005 1358.5 371.0005 1358.5 371.0005 1361.5 376.3295 1361.5 377.9815L1361.5 393.9995M1366.5 393.9375L1366.5 377.9815C1366.5 376.3295 1369.5 371.0005 1369.5 371.0005 1369.5 371.0005 1372.5 376.3295 1372.5 377.9815L1372.5 393.9995M952.5 242L952.5 263M958.5 242L958.5 263M964.5 242L964.5 263M970.5 242L970.5 263M976.5 242L976.5 263M982.5 242L982.5 263M1015.5 242L1015.5 263M1021.5 242L1021.5 263M1114.5 242L1114.5 263M1120.5 242L1120.5 263M1126.5 242L1126.5 263M1132.5 242L1132.5 263M1063.5 256L1063.5 230.385C1063.5 226.062 1056 219 1056 219 1056 219 1048.5 226.062 1048.5 230.385L1048.5 256 1063.5 256zM1087.5 256L1087.5 230.385C1087.5 226.062 1080 219 1080 219 1080 219 1072.5 226.062 1072.5 230.385L1072.5 256 1087.5 256zM1322.5 369L1322.5 333C1322.5 326.925 1312 317 1312 317 1312 317 1301.5 326.925 1301.5 333L1301.5 369" mask="url(#main-illustration3-b)"/>
    <polygon stroke="#2749FF" stroke-width="2" points="1156 215 1162 179 1163 179 1169 215" mask="url(#main-illustration3-b)"/>
    <polyline stroke="#2749FF" stroke-width="2" points="1157 263 1157 215 1168 215 1168 263" mask="url(#main-illustration3-b)"/>
    <polygon stroke="#2749FF" stroke-width="2" points="1246 215 1252 179 1253 179 1259 215" mask="url(#main-illustration3-b)"/>
    <polyline stroke="#2749FF" stroke-width="2" points="1247 263 1247 215 1258 215 1258 263" mask="url(#main-illustration3-b)"/>
    <polyline stroke="#2749FF" stroke-width="2" points="1138 263 1138 238 1157 238" mask="url(#main-illustration3-b)"/>
    <polyline stroke="#2749FF" stroke-width="2" points="1168 238 1187 238 1187 263" mask="url(#main-illustration3-b)"/>
    <polyline stroke="#2749FF" stroke-width="2" points="1198 263 1198 238 1217 238 1217 263" mask="url(#main-illustration3-b)"/>
    <polyline stroke="#2749FF" stroke-width="2" points="1228 263 1228 238 1247 238" mask="url(#main-illustration3-b)"/>
    <polyline stroke="#2749FF" stroke-width="2" points="1138 263 1271 263 1277 263 1277 238 1258 238" mask="url(#main-illustration3-b)"/>
    <path stroke="#2749FF" d="M1069 152.5L967 152.5C965.35 152.5 964 151.15 964 149.5 964 147.85 965.35 146.5 967 146.5L1069 146.5C1070.65 146.5 1072 147.85 1072 149.5 1072 151.15 1070.65 152.5 1069 152.5zM1069 118.5L967 118.5C965.35 118.5 964 117.15 964 115.5 964 113.85 965.35 112.5 967 112.5L1069 112.5C1070.65 112.5 1072 113.85 1072 115.5 1072 117.15 1070.65 118.5 1069 118.5z" mask="url(#main-illustration3-b)"/>
    <polyline stroke="#2749FF" stroke-width="2" points="970.25 152 973 176 1064.25 176 1067 152" mask="url(#main-illustration3-b)"/>
    <path stroke="#2749FF" stroke-width="2" d="M973 176L973 242M1064 176L1064 180" mask="url(#main-illustration3-b)"/>
    <path stroke="#2749FF" d="M1217.5,355 L1217.5,319 C1217.5,312.925 1207,303 1207,303 C1207,303 1196.5,312.925 1196.5,319 L1196.5,355 L1217.5,355 Z" mask="url(#main-illustration3-b)"/>
    <path stroke="#2749FF" stroke-width="2" d="M1108 242L1138 242M1108 263L1138 263M1108 269L1138 269" mask="url(#main-illustration3-b)"/>
    <polyline stroke="#2749FF" stroke-width="2" points="970 100 970 88 982 88 982 100" mask="url(#main-illustration3-b)"/>
    <polyline stroke="#2749FF" stroke-width="2" points="991 100 991 88 1003 88 1003 100" mask="url(#main-illustration3-b)"/>
    <polyline stroke="#2749FF" stroke-width="2" points="1012 100 1012 88 1024 88 1024 100" mask="url(#main-illustration3-b)"/>
    <polyline stroke="#2749FF" stroke-width="2" points="1033 100 1033 88 1045 88 1045 100" mask="url(#main-illustration3-b)"/>
    <polyline stroke="#2749FF" stroke-width="2" points="1054 100 1054 88 1066 88 1066 100" mask="url(#main-illustration3-b)"/>
    <polyline stroke="#2749FF" stroke-width="2" points="970 112 970 100 1066 100 1066 112" mask="url(#main-illustration3-b)"/>
    <polygon stroke="#2749FF" stroke-width="2" points="974 65 983 29 985 29 993 65" mask="url(#main-illustration3-b)"/>
    <polyline stroke="#2749FF" stroke-width="2" points="976 88 976 65 991 65 991 88" mask="url(#main-illustration3-b)"/>
    <polyline stroke="#2749FF" stroke-width="2" points="1272 302 1352 302 1352 369" mask="url(#main-illustration3-b)"/>
    <polyline stroke="#2749FF" stroke-width="2" points="1336 302 1336 285 1352 285 1352 302" mask="url(#main-illustration3-b)"/>
    <polyline stroke="#2749FF" stroke-width="2" points="1314 302 1314 285 1330 285 1330 302" mask="url(#main-illustration3-b)"/>
    <polyline stroke="#2749FF" stroke-width="2" points="1292 302 1292 285 1308 285 1308 302" mask="url(#main-illustration3-b)"/>
    <polyline stroke="#2749FF" stroke-width="2" points="1272 285 1286 285 1286 302" mask="url(#main-illustration3-b)"/>
    <path stroke="#2749FF" stroke-width="2" d="M984 0L984 21M988 25C988 27.209 986.209 29 984 29 981.791 29 980 27.209 980 25 980 22.791 981.791 21 984 21 986.209 21 988 22.791 988 25z" mask="url(#main-illustration3-b)"/>
    <polygon stroke="#2749FF" stroke-width="2" points="1043 65 1052 29 1054 29 1062 65" mask="url(#main-illustration3-b)"/>
    <polyline stroke="#2749FF" stroke-width="2" points="1045 88 1045 65 1060 65 1060 88" mask="url(#main-illustration3-b)"/>
    <path stroke="#2749FF" stroke-width="2" d="M1053 0L1053 21M1057 25C1057 27.209 1055.209 29 1053 29 1050.791 29 1049 27.209 1049 25 1049 22.791 1050.791 21 1053 21 1055.209 21 1057 22.791 1057 25z" mask="url(#main-illustration3-b)"/>
    <polyline stroke="#2749FF" stroke-width="2" points="1027 202 1021 202 1021 181 1033 181 1033 190 1039 190 1039 181 1048 181 1048 190 1055 190 1055 181 1064 181 1064 190 1071 190 1071 181 1080 181 1080 190 1087 190 1087 181 1096 181 1096 190 1102 190 1102 181 1114 181 1114 202 1108 202" mask="url(#main-illustration3-b)"/>
    <path stroke="#2749FF" stroke-width="2" d="M881 327L881 374.5M881 394L746 394M746 333.667L746 327" mask="url(#main-illustration3-b)"/>
    <path stroke="#2749FF" d="M822.5 346.5L822.5 394.5M766.5 369.5L766.5 346.5" mask="url(#main-illustration3-b)"/>
    <polygon stroke="#2749FF" points="766.5 305.5 786.5 305.5 786.5 271.5 766.5 271.5" mask="url(#main-illustration3-b)"/>
    <polygon stroke="#2749FF" points="838.5 394.5 860.5 394.5 860.5 341.5 838.5 341.5" mask="url(#main-illustration3-b)"/>
    <polygon stroke="#2749FF" points="742.5 327.5 884.5 327.5 884.5 318.5 742.5 318.5" mask="url(#main-illustration3-b)"/>
    <path stroke="#2749FF" d="M776.5 271L776.5 305.5M786.5 288.5L766.5 288.5" mask="url(#main-illustration3-b)"/>
    <polygon stroke="#2749FF" points="840.5 305.5 860.5 305.5 860.5 271.5 840.5 271.5" mask="url(#main-illustration3-b)"/>
    <path stroke="#2749FF" d="M850.5 271L850.5 305.5M860.5 288.5L840.5 288.5" mask="url(#main-illustration3-b)"/>
    <polygon stroke="#2749FF" points="803.5 305.5 823.5 305.5 823.5 271.5 803.5 271.5" mask="url(#main-illustration3-b)"/>
    <path stroke="#2749FF" d="M813.5 271L813.5 305.5M823.5 288.5L803.5 288.5" mask="url(#main-illustration3-b)"/>
    <polygon stroke="#2749FF" points="766.5 258.5 786.5 258.5 786.5 224.5 766.5 224.5" mask="url(#main-illustration3-b)"/>
    <path stroke="#2749FF" d="M776.5 224L776.5 258.5M786.5 241.5L766.5 241.5" mask="url(#main-illustration3-b)"/>
    <polygon stroke="#2749FF" points="840.5 258.5 860.5 258.5 860.5 224.5 840.5 224.5" mask="url(#main-illustration3-b)"/>
    <path stroke="#2749FF" d="M850.5 224L850.5 258.5M860.5 241.5L840.5 241.5" mask="url(#main-illustration3-b)"/>
    <polygon stroke="#2749FF" points="803.5 258.5 823.5 258.5 823.5 224.5 803.5 224.5" mask="url(#main-illustration3-b)"/>
    <path stroke="#2749FF" d="M813.5 224L813.5 258.5M823.5 241.5L803.5 241.5" mask="url(#main-illustration3-b)"/>
    <path stroke="#2749FF" stroke-width="2" d="M746 318L746 206M881 206L881 318" mask="url(#main-illustration3-b)"/>
    <path stroke="#2749FF" d="M746,211.5 L880,211.5" mask="url(#main-illustration3-b)"/>
    <polygon stroke="#2749FF" points="742.5 206.5 884.5 206.5 884.5 197.5 742.5 197.5" mask="url(#main-illustration3-b)"/>
    <polygon stroke="#2749FF" stroke-width="2" points="746 196 757 196 757 138 746 138" mask="url(#main-illustration3-b)"/>
    <path stroke="#2749FF" d="M746,188.5 L757,188.5" mask="url(#main-illustration3-b)"/>
    <polygon stroke="#2749FF" stroke-width="2" points="870 196 881 196 881 138 870 138" mask="url(#main-illustration3-b)"/>
    <path stroke="#2749FF" d="M870,188.5 L881,188.5" mask="url(#main-illustration3-b)"/>
    <polygon stroke="#2749FF" points="842.5 365.5 854.5 365.5 854.5 345.5 842.5 345.5" mask="url(#main-illustration3-b)"/>
    <path stroke="#2749FF" d="M768.5 148L768.5 197M781.5 148L781.5 197M794.5 148L794.5 181M807.5 148L807.5 176M820.5 148L820.5 178M833.5 148L833.5 184M846.5 148L846.5 197M859.5 148L859.5 197" mask="url(#main-illustration3-b)"/>
    <polyline stroke="#2749FF" stroke-width="2" points="781 197 781 186.396 812.291 173.771 842 187.298 842.05 197" mask="url(#main-illustration3-b)"/>
    <path stroke="#2749FF" d="M815.8369,182.7275 C818.2929,185.1845 818.2929,189.1665 815.8369,191.6235 C813.3799,194.0795 809.3979,194.0795 806.9409,191.6235 C804.4849,189.1665 804.4849,185.1845 806.9409,182.7275 C809.3979,180.2715 813.3799,180.2715 815.8369,182.7275 Z" mask="url(#main-illustration3-b)"/>
    <polygon stroke="#2749FF" points="842.5 389.5 854.5 389.5 854.5 369.5 842.5 369.5" mask="url(#main-illustration3-b)"/>
    <path stroke="#2749FF" d="M858.5,367.5 C858.5,368.053 858.052,368.5 857.5,368.5 C856.948,368.5 856.5,368.053 856.5,367.5 C856.5,366.947 856.948,366.5 857.5,366.5 C858.052,366.5 858.5,366.947 858.5,367.5 Z" mask="url(#main-illustration3-b)"/>
    <polyline stroke="#2749FF" points="773.5 377.751 773.5 359.5 815.5 359.5 815.5 393.5" mask="url(#main-illustration3-b)"/>
    <polygon stroke="#2749FF" points="763.5 346.5 825.5 346.5 825.5 341.5 763.5 341.5" mask="url(#main-illustration3-b)"/>
    <path stroke="#2749FF" d="M791.5 376.5C791.5 377.053 791.052 377.5 790.5 377.5 789.948 377.5 789.5 377.053 789.5 376.5 789.5 375.947 789.948 375.5 790.5 375.5 791.052 375.5 791.5 375.947 791.5 376.5zM799.5 376.5C799.5 377.053 799.052 377.5 798.5 377.5 797.948 377.5 797.5 377.053 797.5 376.5 797.5 375.947 797.948 375.5 798.5 375.5 799.052 375.5 799.5 375.947 799.5 376.5z" mask="url(#main-illustration3-b)"/>
    <polygon stroke="#2749FF" points="773.5 355.5 815.5 355.5 815.5 350.5 773.5 350.5" mask="url(#main-illustration3-b)"/>
    <path stroke="#2749FF" stroke-width="2" d="M1431 394L723 394M594 394L0 394M276.9106 322.9512C271.8166 324.1692 267.5476 327.5122 265.0906 331.9892 264.1006 331.7352 263.0696 331.5862 261.9996 331.5862 259.1556 331.5862 256.5386 332.5452 254.4496 334.1562M308.4463 328.834C309.5043 328.834 310.5363 328.941 311.5353 329.143 315.4273 321.821 323.1303 316.834 332.0003 316.834 341.6453 316.834 349.9113 322.73 353.3973 331.114 354.5713 330.931 355.7743 330.834 357.0003 330.834 365.5413 330.834 372.9983 335.46 377.0143 342.34" mask="url(#main-illustration3-b)"/>
    <polygon stroke="#2749FF" points="508.5 389.5 534.5 389.5 534.5 341.5 508.5 341.5" mask="url(#main-illustration3-b)"/>
    <polygon stroke="#2749FF" points="514.5 369.5 528.5 369.5 528.5 347.5 514.5 347.5" mask="url(#main-illustration3-b)"/>
    <polygon stroke="#2749FF" points="502.5 393.5 540.5 393.5 540.5 389.5 502.5 389.5" mask="url(#main-illustration3-b)"/>
    <path stroke="#2749FF" stroke-width="2" d="M431,393 C431,386.789 427.226,381.461 421.846,379.182 C421.938,378.633 422,378.074 422,377.5 C422,371.701 417.075,367 411,367 C409.834,367 408.711,367.176 407.657,367.497 C407.873,366.697 408,365.863 408,365 C408,359.477 403.299,355 397.475,355.001 C397.209,346.949 390.616,340.5 382.5,340.5 C380.167,340.5 377.959,341.032 375.991,341.982" mask="url(#main-illustration3-b)"/>
    <polyline stroke="#2749FF" stroke-width="2" points="375 339 375 284 668 284 668 356.667" mask="url(#main-illustration3-b)"/>
    <polygon stroke="#2749FF" points="514.5 384.5 528.5 384.5 528.5 373.5 514.5 373.5" mask="url(#main-illustration3-b)"/>
    <polygon stroke="#2749FF" stroke-width="2" points="682 284 361 284 375 213 668 213" mask="url(#main-illustration3-b)"/>
    <polyline stroke="#2749FF" points="640.001 373.5 609.5 373.5 609.5 369.5 644.5 369.5" mask="url(#main-illustration3-b)"/>
    <polygon stroke="#2749FF" points="613.5 369.5 620.5 369.5 620.5 347.5 613.5 347.5" mask="url(#main-illustration3-b)"/>
    <polygon stroke="#2749FF" points="620.5 353.5 635.5 353.5 635.5 347.5 620.5 347.5" mask="url(#main-illustration3-b)"/>
    <polygon stroke="#2749FF" points="635.5 369.5 642.5 369.5 642.5 347.5 635.5 347.5" mask="url(#main-illustration3-b)"/>
    <polygon stroke="#2749FF" points="609.5 330.5 646.5 330.5 646.5 326.5 609.5 326.5" mask="url(#main-illustration3-b)"/>
    <polygon stroke="#2749FF" points="613.5 326.5 620.5 326.5 620.5 304.5 613.5 304.5" mask="url(#main-illustration3-b)"/>
    <polygon stroke="#2749FF" points="620.5 310.5 635.5 310.5 635.5 304.5 620.5 304.5" mask="url(#main-illustration3-b)"/>
    <polygon stroke="#2749FF" points="635.5 326.5 642.5 326.5 642.5 304.5 635.5 304.5" mask="url(#main-illustration3-b)"/>
    <polygon stroke="#2749FF" points="554.5 373.5 591.5 373.5 591.5 369.5 554.5 369.5" mask="url(#main-illustration3-b)"/>
    <polygon stroke="#2749FF" points="558.5 369.5 565.5 369.5 565.5 347.5 558.5 347.5" mask="url(#main-illustration3-b)"/>
    <polygon stroke="#2749FF" points="565.5 353.5 580.5 353.5 580.5 347.5 565.5 347.5" mask="url(#main-illustration3-b)"/>
    <polygon stroke="#2749FF" points="580.5 369.5 587.5 369.5 587.5 347.5 580.5 347.5" mask="url(#main-illustration3-b)"/>
    <polygon stroke="#2749FF" points="554.5 330.5 591.5 330.5 591.5 326.5 554.5 326.5" mask="url(#main-illustration3-b)"/>
    <polygon stroke="#2749FF" points="558.5 326.5 565.5 326.5 565.5 304.5 558.5 304.5" mask="url(#main-illustration3-b)"/>
    <polygon stroke="#2749FF" points="565.5 310.5 580.5 310.5 580.5 304.5 565.5 304.5" mask="url(#main-illustration3-b)"/>
    <polygon stroke="#2749FF" points="580.5 326.5 587.5 326.5 587.5 304.5 580.5 304.5" mask="url(#main-illustration3-b)"/>
    <polygon stroke="#2749FF" points="451.5 373.5 488.5 373.5 488.5 369.5 451.5 369.5" mask="url(#main-illustration3-b)"/>
    <polygon stroke="#2749FF" points="455.5 369.5 462.5 369.5 462.5 347.5 455.5 347.5" mask="url(#main-illustration3-b)"/>
    <polygon stroke="#2749FF" points="462.5 353.5 477.5 353.5 477.5 347.5 462.5 347.5" mask="url(#main-illustration3-b)"/>
    <polygon stroke="#2749FF" points="477.5 369.5 484.5 369.5 484.5 347.5 477.5 347.5" mask="url(#main-illustration3-b)"/>
    <polygon stroke="#2749FF" points="451.5 330.5 488.5 330.5 488.5 326.5 451.5 326.5" mask="url(#main-illustration3-b)"/>
    <polygon stroke="#2749FF" points="455.5 326.5 462.5 326.5 462.5 304.5 455.5 304.5" mask="url(#main-illustration3-b)"/>
    <polygon stroke="#2749FF" points="462.5 310.5 477.5 310.5 477.5 304.5 462.5 304.5" mask="url(#main-illustration3-b)"/>
    <polygon stroke="#2749FF" points="477.5 326.5 484.5 326.5 484.5 304.5 477.5 304.5" mask="url(#main-illustration3-b)"/>
    <polyline stroke="#2749FF" points="418.5 369.5 433.5 369.5 433.5 373.5 421.333 373.5" mask="url(#main-illustration3-b)"/>
    <polyline stroke="#2749FF" points="400.5 355.335 400.5 347.5 407.5 347.5 407.5 361.5" mask="url(#main-illustration3-b)"/>
    <polygon stroke="#2749FF" points="407.5 353.5 422.5 353.5 422.5 347.5 407.5 347.5" mask="url(#main-illustration3-b)"/>
    <polygon stroke="#2749FF" points="422.5 369.5 429.5 369.5 429.5 347.5 422.5 347.5" mask="url(#main-illustration3-b)"/>
    <polygon stroke="#2749FF" points="396.5 330.5 433.5 330.5 433.5 326.5 396.5 326.5" mask="url(#main-illustration3-b)"/>
    <polygon stroke="#2749FF" points="400.5 326.5 407.5 326.5 407.5 304.5 400.5 304.5" mask="url(#main-illustration3-b)"/>
    <polygon stroke="#2749FF" points="407.5 310.5 422.5 310.5 422.5 304.5 407.5 304.5" mask="url(#main-illustration3-b)"/>
    <polygon stroke="#2749FF" points="422.5 326.5 429.5 326.5 429.5 304.5 422.5 304.5" mask="url(#main-illustration3-b)"/>
    <path stroke="#2749FF" stroke-linecap="round" stroke-width="2" d="M402 237L453 237M431 261L456 261M501 246L535 246M598 262L650 262M581 233L612 233" mask="url(#main-illustration3-b)"/>
    <path stroke="#2749FF" stroke-width="2" d="M796,455 C796,441.8 785.2,431 772,431 C758.8,431 748,441.8 748,455 C748,455 747.825,458.858 748.912,463.429 L634.477,461.519 C634.953,460.036 635.5,454.5 635.5,454.5 C635.5,441.575 624.925,431 612,431 C599.075,431 588.5,441.575 588.5,454.5 L588.6,457 L585.291,456.632 C579.12,455.946 570.378,453.96 567.639,447.699 C566.104,444.191 567.414,440.012 568.194,436.536 C568.643,434.542 569.204,432.366 570.783,430.946 C572.907,429.034 573.18,427.761 573.18,427.761 L573.331,411.838 C573.331,411.838 572.694,409.502 575.454,408.016 C578.214,406.529 584.583,400.373 584.583,400.373 C584.583,400.373 593.076,394.216 594.562,393.366 C594.562,393.366 592.227,391.031 593.925,389.332 C593.925,389.332 594.35,388.695 599.551,387.952 C599.551,387.952 652.417,382.645 673.436,383.494 C673.436,383.494 699.656,384.662 713.244,390.182 C726.832,395.702 736.811,399.312 756.98,410.352 C756.98,410.352 780.546,412.899 801.778,420.542 C801.778,420.542 814.729,425.001 815.366,429.884 C815.366,429.884 820.249,434.555 820.249,440.287 C820.249,446.02 819.187,452.602 819.187,452.602 C819.187,452.602 819.187,453.45 819.824,454.087 C820.461,454.725 821.311,455.998 820.886,456.423 C820.461,456.848 811.544,461.73 795.408,463.005 L796,455 Z" mask="url(#main-illustration3-b)"/>
    <path stroke="#2749FF" stroke-linecap="round" stroke-width="1.5" d="M681.1851 391.2432C681.1851 391.2432 700.0811 392.0932 711.9701 397.6122 711.9701 397.6122 726.1951 403.7692 731.5031 406.7422 731.5031 406.7422 737.2351 409.2902 737.8721 409.7142 738.5091 410.1392 738.7211 410.5632 738.7211 411.8382 738.7211 413.1112 737.0231 416.2962 737.0231 416.2962 737.0231 416.2962 736.3861 417.5702 734.6871 417.5702 732.9891 417.5702 684.5821 413.5362 684.5821 413.5362L681.1851 391.2432zM699.9238 423.7539C694.4868 423.3079 689.3228 422.8799 685.4928 422.5629M643.7505 419.5078C638.3135 419.0608 633.1495 418.6338 629.3195 418.3168M671.8433 390.8184L672.4803 412.4744 632.9903 409.0774C632.9903 409.0774 632.1413 401.8584 634.2643 398.8864 636.3873 395.9144 638.7223 392.7294 638.7223 392.7294 638.7223 392.7294 657.1943 389.9694 671.8433 390.8184z" mask="url(#main-illustration3-b)"/>
    <path stroke="#2749FF" stroke-linecap="round" d="M624.1318 403.8887C621.4638 407.2377 619.4028 410.8427 619.4028 414.8107 619.4028 418.6167 620.2418 421.8207 621.6038 424.7177M743.1899 419.3926C743.8239 420.9206 744.4009 422.4696 744.8429 424.0686 746.1319 428.7396 746.2419 434.3196 745.7069 439.9686" mask="url(#main-illustration3-b)"/>
    <path stroke="#2749FF" stroke-linecap="round" stroke-width="2" d="M598.6372,455 C598.6372,462.38 604.6202,468.362 612.0002,468.362 C619.3802,468.362 625.3632,462.38 625.3632,455 C625.3632,447.62 619.3802,441.638 612.0002,441.638 C604.6202,441.638 598.6372,447.62 598.6372,455 Z" mask="url(#main-illustration3-b)"/>
    <path stroke="#2749FF" stroke-linecap="round" stroke-width="2" d="M593,455 C593,465.493 601.506,474 612,474 C622.494,474 631,465.493 631,455 C631,444.507 622.494,436 612,436 C601.506,436 593,444.507 593,455 Z" mask="url(#main-illustration3-b)"/>
    <path stroke="#2749FF" stroke-linecap="round" stroke-width="1.5" d="M589.7852 403.876C589.7852 403.876 592.7572 408.547 596.1542 409.184 596.1542 409.184 605.6022 410.988 606.6642 411.838 607.7252 412.687 607.7252 413.111 607.7252 413.111 607.7252 413.111 606.2392 414.598 604.3282 415.022 602.4172 415.446 595.1992 415.659 594.5622 415.659 593.9252 415.659 590.5282 415.871 589.4672 417.357 588.4052 418.844 585.6452 422.24 585.0082 423.939L577.7892 422.665C577.7892 422.665 574.8172 421.816 574.3922 420.33 573.9682 418.844 573.5432 415.871 574.3922 414.173 575.2422 412.475 575.8792 411.413 575.8792 411.413 575.8792 411.413 576.3032 410.352 580.5502 408.229 584.7962 406.105 589.7852 403.876 589.7852 403.876zM786.5977 424.4697C786.5977 424.4697 799.7607 424.0447 805.9177 426.3807 805.9177 426.3807 813.2427 429.2467 815.3657 432.6437 815.3657 432.6437 815.5777 433.2817 815.3657 434.5547 815.1537 435.8277 814.3047 435.4047 812.8177 435.1917 811.3317 434.9797 804.5377 433.7047 804.5377 433.7047 804.5377 433.7047 800.0787 432.8567 796.8947 430.7337 793.7097 428.6107 786.5977 424.4697 786.5977 424.4697z" mask="url(#main-illustration3-b)"/>
    <path stroke="#2749FF" stroke-linecap="round" d="M676.8325,391.1367 C678.7175,412.9127 678.6285,434.4107 679.0755,456.2097" mask="url(#main-illustration3-b)"/>
    <path stroke="#2749FF" stroke-linecap="round" stroke-width="2" d="M709 477L804 477M545 477L629 477M504 477L527 477M475 477L488 477M758.6372 455C758.6372 462.38 764.6202 468.362 772.0002 468.362 779.3802 468.362 785.3632 462.38 785.3632 455 785.3632 447.62 779.3802 441.638 772.0002 441.638 764.6202 441.638 758.6372 447.62 758.6372 455z" mask="url(#main-illustration3-b)"/>
    <path stroke="#2749FF" stroke-linecap="round" stroke-width="2" d="M753,455 C753,465.493 761.506,474 772,474 C782.494,474 791,465.493 791,455 C791,444.507 782.494,436 772,436 C761.506,436 753,444.507 753,455 Z" mask="url(#main-illustration3-b)"/>
    <path stroke="#2749FF" stroke-width="2" d="M773.6621 393.2158C774.5221 391.0068 775.0001 388.5668 775.0001 385.9998 775.0001 377.0588 769.1991 369.6598 761.6031 368.2588 761.8541 367.3788 762.0001 366.4568 762.0001 365.4998 762.0001 362.8858 760.9991 360.4948 759.3441 358.6568M717.4624 343.5439C714.6574 340.7359 710.7814 338.9999 706.5004 338.9999 700.0904 338.9999 694.5904 342.8909 692.2314 348.4399 690.2184 346.9149 687.7194 345.9999 685.0004 345.9999 678.3724 345.9999 673.0004 351.3729 673.0004 357.9999 673.0004 358.1349 673.0154 358.2659 673.0204 358.3999 671.0584 357.5119 668.8484 356.9999 666.5004 356.9999 658.7724 356.9999 652.4744 362.4249 652.0424 369.2559 651.2174 369.0939 650.3694 368.9999 649.5004 368.9999 642.0444 368.9999 636.0004 375.2679 636.0004 382.9999 636.0004 383.5039 636.0254 384.0019 636.0754 384.4919M962.0366 393.6836C963.2976 391.0376 963.9996 388.0966 963.9996 384.9996 963.9996 375.8346 957.8496 368.0416 949.2736 365.1746M911.2705 363.584C909.9165 363.209 908.4845 363 906.9995 363 899.9335 363 894.0235 367.566 892.4345 373.707 890.8765 373.248 889.2195 373 887.4995 373 878.3875 373 870.9995 379.939 870.9995 388.5 870.9995 390.592 871.4415 392.587 872.2415 394.408" mask="url(#main-illustration3-b)"/>
    <path stroke="#2749FF" stroke-width="2" d="M943.5034 336.9795C944.3014 335.1465 944.7504 333.1265 944.7504 331.0005 944.7504 322.7155 938.0344 316.0005 929.7504 316.0005 921.4654 316.0005 914.7504 322.7155 914.7504 331.0005 914.7504 333.1265 915.1984 335.1465 915.9964 336.9795 911.2644 340.9235 908.2504 346.8585 908.2504 353.5005 908.2504 365.3745 917.8764 375.0005 929.7504 375.0005 941.6244 375.0005 951.2504 365.3745 951.2504 353.5005 951.2504 346.8585 948.2354 340.9235 943.5034 336.9795zM323 385L390 385M331 385L331 393M382 385L382 393" mask="url(#main-illustration3-b)"/>
    <polygon stroke="#2749FF" stroke-width="2" points="327 381 386 381 386 376 327 376" mask="url(#main-illustration3-b)"/>
    <polygon stroke="#2749FF" stroke-width="2" points="327 373 386 373 386 368 327 368" mask="url(#main-illustration3-b)"/>
    <polygon stroke="#2749FF" points="208.5 385.5 234.5 385.5 234.5 337.5 208.5 337.5" mask="url(#main-illustration3-b)"/>
    <polygon stroke="#2749FF" points="214.5 365.5 219.5 365.5 219.5 343.5 214.5 343.5" mask="url(#main-illustration3-b)"/>
    <polygon stroke="#2749FF" points="202.5 389.5 240.5 389.5 240.5 385.5 202.5 385.5" mask="url(#main-illustration3-b)"/>
    <polygon stroke="#2749FF" points="214.5 380.5 228.5 380.5 228.5 369.5 214.5 369.5" mask="url(#main-illustration3-b)"/>
    <polygon stroke="#2749FF" stroke-width="2" points="90 229 260 229 260 222 90 222" mask="url(#main-illustration3-b)"/>
    <polygon stroke="#2749FF" stroke-width="2" points="95 394 255 394 255 229 95 229" mask="url(#main-illustration3-b)"/>
    <path stroke="#2749FF" d="M117.5 211L117.5 221M136.5 212L136.5 222M155.5 212L155.5 222M174.5 211L174.5 221M193.5 211L193.5 221M212.5 212L212.5 222M231.5 212L231.5 222M250.5 211L250.5 221" mask="url(#main-illustration3-b)"/>
    <polygon stroke="#2749FF" points="223.5 365.5 228.5 365.5 228.5 343.5 223.5 343.5" mask="url(#main-illustration3-b)"/>
    <polygon stroke="#2749FF" points="160.5 285.5 187.5 285.5 187.5 247.5 160.5 247.5" mask="url(#main-illustration3-b)"/>
    <polygon stroke="#2749FF" points="158.5 289.5 189.5 289.5 189.5 285.5 158.5 285.5" mask="url(#main-illustration3-b)"/>
    <polygon stroke="#2749FF" points="205.5 285.5 232.5 285.5 232.5 247.5 205.5 247.5" mask="url(#main-illustration3-b)"/>
    <polygon stroke="#2749FF" points="203.5 289.5 234.5 289.5 234.5 285.5 203.5 285.5" mask="url(#main-illustration3-b)"/>
    <path stroke="#2749FF" d="M115.5 344.3779L143.5 344.3779M188.5 361.5L160.5 361.5 160.5 321C160.5 313.544 166.544 307.5 174 307.5L175 307.5C182.456 307.5 188.5 313.544 188.5 321L188.5 361.5zM174.5 307.5L174.5 361.5M160.5 327.3779L188.5 327.3779M160.5 344.3779L188.5 344.3779" mask="url(#main-illustration3-b)"/>
    <path stroke="#2749FF" stroke-width="2" d="M970 146L970 118M1066 118L1066 146M1271 369L1271 263M757 148L869 148M714.6963 354.123C714.6963 341.672 724.7903 331.578 737.2413 331.578 749.6933 331.578 759.7863 341.672 759.7863 354.123 759.7863 366.575 749.6933 376.669 737.2413 376.669 724.7903 376.669 714.6963 366.575 714.6963 354.123" mask="url(#main-illustration3-b)"/>
    <path stroke="#2749FF" stroke-linecap="round" stroke-width="1.5" d="M742.8774 356.6289L737.0324 362.2649M728.4736 360.3857L737.2416 368.9447M935.8774 351.6289L930.0324 357.2649M921.4736 355.3857L930.2416 363.9447" mask="url(#main-illustration3-b)"/>
    <path stroke="#2749FF" stroke-linecap="round" stroke-width="2" d="M737 352.8711L737 394.2031M294 319L294 394.2031M930 347L930 394" mask="url(#main-illustration3-b)"/>
    <path stroke="#2749FF" d="M794.5,359.5 L794.5,394" mask="url(#main-illustration3-b)"/>
    <path stroke="#2749FF" stroke-width="2" d="M1009.75 242L1027.75 242M1138 242L1138 277" mask="url(#main-illustration3-b)"/>
    <path stroke="#2749FF" d="M168.5 247.5L168.5 285.5M213.5 247.5L213.5 285.5M123.5 247.5L123.5 285.5" mask="url(#main-illustration3-b)"/>
    <path stroke="#2749FF" stroke-width="2" d="M308.0034,337.9463 C306.5504,336.2943 306.4314,333.4943 307.7374,331.7243 C307.7374,331.7243 311.0084,327.2933 311.0084,322.2563 C311.0084,315.8423 305.1284,310.1153 305.1284,310.1153 C303.5524,308.5803 303.3404,305.8823 304.6584,304.1203 C304.6584,304.1203 306.5004,301.6553 306.5004,297.9073 C306.5004,290.9343 300.8474,285.2823 293.8744,285.2823 C286.9014,285.2823 281.2494,290.9343 281.2494,297.9073 C281.2494,301.6553 283.0914,304.1203 283.0914,304.1203 C284.4084,305.8823 284.1964,308.5803 282.6204,310.1153 C282.6204,310.1153 276.7404,315.8423 276.7404,322.2563 C276.7404,327.2933 280.0114,331.7243 280.0114,331.7243 C281.3184,333.4943 281.1984,336.2943 279.7454,337.9463 C279.7454,337.9463 274.0354,344.4393 274.0354,351.1133 C274.0354,362.0703 282.9174,370.9533 293.8744,370.9533 C304.8324,370.9533 313.7144,362.0703 313.7144,351.1133 C313.7144,344.4393 308.0034,337.9463 308.0034,337.9463 Z" mask="url(#main-illustration3-b)"/>
    <path stroke="#2749FF" stroke-linecap="round" stroke-width="1.5" d="M293.8745 362.8369L299.2855 357.4259M293.8745 332.1758L299.2855 326.7648M293.8745 348.4082L288.4635 342.9972" mask="url(#main-illustration3-b)"/>
  </g>
</svg>
