<?xml version="1.0" encoding="utf-8"?>
<!-- Generator: Adobe Illustrator 22.0.0, SVG Export Plug-In . SVG Version: 6.00 Build 0)  -->
<svg version="1.1" id="Layer_1" xmlns="http://www.w3.org/2000/svg" xmlns:xlink="http://www.w3.org/1999/xlink" x="0px" y="0px"
	 viewBox="0 0 961 451" style="enable-background:new 0 0 961 451;" xml:space="preserve">
<style type="text/css">
	.st0{fill:none;stroke:#FFFFFF;}
	.st1{fill:none;stroke:#FFFFFF;stroke-width:2;}
	.st2{fill:none;stroke:#FFFFFF;stroke-linecap:round;}
	.st3{fill:none;stroke:#FFFFFF;stroke-width:1.5;stroke-linecap:round;}
	.st4{fill:none;stroke:#FFFFFF;stroke-width:2;stroke-linecap:round;}
	.st5{filter:url(#Adobe_OpacityMaskFilter);}
	.st6{fill:#FFFFFF;}
	.st7{mask:url(#group-358-b_1_);fill:none;stroke:#FFFFFF;}
	.st8{filter:url(#Adobe_OpacityMaskFilter_1_);}
	.st9{mask:url(#group-358-b_2_);fill:none;stroke:#FFFFFF;}
	.st10{filter:url(#Adobe_OpacityMaskFilter_2_);}
	.st11{mask:url(#group-358-b_3_);fill:none;stroke:#FFFFFF;}
	.st12{filter:url(#Adobe_OpacityMaskFilter_3_);}
	.st13{mask:url(#group-358-b_4_);fill:none;stroke:#FFFFFF;}
	.st14{filter:url(#Adobe_OpacityMaskFilter_4_);}
	.st15{mask:url(#group-358-b_5_);fill:none;stroke:#FFFFFF;stroke-width:2;}
	.st16{filter:url(#Adobe_OpacityMaskFilter_5_);}
	.st17{mask:url(#group-358-b_6_);fill:none;stroke:#FFFFFF;}
	.st18{filter:url(#Adobe_OpacityMaskFilter_6_);}
	.st19{mask:url(#group-358-b_7_);fill:none;stroke:#FFFFFF;stroke-width:2;}
	.st20{filter:url(#Adobe_OpacityMaskFilter_7_);}
	.st21{mask:url(#group-358-b_8_);fill:none;stroke:#FFFFFF;}
	.st22{filter:url(#Adobe_OpacityMaskFilter_8_);}
	.st23{mask:url(#group-358-b_9_);fill:none;stroke:#FFFFFF;}
	.st24{filter:url(#Adobe_OpacityMaskFilter_9_);}
	.st25{mask:url(#group-358-b_10_);fill:none;stroke:#FFFFFF;}
	.st26{filter:url(#Adobe_OpacityMaskFilter_10_);}
	.st27{mask:url(#group-358-b_11_);fill:none;stroke:#FFFFFF;}
	.st28{filter:url(#Adobe_OpacityMaskFilter_11_);}
	.st29{mask:url(#group-358-b_12_);fill:none;stroke:#FFFFFF;}
	.st30{filter:url(#Adobe_OpacityMaskFilter_12_);}
	.st31{mask:url(#group-358-b_13_);fill:none;stroke:#FFFFFF;}
	.st32{filter:url(#Adobe_OpacityMaskFilter_13_);}
	.st33{mask:url(#group-358-b_14_);fill:none;stroke:#FFFFFF;}
	.st34{filter:url(#Adobe_OpacityMaskFilter_14_);}
	.st35{mask:url(#group-358-b_15_);fill:none;stroke:#FFFFFF;}
	.st36{filter:url(#Adobe_OpacityMaskFilter_15_);}
	.st37{mask:url(#group-358-b_16_);fill:none;stroke:#FFFFFF;}
	.st38{filter:url(#Adobe_OpacityMaskFilter_16_);}
	.st39{mask:url(#group-358-b_17_);fill:none;stroke:#FFFFFF;}
	.st40{filter:url(#Adobe_OpacityMaskFilter_17_);}
	.st41{mask:url(#group-358-b_18_);fill:none;stroke:#FFFFFF;}
	.st42{filter:url(#Adobe_OpacityMaskFilter_18_);}
	.st43{mask:url(#group-358-b_19_);fill:none;stroke:#FFFFFF;}
	.st44{filter:url(#Adobe_OpacityMaskFilter_19_);}
	.st45{mask:url(#group-358-b_20_);fill:none;stroke:#FFFFFF;}
	.st46{filter:url(#Adobe_OpacityMaskFilter_20_);}
	.st47{mask:url(#group-358-b_21_);fill:none;stroke:#FFFFFF;}
	.st48{filter:url(#Adobe_OpacityMaskFilter_21_);}
	.st49{mask:url(#group-358-b_22_);fill:none;stroke:#FFFFFF;}
	.st50{filter:url(#Adobe_OpacityMaskFilter_22_);}
	.st51{mask:url(#group-358-b_23_);fill:none;stroke:#FFFFFF;stroke-width:2;}
	.st52{filter:url(#Adobe_OpacityMaskFilter_23_);}
	.st53{mask:url(#group-358-b_24_);fill:none;stroke:#FFFFFF;}
	.st54{filter:url(#Adobe_OpacityMaskFilter_24_);}
	.st55{mask:url(#group-358-b_25_);fill:none;stroke:#FFFFFF;}
	.st56{filter:url(#Adobe_OpacityMaskFilter_25_);}
	.st57{mask:url(#group-358-b_26_);fill:none;stroke:#FFFFFF;stroke-width:2;}
	.st58{filter:url(#Adobe_OpacityMaskFilter_26_);}
	.st59{mask:url(#group-358-b_27_);fill:none;stroke:#FFFFFF;}
	.st60{filter:url(#Adobe_OpacityMaskFilter_27_);}
	.st61{mask:url(#group-358-b_28_);fill:none;stroke:#FFFFFF;stroke-width:2;}
	.st62{filter:url(#Adobe_OpacityMaskFilter_28_);}
	.st63{mask:url(#group-358-b_29_);fill:none;stroke:#FFFFFF;}
	.st64{filter:url(#Adobe_OpacityMaskFilter_29_);}
	.st65{mask:url(#group-358-b_30_);fill:none;stroke:#FFFFFF;}
	.st66{filter:url(#Adobe_OpacityMaskFilter_30_);}
	.st67{mask:url(#group-358-b_31_);fill:none;stroke:#FFFFFF;}
	.st68{filter:url(#Adobe_OpacityMaskFilter_31_);}
	.st69{mask:url(#group-358-b_32_);fill:none;stroke:#FFFFFF;stroke-width:2;}
	.st70{filter:url(#Adobe_OpacityMaskFilter_32_);}
	.st71{mask:url(#group-358-b_33_);fill:none;stroke:#FFFFFF;}
	.st72{filter:url(#Adobe_OpacityMaskFilter_33_);}
	.st73{mask:url(#group-358-b_34_);fill:none;stroke:#FFFFFF;}
	.st74{filter:url(#Adobe_OpacityMaskFilter_34_);}
	.st75{mask:url(#group-358-b_35_);fill:none;stroke:#FFFFFF;}
	.st76{filter:url(#Adobe_OpacityMaskFilter_35_);}
	.st77{mask:url(#group-358-b_36_);fill:none;stroke:#FFFFFF;}
	.st78{filter:url(#Adobe_OpacityMaskFilter_36_);}
	.st79{mask:url(#group-358-b_37_);fill:none;stroke:#FFFFFF;}
	.st80{filter:url(#Adobe_OpacityMaskFilter_37_);}
	.st81{mask:url(#group-358-b_38_);fill:none;stroke:#FFFFFF;}
	.st82{filter:url(#Adobe_OpacityMaskFilter_38_);}
	.st83{mask:url(#group-358-b_39_);fill:none;stroke:#FFFFFF;}
	.st84{filter:url(#Adobe_OpacityMaskFilter_39_);}
	.st85{mask:url(#group-358-b_40_);fill:none;stroke:#FFFFFF;}
	.st86{filter:url(#Adobe_OpacityMaskFilter_40_);}
	.st87{mask:url(#group-358-b_41_);fill:none;stroke:#FFFFFF;}
	.st88{filter:url(#Adobe_OpacityMaskFilter_41_);}
	.st89{mask:url(#group-358-b_42_);fill:none;stroke:#FFFFFF;stroke-width:2;}
	.st90{filter:url(#Adobe_OpacityMaskFilter_42_);}
	.st91{mask:url(#group-358-b_43_);fill:none;stroke:#FFFFFF;stroke-width:2;}
	.st92{filter:url(#Adobe_OpacityMaskFilter_43_);}
	.st93{mask:url(#group-358-b_44_);fill:none;stroke:#FFFFFF;}
	.st94{filter:url(#Adobe_OpacityMaskFilter_44_);}
	.st95{mask:url(#group-358-b_45_);fill:none;stroke:#FFFFFF;}
	.st96{filter:url(#Adobe_OpacityMaskFilter_45_);}
	.st97{mask:url(#group-358-b_46_);fill:none;stroke:#FFFFFF;}
	.st98{filter:url(#Adobe_OpacityMaskFilter_46_);}
	.st99{mask:url(#group-358-b_47_);fill:none;stroke:#FFFFFF;}
	.st100{filter:url(#Adobe_OpacityMaskFilter_47_);}
	.st101{mask:url(#group-358-b_48_);fill:none;stroke:#FFFFFF;}
	.st102{filter:url(#Adobe_OpacityMaskFilter_48_);}
	.st103{mask:url(#group-358-b_49_);fill:none;stroke:#FFFFFF;}
	.st104{filter:url(#Adobe_OpacityMaskFilter_49_);}
	.st105{mask:url(#group-358-b_50_);fill:none;stroke:#FFFFFF;}
	.st106{filter:url(#Adobe_OpacityMaskFilter_50_);}
	.st107{mask:url(#group-358-b_51_);fill:none;stroke:#FFFFFF;stroke-width:2;}
	.st108{filter:url(#Adobe_OpacityMaskFilter_51_);}
	.st109{mask:url(#group-358-b_52_);fill:none;stroke:#FFFFFF;stroke-width:2;}
	.st110{filter:url(#Adobe_OpacityMaskFilter_52_);}
	.st111{mask:url(#group-358-b_53_);fill:none;stroke:#FFFFFF;stroke-width:1.5;stroke-linecap:round;}
	.st112{filter:url(#Adobe_OpacityMaskFilter_53_);}
	.st113{mask:url(#group-358-b_54_);fill:none;stroke:#FFFFFF;stroke-width:2;}
	.st114{filter:url(#Adobe_OpacityMaskFilter_54_);}
	.st115{mask:url(#group-358-b_55_);fill:none;stroke:#FFFFFF;stroke-width:1.5;stroke-linecap:round;}
	.st116{filter:url(#Adobe_OpacityMaskFilter_55_);}
	.st117{mask:url(#group-358-b_56_);fill:none;stroke:#FFFFFF;stroke-width:2;}
	.st118{filter:url(#Adobe_OpacityMaskFilter_56_);}
	.st119{mask:url(#group-358-b_57_);fill:none;stroke:#FFFFFF;stroke-width:2;stroke-linecap:round;}
</style>
<g>
	<path class="st0" d="M552.5,387.9v-10c0-1.7,3-7,3-7s3,5.3,3,7v12 M563.5,390.9v-13c0-1.7,3-7,3-7s3,5.3,3,7v15"/>
	<path class="st1" d="M609,269h-81c-1.7,0-3-1.4-3-3s1.3-3,3-3h81 M555,269v100 M538,269l16.4,16.4"/>
	<polyline class="st1" points="600,369 600,277 720,277 720,369 	"/>
	<path class="st2" d="M652.5,296v21 M677.5,312v21 M702.5,328v21"/>
	<polyline class="st1" points="609,277 609,202 690,202 690,277 	"/>
	<path class="st0" d="M574.5,393.9v-16c0-1.7,3-7,3-7s3,5.3,3,7v16 M585.5,393.9v-16c0-1.7,3-7,3-7s3,5.3,3,7v16 M596.5,393.9v-16
		c0-1.7,3-7,3-7s3,5.3,3,7v16 M607.5,393.9v-16c0-1.7,3-7,3-7s3,5.3,3,7v16 M618.5,393.9v-16c0-1.7,3-7,3-7s3,5.3,3,7v16
		 M629.5,393.9v-16c0-1.7,3-7,3-7s3,5.3,3,7v16 M640.5,393.9v-16c0-1.7,3-7,3-7s3,5.3,3,7v16 M651.5,393.9v-16c0-1.7,3-7,3-7
		s3,5.3,3,7v16 M662.5,393.9v-16c0-1.7,3-7,3-7s3,5.3,3,7v16 M673.5,393.9v-16c0-1.7,3-7,3-7s3,5.3,3,7v16 M684.5,393.9v-16
		c0-1.7,3-7,3-7s3,5.3,3,7v16 M695.5,393.9v-16c0-1.7,3-7,3-7s3,5.3,3,7v16 M588.5,369v-36c0-6.1-10.5-16-10.5-16s-10.5,9.9-10.5,16
		v36"/>
	<polyline class="st1" points="528,263 528,242 570,242 	"/>
	<path class="st0" d="M591.5,263v-36c0-6.1-10.5-16-10.5-16s-10.5,9.9-10.5,16v36 M661,368.5c0-10.2-8.3-18.5-18.5-18.5
		s-18.5,8.3-18.5,18.5 M706.5,393.9v-16c0-1.7,3-7,3-7s3,5.3,3,7v16 M717.5,393.9v-16c0-1.7,3-7,3-7s3,5.3,3,7v16 M728.5,393.9v-16
		c0-1.7,3-7,3-7s3,5.3,3,7v16 M739.5,393.9v-16c0-1.7,3-7,3-7s3,5.3,3,7v16 M750.5,393.9v-16c0-1.7,3-7,3-7s3,5.3,3,7v16
		 M761.5,393.9v-16c0-1.7,3-7,3-7s3,5.3,3,7v16 M772.5,393.9v-16c0-1.7,3-7,3-7s3,5.3,3,7v16 M783.5,393.9v-16c0-1.7,3-7,3-7
		s3,5.3,3,7v16 M794.5,393.9v-16c0-1.7,3-7,3-7s3,5.3,3,7v16 M805.5,393.9v-16c0-1.7,3-7,3-7s3,5.3,3,7v16 M816.5,393.9v-16
		c0-1.7,3-7,3-7s3,5.3,3,7v16 M827.5,393.9v-16c0-1.7,3-7,3-7s3,5.3,3,7v16 M838.5,393.9v-16c0-1.7,3-7,3-7s3,5.3,3,7v16
		 M849.5,393.9v-16c0-1.7,3-7,3-7s3,5.3,3,7v16 M860.5,393.9v-16c0-1.7,3-7,3-7s3,5.3,3,7v16 M871.5,393.9v-16c0-1.7,3-7,3-7
		s3,5.3,3,7v16 M882.5,393.9v-16c0-1.7,3-7,3-7s3,5.3,3,7v16 M893.5,393.9v-16c0-1.7,3-7,3-7s3,5.3,3,7v16 M904.5,393.9v-16
		c0-1.7,3-7,3-7s3,5.3,3,7v16 M915.5,393.9v-16c0-1.7,3-7,3-7s3,5.3,3,7v16 M926.5,393.9v-16c0-1.7,3-7,3-7s3,5.3,3,7v16
		 M937.5,393.9v-16c0-1.7,3-7,3-7s3,5.3,3,7v16 M948.5,393.9v-16c0-1.7,3-7,3-7s3,5.3,3,7v16 M534.5,242v21 M540.5,242v21
		 M546.5,242v21 M552.5,242v21 M558.5,242v21 M564.5,242v21 M597.5,242v21 M603.5,242v21 M696.5,242v21 M702.5,242v21 M708.5,242v21
		 M714.5,242v21 M645.5,256v-25.6c0-4.3-7.5-11.4-7.5-11.4s-7.5,7.1-7.5,11.4V256H645.5z M669.5,256v-25.6c0-4.3-7.5-11.4-7.5-11.4
		s-7.5,7.1-7.5,11.4V256H669.5z M904.5,369v-36c0-6.1-10.5-16-10.5-16s-10.5,9.9-10.5,16v36"/>
	<polygon class="st1" points="738,215 744,179 745,179 751,215 	"/>
	<polyline class="st1" points="739,263 739,215 750,215 750,263 	"/>
	<polygon class="st1" points="828,215 834,179 835,179 841,215 	"/>
	<polyline class="st1" points="829,263 829,215 840,215 840,263 	"/>
	<polyline class="st1" points="720,263 720,238 739,238 	"/>
	<polyline class="st1" points="750,238 769,238 769,263 	"/>
	<polyline class="st1" points="780,263 780,238 799,238 799,263 	"/>
	<polyline class="st1" points="810,263 810,238 829,238 	"/>
	<polyline class="st1" points="720,263 853,263 859,263 859,238 840,238 	"/>
	<path class="st0" d="M651,152.5H549c-1.7,0-3-1.4-3-3s1.3-3,3-3h102c1.7,0,3,1.4,3,3S652.7,152.5,651,152.5z M651,118.5H549
		c-1.7,0-3-1.3-3-3s1.3-3,3-3h102c1.7,0,3,1.3,3,3S652.7,118.5,651,118.5z"/>
	<polyline class="st1" points="552.2,152 555,176 646.2,176 649,152 	"/>
	<path class="st1" d="M555,176v66 M646,176v4"/>
	<path class="st0" d="M799.5,355v-36c0-6.1-10.5-16-10.5-16s-10.5,9.9-10.5,16v36H799.5z"/>
	<path class="st1" d="M690,242h30 M690,263h30 M690,269h30"/>
	<polyline class="st1" points="552,100 552,88 564,88 564,100 	"/>
	<polyline class="st1" points="573,100 573,88 585,88 585,100 	"/>
	<polyline class="st1" points="594,100 594,88 606,88 606,100 	"/>
	<polyline class="st1" points="615,100 615,88 627,88 627,100 	"/>
	<polyline class="st1" points="636,100 636,88 648,88 648,100 	"/>
	<polyline class="st1" points="552,112 552,100 648,100 648,112 	"/>
	<polygon class="st1" points="556,65 565,29 567,29 575,65 	"/>
	<polyline class="st1" points="558,88 558,65 573,65 573,88 	"/>
	<polyline class="st1" points="854,302 934,302 934,369 	"/>
	<polyline class="st1" points="918,302 918,285 934,285 934,302 	"/>
	<polyline class="st1" points="896,302 896,285 912,285 912,302 	"/>
	<polyline class="st1" points="874,302 874,285 890,285 890,302 	"/>
	<polyline class="st1" points="854,285 868,285 868,302 	"/>
	<path class="st1" d="M566,0v21 M570,25c0,2.2-1.8,4-4,4s-4-1.8-4-4s1.8-4,4-4S570,22.8,570,25z"/>
	<polygon class="st1" points="625,65 634,29 636,29 644,65 	"/>
	<polyline class="st1" points="627,88 627,65 642,65 642,88 	"/>
	<path class="st1" d="M635,0v21 M639,25c0,2.2-1.8,4-4,4s-4-1.8-4-4s1.8-4,4-4S639,22.8,639,25z"/>
	<polyline class="st1" points="609,202 603,202 603,181 615,181 615,190 621,190 621,181 630,181 630,190 637,190 637,181 646,181 
		646,190 653,190 653,181 662,181 662,190 669,190 669,181 678,181 678,190 684,190 684,181 696,181 696,202 690,202 	"/>
	<polyline class="st1" points="525,382 525,369 960,369 960,394 575,394 	"/>
	<path class="st1" d="M552,146v-28 M648,118v28 M853,369V263 M591.8,242h18 M720,242v35 M566,428c0-13.2-10.8-24-24-24
		s-24,10.8-24,24c0,0-0.2,3.9,0.9,8.4l-114.4-1.9c0.5-1.5,1-7,1-7c0-12.9-10.6-23.5-23.5-23.5s-23.5,10.6-23.5,23.5l0.1,2.5
		l-3.3-0.4c-6.2-0.7-14.9-2.7-17.7-8.9c-1.5-3.5-0.2-7.7,0.6-11.2c0.4-2,1-4.2,2.6-5.6c2.1-1.9,2.4-3.2,2.4-3.2l0.2-15.9
		c0,0-0.6-2.3,2.1-3.8c2.8-1.5,9.1-7.6,9.1-7.6s8.5-6.2,10-7c0,0-2.3-2.3-0.6-4c0,0,0.4-0.6,5.6-1.4c0,0,52.9-5.3,73.9-4.5
		c0,0,26.2,1.2,39.8,6.7c13.6,5.5,23.6,9.1,43.7,20.2c0,0,23.6,2.5,44.8,10.2c0,0,13,4.5,13.6,9.3c0,0,4.9,4.7,4.9,10.4
		c0,5.7-1.1,12.3-1.1,12.3s0,0.8,0.6,1.5c0.6,0.6,1.5,1.9,1.1,2.3c-0.4,0.4-9.3,5.3-25.5,6.6L566,428z"/>
	<path class="st3" d="M451.2,364.2c0,0,18.9,0.9,30.8,6.4c0,0,14.2,6.2,19.5,9.1c0,0,5.7,2.5,6.4,3c0.6,0.4,0.8,0.8,0.8,2.1
		c0,1.3-1.7,4.5-1.7,4.5s-0.6,1.3-2.3,1.3c-1.7,0-50.1-4-50.1-4L451.2,364.2z M469.9,396.8c-5.4-0.4-10.6-0.9-14.4-1.2 M413.8,392.5
		c-5.4-0.4-10.6-0.9-14.4-1.2 M441.8,363.8l0.6,21.7l-39.5-3.4c0,0-0.8-7.2,1.3-10.2c2.1-3,4.5-6.2,4.5-6.2S427.2,363,441.8,363.8z"
		/>
	<path class="st2" d="M394.1,376.9c-2.7,3.3-4.7,7-4.7,10.9c0,3.8,0.8,7,2.2,9.9 M513.2,392.4c0.6,1.5,1.2,3.1,1.7,4.7
		c1.3,4.7,1.4,10.3,0.9,15.9"/>
	<path class="st4" d="M368.6,428c0,7.4,6,13.4,13.4,13.4c7.4,0,13.4-6,13.4-13.4s-6-13.4-13.4-13.4
		C374.6,414.6,368.6,420.6,368.6,428z"/>
	<path class="st4" d="M363,428c0,10.5,8.5,19,19,19s19-8.5,19-19s-8.5-19-19-19S363,417.5,363,428z"/>
	<path class="st3" d="M359.8,376.9c0,0,3,4.7,6.4,5.3c0,0,9.4,1.8,10.5,2.7c1.1,0.8,1.1,1.3,1.1,1.3s-1.5,1.5-3.4,1.9
		c-1.9,0.4-9.1,0.6-9.8,0.6s-4,0.2-5.1,1.7c-1.1,1.5-3.8,4.9-4.5,6.6l-7.2-1.3c0,0-3-0.8-3.4-2.3c-0.4-1.5-0.8-4.5,0-6.2
		c0.8-1.7,1.5-2.8,1.5-2.8s0.4-1.1,4.7-3.2C354.8,379.1,359.8,376.9,359.8,376.9z M556.6,397.5c0,0,13.2-0.4,19.3,1.9
		c0,0,7.3,2.9,9.4,6.3c0,0,0.2,0.6,0,1.9c-0.2,1.3-1.1,0.9-2.5,0.6c-1.5-0.2-8.3-1.5-8.3-1.5s-4.5-0.8-7.6-3
		C563.7,401.6,556.6,397.5,556.6,397.5z"/>
	<path class="st2" d="M446.8,364.1c1.9,21.8,1.8,43.3,2.2,65.1"/>
	<path class="st4" d="M479,450h95 M315,450h84 M274,450h23 M245,450h13 M528.6,428c0,7.4,6,13.4,13.4,13.4s13.4-6,13.4-13.4
		s-6-13.4-13.4-13.4S528.6,420.6,528.6,428z"/>
	<path class="st4" d="M523,428c0,10.5,8.5,19,19,19s19-8.5,19-19s-8.5-19-19-19S523,417.5,523,428z"/>
	<path class="st0" d="M530.5,383.9v-6c0-1.7,3-7,3-7s3,5.3,3,7v6 M541.5,384.9v-7c0-1.7,3-7,3-7s3,5.3,3,7v9 M9.5,211v10"/>
	<defs>
		<filter id="Adobe_OpacityMaskFilter" filterUnits="userSpaceOnUse" x="26" y="247" width="28" height="39">
			<feColorMatrix  type="matrix" values="1 0 0 0 0  0 1 0 0 0  0 0 1 0 0  0 0 0 1 0"/>
		</filter>
	</defs>
	<mask maskUnits="userSpaceOnUse" x="26" y="247" width="28" height="39" id="group-358-b_1_">
		<g class="st5">
			<polygon id="group-358-a_1_" class="st6" points="0,451 961,451 961,0 0,0 			"/>
		</g>
	</mask>
	<polygon class="st7" points="26.5,285.5 53.5,285.5 53.5,247.5 26.5,247.5 	"/>
	<defs>
		<filter id="Adobe_OpacityMaskFilter_1_" filterUnits="userSpaceOnUse" x="26" y="307" width="29" height="55">
			<feColorMatrix  type="matrix" values="1 0 0 0 0  0 1 0 0 0  0 0 1 0 0  0 0 0 1 0"/>
		</filter>
	</defs>
	<mask maskUnits="userSpaceOnUse" x="26" y="307" width="29" height="55" id="group-358-b_2_">
		<g class="st8">
			<polygon id="group-358-a_2_" class="st6" points="0,451 961,451 961,0 0,0 			"/>
		</g>
	</mask>
	<path class="st9" d="M54.5,361.5h-28V321c0-7.5,6-13.5,13.5-13.5h1c7.5,0,13.5,6,13.5,13.5V361.5z"/>
	<defs>
		<filter id="Adobe_OpacityMaskFilter_2_" filterUnits="userSpaceOnUse" x="107" y="389" width="51" height="5">
			<feColorMatrix  type="matrix" values="1 0 0 0 0  0 1 0 0 0  0 0 1 0 0  0 0 0 1 0"/>
		</filter>
	</defs>
	<mask maskUnits="userSpaceOnUse" x="107" y="389" width="51" height="5" id="group-358-b_3_">
		<g class="st10">
			<polygon id="group-358-a_3_" class="st6" points="0,451 961,451 961,0 0,0 			"/>
		</g>
	</mask>
	<polygon class="st11" points="107.5,393.5 157.5,393.5 157.5,389.5 107.5,389.5 	"/>
	<defs>
		<filter id="Adobe_OpacityMaskFilter_3_" filterUnits="userSpaceOnUse" x="26.5" y="307.5" width="28" height="54">
			<feColorMatrix  type="matrix" values="1 0 0 0 0  0 1 0 0 0  0 0 1 0 0  0 0 0 1 0"/>
		</filter>
	</defs>
	<mask maskUnits="userSpaceOnUse" x="26.5" y="307.5" width="28" height="54" id="group-358-b_4_">
		<g class="st12">
			<polygon id="group-358-a_4_" class="st6" points="0,451 961,451 961,0 0,0 			"/>
		</g>
	</mask>
	<path class="st13" d="M40.5,307.5v54 M26.5,327.4h28"/>
	<defs>
		<filter id="Adobe_OpacityMaskFilter_4_" filterUnits="userSpaceOnUse" x="0" y="203" width="172" height="9">
			<feColorMatrix  type="matrix" values="1 0 0 0 0  0 1 0 0 0  0 0 1 0 0  0 0 0 1 0"/>
		</filter>
	</defs>
	<mask maskUnits="userSpaceOnUse" x="0" y="203" width="172" height="9" id="group-358-b_5_">
		<g class="st14">
			<polygon id="group-358-a_5_" class="st6" points="0,451 961,451 961,0 0,0 			"/>
		</g>
	</mask>
	<polygon class="st15" points="1,211 171,211 171,204 1,204 	"/>
	<defs>
		<filter id="Adobe_OpacityMaskFilter_5_" filterUnits="userSpaceOnUse" x="24" y="285" width="32" height="5">
			<feColorMatrix  type="matrix" values="1 0 0 0 0  0 1 0 0 0  0 0 1 0 0  0 0 0 1 0"/>
		</filter>
	</defs>
	<mask maskUnits="userSpaceOnUse" x="24" y="285" width="32" height="5" id="group-358-b_6_">
		<g class="st16">
			<polygon id="group-358-a_6_" class="st6" points="0,451 961,451 961,0 0,0 			"/>
		</g>
	</mask>
	<polygon class="st17" points="24.5,289.5 55.5,289.5 55.5,285.5 24.5,285.5 	"/>
	<defs>
		<filter id="Adobe_OpacityMaskFilter_6_" filterUnits="userSpaceOnUse" x="270" y="327" width="137" height="30.5">
			<feColorMatrix  type="matrix" values="1 0 0 0 0  0 1 0 0 0  0 0 1 0 0  0 0 0 1 0"/>
		</filter>
	</defs>
	<mask maskUnits="userSpaceOnUse" x="270" y="327" width="137" height="30.5" id="group-358-b_7_">
		<g class="st18">
			<polygon id="group-358-a_7_" class="st6" points="0,451 961,451 961,0 0,0 			"/>
		</g>
	</mask>
	<path class="st19" d="M406,327v30.5 M271,343v-16"/>
	<defs>
		<filter id="Adobe_OpacityMaskFilter_7_" filterUnits="userSpaceOnUse" x="291" y="346.5" width="57" height="48">
			<feColorMatrix  type="matrix" values="1 0 0 0 0  0 1 0 0 0  0 0 1 0 0  0 0 0 1 0"/>
		</filter>
	</defs>
	<mask maskUnits="userSpaceOnUse" x="291" y="346.5" width="57" height="48" id="group-358-b_8_">
		<g class="st20">
			<polygon id="group-358-a_8_" class="st6" points="0,451 961,451 961,0 0,0 			"/>
		</g>
	</mask>
	<path class="st21" d="M347.5,346.5V379 M291.5,394.5v-48"/>
	<defs>
		<filter id="Adobe_OpacityMaskFilter_8_" filterUnits="userSpaceOnUse" x="291" y="271" width="21" height="35">
			<feColorMatrix  type="matrix" values="1 0 0 0 0  0 1 0 0 0  0 0 1 0 0  0 0 0 1 0"/>
		</filter>
	</defs>
	<mask maskUnits="userSpaceOnUse" x="291" y="271" width="21" height="35" id="group-358-b_9_">
		<g class="st22">
			<polygon id="group-358-a_9_" class="st6" points="0,451 961,451 961,0 0,0 			"/>
		</g>
	</mask>
	<polygon class="st23" points="291.5,305.5 311.5,305.5 311.5,271.5 291.5,271.5 	"/>
	<defs>
		<filter id="Adobe_OpacityMaskFilter_9_" filterUnits="userSpaceOnUse" x="363" y="341" width="23" height="21.5">
			<feColorMatrix  type="matrix" values="1 0 0 0 0  0 1 0 0 0  0 0 1 0 0  0 0 0 1 0"/>
		</filter>
	</defs>
	<mask maskUnits="userSpaceOnUse" x="363" y="341" width="23" height="21.5" id="group-358-b_10_">
		<g class="st24">
			<polygon id="group-358-a_10_" class="st6" points="0,451 961,451 961,0 0,0 			"/>
		</g>
	</mask>
	<polyline class="st25" points="363.5,362.5 363.5,341.5 385.5,341.5 385.5,359.8 	"/>
	<defs>
		<filter id="Adobe_OpacityMaskFilter_10_" filterUnits="userSpaceOnUse" x="267" y="318" width="143" height="10">
			<feColorMatrix  type="matrix" values="1 0 0 0 0  0 1 0 0 0  0 0 1 0 0  0 0 0 1 0"/>
		</filter>
	</defs>
	<mask maskUnits="userSpaceOnUse" x="267" y="318" width="143" height="10" id="group-358-b_11_">
		<g class="st26">
			<polygon id="group-358-a_11_" class="st6" points="0,451 961,451 961,0 0,0 			"/>
		</g>
	</mask>
	<polygon class="st27" points="267.5,327.5 409.5,327.5 409.5,318.5 267.5,318.5 	"/>
	<defs>
		<filter id="Adobe_OpacityMaskFilter_11_" filterUnits="userSpaceOnUse" x="291.5" y="271" width="20" height="34.5">
			<feColorMatrix  type="matrix" values="1 0 0 0 0  0 1 0 0 0  0 0 1 0 0  0 0 0 1 0"/>
		</filter>
	</defs>
	<mask maskUnits="userSpaceOnUse" x="291.5" y="271" width="20" height="34.5" id="group-358-b_12_">
		<g class="st28">
			<polygon id="group-358-a_12_" class="st6" points="0,451 961,451 961,0 0,0 			"/>
		</g>
	</mask>
	<path class="st29" d="M301.5,271v34.5 M311.5,288.5h-20"/>
	<defs>
		<filter id="Adobe_OpacityMaskFilter_12_" filterUnits="userSpaceOnUse" x="365" y="271" width="21" height="35">
			<feColorMatrix  type="matrix" values="1 0 0 0 0  0 1 0 0 0  0 0 1 0 0  0 0 0 1 0"/>
		</filter>
	</defs>
	<mask maskUnits="userSpaceOnUse" x="365" y="271" width="21" height="35" id="group-358-b_13_">
		<g class="st30">
			<polygon id="group-358-a_13_" class="st6" points="0,451 961,451 961,0 0,0 			"/>
		</g>
	</mask>
	<polygon class="st31" points="365.5,305.5 385.5,305.5 385.5,271.5 365.5,271.5 	"/>
	<defs>
		<filter id="Adobe_OpacityMaskFilter_13_" filterUnits="userSpaceOnUse" x="365.5" y="271" width="20" height="34.5">
			<feColorMatrix  type="matrix" values="1 0 0 0 0  0 1 0 0 0  0 0 1 0 0  0 0 0 1 0"/>
		</filter>
	</defs>
	<mask maskUnits="userSpaceOnUse" x="365.5" y="271" width="20" height="34.5" id="group-358-b_14_">
		<g class="st32">
			<polygon id="group-358-a_14_" class="st6" points="0,451 961,451 961,0 0,0 			"/>
		</g>
	</mask>
	<path class="st33" d="M375.5,271v34.5 M385.5,288.5h-20"/>
	<defs>
		<filter id="Adobe_OpacityMaskFilter_14_" filterUnits="userSpaceOnUse" x="328" y="271" width="21" height="35">
			<feColorMatrix  type="matrix" values="1 0 0 0 0  0 1 0 0 0  0 0 1 0 0  0 0 0 1 0"/>
		</filter>
	</defs>
	<mask maskUnits="userSpaceOnUse" x="328" y="271" width="21" height="35" id="group-358-b_15_">
		<g class="st34">
			<polygon id="group-358-a_15_" class="st6" points="0,451 961,451 961,0 0,0 			"/>
		</g>
	</mask>
	<polygon class="st35" points="328.5,305.5 348.5,305.5 348.5,271.5 328.5,271.5 	"/>
	<defs>
		<filter id="Adobe_OpacityMaskFilter_15_" filterUnits="userSpaceOnUse" x="328.5" y="271" width="20" height="34.5">
			<feColorMatrix  type="matrix" values="1 0 0 0 0  0 1 0 0 0  0 0 1 0 0  0 0 0 1 0"/>
		</filter>
	</defs>
	<mask maskUnits="userSpaceOnUse" x="328.5" y="271" width="20" height="34.5" id="group-358-b_16_">
		<g class="st36">
			<polygon id="group-358-a_16_" class="st6" points="0,451 961,451 961,0 0,0 			"/>
		</g>
	</mask>
	<path class="st37" d="M338.5,271v34.5 M348.5,288.5h-20"/>
	<defs>
		<filter id="Adobe_OpacityMaskFilter_16_" filterUnits="userSpaceOnUse" x="291" y="224" width="21" height="35">
			<feColorMatrix  type="matrix" values="1 0 0 0 0  0 1 0 0 0  0 0 1 0 0  0 0 0 1 0"/>
		</filter>
	</defs>
	<mask maskUnits="userSpaceOnUse" x="291" y="224" width="21" height="35" id="group-358-b_17_">
		<g class="st38">
			<polygon id="group-358-a_17_" class="st6" points="0,451 961,451 961,0 0,0 			"/>
		</g>
	</mask>
	<polygon class="st39" points="291.5,258.5 311.5,258.5 311.5,224.5 291.5,224.5 	"/>
	<defs>
		<filter id="Adobe_OpacityMaskFilter_17_" filterUnits="userSpaceOnUse" x="291.5" y="224" width="20" height="34.5">
			<feColorMatrix  type="matrix" values="1 0 0 0 0  0 1 0 0 0  0 0 1 0 0  0 0 0 1 0"/>
		</filter>
	</defs>
	<mask maskUnits="userSpaceOnUse" x="291.5" y="224" width="20" height="34.5" id="group-358-b_18_">
		<g class="st40">
			<polygon id="group-358-a_18_" class="st6" points="0,451 961,451 961,0 0,0 			"/>
		</g>
	</mask>
	<path class="st41" d="M301.5,224v34.5 M311.5,241.5h-20"/>
	<defs>
		<filter id="Adobe_OpacityMaskFilter_18_" filterUnits="userSpaceOnUse" x="365" y="224" width="21" height="35">
			<feColorMatrix  type="matrix" values="1 0 0 0 0  0 1 0 0 0  0 0 1 0 0  0 0 0 1 0"/>
		</filter>
	</defs>
	<mask maskUnits="userSpaceOnUse" x="365" y="224" width="21" height="35" id="group-358-b_19_">
		<g class="st42">
			<polygon id="group-358-a_19_" class="st6" points="0,451 961,451 961,0 0,0 			"/>
		</g>
	</mask>
	<polygon class="st43" points="365.5,258.5 385.5,258.5 385.5,224.5 365.5,224.5 	"/>
	<defs>
		<filter id="Adobe_OpacityMaskFilter_19_" filterUnits="userSpaceOnUse" x="365.5" y="224" width="20" height="34.5">
			<feColorMatrix  type="matrix" values="1 0 0 0 0  0 1 0 0 0  0 0 1 0 0  0 0 0 1 0"/>
		</filter>
	</defs>
	<mask maskUnits="userSpaceOnUse" x="365.5" y="224" width="20" height="34.5" id="group-358-b_20_">
		<g class="st44">
			<polygon id="group-358-a_20_" class="st6" points="0,451 961,451 961,0 0,0 			"/>
		</g>
	</mask>
	<path class="st45" d="M375.5,224v34.5 M385.5,241.5h-20"/>
	<defs>
		<filter id="Adobe_OpacityMaskFilter_20_" filterUnits="userSpaceOnUse" x="328" y="224" width="21" height="35">
			<feColorMatrix  type="matrix" values="1 0 0 0 0  0 1 0 0 0  0 0 1 0 0  0 0 0 1 0"/>
		</filter>
	</defs>
	<mask maskUnits="userSpaceOnUse" x="328" y="224" width="21" height="35" id="group-358-b_21_">
		<g class="st46">
			<polygon id="group-358-a_21_" class="st6" points="0,451 961,451 961,0 0,0 			"/>
		</g>
	</mask>
	<polygon class="st47" points="328.5,258.5 348.5,258.5 348.5,224.5 328.5,224.5 	"/>
	<defs>
		<filter id="Adobe_OpacityMaskFilter_21_" filterUnits="userSpaceOnUse" x="328.5" y="224" width="20" height="34.5">
			<feColorMatrix  type="matrix" values="1 0 0 0 0  0 1 0 0 0  0 0 1 0 0  0 0 0 1 0"/>
		</filter>
	</defs>
	<mask maskUnits="userSpaceOnUse" x="328.5" y="224" width="20" height="34.5" id="group-358-b_22_">
		<g class="st48">
			<polygon id="group-358-a_22_" class="st6" points="0,451 961,451 961,0 0,0 			"/>
		</g>
	</mask>
	<path class="st49" d="M338.5,224v34.5 M348.5,241.5h-20"/>
	<defs>
		<filter id="Adobe_OpacityMaskFilter_22_" filterUnits="userSpaceOnUse" x="270" y="206" width="137" height="112">
			<feColorMatrix  type="matrix" values="1 0 0 0 0  0 1 0 0 0  0 0 1 0 0  0 0 0 1 0"/>
		</filter>
	</defs>
	<mask maskUnits="userSpaceOnUse" x="270" y="206" width="137" height="112" id="group-358-b_23_">
		<g class="st50">
			<polygon id="group-358-a_23_" class="st6" points="0,451 961,451 961,0 0,0 			"/>
		</g>
	</mask>
	<path class="st51" d="M271,318V206 M406,206v112"/>
	<defs>
		<filter id="Adobe_OpacityMaskFilter_23_" filterUnits="userSpaceOnUse" x="271" y="211" width="134" height="1">
			<feColorMatrix  type="matrix" values="1 0 0 0 0  0 1 0 0 0  0 0 1 0 0  0 0 0 1 0"/>
		</filter>
	</defs>
	<mask maskUnits="userSpaceOnUse" x="271" y="211" width="134" height="1" id="group-358-b_24_">
		<g class="st52">
			<polygon id="group-358-a_24_" class="st6" points="0,451 961,451 961,0 0,0 			"/>
		</g>
	</mask>
	<path class="st53" d="M271,211.5h134"/>
	<defs>
		<filter id="Adobe_OpacityMaskFilter_24_" filterUnits="userSpaceOnUse" x="267" y="197" width="143" height="10">
			<feColorMatrix  type="matrix" values="1 0 0 0 0  0 1 0 0 0  0 0 1 0 0  0 0 0 1 0"/>
		</filter>
	</defs>
	<mask maskUnits="userSpaceOnUse" x="267" y="197" width="143" height="10" id="group-358-b_25_">
		<g class="st54">
			<polygon id="group-358-a_25_" class="st6" points="0,451 961,451 961,0 0,0 			"/>
		</g>
	</mask>
	<polygon class="st55" points="267.5,206.5 409.5,206.5 409.5,197.5 267.5,197.5 	"/>
	<defs>
		<filter id="Adobe_OpacityMaskFilter_25_" filterUnits="userSpaceOnUse" x="270" y="137" width="13" height="60">
			<feColorMatrix  type="matrix" values="1 0 0 0 0  0 1 0 0 0  0 0 1 0 0  0 0 0 1 0"/>
		</filter>
	</defs>
	<mask maskUnits="userSpaceOnUse" x="270" y="137" width="13" height="60" id="group-358-b_26_">
		<g class="st56">
			<polygon id="group-358-a_26_" class="st6" points="0,451 961,451 961,0 0,0 			"/>
		</g>
	</mask>
	<polygon class="st57" points="271,196 282,196 282,138 271,138 	"/>
	<defs>
		<filter id="Adobe_OpacityMaskFilter_26_" filterUnits="userSpaceOnUse" x="271" y="188" width="11" height="1">
			<feColorMatrix  type="matrix" values="1 0 0 0 0  0 1 0 0 0  0 0 1 0 0  0 0 0 1 0"/>
		</filter>
	</defs>
	<mask maskUnits="userSpaceOnUse" x="271" y="188" width="11" height="1" id="group-358-b_27_">
		<g class="st58">
			<polygon id="group-358-a_27_" class="st6" points="0,451 961,451 961,0 0,0 			"/>
		</g>
	</mask>
	<path class="st59" d="M271,188.5h11"/>
	<defs>
		<filter id="Adobe_OpacityMaskFilter_27_" filterUnits="userSpaceOnUse" x="394" y="137" width="13" height="60">
			<feColorMatrix  type="matrix" values="1 0 0 0 0  0 1 0 0 0  0 0 1 0 0  0 0 0 1 0"/>
		</filter>
	</defs>
	<mask maskUnits="userSpaceOnUse" x="394" y="137" width="13" height="60" id="group-358-b_28_">
		<g class="st60">
			<polygon id="group-358-a_28_" class="st6" points="0,451 961,451 961,0 0,0 			"/>
		</g>
	</mask>
	<polygon class="st61" points="395,196 406,196 406,138 395,138 	"/>
	<defs>
		<filter id="Adobe_OpacityMaskFilter_28_" filterUnits="userSpaceOnUse" x="395" y="188" width="11" height="1">
			<feColorMatrix  type="matrix" values="1 0 0 0 0  0 1 0 0 0  0 0 1 0 0  0 0 0 1 0"/>
		</filter>
	</defs>
	<mask maskUnits="userSpaceOnUse" x="395" y="188" width="11" height="1" id="group-358-b_29_">
		<g class="st62">
			<polygon id="group-358-a_29_" class="st6" points="0,451 961,451 961,0 0,0 			"/>
		</g>
	</mask>
	<path class="st63" d="M395,188.5h11"/>
	<defs>
		<filter id="Adobe_OpacityMaskFilter_29_" filterUnits="userSpaceOnUse" x="367" y="345" width="13" height="16.5">
			<feColorMatrix  type="matrix" values="1 0 0 0 0  0 1 0 0 0  0 0 1 0 0  0 0 0 1 0"/>
		</filter>
	</defs>
	<mask maskUnits="userSpaceOnUse" x="367" y="345" width="13" height="16.5" id="group-358-b_30_">
		<g class="st64">
			<polygon id="group-358-a_30_" class="st6" points="0,451 961,451 961,0 0,0 			"/>
		</g>
	</mask>
	<polyline class="st65" points="367.5,361.5 367.5,345.5 379.5,345.5 379.5,360.5 	"/>
	<defs>
		<filter id="Adobe_OpacityMaskFilter_30_" filterUnits="userSpaceOnUse" x="293" y="148" width="92" height="49">
			<feColorMatrix  type="matrix" values="1 0 0 0 0  0 1 0 0 0  0 0 1 0 0  0 0 0 1 0"/>
		</filter>
	</defs>
	<mask maskUnits="userSpaceOnUse" x="293" y="148" width="92" height="49" id="group-358-b_31_">
		<g class="st66">
			<polygon id="group-358-a_31_" class="st6" points="0,451 961,451 961,0 0,0 			"/>
		</g>
	</mask>
	<path class="st67" d="M293.5,148v49 M306.5,148v49 M319.5,148v33 M332.5,148v28 M345.5,148v30 M358.5,148v36 M371.5,148v49
		 M384.5,148v49"/>
	<defs>
		<filter id="Adobe_OpacityMaskFilter_31_" filterUnits="userSpaceOnUse" x="305" y="172.7" width="63" height="24.3">
			<feColorMatrix  type="matrix" values="1 0 0 0 0  0 1 0 0 0  0 0 1 0 0  0 0 0 1 0"/>
		</filter>
	</defs>
	<mask maskUnits="userSpaceOnUse" x="305" y="172.7" width="63" height="24.3" id="group-358-b_32_">
		<g class="st68">
			<polygon id="group-358-a_32_" class="st6" points="0,451 961,451 961,0 0,0 			"/>
		</g>
	</mask>
	<polyline class="st69" points="306,197 306,186.4 337.3,173.8 367,187.3 367,197 	"/>
	<defs>
		<filter id="Adobe_OpacityMaskFilter_32_" filterUnits="userSpaceOnUse" x="329.6" y="180.4" width="13.6" height="13.6">
			<feColorMatrix  type="matrix" values="1 0 0 0 0  0 1 0 0 0  0 0 1 0 0  0 0 0 1 0"/>
		</filter>
	</defs>
	<mask maskUnits="userSpaceOnUse" x="329.6" y="180.4" width="13.6" height="13.6" id="group-358-b_33_">
		<g class="st70">
			<polygon id="group-358-a_33_" class="st6" points="0,451 961,451 961,0 0,0 			"/>
		</g>
	</mask>
	<path class="st71" d="M340.8,182.7c2.5,2.5,2.5,6.4,0,8.9c-2.5,2.5-6.4,2.5-8.9,0c-2.5-2.5-2.5-6.4,0-8.9
		C334.4,180.3,338.4,180.3,340.8,182.7z"/>
	<defs>
		<filter id="Adobe_OpacityMaskFilter_33_" filterUnits="userSpaceOnUse" x="298" y="359" width="43" height="34.8">
			<feColorMatrix  type="matrix" values="1 0 0 0 0  0 1 0 0 0  0 0 1 0 0  0 0 0 1 0"/>
		</filter>
	</defs>
	<mask maskUnits="userSpaceOnUse" x="298" y="359" width="43" height="34.8" id="group-358-b_34_">
		<g class="st72">
			<polygon id="group-358-a_34_" class="st6" points="0,451 961,451 961,0 0,0 			"/>
		</g>
	</mask>
	<polyline class="st73" points="298.5,393.8 298.5,359.5 340.5,359.5 340.5,393.5 	"/>
	<defs>
		<filter id="Adobe_OpacityMaskFilter_34_" filterUnits="userSpaceOnUse" x="288" y="341" width="63" height="6">
			<feColorMatrix  type="matrix" values="1 0 0 0 0  0 1 0 0 0  0 0 1 0 0  0 0 0 1 0"/>
		</filter>
	</defs>
	<mask maskUnits="userSpaceOnUse" x="288" y="341" width="63" height="6" id="group-358-b_35_">
		<g class="st74">
			<polygon id="group-358-a_35_" class="st6" points="0,451 961,451 961,0 0,0 			"/>
		</g>
	</mask>
	<polygon class="st75" points="288.5,346.5 350.5,346.5 350.5,341.5 288.5,341.5 	"/>
	<defs>
		<filter id="Adobe_OpacityMaskFilter_35_" filterUnits="userSpaceOnUse" x="314" y="375" width="11" height="3">
			<feColorMatrix  type="matrix" values="1 0 0 0 0  0 1 0 0 0  0 0 1 0 0  0 0 0 1 0"/>
		</filter>
	</defs>
	<mask maskUnits="userSpaceOnUse" x="314" y="375" width="11" height="3" id="group-358-b_36_">
		<g class="st76">
			<polygon id="group-358-a_36_" class="st6" points="0,451 961,451 961,0 0,0 			"/>
		</g>
	</mask>
	<path class="st77" d="M316.5,376.5c0,0.6-0.4,1-1,1s-1-0.4-1-1s0.4-1,1-1S316.5,375.9,316.5,376.5z M324.5,376.5c0,0.6-0.4,1-1,1
		s-1-0.4-1-1s0.4-1,1-1S324.5,375.9,324.5,376.5z"/>
	<defs>
		<filter id="Adobe_OpacityMaskFilter_36_" filterUnits="userSpaceOnUse" x="298" y="350" width="43" height="6">
			<feColorMatrix  type="matrix" values="1 0 0 0 0  0 1 0 0 0  0 0 1 0 0  0 0 0 1 0"/>
		</filter>
	</defs>
	<mask maskUnits="userSpaceOnUse" x="298" y="350" width="43" height="6" id="group-358-b_37_">
		<g class="st78">
			<polygon id="group-358-a_37_" class="st6" points="0,451 961,451 961,0 0,0 			"/>
		</g>
	</mask>
	<polygon class="st79" points="298.5,355.5 340.5,355.5 340.5,350.5 298.5,350.5 	"/>
	<defs>
		<filter id="Adobe_OpacityMaskFilter_37_" filterUnits="userSpaceOnUse" x="119" y="337" width="27" height="49">
			<feColorMatrix  type="matrix" values="1 0 0 0 0  0 1 0 0 0  0 0 1 0 0  0 0 0 1 0"/>
		</filter>
	</defs>
	<mask maskUnits="userSpaceOnUse" x="119" y="337" width="27" height="49" id="group-358-b_38_">
		<g class="st80">
			<polygon id="group-358-a_38_" class="st6" points="0,451 961,451 961,0 0,0 			"/>
		</g>
	</mask>
	<polygon class="st81" points="119.5,385.5 145.5,385.5 145.5,337.5 119.5,337.5 	"/>
	<defs>
		<filter id="Adobe_OpacityMaskFilter_38_" filterUnits="userSpaceOnUse" x="125" y="343" width="6" height="23">
			<feColorMatrix  type="matrix" values="1 0 0 0 0  0 1 0 0 0  0 0 1 0 0  0 0 0 1 0"/>
		</filter>
	</defs>
	<mask maskUnits="userSpaceOnUse" x="125" y="343" width="6" height="23" id="group-358-b_39_">
		<g class="st82">
			<polygon id="group-358-a_39_" class="st6" points="0,451 961,451 961,0 0,0 			"/>
		</g>
	</mask>
	<polygon class="st83" points="125.5,365.5 130.5,365.5 130.5,343.5 125.5,343.5 	"/>
	<defs>
		<filter id="Adobe_OpacityMaskFilter_39_" filterUnits="userSpaceOnUse" x="113" y="385" width="39" height="5">
			<feColorMatrix  type="matrix" values="1 0 0 0 0  0 1 0 0 0  0 0 1 0 0  0 0 0 1 0"/>
		</filter>
	</defs>
	<mask maskUnits="userSpaceOnUse" x="113" y="385" width="39" height="5" id="group-358-b_40_">
		<g class="st84">
			<polygon id="group-358-a_40_" class="st6" points="0,451 961,451 961,0 0,0 			"/>
		</g>
	</mask>
	<polygon class="st85" points="113.5,389.5 151.5,389.5 151.5,385.5 113.5,385.5 	"/>
	<defs>
		<filter id="Adobe_OpacityMaskFilter_40_" filterUnits="userSpaceOnUse" x="125" y="369" width="15" height="12">
			<feColorMatrix  type="matrix" values="1 0 0 0 0  0 1 0 0 0  0 0 1 0 0  0 0 0 1 0"/>
		</filter>
	</defs>
	<mask maskUnits="userSpaceOnUse" x="125" y="369" width="15" height="12" id="group-358-b_41_">
		<g class="st86">
			<polygon id="group-358-a_41_" class="st6" points="0,451 961,451 961,0 0,0 			"/>
		</g>
	</mask>
	<polygon class="st87" points="125.5,380.5 139.5,380.5 139.5,369.5 125.5,369.5 	"/>
	<defs>
		<filter id="Adobe_OpacityMaskFilter_41_" filterUnits="userSpaceOnUse" x="0" y="221" width="172" height="9">
			<feColorMatrix  type="matrix" values="1 0 0 0 0  0 1 0 0 0  0 0 1 0 0  0 0 0 1 0"/>
		</filter>
	</defs>
	<mask maskUnits="userSpaceOnUse" x="0" y="221" width="172" height="9" id="group-358-b_42_">
		<g class="st88">
			<polygon id="group-358-a_42_" class="st6" points="0,451 961,451 961,0 0,0 			"/>
		</g>
	</mask>
	<polygon class="st89" points="1,229 171,229 171,222 1,222 	"/>
	<defs>
		<filter id="Adobe_OpacityMaskFilter_42_" filterUnits="userSpaceOnUse" x="5" y="228" width="162" height="167">
			<feColorMatrix  type="matrix" values="1 0 0 0 0  0 1 0 0 0  0 0 1 0 0  0 0 0 1 0"/>
		</filter>
	</defs>
	<mask maskUnits="userSpaceOnUse" x="5" y="228" width="162" height="167" id="group-358-b_43_">
		<g class="st90">
			<polygon id="group-358-a_43_" class="st6" points="0,451 961,451 961,0 0,0 			"/>
		</g>
	</mask>
	<polygon class="st91" points="6,394 166,394 166,229 6,229 	"/>
	<defs>
		<filter id="Adobe_OpacityMaskFilter_43_" filterUnits="userSpaceOnUse" x="28" y="211" width="134" height="11">
			<feColorMatrix  type="matrix" values="1 0 0 0 0  0 1 0 0 0  0 0 1 0 0  0 0 0 1 0"/>
		</filter>
	</defs>
	<mask maskUnits="userSpaceOnUse" x="28" y="211" width="134" height="11" id="group-358-b_44_">
		<g class="st92">
			<polygon id="group-358-a_44_" class="st6" points="0,451 961,451 961,0 0,0 			"/>
		</g>
	</mask>
	<path class="st93" d="M28.5,211v10 M47.5,212v10 M66.5,212v10 M85.5,211v10 M104.5,211v10 M123.5,212v10 M142.5,212v10 M161.5,211
		v10"/>
	<defs>
		<filter id="Adobe_OpacityMaskFilter_44_" filterUnits="userSpaceOnUse" x="134" y="343" width="6" height="23">
			<feColorMatrix  type="matrix" values="1 0 0 0 0  0 1 0 0 0  0 0 1 0 0  0 0 0 1 0"/>
		</filter>
	</defs>
	<mask maskUnits="userSpaceOnUse" x="134" y="343" width="6" height="23" id="group-358-b_45_">
		<g class="st94">
			<polygon id="group-358-a_45_" class="st6" points="0,451 961,451 961,0 0,0 			"/>
		</g>
	</mask>
	<polygon class="st95" points="134.5,365.5 139.5,365.5 139.5,343.5 134.5,343.5 	"/>
	<defs>
		<filter id="Adobe_OpacityMaskFilter_45_" filterUnits="userSpaceOnUse" x="71" y="247" width="28" height="39">
			<feColorMatrix  type="matrix" values="1 0 0 0 0  0 1 0 0 0  0 0 1 0 0  0 0 0 1 0"/>
		</filter>
	</defs>
	<mask maskUnits="userSpaceOnUse" x="71" y="247" width="28" height="39" id="group-358-b_46_">
		<g class="st96">
			<polygon id="group-358-a_46_" class="st6" points="0,451 961,451 961,0 0,0 			"/>
		</g>
	</mask>
	<polygon class="st97" points="71.5,285.5 98.5,285.5 98.5,247.5 71.5,247.5 	"/>
	<defs>
		<filter id="Adobe_OpacityMaskFilter_46_" filterUnits="userSpaceOnUse" x="69" y="285" width="32" height="5">
			<feColorMatrix  type="matrix" values="1 0 0 0 0  0 1 0 0 0  0 0 1 0 0  0 0 0 1 0"/>
		</filter>
	</defs>
	<mask maskUnits="userSpaceOnUse" x="69" y="285" width="32" height="5" id="group-358-b_47_">
		<g class="st98">
			<polygon id="group-358-a_47_" class="st6" points="0,451 961,451 961,0 0,0 			"/>
		</g>
	</mask>
	<polygon class="st99" points="69.5,289.5 100.5,289.5 100.5,285.5 69.5,285.5 	"/>
	<defs>
		<filter id="Adobe_OpacityMaskFilter_47_" filterUnits="userSpaceOnUse" x="116" y="247" width="28" height="39">
			<feColorMatrix  type="matrix" values="1 0 0 0 0  0 1 0 0 0  0 0 1 0 0  0 0 0 1 0"/>
		</filter>
	</defs>
	<mask maskUnits="userSpaceOnUse" x="116" y="247" width="28" height="39" id="group-358-b_48_">
		<g class="st100">
			<polygon id="group-358-a_48_" class="st6" points="0,451 961,451 961,0 0,0 			"/>
		</g>
	</mask>
	<polygon class="st101" points="116.5,285.5 143.5,285.5 143.5,247.5 116.5,247.5 	"/>
	<defs>
		<filter id="Adobe_OpacityMaskFilter_48_" filterUnits="userSpaceOnUse" x="114" y="285" width="32" height="5">
			<feColorMatrix  type="matrix" values="1 0 0 0 0  0 1 0 0 0  0 0 1 0 0  0 0 0 1 0"/>
		</filter>
	</defs>
	<mask maskUnits="userSpaceOnUse" x="114" y="285" width="32" height="5" id="group-358-b_49_">
		<g class="st102">
			<polygon id="group-358-a_49_" class="st6" points="0,451 961,451 961,0 0,0 			"/>
		</g>
	</mask>
	<polygon class="st103" points="114.5,289.5 145.5,289.5 145.5,285.5 114.5,285.5 	"/>
	<defs>
		<filter id="Adobe_OpacityMaskFilter_49_" filterUnits="userSpaceOnUse" x="26.5" y="247.5" width="293.5" height="146.5">
			<feColorMatrix  type="matrix" values="1 0 0 0 0  0 1 0 0 0  0 0 1 0 0  0 0 0 1 0"/>
		</filter>
	</defs>
	<mask maskUnits="userSpaceOnUse" x="26.5" y="247.5" width="293.5" height="146.5" id="group-358-b_50_">
		<g class="st104">
			<polygon id="group-358-a_50_" class="st6" points="0,451 961,451 961,0 0,0 			"/>
		</g>
	</mask>
	<path class="st105" d="M26.5,344.4h28 M99.5,361.5h-28V321c0-7.5,6-13.5,13.5-13.5h1c7.5,0,13.5,6,13.5,13.5V361.5z M85.5,307.5v54
		 M71.5,327.4h28 M71.5,344.4h28 M319.5,359.5V394 M79.5,247.5v38 M124.5,247.5v38 M34.5,247.5v38"/>
	<defs>
		<filter id="Adobe_OpacityMaskFilter_50_" filterUnits="userSpaceOnUse" x="165.4" y="345.8" width="124.6" height="47.8">
			<feColorMatrix  type="matrix" values="1 0 0 0 0  0 1 0 0 0  0 0 1 0 0  0 0 0 1 0"/>
		</filter>
	</defs>
	<mask maskUnits="userSpaceOnUse" x="165.4" y="345.8" width="124.6" height="47.8" id="group-358-b_51_">
		<g class="st106">
			<polygon id="group-358-a_51_" class="st6" points="0,451 961,451 961,0 0,0 			"/>
		</g>
	</mask>
	<path class="st107" d="M287.7,393.2c0.9-2.2,1.3-4.6,1.3-7.2c0-8.9-5.8-16.3-13.4-17.7c0.3-0.9,0.4-1.8,0.4-2.8c0-2.6-1-5-2.7-6.8
		 M194.9,346.7c-4.6,1.7-7.9,6.1-7.9,11.3c0,0.1,0,0.3,0,0.4c-2-0.9-4.2-1.4-6.5-1.4c-6.8,0-12.6,4.3-14.1,10"/>
	<defs>
		<filter id="Adobe_OpacityMaskFilter_51_" filterUnits="userSpaceOnUse" x="229.5" y="330.6" width="45.3" height="47.1">
			<feColorMatrix  type="matrix" values="1 0 0 0 0  0 1 0 0 0  0 0 1 0 0  0 0 0 1 0"/>
		</filter>
	</defs>
	<mask maskUnits="userSpaceOnUse" x="229.5" y="330.6" width="45.3" height="47.1" id="group-358-b_52_">
		<g class="st108">
			<polygon id="group-358-a_52_" class="st6" points="0,451 961,451 961,0 0,0 			"/>
		</g>
	</mask>
	<path class="st109" d="M231.7,342.9c3.9-6.8,11.2-11.4,19.6-11.4c12.5,0,22.5,10.1,22.5,22.5c0,12.5-10.1,22.5-22.5,22.5
		c-9.4,0-17.5-5.8-20.9-14"/>
	<defs>
		<filter id="Adobe_OpacityMaskFilter_52_" filterUnits="userSpaceOnUse" x="241.7" y="355.9" width="15.9" height="13.8">
			<feColorMatrix  type="matrix" values="1 0 0 0 0  0 1 0 0 0  0 0 1 0 0  0 0 0 1 0"/>
		</filter>
	</defs>
	<mask maskUnits="userSpaceOnUse" x="241.7" y="355.9" width="15.9" height="13.8" id="group-358-b_53_">
		<g class="st110">
			<polygon id="group-358-a_53_" class="st6" points="0,451 961,451 961,0 0,0 			"/>
		</g>
	</mask>
	<path class="st111" d="M256.9,356.6l-5.8,5.6 M242.5,360.4l8.8,8.6"/>
	<defs>
		<filter id="Adobe_OpacityMaskFilter_53_" filterUnits="userSpaceOnUse" x="193" y="284.3" width="41.7" height="87.7">
			<feColorMatrix  type="matrix" values="1 0 0 0 0  0 1 0 0 0  0 0 1 0 0  0 0 0 1 0"/>
		</filter>
	</defs>
	<mask maskUnits="userSpaceOnUse" x="193" y="284.3" width="41.7" height="87.7" id="group-358-b_54_">
		<g class="st112">
			<polygon id="group-358-a_54_" class="st6" points="0,451 961,451 961,0 0,0 			"/>
		</g>
	</mask>
	<path class="st113" d="M228,337.9c-1.5-1.7-1.6-4.5-0.3-6.2c0,0,3.3-4.4,3.3-9.5c0-6.4-5.9-12.1-5.9-12.1c-1.6-1.5-1.8-4.2-0.5-6
		c0,0,1.8-2.5,1.8-6.2c0-7-5.7-12.6-12.6-12.6c-7,0-12.6,5.7-12.6,12.6c0,3.7,1.8,6.2,1.8,6.2c1.3,1.8,1.1,4.5-0.5,6
		c0,0-5.9,5.7-5.9,12.1c0,5,3.3,9.5,3.3,9.5c1.3,1.8,1.2,4.6-0.3,6.2c0,0-5.7,6.5-5.7,13.2c0,11,8.9,19.8,19.8,19.8
		c11,0,19.8-8.9,19.8-19.8C233.7,344.4,228,337.9,228,337.9z"/>
	<defs>
		<filter id="Adobe_OpacityMaskFilter_54_" filterUnits="userSpaceOnUse" x="207.7" y="326" width="12.3" height="37.6">
			<feColorMatrix  type="matrix" values="1 0 0 0 0  0 1 0 0 0  0 0 1 0 0  0 0 0 1 0"/>
		</filter>
	</defs>
	<mask maskUnits="userSpaceOnUse" x="207.7" y="326" width="12.3" height="37.6" id="group-358-b_55_">
		<g class="st114">
			<polygon id="group-358-a_55_" class="st6" points="0,451 961,451 961,0 0,0 			"/>
		</g>
	</mask>
	<path class="st115" d="M213.9,362.8l5.4-5.4 M213.9,332.2l5.4-5.4 M213.9,348.4l-5.4-5.4"/>
	<defs>
		<filter id="Adobe_OpacityMaskFilter_55_" filterUnits="userSpaceOnUse" x="165" y="147" width="229" height="248">
			<feColorMatrix  type="matrix" values="1 0 0 0 0  0 1 0 0 0  0 0 1 0 0  0 0 0 1 0"/>
		</filter>
	</defs>
	<mask maskUnits="userSpaceOnUse" x="165" y="147" width="229" height="248" id="group-358-b_56_">
		<g class="st116">
			<polygon id="group-358-a_56_" class="st6" points="0,451 961,451 961,0 0,0 			"/>
		</g>
	</mask>
	<path class="st117" d="M282,148h112 M343.8,394H165"/>
	<defs>
		<filter id="Adobe_OpacityMaskFilter_56_" filterUnits="userSpaceOnUse" x="213" y="316" width="39" height="79">
			<feColorMatrix  type="matrix" values="1 0 0 0 0  0 1 0 0 0  0 0 1 0 0  0 0 0 1 0"/>
		</filter>
	</defs>
	<mask maskUnits="userSpaceOnUse" x="213" y="316" width="39" height="79" id="group-358-b_57_">
		<g class="st118">
			<polygon id="group-358-a_57_" class="st6" points="0,451 961,451 961,0 0,0 			"/>
		</g>
	</mask>
	<path class="st119" d="M251,352.9V394 M214,317v75.9"/>
</g>
</svg>
