<svg xmlns="http://www.w3.org/2000/svg" xmlns:xlink="http://www.w3.org/1999/xlink" width="1138" height="470" viewBox="0 0 1138 470">
  <defs>
    <polygon id="main-illustration-a" points="0 470 1138 470 1138 0 0 0"/>
  </defs>
  <g fill="none" fill-rule="evenodd">
    <path stroke="#2749FF" d="M98.5,211 L98.5,221"/>
    <polygon stroke="#2749FF" points="115.5 285.5 142.5 285.5 142.5 247.5 115.5 247.5"/>
    <path stroke="#2749FF" d="M143.5,361.5 L115.5,361.5 L115.5,321 C115.5,313.544 121.544,307.5 129,307.5 L130,307.5 C137.456,307.5 143.5,313.544 143.5,321 L143.5,361.5 Z"/>
    <path stroke="#2749FF" stroke-width="2" d="M39.8936 308.6309C39.8936 303.7269 43.8696 299.7509 48.7726 299.7509 53.6766 299.7509 57.6526 303.7269 57.6526 308.6309M36.2866 308.6309L60.6356 308.6309"/>
    <polyline stroke="#2749FF" stroke-width="2" points="41.697 308.631 43.501 326.667 54.322 326.667 56.126 308.631"/>
    <path stroke="#2749FF" stroke-width="2" d="M48.9116,326.667 L48.9116,364.542"/>
    <polygon stroke="#2749FF" stroke-width="2" points="43.501 394.302 47.108 364.542 50.715 364.542 54.323 394.302"/>
    <mask id="main-illustration-b" fill="#fff">
      <use xlink:href="#main-illustration-a"/>
    </mask>
    <polygon stroke="#2749FF" points="196.5 393.5 246.5 393.5 246.5 389.5 196.5 389.5" mask="url(#main-illustration-b)"/>
    <path stroke="#2749FF" d="M129.5 307.5L129.5 361.5M115.5 327.3779L143.5 327.3779" mask="url(#main-illustration-b)"/>
    <polygon stroke="#2749FF" stroke-width="2" points="90 211 260 211 260 204 90 204" mask="url(#main-illustration-b)"/>
    <polygon stroke="#2749FF" points="113.5 289.5 144.5 289.5 144.5 285.5 113.5 285.5" mask="url(#main-illustration-b)"/>
    <path stroke="#2749FF" d="M729.5 393.9375L729.5 377.9815C729.5 376.3295 732.5 371.0005 732.5 371.0005 732.5 371.0005 735.5 376.3295 735.5 377.9815L735.5 393.9995M740.5 393.9375L740.5 377.9815C740.5 376.3295 743.5 371.0005 743.5 371.0005 743.5 371.0005 746.5 376.3295 746.5 377.9815L746.5 393.9995" mask="url(#main-illustration-b)"/>
    <path stroke="#2749FF" stroke-width="2" d="M786 269L705 269C703.35 269 702 267.65 702 266 702 264.35 703.35 263 705 263L786 263M732 269L732 369M715 269L731.375 285.375" mask="url(#main-illustration-b)"/>
    <polyline stroke="#2749FF" stroke-width="2" points="777 369 777 277 897 277 897 369" mask="url(#main-illustration-b)"/>
    <path stroke="#2749FF" stroke-linecap="round" d="M829.5 296L829.5 317M854.5 312L854.5 333M879.5 328L879.5 349" mask="url(#main-illustration-b)"/>
    <polyline stroke="#2749FF" stroke-width="2" points="786 277 786 202 867 202 867 277" mask="url(#main-illustration-b)"/>
    <path stroke="#2749FF" d="M751.5 393.9375L751.5 377.9815C751.5 376.3295 754.5 371.0005 754.5 371.0005 754.5 371.0005 757.5 376.3295 757.5 377.9815L757.5 393.9995M762.5 393.9375L762.5 377.9815C762.5 376.3295 765.5 371.0005 765.5 371.0005 765.5 371.0005 768.5 376.3295 768.5 377.9815L768.5 393.9995M773.5 393.9375L773.5 377.9815C773.5 376.3295 776.5 371.0005 776.5 371.0005 776.5 371.0005 779.5 376.3295 779.5 377.9815L779.5 393.9995M784.5 393.9375L784.5 377.9815C784.5 376.3295 787.5 371.0005 787.5 371.0005 787.5 371.0005 790.5 376.3295 790.5 377.9815L790.5 393.9995M795.5 393.9375L795.5 377.9815C795.5 376.3295 798.5 371.0005 798.5 371.0005 798.5 371.0005 801.5 376.3295 801.5 377.9815L801.5 393.9995M806.5 393.9375L806.5 377.9815C806.5 376.3295 809.5 371.0005 809.5 371.0005 809.5 371.0005 812.5 376.3295 812.5 377.9815L812.5 393.9995M817.5 393.9375L817.5 377.9815C817.5 376.3295 820.5 371.0005 820.5 371.0005 820.5 371.0005 823.5 376.3295 823.5 377.9815L823.5 393.9995M828.5 393.9375L828.5 377.9815C828.5 376.3295 831.5 371.0005 831.5 371.0005 831.5 371.0005 834.5 376.3295 834.5 377.9815L834.5 393.9995M839.5 393.9375L839.5 377.9815C839.5 376.3295 842.5 371.0005 842.5 371.0005 842.5 371.0005 845.5 376.3295 845.5 377.9815L845.5 393.9995M850.5 393.9375L850.5 377.9815C850.5 376.3295 853.5 371.0005 853.5 371.0005 853.5 371.0005 856.5 376.3295 856.5 377.9815L856.5 393.9995M861.5 393.9375L861.5 377.9815C861.5 376.3295 864.5 371.0005 864.5 371.0005 864.5 371.0005 867.5 376.3295 867.5 377.9815L867.5 393.9995M872.5 393.9375L872.5 377.9815C872.5 376.3295 875.5 371.0005 875.5 371.0005 875.5 371.0005 878.5 376.3295 878.5 377.9815L878.5 393.9995M765.5 369L765.5 333C765.5 326.925 755 317 755 317 755 317 744.5 326.925 744.5 333L744.5 369" mask="url(#main-illustration-b)"/>
    <polyline stroke="#2749FF" stroke-width="2" points="705 263 705 242 747 242" mask="url(#main-illustration-b)"/>
    <path stroke="#2749FF" d="M768.5 263L768.5 227C768.5 220.925 758 211 758 211 758 211 747.5 220.925 747.5 227L747.5 263M838 368.5C838 358.283 829.717 350 819.5 350 809.283 350 801 358.283 801 368.5M883.5 393.9375L883.5 377.9815C883.5 376.3295 886.5 371.0005 886.5 371.0005 886.5 371.0005 889.5 376.3295 889.5 377.9815L889.5 393.9995M894.5 393.9375L894.5 377.9815C894.5 376.3295 897.5 371.0005 897.5 371.0005 897.5 371.0005 900.5 376.3295 900.5 377.9815L900.5 393.9995M905.5 393.9375L905.5 377.9815C905.5 376.3295 908.5 371.0005 908.5 371.0005 908.5 371.0005 911.5 376.3295 911.5 377.9815L911.5 393.9995M916.5 393.9375L916.5 377.9815C916.5 376.3295 919.5 371.0005 919.5 371.0005 919.5 371.0005 922.5 376.3295 922.5 377.9815L922.5 393.9995M927.5 393.9375L927.5 377.9815C927.5 376.3295 930.5 371.0005 930.5 371.0005 930.5 371.0005 933.5 376.3295 933.5 377.9815L933.5 393.9995M938.5 393.9375L938.5 377.9815C938.5 376.3295 941.5 371.0005 941.5 371.0005 941.5 371.0005 944.5 376.3295 944.5 377.9815L944.5 393.9995M949.5 393.9375L949.5 377.9815C949.5 376.3295 952.5 371.0005 952.5 371.0005 952.5 371.0005 955.5 376.3295 955.5 377.9815L955.5 393.9995M960.5 393.9375L960.5 377.9815C960.5 376.3295 963.5 371.0005 963.5 371.0005 963.5 371.0005 966.5 376.3295 966.5 377.9815L966.5 393.9995M971.5 393.9375L971.5 377.9815C971.5 376.3295 974.5 371.0005 974.5 371.0005 974.5 371.0005 977.5 376.3295 977.5 377.9815L977.5 393.9995M982.5 393.9375L982.5 377.9815C982.5 376.3295 985.5 371.0005 985.5 371.0005 985.5 371.0005 988.5 376.3295 988.5 377.9815L988.5 393.9995M993.5 393.9375L993.5 377.9815C993.5 376.3295 996.5 371.0005 996.5 371.0005 996.5 371.0005 999.5 376.3295 999.5 377.9815L999.5 393.9995M1004.5 393.9375L1004.5 377.9815C1004.5 376.3295 1007.5 371.0005 1007.5 371.0005 1007.5 371.0005 1010.5 376.3295 1010.5 377.9815L1010.5 393.9995M1015.5 393.9375L1015.5 377.9815C1015.5 376.3295 1018.5 371.0005 1018.5 371.0005 1018.5 371.0005 1021.5 376.3295 1021.5 377.9815L1021.5 393.9995M1026.5 393.9375L1026.5 377.9815C1026.5 376.3295 1029.5 371.0005 1029.5 371.0005 1029.5 371.0005 1032.5 376.3295 1032.5 377.9815L1032.5 393.9995M1037.5 393.9375L1037.5 377.9815C1037.5 376.3295 1040.5 371.0005 1040.5 371.0005 1040.5 371.0005 1043.5 376.3295 1043.5 377.9815L1043.5 393.9995M1048.5 393.9375L1048.5 377.9815C1048.5 376.3295 1051.5 371.0005 1051.5 371.0005 1051.5 371.0005 1054.5 376.3295 1054.5 377.9815L1054.5 393.9995M1059.5 393.9375L1059.5 377.9815C1059.5 376.3295 1062.5 371.0005 1062.5 371.0005 1062.5 371.0005 1065.5 376.3295 1065.5 377.9815L1065.5 393.9995M1070.5 393.9375L1070.5 377.9815C1070.5 376.3295 1073.5 371.0005 1073.5 371.0005 1073.5 371.0005 1076.5 376.3295 1076.5 377.9815L1076.5 393.9995M1081.5 393.9375L1081.5 377.9815C1081.5 376.3295 1084.5 371.0005 1084.5 371.0005 1084.5 371.0005 1087.5 376.3295 1087.5 377.9815L1087.5 393.9995M1092.5 393.9375L1092.5 377.9815C1092.5 376.3295 1095.5 371.0005 1095.5 371.0005 1095.5 371.0005 1098.5 376.3295 1098.5 377.9815L1098.5 393.9995M1103.5 393.9375L1103.5 377.9815C1103.5 376.3295 1106.5 371.0005 1106.5 371.0005 1106.5 371.0005 1109.5 376.3295 1109.5 377.9815L1109.5 393.9995M1114.5 393.9375L1114.5 377.9815C1114.5 376.3295 1117.5 371.0005 1117.5 371.0005 1117.5 371.0005 1120.5 376.3295 1120.5 377.9815L1120.5 393.9995M1125.5 393.9375L1125.5 377.9815C1125.5 376.3295 1128.5 371.0005 1128.5 371.0005 1128.5 371.0005 1131.5 376.3295 1131.5 377.9815L1131.5 393.9995M711.5 242L711.5 263M717.5 242L717.5 263M723.5 242L723.5 263M729.5 242L729.5 263M735.5 242L735.5 263M741.5 242L741.5 263M774.5 242L774.5 263M780.5 242L780.5 263M873.5 242L873.5 263M879.5 242L879.5 263M885.5 242L885.5 263M891.5 242L891.5 263M822.5 256L822.5 230.385C822.5 226.062 815 219 815 219 815 219 807.5 226.062 807.5 230.385L807.5 256 822.5 256zM846.5 256L846.5 230.385C846.5 226.062 839 219 839 219 839 219 831.5 226.062 831.5 230.385L831.5 256 846.5 256zM1081.5 369L1081.5 333C1081.5 326.925 1071 317 1071 317 1071 317 1060.5 326.925 1060.5 333L1060.5 369" mask="url(#main-illustration-b)"/>
    <polygon stroke="#2749FF" stroke-width="2" points="915 215 921 179 922 179 928 215" mask="url(#main-illustration-b)"/>
    <polyline stroke="#2749FF" stroke-width="2" points="916 263 916 215 927 215 927 263" mask="url(#main-illustration-b)"/>
    <polygon stroke="#2749FF" stroke-width="2" points="1005 215 1011 179 1012 179 1018 215" mask="url(#main-illustration-b)"/>
    <polyline stroke="#2749FF" stroke-width="2" points="1006 263 1006 215 1017 215 1017 263" mask="url(#main-illustration-b)"/>
    <polyline stroke="#2749FF" stroke-width="2" points="897 263 897 238 916 238" mask="url(#main-illustration-b)"/>
    <polyline stroke="#2749FF" stroke-width="2" points="927 238 946 238 946 263" mask="url(#main-illustration-b)"/>
    <polyline stroke="#2749FF" stroke-width="2" points="957 263 957 238 976 238 976 263" mask="url(#main-illustration-b)"/>
    <polyline stroke="#2749FF" stroke-width="2" points="987 263 987 238 1006 238" mask="url(#main-illustration-b)"/>
    <polyline stroke="#2749FF" stroke-width="2" points="897 263 1030 263 1036 263 1036 238 1017 238" mask="url(#main-illustration-b)"/>
    <path stroke="#2749FF" d="M828 152.5L726 152.5C724.35 152.5 723 151.15 723 149.5 723 147.85 724.35 146.5 726 146.5L828 146.5C829.65 146.5 831 147.85 831 149.5 831 151.15 829.65 152.5 828 152.5zM828 118.5L726 118.5C724.35 118.5 723 117.15 723 115.5 723 113.85 724.35 112.5 726 112.5L828 112.5C829.65 112.5 831 113.85 831 115.5 831 117.15 829.65 118.5 828 118.5z" mask="url(#main-illustration-b)"/>
    <polyline stroke="#2749FF" stroke-width="2" points="729.25 152 732 176 823.25 176 826 152" mask="url(#main-illustration-b)"/>
    <path stroke="#2749FF" stroke-width="2" d="M732 176L732 242M823 176L823 180" mask="url(#main-illustration-b)"/>
    <path stroke="#2749FF" d="M976.5,355 L976.5,319 C976.5,312.925 966,303 966,303 C966,303 955.5,312.925 955.5,319 L955.5,355 L976.5,355 Z" mask="url(#main-illustration-b)"/>
    <path stroke="#2749FF" stroke-width="2" d="M867 242L897 242M867 263L897 263M867 269L897 269" mask="url(#main-illustration-b)"/>
    <polyline stroke="#2749FF" stroke-width="2" points="729 100 729 88 741 88 741 100" mask="url(#main-illustration-b)"/>
    <polyline stroke="#2749FF" stroke-width="2" points="750 100 750 88 762 88 762 100" mask="url(#main-illustration-b)"/>
    <polyline stroke="#2749FF" stroke-width="2" points="771 100 771 88 783 88 783 100" mask="url(#main-illustration-b)"/>
    <polyline stroke="#2749FF" stroke-width="2" points="792 100 792 88 804 88 804 100" mask="url(#main-illustration-b)"/>
    <polyline stroke="#2749FF" stroke-width="2" points="813 100 813 88 825 88 825 100" mask="url(#main-illustration-b)"/>
    <polyline stroke="#2749FF" stroke-width="2" points="729 112 729 100 825 100 825 112" mask="url(#main-illustration-b)"/>
    <polygon stroke="#2749FF" stroke-width="2" points="733 65 742 29 744 29 752 65" mask="url(#main-illustration-b)"/>
    <polyline stroke="#2749FF" stroke-width="2" points="735 88 735 65 750 65 750 88" mask="url(#main-illustration-b)"/>
    <polyline stroke="#2749FF" stroke-width="2" points="1031 302 1111 302 1111 369" mask="url(#main-illustration-b)"/>
    <polyline stroke="#2749FF" stroke-width="2" points="1095 302 1095 285 1111 285 1111 302" mask="url(#main-illustration-b)"/>
    <polyline stroke="#2749FF" stroke-width="2" points="1073 302 1073 285 1089 285 1089 302" mask="url(#main-illustration-b)"/>
    <polyline stroke="#2749FF" stroke-width="2" points="1051 302 1051 285 1067 285 1067 302" mask="url(#main-illustration-b)"/>
    <polyline stroke="#2749FF" stroke-width="2" points="1031 285 1045 285 1045 302" mask="url(#main-illustration-b)"/>
    <path stroke="#2749FF" stroke-width="2" d="M743 0L743 21M747 25C747 27.209 745.209 29 743 29 740.791 29 739 27.209 739 25 739 22.791 740.791 21 743 21 745.209 21 747 22.791 747 25z" mask="url(#main-illustration-b)"/>
    <polygon stroke="#2749FF" stroke-width="2" points="802 65 811 29 813 29 821 65" mask="url(#main-illustration-b)"/>
    <polyline stroke="#2749FF" stroke-width="2" points="804 88 804 65 819 65 819 88" mask="url(#main-illustration-b)"/>
    <path stroke="#2749FF" stroke-width="2" d="M812 0L812 21M816 25C816 27.209 814.209 29 812 29 809.791 29 808 27.209 808 25 808 22.791 809.791 21 812 21 814.209 21 816 22.791 816 25z" mask="url(#main-illustration-b)"/>
    <polyline stroke="#2749FF" stroke-width="2" points="786 202 780 202 780 181 792 181 792 190 798 190 798 181 807 181 807 190 814 190 814 181 823 181 823 190 830 190 830 181 839 181 839 190 846 190 846 181 855 181 855 190 861 190 861 181 873 181 873 202 867 202" mask="url(#main-illustration-b)"/>
    <polyline stroke="#2749FF" stroke-width="2" points="508 394 640 394 702 394 1137 394 1137 369 715 369" mask="url(#main-illustration-b)"/>
    <path stroke="#2749FF" d="M581.5 346.5L581.5 394.5M525.5 369.5L525.5 346.5" mask="url(#main-illustration-b)"/>
    <polygon stroke="#2749FF" points="525.5 305.5 545.5 305.5 545.5 271.5 525.5 271.5" mask="url(#main-illustration-b)"/>
    <polygon stroke="#2749FF" points="597.5 394.5 619.5 394.5 619.5 341.5 597.5 341.5" mask="url(#main-illustration-b)"/>
    <polygon stroke="#2749FF" points="501.5 327.5 643.5 327.5 643.5 318.5 501.5 318.5" mask="url(#main-illustration-b)"/>
    <path stroke="#2749FF" d="M535.5 271L535.5 305.5M545.5 288.5L525.5 288.5" mask="url(#main-illustration-b)"/>
    <polygon stroke="#2749FF" points="599.5 305.5 619.5 305.5 619.5 271.5 599.5 271.5" mask="url(#main-illustration-b)"/>
    <path stroke="#2749FF" d="M609.5 271L609.5 305.5M619.5 288.5L599.5 288.5" mask="url(#main-illustration-b)"/>
    <polygon stroke="#2749FF" points="562.5 305.5 582.5 305.5 582.5 271.5 562.5 271.5" mask="url(#main-illustration-b)"/>
    <path stroke="#2749FF" d="M572.5 271L572.5 305.5M582.5 288.5L562.5 288.5" mask="url(#main-illustration-b)"/>
    <polygon stroke="#2749FF" points="525.5 258.5 545.5 258.5 545.5 224.5 525.5 224.5" mask="url(#main-illustration-b)"/>
    <path stroke="#2749FF" d="M535.5 224L535.5 258.5M545.5 241.5L525.5 241.5" mask="url(#main-illustration-b)"/>
    <polygon stroke="#2749FF" points="599.5 258.5 619.5 258.5 619.5 224.5 599.5 224.5" mask="url(#main-illustration-b)"/>
    <path stroke="#2749FF" d="M609.5 224L609.5 258.5M619.5 241.5L599.5 241.5" mask="url(#main-illustration-b)"/>
    <polygon stroke="#2749FF" points="562.5 258.5 582.5 258.5 582.5 224.5 562.5 224.5" mask="url(#main-illustration-b)"/>
    <path stroke="#2749FF" d="M572.5 224L572.5 258.5M582.5 241.5L562.5 241.5" mask="url(#main-illustration-b)"/>
    <path stroke="#2749FF" stroke-width="2" d="M505 318L505 206M640 206L640 318" mask="url(#main-illustration-b)"/>
    <path stroke="#2749FF" d="M505,211.5 L639,211.5" mask="url(#main-illustration-b)"/>
    <polygon stroke="#2749FF" points="501.5 206.5 643.5 206.5 643.5 197.5 501.5 197.5" mask="url(#main-illustration-b)"/>
    <polygon stroke="#2749FF" stroke-width="2" points="505 196 516 196 516 138 505 138" mask="url(#main-illustration-b)"/>
    <path stroke="#2749FF" d="M505,188.5 L516,188.5" mask="url(#main-illustration-b)"/>
    <polygon stroke="#2749FF" stroke-width="2" points="629 196 640 196 640 138 629 138" mask="url(#main-illustration-b)"/>
    <path stroke="#2749FF" d="M629,188.5 L640,188.5" mask="url(#main-illustration-b)"/>
    <polygon stroke="#2749FF" points="601.5 365.5 613.5 365.5 613.5 345.5 601.5 345.5" mask="url(#main-illustration-b)"/>
    <path stroke="#2749FF" d="M527.5 148L527.5 197M540.5 148L540.5 197M553.5 148L553.5 181M566.5 148L566.5 176M579.5 148L579.5 178M592.5 148L592.5 184M605.5 148L605.5 197M618.5 148L618.5 197" mask="url(#main-illustration-b)"/>
    <polyline stroke="#2749FF" stroke-width="2" points="540 197 540 186.396 571.291 173.771 601 187.298 601.05 197" mask="url(#main-illustration-b)"/>
    <path stroke="#2749FF" d="M574.8369,182.7275 C577.2929,185.1845 577.2929,189.1665 574.8369,191.6235 C572.3799,194.0795 568.3979,194.0795 565.9409,191.6235 C563.4849,189.1665 563.4849,185.1845 565.9409,182.7275 C568.3979,180.2715 572.3799,180.2715 574.8369,182.7275 Z" mask="url(#main-illustration-b)"/>
    <polygon stroke="#2749FF" points="601.5 389.5 613.5 389.5 613.5 369.5 601.5 369.5" mask="url(#main-illustration-b)"/>
    <path stroke="#2749FF" d="M617.5,367.5 C617.5,368.053 617.052,368.5 616.5,368.5 C615.948,368.5 615.5,368.053 615.5,367.5 C615.5,366.947 615.948,366.5 616.5,366.5 C617.052,366.5 617.5,366.947 617.5,367.5 Z" mask="url(#main-illustration-b)"/>
    <polyline stroke="#2749FF" points="532.5 377.751 532.5 359.5 574.5 359.5 574.5 393.5" mask="url(#main-illustration-b)"/>
    <polygon stroke="#2749FF" points="522.5 346.5 584.5 346.5 584.5 341.5 522.5 341.5" mask="url(#main-illustration-b)"/>
    <path stroke="#2749FF" d="M550.5 376.5C550.5 377.053 550.052 377.5 549.5 377.5 548.948 377.5 548.5 377.053 548.5 376.5 548.5 375.947 548.948 375.5 549.5 375.5 550.052 375.5 550.5 375.947 550.5 376.5zM558.5 376.5C558.5 377.053 558.052 377.5 557.5 377.5 556.948 377.5 556.5 377.053 556.5 376.5 556.5 375.947 556.948 375.5 557.5 375.5 558.052 375.5 558.5 375.947 558.5 376.5z" mask="url(#main-illustration-b)"/>
    <polygon stroke="#2749FF" points="532.5 355.5 574.5 355.5 574.5 350.5 532.5 350.5" mask="url(#main-illustration-b)"/>
    <path stroke="#2749FF" stroke-width="2" d="M349.6665 394L-.000499999998 394M377.0146 342.3398C372.9976 335.4598 365.5416 330.8338 356.9996 330.8338 355.7746 330.8338 354.5716 330.9308 353.3976 331.1138 349.9116 322.7308 341.6456 316.8338 331.9996 316.8338 323.1296 316.8338 315.4276 321.8208 311.5356 329.1428L311.3796 329.4098C309.2176 327.3008 306.2606 325.9998 302.9996 325.9998 298.6806 325.9998 294.9056 328.2898 292.7916 331.7138 290.5566 326.5878 285.4506 322.9998 279.4996 322.9998 272.0386 322.9998 265.9006 328.6368 265.0956 335.8838 263.8446 335.3198 262.4606 334.9998 260.9996 334.9998 258.9866 334.9998 257.1116 335.5958 255.5416 336.6188" mask="url(#main-illustration-b)"/>
    <path stroke="#2749FF" stroke-width="2" d="M421.8799 375.9414C421.0909 370.8814 416.5209 367.0004 410.9999 367.0004 409.8339 367.0004 408.7119 367.1754 407.6569 367.4974 407.8729 366.6974 407.9999 365.8634 407.9999 365.0004 407.9999 359.4774 403.2989 355.0004 397.4749 355.0014 397.2099 346.9494 390.6159 340.5004 382.4999 340.5004 380.1679 340.5004 377.9599 341.0324 375.9909 341.9824M532.6621 393.2158C533.5221 391.0068 534.0001 388.5668 534.0001 385.9998 534.0001 377.0588 528.1991 369.6598 520.6031 368.2588 520.8541 367.3788 521.0001 366.4568 521.0001 365.4998 521.0001 362.8858 519.9991 360.4948 518.3441 358.6568" mask="url(#main-illustration-b)"/>
    <path stroke="#2749FF" stroke-width="2" d="M439.8975 346.7197C435.2905 348.3957 432.0005 352.8137 432.0005 357.9997 432.0005 358.1347 432.0155 358.2657 432.0205 358.4007 430.0585 357.5117 427.8485 356.9997 425.5005 356.9997 418.6545 356.9997 412.9315 361.2567 411.4135 366.9767M721.0366 393.6836C722.2976 391.0376 722.9996 388.0966 722.9996 384.9996 722.9996 375.8346 716.8496 368.0416 708.2736 365.1746M670.2705 363.584C668.9165 363.209 667.4845 363 665.9995 363 658.9335 363 653.0235 367.566 651.4345 373.707 649.8765 373.248 648.2195 373 646.4995 373 637.3875 373 629.9995 379.939 629.9995 388.5 629.9995 390.592 630.4415 392.587 631.2415 394.408" mask="url(#main-illustration-b)"/>
    <path stroke="#2749FF" stroke-width="2" d="M702.5034 336.9795C703.3014 335.1465 703.7504 333.1265 703.7504 331.0005 703.7504 322.7155 697.0344 316.0005 688.7504 316.0005 680.4654 316.0005 673.7504 322.7155 673.7504 331.0005 673.7504 333.1265 674.1984 335.1465 674.9964 336.9795 670.2644 340.9235 667.2504 346.8585 667.2504 353.5005 667.2504 365.3745 676.8764 375.0005 688.7504 375.0005 700.6244 375.0005 710.2504 365.3745 710.2504 353.5005 710.2504 346.8585 707.2354 340.9235 702.5034 336.9795zM273 385L340 385M281 385L281 393M332 385L332 393" mask="url(#main-illustration-b)"/>
    <polygon stroke="#2749FF" stroke-width="2" points="277 381 336 381 336 376 277 376" mask="url(#main-illustration-b)"/>
    <polygon stroke="#2749FF" stroke-width="2" points="277 373 336 373 336 368 277 368" mask="url(#main-illustration-b)"/>
    <polygon stroke="#2749FF" points="208.5 385.5 234.5 385.5 234.5 337.5 208.5 337.5" mask="url(#main-illustration-b)"/>
    <polygon stroke="#2749FF" points="214.5 365.5 219.5 365.5 219.5 343.5 214.5 343.5" mask="url(#main-illustration-b)"/>
    <polygon stroke="#2749FF" points="202.5 389.5 240.5 389.5 240.5 385.5 202.5 385.5" mask="url(#main-illustration-b)"/>
    <polygon stroke="#2749FF" points="214.5 380.5 228.5 380.5 228.5 369.5 214.5 369.5" mask="url(#main-illustration-b)"/>
    <polygon stroke="#2749FF" stroke-width="2" points="90 229 260 229 260 222 90 222" mask="url(#main-illustration-b)"/>
    <polygon stroke="#2749FF" stroke-width="2" points="95 394 255 394 255 229 95 229" mask="url(#main-illustration-b)"/>
    <path stroke="#2749FF" d="M117.5 211L117.5 221M136.5 212L136.5 222M155.5 212L155.5 222M174.5 211L174.5 221M193.5 211L193.5 221M212.5 212L212.5 222M231.5 212L231.5 222M250.5 211L250.5 221" mask="url(#main-illustration-b)"/>
    <polygon stroke="#2749FF" points="223.5 365.5 228.5 365.5 228.5 343.5 223.5 343.5" mask="url(#main-illustration-b)"/>
    <polygon stroke="#2749FF" points="160.5 285.5 187.5 285.5 187.5 247.5 160.5 247.5" mask="url(#main-illustration-b)"/>
    <polygon stroke="#2749FF" points="158.5 289.5 189.5 289.5 189.5 285.5 158.5 285.5" mask="url(#main-illustration-b)"/>
    <polygon stroke="#2749FF" points="205.5 285.5 232.5 285.5 232.5 247.5 205.5 247.5" mask="url(#main-illustration-b)"/>
    <polygon stroke="#2749FF" points="203.5 289.5 234.5 289.5 234.5 285.5 203.5 285.5" mask="url(#main-illustration-b)"/>
    <path stroke="#2749FF" d="M115.5 344.3779L143.5 344.3779M188.5 361.5L160.5 361.5 160.5 321C160.5 313.544 166.544 307.5 174 307.5L175 307.5C182.456 307.5 188.5 313.544 188.5 321L188.5 361.5zM174.5 307.5L174.5 361.5M160.5 327.3779L188.5 327.3779M160.5 344.3779L188.5 344.3779" mask="url(#main-illustration-b)"/>
    <path stroke="#2749FF" stroke-width="2" d="M729 146L729 118M825 118L825 146M1030 369L1030 263M516 148L628 148M476.6675 342.9287C480.5545 336.1477 487.8645 331.5777 496.2415 331.5777 508.6925 331.5777 518.7865 341.6717 518.7865 354.1227 518.7865 366.5747 508.6925 376.6687 496.2415 376.6687 486.8205 376.6687 478.7495 370.8897 475.3785 362.6847" mask="url(#main-illustration-b)"/>
    <path stroke="#2749FF" stroke-linecap="round" stroke-width="1.5" d="M501.8774 356.6289L496.0324 362.2649M487.4736 360.3857L496.2416 368.9447M694.8774 351.6289L689.0324 357.2649M680.4736 355.3857L689.2416 363.9447" mask="url(#main-illustration-b)"/>
    <path stroke="#2749FF" stroke-linecap="round" stroke-width="2" d="M496 352.8711L496 388.0001M689 347L689 394" mask="url(#main-illustration-b)"/>
    <path stroke="#2749FF" stroke-width="2" d="M768.75 242L786.75 242M897 242L897 277" mask="url(#main-illustration-b)"/>
    <path stroke="#2749FF" d="M168.5 247.5L168.5 285.5M213.5 247.5L213.5 285.5M123.5 247.5L123.5 285.5" mask="url(#main-illustration-b)"/>
    <path stroke="#2749FF" stroke-width="2" d="M473.0034,337.9463 C471.5504,336.2943 471.4314,333.4943 472.7374,331.7243 C472.7374,331.7243 476.0084,327.2933 476.0084,322.2563 C476.0084,315.8423 470.1284,310.1153 470.1284,310.1153 C468.5524,308.5803 468.3404,305.8823 469.6584,304.1203 C469.6584,304.1203 471.5004,301.6553 471.5004,297.9073 C471.5004,290.9343 465.8474,285.2823 458.8744,285.2823 C451.9014,285.2823 446.2494,290.9343 446.2494,297.9073 C446.2494,301.6553 448.0914,304.1203 448.0914,304.1203 C449.4084,305.8823 449.1964,308.5803 447.6204,310.1153 C447.6204,310.1153 441.7404,315.8423 441.7404,322.2563 C441.7404,327.2933 445.0114,331.7243 445.0114,331.7243 C446.3184,333.4943 446.1984,336.2943 444.7454,337.9463 C444.7454,337.9463 439.0354,344.4393 439.0354,351.1133 C439.0354,362.0703 447.9174,370.9533 458.8744,370.9533 C469.8324,370.9533 478.7144,362.0703 478.7144,351.1133 C478.7144,344.4393 473.0034,337.9463 473.0034,337.9463 Z" mask="url(#main-illustration-b)"/>
    <path stroke="#2749FF" stroke-linecap="round" stroke-width="1.5" d="M458.8745 362.8369L464.2855 357.4259M458.8745 332.1758L464.2855 326.7648M458.8745 348.4082L453.4635 342.9972" mask="url(#main-illustration-b)"/>
    <path fill="#FFF" d="M459,319.1504 L459,377.0004" mask="url(#main-illustration-b)"/>
    <path stroke="#2749FF" stroke-width="2" d="M563,447 C563,433.8 552.2,423 539,423 C525.8,423 515,433.8 515,447 C515,447 514.825,450.858 515.912,455.429 L401.477,453.519 C401.953,452.036 402.5,446.5 402.5,446.5 C402.5,433.575 391.925,423 379,423 C366.075,423 355.5,433.575 355.5,446.5 L355.6,449 L352.291,448.632 C346.12,447.946 337.378,445.96 334.639,439.699 C333.104,436.191 334.414,432.012 335.194,428.536 C335.643,426.542 336.204,424.366 337.783,422.946 C339.907,421.034 340.18,419.761 340.18,419.761 L340.331,403.838 C340.331,403.838 339.694,401.502 342.454,400.016 C345.214,398.529 351.583,392.373 351.583,392.373 C351.583,392.373 360.076,386.216 361.562,385.366 C361.562,385.366 359.227,383.031 360.925,381.332 C360.925,381.332 361.35,380.695 366.551,379.952 C366.551,379.952 419.417,374.645 440.436,375.494 C440.436,375.494 466.656,376.662 480.244,382.182 C493.832,387.702 503.811,391.312 523.98,402.352 C523.98,402.352 547.546,404.899 568.778,412.542 C568.778,412.542 581.729,417.001 582.366,421.884 C582.366,421.884 587.249,426.555 587.249,432.287 C587.249,438.02 586.187,444.602 586.187,444.602 C586.187,444.602 586.187,445.45 586.824,446.087 C587.461,446.725 588.311,447.998 587.886,448.423 C587.461,448.848 578.544,453.73 562.408,455.005 L563,447 Z" mask="url(#main-illustration-b)"/>
    <path stroke="#2749FF" stroke-linecap="round" stroke-width="1.5" d="M448.1851 383.2432C448.1851 383.2432 467.0811 384.0932 478.9701 389.6122 478.9701 389.6122 493.1951 395.7692 498.5031 398.7422 498.5031 398.7422 504.2351 401.2902 504.8721 401.7142 505.5091 402.1392 505.7211 402.5632 505.7211 403.8382 505.7211 405.1112 504.0231 408.2962 504.0231 408.2962 504.0231 408.2962 503.3861 409.5702 501.6871 409.5702 499.9891 409.5702 451.5821 405.5362 451.5821 405.5362L448.1851 383.2432zM466.9238 415.7539C461.4868 415.3079 456.3228 414.8799 452.4928 414.5629M410.7505 411.5078C405.3135 411.0608 400.1495 410.6338 396.3195 410.3168M438.8433 382.8184L439.4803 404.4744 399.9903 401.0774C399.9903 401.0774 399.1413 393.8584 401.2643 390.8864 403.3873 387.9144 405.7223 384.7294 405.7223 384.7294 405.7223 384.7294 424.1943 381.9694 438.8433 382.8184z" mask="url(#main-illustration-b)"/>
    <path stroke="#2749FF" stroke-linecap="round" d="M391.1318 395.8887C388.4638 399.2377 386.4028 402.8427 386.4028 406.8107 386.4028 410.6167 387.2418 413.8207 388.6038 416.7177M510.1899 411.3926C510.8239 412.9206 511.4009 414.4696 511.8429 416.0686 513.1319 420.7396 513.2419 426.3196 512.7069 431.9686" mask="url(#main-illustration-b)"/>
    <path stroke="#2749FF" stroke-linecap="round" stroke-width="2" d="M365.6372,447 C365.6372,454.38 371.6202,460.362 379.0002,460.362 C386.3802,460.362 392.3632,454.38 392.3632,447 C392.3632,439.62 386.3802,433.638 379.0002,433.638 C371.6202,433.638 365.6372,439.62 365.6372,447 Z" mask="url(#main-illustration-b)"/>
    <path stroke="#2749FF" stroke-linecap="round" stroke-width="2" d="M360,447 C360,457.493 368.506,466 379,466 C389.494,466 398,457.493 398,447 C398,436.507 389.494,428 379,428 C368.506,428 360,436.507 360,447 Z" mask="url(#main-illustration-b)"/>
    <path stroke="#2749FF" stroke-linecap="round" stroke-width="1.5" d="M356.7852 395.876C356.7852 395.876 359.7572 400.547 363.1542 401.184 363.1542 401.184 372.6022 402.988 373.6642 403.838 374.7252 404.687 374.7252 405.111 374.7252 405.111 374.7252 405.111 373.2392 406.598 371.3282 407.022 369.4172 407.446 362.1992 407.659 361.5622 407.659 360.9252 407.659 357.5282 407.871 356.4672 409.357 355.4052 410.844 352.6452 414.24 352.0082 415.939L344.7892 414.665C344.7892 414.665 341.8172 413.816 341.3922 412.33 340.9682 410.844 340.5432 407.871 341.3922 406.173 342.2422 404.475 342.8792 403.413 342.8792 403.413 342.8792 403.413 343.3032 402.352 347.5502 400.229 351.7962 398.105 356.7852 395.876 356.7852 395.876zM553.5977 416.4697C553.5977 416.4697 566.7607 416.0447 572.9177 418.3807 572.9177 418.3807 580.2427 421.2467 582.3657 424.6437 582.3657 424.6437 582.5777 425.2817 582.3657 426.5547 582.1537 427.8277 581.3047 427.4047 579.8177 427.1917 578.3317 426.9797 571.5377 425.7047 571.5377 425.7047 571.5377 425.7047 567.0787 424.8567 563.8947 422.7337 560.7097 420.6107 553.5977 416.4697 553.5977 416.4697z" mask="url(#main-illustration-b)"/>
    <path stroke="#2749FF" stroke-linecap="round" d="M443.8325,383.1367 C445.7175,404.9127 445.6285,426.4107 446.0755,448.2097" mask="url(#main-illustration-b)"/>
    <path stroke="#2749FF" stroke-linecap="round" stroke-width="2" d="M476 469L571 469M312 469L396 469M271 469L294 469M242 469L255 469M525.6372 447C525.6372 454.38 531.6202 460.362 539.0002 460.362 546.3802 460.362 552.3632 454.38 552.3632 447 552.3632 439.62 546.3802 433.638 539.0002 433.638 531.6202 433.638 525.6372 439.62 525.6372 447z" mask="url(#main-illustration-b)"/>
    <path stroke="#2749FF" stroke-linecap="round" stroke-width="2" d="M520 447C520 457.493 528.506 466 539 466 549.494 466 558 457.493 558 447 558 436.507 549.494 428 539 428 528.506 428 520 436.507 520 447zM459 319.1504L459 377.0004" mask="url(#main-illustration-b)"/>
    <path stroke="#2749FF" d="M553.5,359.5 L553.5,394" mask="url(#main-illustration-b)"/>
    <path stroke="#2749FF" stroke-width="2" d="M505 333.667L505 327M640 327L640 374.5" mask="url(#main-illustration-b)"/>
  </g>
</svg>
