<svg xmlns="http://www.w3.org/2000/svg" xmlns:xlink="http://www.w3.org/1999/xlink" width="961" height="451" viewBox="0 0 961 451">
  <defs>
    <polygon id="group-358-a" points="0 451 961 451 961 0 0 0"/>
  </defs>
  <g fill="none" fill-rule="evenodd">
    <path stroke="#2749FF" d="M552.5 387.9375L552.5 377.9815C552.5 376.3295 555.5 371.0005 555.5 371.0005 555.5 371.0005 558.5 376.3295 558.5 377.9815L558.5 390.0005M563.5 390.9375L563.5 377.9815C563.5 376.3295 566.5 371.0005 566.5 371.0005 566.5 371.0005 569.5 376.3295 569.5 377.9815L569.5 393.0005"/>
    <path stroke="#2749FF" stroke-width="2" d="M609 269L528 269C526.35 269 525 267.65 525 266 525 264.35 526.35 263 528 263L609 263M555 269L555 369M538 269L554.375 285.375"/>
    <polyline stroke="#2749FF" stroke-width="2" points="600 369 600 277 720 277 720 369"/>
    <path stroke="#2749FF" stroke-linecap="round" d="M652.5 296L652.5 317M677.5 312L677.5 333M702.5 328L702.5 349"/>
    <polyline stroke="#2749FF" stroke-width="2" points="609 277 609 202 690 202 690 277"/>
    <path stroke="#2749FF" d="M574.5 393.9375L574.5 377.9815C574.5 376.3295 577.5 371.0005 577.5 371.0005 577.5 371.0005 580.5 376.3295 580.5 377.9815L580.5 393.9995M585.5 393.9375L585.5 377.9815C585.5 376.3295 588.5 371.0005 588.5 371.0005 588.5 371.0005 591.5 376.3295 591.5 377.9815L591.5 393.9995M596.5 393.9375L596.5 377.9815C596.5 376.3295 599.5 371.0005 599.5 371.0005 599.5 371.0005 602.5 376.3295 602.5 377.9815L602.5 393.9995M607.5 393.9375L607.5 377.9815C607.5 376.3295 610.5 371.0005 610.5 371.0005 610.5 371.0005 613.5 376.3295 613.5 377.9815L613.5 393.9995M618.5 393.9375L618.5 377.9815C618.5 376.3295 621.5 371.0005 621.5 371.0005 621.5 371.0005 624.5 376.3295 624.5 377.9815L624.5 393.9995M629.5 393.9375L629.5 377.9815C629.5 376.3295 632.5 371.0005 632.5 371.0005 632.5 371.0005 635.5 376.3295 635.5 377.9815L635.5 393.9995M640.5 393.9375L640.5 377.9815C640.5 376.3295 643.5 371.0005 643.5 371.0005 643.5 371.0005 646.5 376.3295 646.5 377.9815L646.5 393.9995M651.5 393.9375L651.5 377.9815C651.5 376.3295 654.5 371.0005 654.5 371.0005 654.5 371.0005 657.5 376.3295 657.5 377.9815L657.5 393.9995M662.5 393.9375L662.5 377.9815C662.5 376.3295 665.5 371.0005 665.5 371.0005 665.5 371.0005 668.5 376.3295 668.5 377.9815L668.5 393.9995M673.5 393.9375L673.5 377.9815C673.5 376.3295 676.5 371.0005 676.5 371.0005 676.5 371.0005 679.5 376.3295 679.5 377.9815L679.5 393.9995M684.5 393.9375L684.5 377.9815C684.5 376.3295 687.5 371.0005 687.5 371.0005 687.5 371.0005 690.5 376.3295 690.5 377.9815L690.5 393.9995M695.5 393.9375L695.5 377.9815C695.5 376.3295 698.5 371.0005 698.5 371.0005 698.5 371.0005 701.5 376.3295 701.5 377.9815L701.5 393.9995M588.5 369L588.5 333C588.5 326.925 578 317 578 317 578 317 567.5 326.925 567.5 333L567.5 369"/>
    <polyline stroke="#2749FF" stroke-width="2" points="528 263 528 242 570 242"/>
    <path stroke="#2749FF" d="M591.5 263L591.5 227C591.5 220.925 581 211 581 211 581 211 570.5 220.925 570.5 227L570.5 263M661 368.5C661 358.283 652.717 350 642.5 350 632.283 350 624 358.283 624 368.5M706.5 393.9375L706.5 377.9815C706.5 376.3295 709.5 371.0005 709.5 371.0005 709.5 371.0005 712.5 376.3295 712.5 377.9815L712.5 393.9995M717.5 393.9375L717.5 377.9815C717.5 376.3295 720.5 371.0005 720.5 371.0005 720.5 371.0005 723.5 376.3295 723.5 377.9815L723.5 393.9995M728.5 393.9375L728.5 377.9815C728.5 376.3295 731.5 371.0005 731.5 371.0005 731.5 371.0005 734.5 376.3295 734.5 377.9815L734.5 393.9995M739.5 393.9375L739.5 377.9815C739.5 376.3295 742.5 371.0005 742.5 371.0005 742.5 371.0005 745.5 376.3295 745.5 377.9815L745.5 393.9995M750.5 393.9375L750.5 377.9815C750.5 376.3295 753.5 371.0005 753.5 371.0005 753.5 371.0005 756.5 376.3295 756.5 377.9815L756.5 393.9995M761.5 393.9375L761.5 377.9815C761.5 376.3295 764.5 371.0005 764.5 371.0005 764.5 371.0005 767.5 376.3295 767.5 377.9815L767.5 393.9995M772.5 393.9375L772.5 377.9815C772.5 376.3295 775.5 371.0005 775.5 371.0005 775.5 371.0005 778.5 376.3295 778.5 377.9815L778.5 393.9995M783.5 393.9375L783.5 377.9815C783.5 376.3295 786.5 371.0005 786.5 371.0005 786.5 371.0005 789.5 376.3295 789.5 377.9815L789.5 393.9995M794.5 393.9375L794.5 377.9815C794.5 376.3295 797.5 371.0005 797.5 371.0005 797.5 371.0005 800.5 376.3295 800.5 377.9815L800.5 393.9995M805.5 393.9375L805.5 377.9815C805.5 376.3295 808.5 371.0005 808.5 371.0005 808.5 371.0005 811.5 376.3295 811.5 377.9815L811.5 393.9995M816.5 393.9375L816.5 377.9815C816.5 376.3295 819.5 371.0005 819.5 371.0005 819.5 371.0005 822.5 376.3295 822.5 377.9815L822.5 393.9995M827.5 393.9375L827.5 377.9815C827.5 376.3295 830.5 371.0005 830.5 371.0005 830.5 371.0005 833.5 376.3295 833.5 377.9815L833.5 393.9995M838.5 393.9375L838.5 377.9815C838.5 376.3295 841.5 371.0005 841.5 371.0005 841.5 371.0005 844.5 376.3295 844.5 377.9815L844.5 393.9995M849.5 393.9375L849.5 377.9815C849.5 376.3295 852.5 371.0005 852.5 371.0005 852.5 371.0005 855.5 376.3295 855.5 377.9815L855.5 393.9995M860.5 393.9375L860.5 377.9815C860.5 376.3295 863.5 371.0005 863.5 371.0005 863.5 371.0005 866.5 376.3295 866.5 377.9815L866.5 393.9995M871.5 393.9375L871.5 377.9815C871.5 376.3295 874.5 371.0005 874.5 371.0005 874.5 371.0005 877.5 376.3295 877.5 377.9815L877.5 393.9995M882.5 393.9375L882.5 377.9815C882.5 376.3295 885.5 371.0005 885.5 371.0005 885.5 371.0005 888.5 376.3295 888.5 377.9815L888.5 393.9995M893.5 393.9375L893.5 377.9815C893.5 376.3295 896.5 371.0005 896.5 371.0005 896.5 371.0005 899.5 376.3295 899.5 377.9815L899.5 393.9995M904.5 393.9375L904.5 377.9815C904.5 376.3295 907.5 371.0005 907.5 371.0005 907.5 371.0005 910.5 376.3295 910.5 377.9815L910.5 393.9995M915.5 393.9375L915.5 377.9815C915.5 376.3295 918.5 371.0005 918.5 371.0005 918.5 371.0005 921.5 376.3295 921.5 377.9815L921.5 393.9995M926.5 393.9375L926.5 377.9815C926.5 376.3295 929.5 371.0005 929.5 371.0005 929.5 371.0005 932.5 376.3295 932.5 377.9815L932.5 393.9995M937.5 393.9375L937.5 377.9815C937.5 376.3295 940.5 371.0005 940.5 371.0005 940.5 371.0005 943.5 376.3295 943.5 377.9815L943.5 393.9995M948.5 393.9375L948.5 377.9815C948.5 376.3295 951.5 371.0005 951.5 371.0005 951.5 371.0005 954.5 376.3295 954.5 377.9815L954.5 393.9995M534.5 242L534.5 263M540.5 242L540.5 263M546.5 242L546.5 263M552.5 242L552.5 263M558.5 242L558.5 263M564.5 242L564.5 263M597.5 242L597.5 263M603.5 242L603.5 263M696.5 242L696.5 263M702.5 242L702.5 263M708.5 242L708.5 263M714.5 242L714.5 263M645.5 256L645.5 230.385C645.5 226.062 638 219 638 219 638 219 630.5 226.062 630.5 230.385L630.5 256 645.5 256zM669.5 256L669.5 230.385C669.5 226.062 662 219 662 219 662 219 654.5 226.062 654.5 230.385L654.5 256 669.5 256zM904.5 369L904.5 333C904.5 326.925 894 317 894 317 894 317 883.5 326.925 883.5 333L883.5 369"/>
    <polygon stroke="#2749FF" stroke-width="2" points="738 215 744 179 745 179 751 215"/>
    <polyline stroke="#2749FF" stroke-width="2" points="739 263 739 215 750 215 750 263"/>
    <polygon stroke="#2749FF" stroke-width="2" points="828 215 834 179 835 179 841 215"/>
    <polyline stroke="#2749FF" stroke-width="2" points="829 263 829 215 840 215 840 263"/>
    <polyline stroke="#2749FF" stroke-width="2" points="720 263 720 238 739 238"/>
    <polyline stroke="#2749FF" stroke-width="2" points="750 238 769 238 769 263"/>
    <polyline stroke="#2749FF" stroke-width="2" points="780 263 780 238 799 238 799 263"/>
    <polyline stroke="#2749FF" stroke-width="2" points="810 263 810 238 829 238"/>
    <polyline stroke="#2749FF" stroke-width="2" points="720 263 853 263 859 263 859 238 840 238"/>
    <path stroke="#2749FF" d="M651 152.5L549 152.5C547.35 152.5 546 151.15 546 149.5 546 147.85 547.35 146.5 549 146.5L651 146.5C652.65 146.5 654 147.85 654 149.5 654 151.15 652.65 152.5 651 152.5zM651 118.5L549 118.5C547.35 118.5 546 117.15 546 115.5 546 113.85 547.35 112.5 549 112.5L651 112.5C652.65 112.5 654 113.85 654 115.5 654 117.15 652.65 118.5 651 118.5z"/>
    <polyline stroke="#2749FF" stroke-width="2" points="552.25 152 555 176 646.25 176 649 152"/>
    <path stroke="#2749FF" stroke-width="2" d="M555 176L555 242M646 176L646 180"/>
    <path stroke="#2749FF" d="M799.5,355 L799.5,319 C799.5,312.925 789,303 789,303 C789,303 778.5,312.925 778.5,319 L778.5,355 L799.5,355 Z"/>
    <path stroke="#2749FF" stroke-width="2" d="M690 242L720 242M690 263L720 263M690 269L720 269"/>
    <polyline stroke="#2749FF" stroke-width="2" points="552 100 552 88 564 88 564 100"/>
    <polyline stroke="#2749FF" stroke-width="2" points="573 100 573 88 585 88 585 100"/>
    <polyline stroke="#2749FF" stroke-width="2" points="594 100 594 88 606 88 606 100"/>
    <polyline stroke="#2749FF" stroke-width="2" points="615 100 615 88 627 88 627 100"/>
    <polyline stroke="#2749FF" stroke-width="2" points="636 100 636 88 648 88 648 100"/>
    <polyline stroke="#2749FF" stroke-width="2" points="552 112 552 100 648 100 648 112"/>
    <polygon stroke="#2749FF" stroke-width="2" points="556 65 565 29 567 29 575 65"/>
    <polyline stroke="#2749FF" stroke-width="2" points="558 88 558 65 573 65 573 88"/>
    <polyline stroke="#2749FF" stroke-width="2" points="854 302 934 302 934 369"/>
    <polyline stroke="#2749FF" stroke-width="2" points="918 302 918 285 934 285 934 302"/>
    <polyline stroke="#2749FF" stroke-width="2" points="896 302 896 285 912 285 912 302"/>
    <polyline stroke="#2749FF" stroke-width="2" points="874 302 874 285 890 285 890 302"/>
    <polyline stroke="#2749FF" stroke-width="2" points="854 285 868 285 868 302"/>
    <path stroke="#2749FF" stroke-width="2" d="M566 0L566 21M570 25C570 27.209 568.209 29 566 29 563.791 29 562 27.209 562 25 562 22.791 563.791 21 566 21 568.209 21 570 22.791 570 25z"/>
    <polygon stroke="#2749FF" stroke-width="2" points="625 65 634 29 636 29 644 65"/>
    <polyline stroke="#2749FF" stroke-width="2" points="627 88 627 65 642 65 642 88"/>
    <path stroke="#2749FF" stroke-width="2" d="M635 0L635 21M639 25C639 27.209 637.209 29 635 29 632.791 29 631 27.209 631 25 631 22.791 632.791 21 635 21 637.209 21 639 22.791 639 25z"/>
    <polyline stroke="#2749FF" stroke-width="2" points="609 202 603 202 603 181 615 181 615 190 621 190 621 181 630 181 630 190 637 190 637 181 646 181 646 190 653 190 653 181 662 181 662 190 669 190 669 181 678 181 678 190 684 190 684 181 696 181 696 202 690 202"/>
    <polyline stroke="#2749FF" stroke-width="2" points="525 382 525 369 960 369 960 394 575 394"/>
    <path stroke="#2749FF" stroke-width="2" d="M552 146L552 118M648 118L648 146M853 369L853 263M591.75 242L609.75 242M720 242L720 277M566 428C566 414.8 555.2 404 542 404 528.8 404 518 414.8 518 428 518 428 517.825 431.858 518.912 436.429L404.477 434.519C404.953 433.036 405.5 427.5 405.5 427.5 405.5 414.575 394.925 404 382 404 369.075 404 358.5 414.575 358.5 427.5L358.6 430 355.291 429.632C349.12 428.946 340.378 426.96 337.639 420.699 336.104 417.191 337.414 413.012 338.194 409.536 338.643 407.542 339.204 405.366 340.783 403.946 342.907 402.034 343.18 400.761 343.18 400.761L343.331 384.838C343.331 384.838 342.694 382.502 345.454 381.016 348.214 379.529 354.583 373.373 354.583 373.373 354.583 373.373 363.076 367.216 364.562 366.366 364.562 366.366 362.227 364.031 363.925 362.332 363.925 362.332 364.35 361.695 369.551 360.952 369.551 360.952 422.417 355.645 443.436 356.494 443.436 356.494 469.656 357.662 483.244 363.182 496.832 368.702 506.811 372.312 526.98 383.352 526.98 383.352 550.546 385.899 571.778 393.542 571.778 393.542 584.729 398.001 585.366 402.884 585.366 402.884 590.249 407.555 590.249 413.287 590.249 419.02 589.187 425.602 589.187 425.602 589.187 425.602 589.187 426.45 589.824 427.087 590.461 427.725 591.311 428.998 590.886 429.423 590.461 429.848 581.544 434.73 565.408 436.005L566 428z"/>
    <path stroke="#2749FF" stroke-linecap="round" stroke-width="1.5" d="M451.1851 364.2432C451.1851 364.2432 470.0811 365.0932 481.9701 370.6122 481.9701 370.6122 496.1951 376.7692 501.5031 379.7422 501.5031 379.7422 507.2351 382.2902 507.8721 382.7142 508.5091 383.1392 508.7211 383.5632 508.7211 384.8382 508.7211 386.1112 507.0231 389.2962 507.0231 389.2962 507.0231 389.2962 506.3861 390.5702 504.6871 390.5702 502.9891 390.5702 454.5821 386.5362 454.5821 386.5362L451.1851 364.2432zM469.9238 396.7539C464.4868 396.3079 459.3228 395.8799 455.4928 395.5629M413.7505 392.5078C408.3135 392.0608 403.1495 391.6338 399.3195 391.3168M441.8433 363.8184L442.4803 385.4744 402.9903 382.0774C402.9903 382.0774 402.1413 374.8584 404.2643 371.8864 406.3873 368.9144 408.7223 365.7294 408.7223 365.7294 408.7223 365.7294 427.1943 362.9694 441.8433 363.8184z"/>
    <path stroke="#2749FF" stroke-linecap="round" d="M394.1318 376.8887C391.4638 380.2377 389.4028 383.8427 389.4028 387.8107 389.4028 391.6167 390.2418 394.8207 391.6038 397.7177M513.1899 392.3926C513.8239 393.9206 514.4009 395.4696 514.8429 397.0686 516.1319 401.7396 516.2419 407.3196 515.7069 412.9686"/>
    <path stroke="#2749FF" stroke-linecap="round" stroke-width="2" d="M368.6372,428 C368.6372,435.38 374.6202,441.362 382.0002,441.362 C389.3802,441.362 395.3632,435.38 395.3632,428 C395.3632,420.62 389.3802,414.638 382.0002,414.638 C374.6202,414.638 368.6372,420.62 368.6372,428 Z"/>
    <path stroke="#2749FF" stroke-linecap="round" stroke-width="2" d="M363,428 C363,438.493 371.506,447 382,447 C392.494,447 401,438.493 401,428 C401,417.507 392.494,409 382,409 C371.506,409 363,417.507 363,428 Z"/>
    <path stroke="#2749FF" stroke-linecap="round" stroke-width="1.5" d="M359.7852 376.876C359.7852 376.876 362.7572 381.547 366.1542 382.184 366.1542 382.184 375.6022 383.988 376.6642 384.838 377.7252 385.687 377.7252 386.111 377.7252 386.111 377.7252 386.111 376.2392 387.598 374.3282 388.022 372.4172 388.446 365.1992 388.659 364.5622 388.659 363.9252 388.659 360.5282 388.871 359.4672 390.357 358.4052 391.844 355.6452 395.24 355.0082 396.939L347.7892 395.665C347.7892 395.665 344.8172 394.816 344.3922 393.33 343.9682 391.844 343.5432 388.871 344.3922 387.173 345.2422 385.475 345.8792 384.413 345.8792 384.413 345.8792 384.413 346.3032 383.352 350.5502 381.229 354.7962 379.105 359.7852 376.876 359.7852 376.876zM556.5977 397.4697C556.5977 397.4697 569.7607 397.0447 575.9177 399.3807 575.9177 399.3807 583.2427 402.2467 585.3657 405.6437 585.3657 405.6437 585.5777 406.2817 585.3657 407.5547 585.1537 408.8277 584.3047 408.4047 582.8177 408.1917 581.3317 407.9797 574.5377 406.7047 574.5377 406.7047 574.5377 406.7047 570.0787 405.8567 566.8947 403.7337 563.7097 401.6107 556.5977 397.4697 556.5977 397.4697z"/>
    <path stroke="#2749FF" stroke-linecap="round" d="M446.8325,364.1367 C448.7175,385.9127 448.6285,407.4107 449.0755,429.2097"/>
    <path stroke="#2749FF" stroke-linecap="round" stroke-width="2" d="M479 450L574 450M315 450L399 450M274 450L297 450M245 450L258 450M528.6372 428C528.6372 435.38 534.6202 441.362 542.0002 441.362 549.3802 441.362 555.3632 435.38 555.3632 428 555.3632 420.62 549.3802 414.638 542.0002 414.638 534.6202 414.638 528.6372 420.62 528.6372 428z"/>
    <path stroke="#2749FF" stroke-linecap="round" stroke-width="2" d="M523,428 C523,438.493 531.506,447 542,447 C552.494,447 561,438.493 561,428 C561,417.507 552.494,409 542,409 C531.506,409 523,417.507 523,428 Z"/>
    <path stroke="#2749FF" d="M530.5 383.9375L530.5 377.9815C530.5 376.3295 533.5 370.9995 533.5 370.9995 533.5 370.9995 536.5 376.3295 536.5 377.9815L536.5 383.9995M541.5 384.9375L541.5 377.9815C541.5 376.3295 544.5 370.9995 544.5 370.9995 544.5 370.9995 547.5 376.3295 547.5 377.9815L547.5 387.0005M9.5 211L9.5 221"/>
    <mask id="group-358-b" fill="#fff">
      <use xlink:href="#group-358-a"/>
    </mask>
    <polygon stroke="#2749FF" points="26.5 285.5 53.5 285.5 53.5 247.5 26.5 247.5" mask="url(#group-358-b)"/>
    <path stroke="#2749FF" d="M54.5,361.5 L26.5,361.5 L26.5,321 C26.5,313.544 32.544,307.5 40,307.5 L41,307.5 C48.456,307.5 54.5,313.544 54.5,321 L54.5,361.5 Z" mask="url(#group-358-b)"/>
    <polygon stroke="#2749FF" points="107.5 393.5 157.5 393.5 157.5 389.5 107.5 389.5" mask="url(#group-358-b)"/>
    <path stroke="#2749FF" d="M40.5 307.5L40.5 361.5M26.5 327.3779L54.5 327.3779" mask="url(#group-358-b)"/>
    <polygon stroke="#2749FF" stroke-width="2" points="1 211 171 211 171 204 1 204" mask="url(#group-358-b)"/>
    <polygon stroke="#2749FF" points="24.5 289.5 55.5 289.5 55.5 285.5 24.5 285.5" mask="url(#group-358-b)"/>
    <path stroke="#2749FF" stroke-width="2" d="M406 327L406 357.5M271 343L271 327" mask="url(#group-358-b)"/>
    <path stroke="#2749FF" d="M347.5 346.5L347.5 379M291.5 394.5L291.5 346.5" mask="url(#group-358-b)"/>
    <polygon stroke="#2749FF" points="291.5 305.5 311.5 305.5 311.5 271.5 291.5 271.5" mask="url(#group-358-b)"/>
    <polyline stroke="#2749FF" points="363.5 362.5 363.5 341.5 385.5 341.5 385.5 359.75" mask="url(#group-358-b)"/>
    <polygon stroke="#2749FF" points="267.5 327.5 409.5 327.5 409.5 318.5 267.5 318.5" mask="url(#group-358-b)"/>
    <path stroke="#2749FF" d="M301.5 271L301.5 305.5M311.5 288.5L291.5 288.5" mask="url(#group-358-b)"/>
    <polygon stroke="#2749FF" points="365.5 305.5 385.5 305.5 385.5 271.5 365.5 271.5" mask="url(#group-358-b)"/>
    <path stroke="#2749FF" d="M375.5 271L375.5 305.5M385.5 288.5L365.5 288.5" mask="url(#group-358-b)"/>
    <polygon stroke="#2749FF" points="328.5 305.5 348.5 305.5 348.5 271.5 328.5 271.5" mask="url(#group-358-b)"/>
    <path stroke="#2749FF" d="M338.5 271L338.5 305.5M348.5 288.5L328.5 288.5" mask="url(#group-358-b)"/>
    <polygon stroke="#2749FF" points="291.5 258.5 311.5 258.5 311.5 224.5 291.5 224.5" mask="url(#group-358-b)"/>
    <path stroke="#2749FF" d="M301.5 224L301.5 258.5M311.5 241.5L291.5 241.5" mask="url(#group-358-b)"/>
    <polygon stroke="#2749FF" points="365.5 258.5 385.5 258.5 385.5 224.5 365.5 224.5" mask="url(#group-358-b)"/>
    <path stroke="#2749FF" d="M375.5 224L375.5 258.5M385.5 241.5L365.5 241.5" mask="url(#group-358-b)"/>
    <polygon stroke="#2749FF" points="328.5 258.5 348.5 258.5 348.5 224.5 328.5 224.5" mask="url(#group-358-b)"/>
    <path stroke="#2749FF" d="M338.5 224L338.5 258.5M348.5 241.5L328.5 241.5" mask="url(#group-358-b)"/>
    <path stroke="#2749FF" stroke-width="2" d="M271 318L271 206M406 206L406 318" mask="url(#group-358-b)"/>
    <path stroke="#2749FF" d="M271,211.5 L405,211.5" mask="url(#group-358-b)"/>
    <polygon stroke="#2749FF" points="267.5 206.5 409.5 206.5 409.5 197.5 267.5 197.5" mask="url(#group-358-b)"/>
    <polygon stroke="#2749FF" stroke-width="2" points="271 196 282 196 282 138 271 138" mask="url(#group-358-b)"/>
    <path stroke="#2749FF" d="M271,188.5 L282,188.5" mask="url(#group-358-b)"/>
    <polygon stroke="#2749FF" stroke-width="2" points="395 196 406 196 406 138 395 138" mask="url(#group-358-b)"/>
    <path stroke="#2749FF" d="M395,188.5 L406,188.5" mask="url(#group-358-b)"/>
    <polyline stroke="#2749FF" points="367.5 361.5 367.5 345.5 379.5 345.5 379.5 360.5" mask="url(#group-358-b)"/>
    <path stroke="#2749FF" d="M293.5 148L293.5 197M306.5 148L306.5 197M319.5 148L319.5 181M332.5 148L332.5 176M345.5 148L345.5 178M358.5 148L358.5 184M371.5 148L371.5 197M384.5 148L384.5 197" mask="url(#group-358-b)"/>
    <polyline stroke="#2749FF" stroke-width="2" points="306 197 306 186.396 337.291 173.771 367 187.298 367.05 197" mask="url(#group-358-b)"/>
    <path stroke="#2749FF" d="M340.8369,182.7275 C343.2929,185.1845 343.2929,189.1665 340.8369,191.6235 C338.3799,194.0795 334.3979,194.0795 331.9409,191.6235 C329.4849,189.1665 329.4849,185.1845 331.9409,182.7275 C334.3979,180.2715 338.3799,180.2715 340.8369,182.7275 Z" mask="url(#group-358-b)"/>
    <polyline stroke="#2749FF" points="298.5 393.751 298.5 359.5 340.5 359.5 340.5 393.5" mask="url(#group-358-b)"/>
    <polygon stroke="#2749FF" points="288.5 346.5 350.5 346.5 350.5 341.5 288.5 341.5" mask="url(#group-358-b)"/>
    <path stroke="#2749FF" d="M316.5 376.5C316.5 377.053 316.052 377.5 315.5 377.5 314.948 377.5 314.5 377.053 314.5 376.5 314.5 375.947 314.948 375.5 315.5 375.5 316.052 375.5 316.5 375.947 316.5 376.5zM324.5 376.5C324.5 377.053 324.052 377.5 323.5 377.5 322.948 377.5 322.5 377.053 322.5 376.5 322.5 375.947 322.948 375.5 323.5 375.5 324.052 375.5 324.5 375.947 324.5 376.5z" mask="url(#group-358-b)"/>
    <polygon stroke="#2749FF" points="298.5 355.5 340.5 355.5 340.5 350.5 298.5 350.5" mask="url(#group-358-b)"/>
    <polygon stroke="#2749FF" points="119.5 385.5 145.5 385.5 145.5 337.5 119.5 337.5" mask="url(#group-358-b)"/>
    <polygon stroke="#2749FF" points="125.5 365.5 130.5 365.5 130.5 343.5 125.5 343.5" mask="url(#group-358-b)"/>
    <polygon stroke="#2749FF" points="113.5 389.5 151.5 389.5 151.5 385.5 113.5 385.5" mask="url(#group-358-b)"/>
    <polygon stroke="#2749FF" points="125.5 380.5 139.5 380.5 139.5 369.5 125.5 369.5" mask="url(#group-358-b)"/>
    <polygon stroke="#2749FF" stroke-width="2" points="1 229 171 229 171 222 1 222" mask="url(#group-358-b)"/>
    <polygon stroke="#2749FF" stroke-width="2" points="6 394 166 394 166 229 6 229" mask="url(#group-358-b)"/>
    <path stroke="#2749FF" d="M28.5 211L28.5 221M47.5 212L47.5 222M66.5 212L66.5 222M85.5 211L85.5 221M104.5 211L104.5 221M123.5 212L123.5 222M142.5 212L142.5 222M161.5 211L161.5 221" mask="url(#group-358-b)"/>
    <polygon stroke="#2749FF" points="134.5 365.5 139.5 365.5 139.5 343.5 134.5 343.5" mask="url(#group-358-b)"/>
    <polygon stroke="#2749FF" points="71.5 285.5 98.5 285.5 98.5 247.5 71.5 247.5" mask="url(#group-358-b)"/>
    <polygon stroke="#2749FF" points="69.5 289.5 100.5 289.5 100.5 285.5 69.5 285.5" mask="url(#group-358-b)"/>
    <polygon stroke="#2749FF" points="116.5 285.5 143.5 285.5 143.5 247.5 116.5 247.5" mask="url(#group-358-b)"/>
    <polygon stroke="#2749FF" points="114.5 289.5 145.5 289.5 145.5 285.5 114.5 285.5" mask="url(#group-358-b)"/>
    <path stroke="#2749FF" d="M26.5 344.3779L54.5 344.3779M99.5 361.5L71.5 361.5 71.5 321C71.5 313.544 77.544 307.5 85 307.5L86 307.5C93.456 307.5 99.5 313.544 99.5 321L99.5 361.5zM85.5 307.5L85.5 361.5M71.5 327.3779L99.5 327.3779M71.5 344.3779L99.5 344.3779M319.5 359.5L319.5 394M79.5 247.5L79.5 285.5M124.5 247.5L124.5 285.5M34.5 247.5L34.5 285.5" mask="url(#group-358-b)"/>
    <path stroke="#2749FF" stroke-width="2" d="M287.6621 393.2158C288.5221 391.0068 289.0001 388.5668 289.0001 385.9998 289.0001 377.0588 283.1991 369.6598 275.6031 368.2588 275.8541 367.3788 276.0001 366.4568 276.0001 365.4998 276.0001 362.8858 274.9991 360.4948 273.3441 358.6568M194.8975 346.7197C190.2905 348.3957 187.0005 352.8137 187.0005 357.9997 187.0005 358.1347 187.0155 358.2657 187.0205 358.4007 185.0585 357.5117 182.8485 356.9997 180.5005 356.9997 173.6545 356.9997 167.9315 361.2567 166.4135 366.9767" mask="url(#group-358-b)"/>
    <path stroke="#2749FF" stroke-width="2" d="M231.6675,342.9287 C235.5545,336.1477 242.8645,331.5777 251.2415,331.5777 C263.6925,331.5777 273.7865,341.6717 273.7865,354.1227 C273.7865,366.5747 263.6925,376.6687 251.2415,376.6687 C241.8205,376.6687 233.7495,370.8897 230.3785,362.6847" mask="url(#group-358-b)"/>
    <path stroke="#2749FF" stroke-linecap="round" stroke-width="1.5" d="M256.8774 356.6289L251.0324 362.2649M242.4736 360.3857L251.2416 368.9447" mask="url(#group-358-b)"/>
    <path stroke="#2749FF" stroke-width="2" d="M228.0034,337.9463 C226.5504,336.2943 226.4314,333.4943 227.7374,331.7243 C227.7374,331.7243 231.0084,327.2933 231.0084,322.2563 C231.0084,315.8423 225.1284,310.1153 225.1284,310.1153 C223.5524,308.5803 223.3404,305.8823 224.6584,304.1203 C224.6584,304.1203 226.5004,301.6553 226.5004,297.9073 C226.5004,290.9343 220.8474,285.2823 213.8744,285.2823 C206.9014,285.2823 201.2494,290.9343 201.2494,297.9073 C201.2494,301.6553 203.0914,304.1203 203.0914,304.1203 C204.4084,305.8823 204.1964,308.5803 202.6204,310.1153 C202.6204,310.1153 196.7404,315.8423 196.7404,322.2563 C196.7404,327.2933 200.0114,331.7243 200.0114,331.7243 C201.3184,333.4943 201.1984,336.2943 199.7454,337.9463 C199.7454,337.9463 194.0354,344.4393 194.0354,351.1133 C194.0354,362.0703 202.9174,370.9533 213.8744,370.9533 C224.8324,370.9533 233.7144,362.0703 233.7144,351.1133 C233.7144,344.4393 228.0034,337.9463 228.0034,337.9463 Z" mask="url(#group-358-b)"/>
    <path stroke="#2749FF" stroke-linecap="round" stroke-width="1.5" d="M213.8745 362.8369L219.2855 357.4259M213.8745 332.1758L219.2855 326.7648M213.8745 348.4082L208.4635 342.9972" mask="url(#group-358-b)"/>
    <path stroke="#2749FF" stroke-width="2" d="M282 148L394 148M343.75 394L165 394" mask="url(#group-358-b)"/>
    <path stroke="#2749FF" stroke-linecap="round" stroke-width="2" d="M251 352.8711L251 394.0001M214 317L214 392.85" mask="url(#group-358-b)"/>
  </g>
</svg>
