<?xml version="1.0" encoding="utf-8"?>
<!-- Generator: Adobe Illustrator 22.0.0, SVG Export Plug-In . SVG Version: 6.00 Build 0)  -->
<svg version="1.1" id="n-5" xmlns="http://www.w3.org/2000/svg" xmlns:xlink="http://www.w3.org/1999/xlink" x="0px" y="0px"
	 viewBox="0 0 81.3 102.5" style="enable-background:new 0 0 81.3 102.5;" xml:space="preserve">
<style type="text/css">
	.st01{fill:none;stroke:#31CB87;stroke-miterlimit:10;}
</style>
<path id="_x35_" class="st01" d="M16.1,56.3l6.7-54.9h48.4v21h-30l-2,12.5h3.4c8.8,0,16.1,2.9,21.8,8.7c5.9,5.7,8.8,13.4,8.8,23.2
	c0,10.6-3.4,19-10.1,25.2c-6.8,6.1-15.4,9.1-25.6,9.1c-5.5,0-11-1.2-16.5-3.5c-5.5-2.4-9.7-5.6-12.5-9.7l11.8-16.1
	c2,2.3,4.6,4.3,8,5.9s6.6,2.4,9.7,2.4c3.7,0,6.8-1.1,9.2-3.4s3.6-5.2,3.6-8.9c0-4.2-1.6-7.6-4.8-10.2c-3.2-2.6-7.6-3.8-13.2-3.8
	C25.1,53.8,19.5,54.6,16.1,56.3z"/>
</svg>
