<?xml version="1.0" encoding="utf-8"?>
<!-- Generator: Adobe Illustrator 22.0.0, SVG Export Plug-In . SVG Version: 6.00 Build 0)  -->
<svg version="1.1" id="n-8" xmlns="http://www.w3.org/2000/svg" xmlns:xlink="http://www.w3.org/1999/xlink" x="0px" y="0px"
	 viewBox="0 0 81.3 102.5" style="enable-background:new 0 0 81.3 102.5;" xml:space="preserve">
<style type="text/css">
	.st0{fill:none;stroke:#31CB87;stroke-miterlimit:10;}
</style>
<path id="_x38_" class="st0" d="M41.1,101.9c-10.5,0-18.9-2.4-25.5-7.3s-10-11.5-10-19.7c0-6,1.4-11.1,4.1-15.4s6.3-7.4,10.9-9.4
	v-0.4c-3.8-2.1-6.9-5.1-9.2-9.1C9.2,36.6,8,31.9,8,26.5c0-7.6,3.1-13.8,9.4-18.6C23.7,3,31.5,0.6,40.9,0.6S58.2,3,64.4,7.9
	C70.8,12.8,74,19,74,26.5c0,4.9-1.3,9.4-3.8,13.6s-5.9,7.4-10.2,9.5V50c4.8,1.2,8.7,3.9,11.8,8c3.1,4.2,4.6,9.2,4.6,15
	c0,9.1-3.3,16.1-9.8,21.3C59.9,99.4,51.4,101.9,41.1,101.9z M42,60.4h-1.7c-3.5,0-6.4,0.9-8.8,2.8C29.2,65,28,67.6,28,70.7
	c0,3.2,1.1,5.7,3.2,7.5s5.4,2.7,9.7,2.7c4.4,0,7.7-0.8,9.9-2.5s3.2-4.2,3.1-7.7c-0.1-3.3-1.2-5.8-3.3-7.6
	C48.6,61.3,45.7,60.4,42,60.4z M40.2,39.4H42c3,0,5.3-0.9,7-2.6c1.7-1.7,2.5-3.9,2.5-6.5c0-5.8-3.6-8.7-10.8-8.7
	c-3.4,0-5.9,0.8-7.7,2.4s-2.7,3.7-2.7,6.3s0.9,4.8,2.6,6.5C34.7,38.5,37.1,39.4,40.2,39.4z"/>
</svg>
