<?xml version="1.0" encoding="utf-8"?>
<!-- Generator: Adobe Illustrator 22.0.0, SVG Export Plug-In . SVG Version: 6.00 Build 0)  -->
<svg version="1.1" id="n-9" xmlns="http://www.w3.org/2000/svg" xmlns:xlink="http://www.w3.org/1999/xlink" x="0px" y="0px"
	 viewBox="0 0 81.3 102.5" style="enable-background:new 0 0 81.3 102.5;" xml:space="preserve">
<style type="text/css">
	.st0{fill:none;stroke:#31CB87;stroke-miterlimit:10;}
</style>
<path id="_x39_" class="st0" d="M75.9,38.4c0,18.3-4.9,33.1-14.6,44.4s-22,17.7-37,19.2l-6.9-16.7C35.2,81.5,46.3,72.8,51,59.4
	c-3.8,3.5-8.9,5.3-15.3,5.3c-8,0-15-2.9-21-8.7C9,50.2,6.1,43,6.1,34.2c0-10.4,3.4-18.5,10.2-24.5C23.2,3.6,31,0.6,39.8,0.6
	C50.6,0.6,59.4,4,66,10.9C72.6,17.9,75.9,27,75.9,38.4z M53.5,38.2c0-4.9-1.3-8.8-3.8-12c-2.5-3.1-5.9-4.7-10.1-4.7
	c-3.3,0-5.9,1.1-8,3.3s-3.1,4.8-3.1,7.8c0,3.5,1.2,6.5,3.5,8.9s5.4,3.6,9.1,3.6C46.2,45.1,50.4,42.8,53.5,38.2z"/>
</svg>
