<?xml version="1.0" encoding="utf-8"?>
<!-- Generator: Adobe Illustrator 22.0.0, SVG Export Plug-In . SVG Version: 6.00 Build 0)  -->
<svg version="1.1" id="Слой_1" xmlns="http://www.w3.org/2000/svg" xmlns:xlink="http://www.w3.org/1999/xlink" x="0px" y="0px"
	 viewBox="0 0 22 19.2" style="enable-background:new 0 0 22 19.2;" xml:space="preserve">
<style type="text/css">
	.st0{fill:#18191E;}
</style>
<g>
	<path class="st0" d="M15.1,12c-1,0.6-2.3,0.9-3.2,0.9l0.7,0.7l2.7,2.7c0.4,0.4,0.4,1.1,0,1.5l-0.1,0.1c-0.4,0.4-1.1,0.4-1.5,0
		c-0.7-0.7-1.7-1.7-2.7-2.7l-2.7,2.7c-0.4,0.4-1.1,0.4-1.5,0l-0.1-0.1c-0.4-0.4-0.4-1.1,0-1.5c0.7-0.7,1.7-1.7,2.7-2.7l0.7-0.7
		C9.4,12.8,8,12.6,7,12c-1.1-0.7-1.6-1.2-1.2-2.1c0.3-0.5,1-0.9,1.9-0.2c0,0,1.3,1,3.3,1s3.3-1,3.3-1c0.9-0.7,1.7-0.3,1.9,0.2
		C16.8,10.8,16.3,11.2,15.1,12z M6.5,4.8c0-2.5,2-4.6,4.6-4.6s4.6,2,4.6,4.6c0,2.5-2,4.5-4.6,4.5S6.5,7.3,6.5,4.8z M8.9,4.8
		C8.9,6,9.9,7,11.1,7s2.2-1,2.2-2.2c0-1.2-1-2.2-2.2-2.2S8.9,3.6,8.9,4.8z"/>
</g>
</svg>
