<svg xmlns="http://www.w3.org/2000/svg" width="81" height="76" viewBox="0 0 81 76" id="product-icon-3">
  <g fill="none" fill-rule="evenodd" stroke="#1838FF" stroke-width="2" transform="translate(0 8)">
    <polygon points="37.072 17.282 46.034 10.771 34.957 10.771 31.534 .236 28.11 10.771 17.034 10.771 25.995 17.282 22.572 27.817 31.534 21.306 40.495 27.817"/>
    <path stroke-linecap="round" d="M32 34.6084L32 60.6084M24 40.6084L24 60.6084M16 45.6084L16 60.6084M8 49.6084L8 60.6084M1 52.6084L1 60.6084M40 40.6084L40 60.6084M48 45.6084L48 60.6084M56 49.6084L56 60.6084M63 52.6084L63 60.6084"/>
  </g>
</svg>
