<svg xmlns="http://www.w3.org/2000/svg" width="81" height="76" viewBox="0 0 81 76" id="product-icon-5">
  <g fill="none" fill-rule="evenodd" stroke="#1838FF" stroke-width="2" transform="translate(1 10)">
    <path d="M49.9081,27 C49.9081,29.209 51.6991,31 53.9081,31 C56.1171,31 57.9081,29.209 57.9081,27 L57.6771,25.342 C55.8641,11.102 43.6201,0 28.9081,0 C13.9271,0 1.5031,11.514 0.0501,26.13 C-0.0749,27.395 -0.0169,28.551 0.8481,29.577 C1.6041,30.473 2.7361,31 3.9081,31 C4.9621,31 5.9881,30.575 6.7341,29.831 C8.1061,28.461 8.1371,26.054 8.4061,24.258 C8.7111,22.232 9.1571,20.226 9.7561,18.267 C10.8441,14.708 12.4341,11.272 14.6351,8.262 C16.5371,5.658 18.9251,3.351 21.7871,1.828 C23.9771,0.663 26.4221,0 28.9081,0 C39.3611,0 48.0301,11.274 49.6401,26.034 L49.9081,27 Z"/>
    <path d="M36.9081 27.5C36.9081 31.09 33.3261 34 28.9081 34 24.4901 34 20.9081 31.09 20.9081 27.5L21.0421 25.332C21.7281 10.917 24.9891 0 28.9081 0 32.8441 0 36.1161 11.013 36.7831 25.521L36.9081 27.5zM20.9081 26.5C20.9081 30.09 17.9981 33 14.4081 33 11.4961 33 9.0311 31.085 8.2041 28.446L7.9081 27M49.9081 26.5C49.9081 30.09 46.9981 33 43.4081 33 39.8181 33 36.9081 30.09 36.9081 26.5"/>
    <path stroke-linecap="round" d="M3.1581 31.125L18.9081 56M53.9081 31.125L38.1581 56M13.9081 33L23.9081 56M42.9081 33L33.9081 56"/>
  </g>
</svg>
