<svg xmlns="http://www.w3.org/2000/svg" width="81" height="76" viewBox="0 0 81 76" id="product-icon-4">
  <g fill="none" fill-rule="evenodd" stroke="#1838FF" stroke-width="2" transform="translate(0 7)">
    <polyline points="12.707 .707 12.707 12.707 .707 12.707"/>
    <path d="M12.7071 12.7071L.7071.7071M43.7071 42.7071L22.7071 42.7071 22.7071 19.7071C22.7071 19.1551 23.1551 18.7071 23.7071 18.7071L42.7071 18.7071C43.2591 18.7071 43.7071 19.1551 43.7071 19.7071L43.7071 42.7071z"/>
    <path stroke-linecap="round" d="M29.7071 24.7071L36.7071 24.7071M43.7071 18.7071L49.2071 28.2071M22.7071 18.7071L17.2071 28.2071"/>
    <polyline points="53.707 .707 53.707 12.707 65.707 12.707"/>
    <path d="M53.7071,12.7071 L65.7071,0.7071"/>
    <polyline points="12.707 60.707 12.707 48.707 .707 48.707"/>
    <path d="M12.7071,48.7071 L0.7071,60.7071"/>
    <polyline points="53.707 60.707 53.707 48.707 65.707 48.707"/>
    <path d="M53.7071,48.7071 L65.7071,60.7071"/>
  </g>
</svg>
