<svg xmlns="http://www.w3.org/2000/svg" width="81" height="76" viewBox="0 0 81 76" id="product-icon-1">
  <g fill="none" fill-rule="evenodd" stroke="#1838FF" stroke-width="2" transform="translate(2 2)">
    <polygon points="7.274 72.407 .255 50.256 8.767 47.559 15.786 69.71"/>
    <path d="M9.7724 51.0444C13.4934 44.7764 18.7804 35.0074 24.7904 30.6464 27.7244 28.5184 31.7124 28.2614 35.2154 27.6414M14.4531 65.8061C16.4051 65.4541 18.3581 65.1021 20.3101 64.7501 25.9121 63.7411 32.7011 61.0531 36.2561 56.3121M41.6049 50.5575C44.1749 52.6435 46.0369 54.1565 46.0369 54.1565L76.8979 16.1405 57.5179.4065 26.6559 38.4225C26.6559 38.4225 30.2259 41.3205 34.2999 44.6275L34.7349 44.9835 34.9259 44.8195C37.6579 41.5015 41.1379 37.2735 41.1379 37.2735 42.6099 35.4855 45.2779 35.2275 47.0649 36.6995 48.8539 38.1715 49.1119 40.8385 47.6399 42.6265L38.2119 54.0765 36.2559 56.3115"/>
    <path d="M62.9721 13.4911C63.7961 14.1591 63.9211 15.3691 63.2531 16.1921 62.5841 17.0151 61.3751 17.1411 60.5521 16.4731 59.7281 15.8041 59.6031 14.5951 60.2711 13.7721 60.9401 12.9481 62.1491 12.8231 62.9721 13.4911zM56.3159 21.6908C61.2559 25.7008 63.2289 31.4548 60.7229 34.5428 58.2159 37.6298 52.1789 36.8818 47.2389 32.8718 42.2989 28.8618 40.3259 23.1078 42.8329 20.0198 45.3389 16.9318 51.3759 17.6798 56.3159 21.6908z"/>
  </g>
</svg>
