<svg xmlns="http://www.w3.org/2000/svg" width="81" height="76" viewBox="0 0 81 76" id="product-icon-2">
  <g fill="none" fill-rule="evenodd" transform="translate(1 9)">
    <path stroke="#1838FF" stroke-width="2" d="M63 50L3 50C1.35 50 0 48.65 0 47L0 3C0 1.35 1.35 0 3 0L63 0C64.65 0 66 1.35 66 3L66 47C66 48.65 64.65 50 63 50zM0 40L65 40"/>
    <path fill="#1838FF" d="M35,45 C35,46.104 34.104,47 33,47 C31.896,47 31,46.104 31,45 C31,43.896 31.896,43 33,43 C34.104,43 35,43.896 35,45"/>
    <path stroke="#1838FF" stroke-width="2" d="M33,50 L33,58"/>
    <path stroke="#1838FF" stroke-linecap="round" stroke-width="2" d="M16,58 L50,58"/>
    <path stroke="#1838FF" stroke-width="2" d="M14 28C14 29.657 12.657 31 11 31 9.343 31 8 29.657 8 28 8 26.343 9.343 25 11 25 12.657 25 14 26.343 14 28zM30 14C30 15.657 28.657 17 27 17 25.343 17 24 15.657 24 14 24 12.343 25.343 11 27 11 28.657 11 30 12.343 30 14zM42 25C42 26.657 40.657 28 39 28 37.343 28 36 26.657 36 25 36 23.343 37.343 22 39 22 40.657 22 42 23.343 42 25zM58 11C58 12.657 56.657 14 55 14 53.343 14 52 12.657 52 11 52 9.343 53.343 8 55 8 56.657 8 58 9.343 58 11zM14 26L24.667 16M42 23L52.667 13M29.3335 15.6665L36.6665 22.9995"/>
  </g>
</svg>
