<svg xmlns="http://www.w3.org/2000/svg" width="137" height="50" viewBox="0 0 137 50">
  <g fill="none" fill-rule="evenodd" stroke="#000" transform="translate(12 3)">
    <path d="M12.569897,36.5224129 L12.569897,35.9135097 C12.569897,30.6954882 16.8693738,26.2055957 22.0813907,26.2055957 L22.3172051,26.2055957 C27.5292219,26.2055957 31.9454245,30.6954882 31.9454245,35.9135097 L31.9454245,38.0335527 L32.4411544,38.0335527 L84.8736945,38.0335527 L84.8736945,36.050714 C84.8736945,30.6704129 89.2691038,26.2055957 94.6432135,26.2055957 L94.6285637,26.2055957 C100.002673,26.2055957 104.721796,30.6704129 104.721796,36.050714 L104.721796,37.9365634 L105.017154,37.8854667 C105.213745,37.8883054 105.307787,37.8883054 105.502488,37.8778968 C106.664074,37.8154452 107.781239,37.6020688 108.866741,37.1791011 C109.871905,36.786886 110.846825,36.3483054 111.292462,35.2970366 C111.636969,34.4846925 111.8501,33.4641763 111.825053,32.5742409 C111.825053,30.326929 110.953627,28.2239183 110.614319,26.0333806 C110.20696,24.1181978 109.632311,22.1344129 108.553424,20.4780258 C108.145593,19.8516172 107.690032,19.3046925 107.007163,18.9744559 C106.167399,18.5675742 105.218471,18.3636602 104.347517,18.0215957 C103.344243,17.6270151 102.340496,17.2329075 101.337222,16.8388 C99.0513823,15.9408215 96.7655426,15.042843 94.479703,14.1443914 C93.7264203,13.8851226 92.979281,13.5577247 92.3053907,13.1290796 C92.3053907,13.1290796 86.0678886,8.65243441 78.9457283,4.64512258 C71.8235679,0.637810753 65.7642262,0.700735484 65.7642262,0.700735484 L10.4414245,0.236606452 C10.4414245,0.236606452 8.74961013,0.221939785 7.8956692,1.48895054 C7.04267342,2.75596129 4.6278211,7.49991828 4.27528101,8.53084301 C3.92274093,9.56224086 2.42184641,14.6600903 2.2451038,15.838628 C2.06883376,17.0166925 2.36324726,21.9674022 2.24557637,23.322886 C2.12790549,24.6778968 2.54046245,27.2128645 1.54002363,28.8039613 C0.978133333,29.6976817 0.24658903,30.6372946 0.246116456,31.7519613 C0.246116456,32.4375097 0.149711392,33.2337677 0.556597468,33.8592301 C0.938437131,34.4449505 1.47102785,35.3367785 2.19595612,35.5302839 C3.07919662,35.7658968 11.6653907,36.4831441 11.6653907,36.4831441 L12.569897,36.5224129 Z"/>
    <path d="M86.9472068,36.168757 C86.9472068,40.4651441 90.4253502,43.9472946 94.7167932,43.9472946 C99.0077637,43.9472946 102.486852,40.4651441 102.486852,36.168757 C102.486852,31.872843 99.0077637,28.3902194 94.7167932,28.3902194 C90.4253502,28.3902194 86.9472068,31.872843 86.9472068,36.168757 Z"/>
    <path d="M89.7724895 36.168757C89.7724895 38.9024344 91.9864979 41.1189935 94.7170295 41.1189935 97.4475612 41.1189935 99.661097 38.9024344 99.661097 36.168757 99.661097 33.4350796 97.4475612 31.2189935 94.7170295 31.2189935 91.9864979 31.2189935 89.7724895 33.4350796 89.7724895 36.168757zM14.4292388 36.168757C14.4292388 40.4651441 17.9078549 43.9472946 22.1988253 43.9472946 26.4902684 43.9472946 29.9688844 40.4651441 29.9688844 36.168757 29.9688844 31.872843 26.4902684 28.3902194 22.1988253 28.3902194 17.9078549 28.3902194 14.4292388 31.872843 14.4292388 36.168757z"/>
    <path d="M17.2549941 36.168757C17.2549941 38.9024344 19.46853 41.1189935 22.1990616 41.1189935 24.9295932 41.1189935 27.1436017 38.9024344 27.1436017 36.168757 27.1436017 33.4350796 24.9295932 31.2189935 22.1990616 31.2189935 19.46853 31.2189935 17.2549941 33.4350796 17.2549941 36.168757zM86.3229169 18.7312731C86.4329169 21.7516602 86.2624169 24.6802624 85.8744169 27.7261978M61.8292456 2.70070108C62.1692456 10.3250022 62.1877456 17.928486 62.1877456 25.5613032 62.1877456 29.096443 62.0527456 32.6344215 61.9852456 36.1686151M69.9876186 19.1087742L64.3167325 19.1087742M33.9713958 14.8363742C33.9713958 14.8363742 34.0304675 33.8703957 35.9136743 36.0509978"/>
    <path d="M21.8852253 1.87184516C21.8852253 1.87184516 44.4095122 2.02892043 46.4108624 2.02892043 48.4122127 2.02892043 56.6529553 2.26500645 57.0844152 2.26500645 57.0844152 2.26500645 58.9288709 2.30427527 59.6353688 2.69696344 60.3413941 3.08965161 60.2237232 5.44672688 60.2237232 5.44672688L60.2312844 12.7147699C60.2312844 12.7147699 60.0668287 14.8755011 59.7530397 15.0718452 59.4392506 15.2681892 59.086238 15.6220817 57.5550987 15.6220817 56.0249046 15.6220817 12.1927359 14.1686624 12.1927359 14.1686624 12.1927359 14.1686624 10.5051747 14.2472 9.72070211 12.7540387 8.93575696 11.2613505 8.54352068 10.3969634 8.54352068 10.3969634 8.54352068 10.3969634 8.3081789 9.80745806 8.54352068 8.74672688 8.77886245 7.68646882 10.740989 3.12892043 10.740989 3.12892043 10.740989 3.12892043 11.6039089 2.10745806 12.5457485 2.10745806 13.4875882 2.10745806 21.8852253 1.87184516 21.8852253 1.87184516zM33.9713958 14.8363742C33.9713958 14.8363742 34.2008958 2.9719871 34.3563958 2.3432129M2.70123207 13.9129892C2.70123207 13.9129892 3.71632068 12.8328602 3.99135865 12.7935914 4.26639662 12.7543226 4.69785654 12.5967742 4.93319831 13.0684731L6.14960338 17.4684731C6.14960338 17.4684731 6.38494515 18.7255484 6.14960338 19.5899355 5.9142616 20.4543226 4.47763713 23.5187097 4.47763713 23.5187097 4.47763713 23.5187097 3.55942616 24.972129 3.16718987 25.1292043 2.77495359 25.2867527 2.23432911 25.443828 2.23432911 25.443828M101.85866 19.1161548C101.85866 19.1161548 106.567858 20.7294882 108.215723 23.4399828 108.215723 23.4399828 109.902812 26.0331441 110.059706 27.0541333 110.059706 27.0541333 110.09893 27.6436387 110.059706 27.7614452 110.020483 27.8792516 107.784263 27.3294882 107.784263 27.3294882 107.784263 27.3294882 106.8032 27.0934022 106.175149 26.3865634 105.547571 25.6792516 102.878947 23.0865634 102.878947 23.0865634L101.662542 21.7112086 100.367689 19.9043699 100.132348 19.5112086C100.132348 19.5112086 101.043943 18.7996387 101.85866 19.1161548zM63.5686481 3.05274839C63.8134414 2.65769462 64.3408338 2.66242581 65.011416 2.66337204 66.6252557 2.66573763 68.2584709 2.79016774 69.8382852 3.12892043 69.8382852 3.12892043 73.4870278 3.91476989 77.37253 6.15403871 80.8081418 8.13451183 83.9951797 10.6089204 87.1666228 12.9797161 87.7587578 13.423028 88.3499477 13.8682323 88.9397198 14.315329 89.2260996 14.5324903 89.5233485 14.7378237 89.7865722 14.9838452 90.1944034 15.3637591 90.5006312 15.8576946 89.7331713 15.8576946 89.1443443 15.8576946 72.8986734 14.5613505 72.8986734 14.5613505 71.5324624 14.4402323 70.153492 14.3598022 68.7990954 14.1317591 67.6469603 13.9382538 66.3861333 14.0267269 65.6063865 13.0123613 64.7670954 11.9189849 64.1362093 10.6264258 63.9126819 9.2595871 63.7156186 8.05502796 63.6305553 6.83107097 63.5648675 5.6127914 63.529897 4.96603871 63.4060827 4.32685591 63.4207325 3.67584516 63.4264034 3.4000172 63.4783865 3.19894194 63.5686481 3.05274839z"/>
  </g>
</svg>
