<svg xmlns="http://www.w3.org/2000/svg" width="137" height="50" viewBox="0 0 137 50">
  <g fill="none" fill-rule="evenodd" stroke="#18191E" transform="translate(15 6)">
    <path d="M79.5449948,29.9693706 C79.5449948,32.7472824 81.7693385,34.9987824 84.5137448,34.9987824 C87.258151,34.9987824 89.4824948,32.7472824 89.4824948,29.9693706 C89.4824948,27.1914588 87.258151,24.9399588 84.5137448,24.9399588 C81.7693385,24.9399588 79.5449948,27.1914588 79.5449948,29.9693706 Z"/>
    <path d="M76.7845781 29.9693706C76.7845781 34.2901941 80.2450365 37.7929 84.5137448 37.7929 88.7824531 37.7929 92.2429115 34.2901941 92.2429115 29.9693706 92.2429115 25.6485471 88.7824531 22.1458412 84.5137448 22.1458412 80.2450365 22.1458412 76.7845781 25.6485471 76.7845781 29.9693706zM44.6623823 2.46284706C44.9069552 4.2142 45.1404865 5.96778824 45.369601 7.72193529 45.8488094 11.4001118 46.3059344 15.0827588 46.707851 18.7709941 47.0490385 21.9199647 47.3940906 25.0745235 47.4945698 28.2419353 47.5105802 28.7482294 47.5470177 29.3014647 47.5034031 29.8317882M103.3765 16.8836794C102.640573 16.3712382 101.361948 16.10915 101.361948 16.10915 100.846302 15.8867382 100.297531 15.8286206 99.75925 15.7302676 99.2121354 15.6296794 98.6655729 15.5229441 98.1190104 15.4201206 97.5073021 15.3050029 96.8950417 15.1943559 96.2805729 15.1027088 96.0939687 15.0747676 95.7969479 14.9557382 95.6362917 15.1323265 95.5054479 15.2765029 95.5512708 15.5223853 95.6462292 15.6743853 95.8013646 15.9241794 96.0459375 16.0465618 96.2424792 16.2415912 96.4760104 16.4729441 96.6609583 16.7674441 96.8895208 17.0060618 97.1478958 17.2770912 97.433875 17.5425324 97.6823125 17.8079735 98.2062396 18.37015 98.7870313 18.6585029 99.4660937 18.8853853 100.165031 19.1189735 100.887708 19.2368853 101.592719 19.4430912 102.456177 19.6956794 103.198729 20.1902382 104.112427 20.1902382M1.97728646 13.4409912C1.97728646 13.4409912 6.50713021 13.5985794 6.63410938 13.60305 7.12049479 13.6198147 9.15768229 13.8304912 8.15675521 14.6882853 7.50088021 15.2504618 6.76936979 15.7606676 6.21452604 16.4329324 5.55975521 17.2253441 5.05515104 18.0082559 4.16408854 18.5419324 3.48723438 18.9470794 2.52384896 19.6310794 1.70124479 19.6310794M73.6141292 10.9489176C74.0723583 14.4421235 74.2368792 18.0141235 74.0199104 21.5470059M20.9003844 8.57391765C20.977676 11.7033294 21.2007177 15.0998588 22.3965302 18.0504471"/>
    <path d="M2.46897187,30.7991676 C1.73525313,30.5001971 1.11360729,29.9877559 0.843086458,29.2176971 C0.394794792,27.9402265 0.366086458,26.5470794 0.298180208,25.2070206 C0.235242708,23.9653147 0.283826042,22.7090794 0.738190625,21.5377853 C0.939701042,21.0191971 1.28916979,20.5006088 1.48791979,19.9557559 C1.73966979,19.2639324 1.64526354,18.6084324 1.62649271,17.88755 C1.60440938,17.0409324 1.40510729,16.1540794 1.52049271,15.3085794 C1.65630521,14.3110794 2.32377396,13.2375794 2.20176354,12.2356088 C2.09300313,11.3442853 2.84218021,11.0073147 3.59135729,11.0073147 C3.59135729,11.0073147 7.11696146,10.5205794 7.75848229,10.3585206 C8.39945104,10.1964618 10.4830135,10.1964618 11.1239823,9.70972647 C11.764951,9.22299118 20.2593052,4.35619706 20.2593052,4.35619706 C20.2593052,4.35619706 24.1056698,2.24719706 28.5935552,1.59840294 C33.0808885,0.94905 39.9725448,0.138197059 45.7423677,0.300255882 C51.5121906,0.462314706 57.9229823,0.94905 62.4103156,2.73393235 C66.898201,4.51825588 70.263701,5.97846176 74.9116906,8.41157941 C79.5596802,10.8452559 78.2771906,10.1964618 78.7580552,10.5205794 C79.2389198,10.8452559 83.2453885,11.1699324 84.2071177,11.3319912 C85.1688469,11.49405 90.7785656,11.8187265 93.0222323,12.4675206 C95.265899,13.1163147 98.7920552,13.60305 101.195826,14.9006382 C103.600149,16.1987853 104.882086,19.1186382 104.241118,20.2541676 C104.241118,20.2541676 105.683711,22.3631676 105.523607,23.9859912 C105.362951,25.6076971 105.202847,25.4456382 105.042191,25.6076971 C104.913555,25.7390206 104.937295,26.1866382 104.920732,26.35205 C104.870493,26.8538735 104.835159,27.3573735 104.802034,27.8603147 C104.767805,28.3721971 104.737441,28.8851971 104.709284,29.3976382 C104.687753,29.7882559 104.674503,30.2381088 104.468576,30.5823441 C104.408951,30.6818147 104.341045,30.7544618 104.267066,30.8086676 C103.993232,31.00705 103.630514,30.9489324 103.270003,30.99755 C102.813982,31.0601382 102.358514,31.1227265 101.902493,31.1847559 C100.819305,31.3334029 99.7355656,31.4814912 98.6523781,31.6295794 C97.2522948,31.8212559 95.8522115,32.0129324 94.451024,32.2046088 L94.451024,29.9693147 C94.451024,24.4369618 89.979149,19.9104912 84.513524,19.9104912 C79.047899,19.9104912 74.576024,24.4369618 74.576024,29.9693147 L74.576024,31.0869618 L74.576024,31.9251971 L29.314576,31.9251971 L28.7531073,31.9251971 L28.7531073,29.9693147 C28.7531073,24.4369618 24.2812323,19.9104912 18.8156073,19.9104912 C13.3499823,19.9104912 8.87810729,24.4369618 8.87810729,29.9693147 L8.87810729,31.0869618 L8.87810729,31.9251971 C8.87810729,31.9251971 2.46897187,30.7991676 2.46897187,30.7991676 Z"/>
    <path d="M13.8470781,29.9693706 C13.8470781,32.7472824 16.0714219,34.9987824 18.8158281,34.9987824 C21.5602344,34.9987824 23.7845781,32.7472824 23.7845781,29.9693706 C23.7845781,27.1914588 21.5602344,24.9399588 18.8158281,24.9399588 C16.0714219,24.9399588 13.8470781,27.1914588 13.8470781,29.9693706 Z"/>
    <path d="M11.0866615 29.9693706C11.0866615 34.2901941 14.5471198 37.7929 18.8158281 37.7929 23.0845365 37.7929 26.5449948 34.2901941 26.5449948 29.9693706 26.5449948 25.6485471 23.0845365 22.1458412 18.8158281 22.1458412 14.5471198 22.1458412 11.0866615 25.6485471 11.0866615 29.9693706zM47.0936469 2.85469412C46.8523865 3.01898824 46.7093969 3.2984 46.7093969 3.74545882 46.7093969 4.00475294 47.7925844 9.52816471 48.1265948 11.2253118L48.2237615 11.7165176C49.042501 11.7534 49.8617927 11.7908412 50.6810844 11.8277235 52.5819073 11.9137824 54.4832823 11.9998412 56.3846573 12.0864588 58.5366781 12.1836941 60.688699 12.2814882 62.8407198 12.3787235L67.5571677 12.5927529C67.8862094 12.6078412 68.2964073 12.7056353 68.4990219 12.3614 68.7562927 11.9244 68.3129698 11.1269588 68.1313344 10.7413706 67.8056052 10.0506647 67.2071469 9.53598824 66.6804594 9.00510588 64.6322302 6.94248824 61.9987927 5.73598824 59.331126 4.72228235 56.1660323 3.51969412 52.8827927 2.95975294 49.5206052 2.73007647 49.0452615 2.69766471 48.5688135 2.67810588 48.0923656 2.65687059 47.6887927 2.63954706 47.339876 2.68704706 47.0936469 2.85469412zM25.2176208 10.1458882C25.3622667 10.4163588 25.6885479 10.7745647 25.9425063 10.9427706 25.9425063 10.9427706 26.4233708 11.2607412 27.0974646 11.2786235 28.6228708 11.3199765 30.1488292 11.3607706 31.6742354 11.4021235 35.2611208 11.4982412 38.8480062 11.5943588 42.4354437 11.6910353 42.7490271 11.6994176 42.8257667 11.7016529 42.8257667 11.7016529 43.1294125 11.7094765 43.3601833 11.4652706 43.3381 11.1590353 43.3381 11.1590353 43.2061521 9.28082941 43.1200271 8.06315294 43.0339021 6.83988824 42.8599958 3.42435882 42.8599958 3.42435882 42.8439854 3.11756471 42.5872667 2.81915294 42.2891417 2.76159412L41.5797146 2.62412353C41.2948396 2.60009412 41.0033396 2.60959412 40.7250896 2.59785882 39.9521729 2.56600588 39.1787042 2.61127059 38.4068917 2.64982941 38.3031 2.65541765 38.1993083 2.66044706 38.0955167 2.66603529 36.2129125 2.76327059 34.3336208 2.90744706 32.4559854 3.07509412 30.7787562 3.2243 29.0131937 3.45174118 27.5661833 4.39168235 26.2135792 5.27015294 24.6125375 6.69627059 24.6125375 8.45488824 24.6125375 9.01371176 25.2176208 10.1458882 25.2176208 10.1458882zM49.9432802 14.5883676C50.1889573 14.5995441 50.4351865 14.6107206 50.6808635 14.6218971 52.5822385 14.7079559 54.4830615 14.7940147 56.3844365 14.8800735M27.3078635 14.0295441C27.5535406 14.0407206 27.7997698 14.0518971 28.0454469 14.0630735 29.9468219 14.1491324 31.8476448 14.2351912 33.7490198 14.32125"/>
  </g>
</svg>
