<svg xmlns="http://www.w3.org/2000/svg" width="137" height="50" viewBox="0 0 137 50">
  <g fill="none" fill-rule="evenodd" stroke="#000" transform="translate(3 4)">
    <path d="M103.516883,32.266406 C103.516883,36.4093612 106.842793,39.7674806 110.946011,39.7674806 C115.049229,39.7674806 118.37576,36.4093612 118.37576,32.266406 C118.37576,28.1234507 115.049229,24.7647045 110.946011,24.7647045 C106.842793,24.7647045 103.516883,28.1234507 103.516883,32.266406 Z"/>
    <path d="M101.839276 32.266406C101.839276 37.3446448 105.916418 41.4612716 110.945949 41.4612716 115.9761 41.4612716 120.053243 37.3446448 120.053243 32.266406 120.053243 27.1875403 115.9761 23.0715403 110.945949 23.0715403 105.916418 23.0715403 101.839276 27.1875403 101.839276 32.266406zM58.1415872 2.22060896C58.4576014 4.01219104 58.7742365 5.80377313 59.0908716 7.59598209 59.5180185 10.0169373 59.760772 12.3520119 60.4139095 14.7297134 61.0248289 16.9550866 61.6928668 19.4794746 61.4569427 21.8070269 61.4569427 21.8070269 61.7363265 27.0639224 60.897554 32.5891164M60.1387474 2.22060896C60.1387474 2.22060896 70.683937 2.62368358 74.478591 4.84216119 74.478591 4.84216119 86.0214915 12.3833552 86.5411455 12.8271761 87.0601787 13.270997 87.1005341 13.5129672 87.1005341 13.5129672 87.1005341 13.5129672 87.379918 13.835803 86.1816716 13.7549373 84.9834251 13.6740716 62.375681 12.0611463 62.375681 12.0611463L60.1387474 2.22060896zM56.463918 2.22060896L57.0630412 11.5364597 30.0217853 11.0124C30.0217853 11.0124 35.613809 5.32610149 40.2068801 3.71254925 44.800572 2.09962388 56.463918 2.22060896 56.463918 2.22060896zM69.1259682 17.0618418L63.0149114 16.4569164M41.4452336 15.1665761L35.2143521 14.8036209M91.8334213 16.0903254C94.475772 20.389997 94.7706773 28.8244746 92.3685967 33.0489224M29.0223981 13.4035164C29.1093175 14.9738149 29.4451991 16.5453672 30.2703128 17.8724418 30.548455 18.3187701 30.8837156 18.7005313 31.2574692 19.0377851M21.6734223 32.1454836C21.6734223 36.2884388 24.9993322 39.6465582 29.1025502 39.6465582 33.2063891 39.6465582 36.5322991 36.2884388 36.5322991 32.1454836 36.5322991 28.0025284 33.2063891 24.6437821 29.1025502 24.6437821 24.9993322 24.6437821 21.6734223 28.0025284 21.6734223 32.1454836z"/>
    <path d="M19.9958152 32.1454836C19.9958152 37.2237224 24.0729573 41.3403493 29.1024882 41.3403493 34.1326398 41.3403493 38.209782 37.2237224 38.209782 32.1454836 38.209782 27.0666179 34.1326398 22.949991 29.1024882 22.949991 24.0729573 22.949991 19.9958152 27.0666179 19.9958152 32.1454836zM5.46120995 14.819794L7.32190664 14.819794 9.17204882 14.819794C9.78731422 14.819794 10.2479872 14.5295552 10.785646 14.8755851 11.2686697 15.1865104 12.5159635 15.6685701 12.1670441 16.4916448 12.0472194 16.7737343 9.01124787 19.0555254 9.01124787 19.0555254 9.01124787 19.0555254 8.21283081 19.5106299 7.134409 19.5908687 6.0559872 19.6717343 3.61789716 19.8071373 3.61789716 19.8071373"/>
    <path d="M40.2374882,35.7750985 C40.2995735,35.7757254 94.2585355,36.5411284 99.5637251,36.6157254 L100.102005,36.621994 L100.102005,32.2665313 C100.102005,26.2442328 104.98191,21.3170687 110.946445,21.3170687 C116.910981,21.3170687 121.790886,26.2442328 121.790886,32.2665313 L121.790886,37.3479045 L123.881299,37.0827403 C128.108687,36.7103821 129.849559,35.493009 129.849559,35.493009 C130.927981,34.7263522 130.757867,33.677606 130.837957,33.0325612 C130.918047,32.3875164 130.837957,30.5727403 130.837957,30.5727403 C130.837957,30.5727403 130.399014,24.7648299 130.318924,23.4741134 C130.238834,22.1840239 129.639711,20.1272776 128.441464,18.8365612 C127.243218,17.5458448 120.372858,16.0137851 120.372858,16.0137851 C109.068986,13.4323522 96.8462512,12.5447104 95.1687062,12.4644716 C94.4038152,12.4274866 93.627128,12.1805015 92.9708863,11.7780537 C92.8945213,11.7316657 88.8974692,9.27811343 88.8974692,9.27811343 C88.8974692,9.27811343 81.3882512,4.7208 76.71509,2.94614328 C72.0419289,1.17211343 67.4885924,0.849277612 61.8959479,0.446202985 C56.3039242,0.0431283582 43.681981,0.688173134 43.681981,0.688173134 C37.0115355,1.17211343 32.6177583,2.98688955 32.6177583,2.98688955 C32.5941659,2.99754627 32.5699526,3.00820299 32.5463602,3.0188597 C29.1720237,4.54088955 25.764782,5.98706866 22.5059242,7.74730746 C20.4937393,8.83366567 18.2375592,10.2485015 15.9217773,10.4879642 C15.9217773,10.4879642 9.69027488,11.1336358 7.57378673,11.5768299 C6.33704739,11.8363522 5.69943128,12.2651284 5.23937915,13.4480239 C4.67440284,14.9023522 4.11687678,16.3710985 3.8188673,17.9088 C3.59722275,19.0534567 3.11916588,20.1542328 2.62869194,21.2042328 C2.40766825,21.6775164 2.22265403,22.1069194 1.88056398,22.5043522 C1.55896209,22.8779642 1.19017536,23.2208597 0.959838863,23.6646806 C0.669279621,24.2232179 0.515308057,24.8444418 0.424663507,25.4656657 C0.244616114,26.7018448 0.331535545,27.9536955 0.330914692,29.1980239 C0.330914692,30.5056657 0.349540284,32.1480537 2.02149763,32.3875164 C2.03391469,32.389397 14.4540806,34.1634269 17.8358673,34.6467403 L18.2586682,34.6862328 L18.2586682,32.0947701 C18.2586682,26.0724716 23.1379526,21.1453075 29.1024882,21.1453075 C35.0676445,21.1453075 39.9475498,26.0724716 39.9475498,32.0947701 L39.9475498,35.7750985 L40.2374882,35.7750985 Z"/>
    <path d="M118.189069,18.9648179 C118.155543,18.9347284 119.264387,18.306609 119.337027,18.2777731 C121.102112,17.573803 123.172036,18.5423104 124.709268,19.4393552 C126.312932,20.3746388 127.863823,21.7850866 128.195358,23.7114448 C128.195358,23.7114448 128.367955,24.8003104 128.195358,25.3231164 C126.715245,24.4373552 125.16187,23.8224 123.613463,23.0858328 C121.510012,22.0859821 119.90697,20.5269672 118.189069,18.9648179 Z"/>
  </g>
</svg>
