<svg xmlns="http://www.w3.org/2000/svg" width="137" height="50" viewBox="0 0 137 50">
  <g fill="none" fill-rule="evenodd" stroke="#000" transform="translate(7 5)">
    <path d="M30.8143564,32.3017056 C30.8143564,35.8092268 27.9439678,38.6532408 24.4026171,38.6532408 C20.8618493,38.6532408 17.9908777,35.8092268 17.9908777,32.3017056 C17.9908777,28.793607 20.8618493,25.9501704 24.4026171,25.9501704 C27.9439678,25.9501704 30.8143564,28.793607 30.8143564,32.3017056 Z"/>
    <path d="M32.8179156 32.3017056C32.8179156 36.9058324 29.0503848 40.6379873 24.4026171 40.6379873 19.7554322 40.6379873 15.9873185 36.9058324 15.9873185 32.3017056 15.9873185 27.6975789 19.7554322 23.9654239 24.4026171 23.9654239 29.0503848 23.9654239 32.8179156 27.6975789 32.8179156 32.3017056zM105.882481 32.3017056C105.882481 35.8092268 103.012092 38.6532408 99.4707412 38.6532408 95.9299735 38.6532408 93.0595848 35.8092268 93.0595848 32.3017056 93.0595848 28.793607 95.9299735 25.9501704 99.4707412 25.9501704 103.012092 25.9501704 105.882481 28.793607 105.882481 32.3017056z"/>
    <path d="M107.886331 32.3017056C107.886331 36.9058324 104.1188 40.6379873 99.4710327 40.6379873 94.8232649 40.6379873 91.0557341 36.9058324 91.0557341 32.3017056 91.0557341 27.6975789 94.8232649 23.9654239 99.4710327 23.9654239 104.1188 23.9654239 107.886331 27.6975789 107.886331 32.3017056zM54.3823806 3.88552958C54.9641531 6.77920563 56.4156697 13.9975155 56.4156697 13.9975155 56.4156697 13.9975155 57.529082 17.834769 57.4841957 21.5397831 57.4398924 25.2447972 57.21721 31.3751634 56.9502242 32.3014169M56.5496289 3.88552958C56.5496289 3.88552958 62.3819275 3.9409662 65.4545957 4.60274085 68.526681 5.26451549 71.0199085 5.79347324 74.5373588 7.55762817 76.3403872 8.46251549 78.0816242 9.49098028 79.7907995 10.5581352 80.5025673 11.0027831 81.2096716 11.456093 81.9051171 11.9255718 82.6098896 12.4014028 83.2785199 12.7138113 83.5058659 13.5846282 83.5361787 13.7012761 83.7396242 15.2783324 83.7093114 15.2766 83.7069796 15.2766 58.9542498 13.8652761 58.9542498 13.8652761L56.5496289 3.88552958zM65.8193986 18.4614338C63.771536 18.3447859 61.59601 18.220631 59.5394033 18.1034056M39.0560559 17.1381732C37.0081934 17.0215254 34.8326673 16.8973704 32.7760607 16.7801451M29.1996171 15.5374408C30.9332758 18.3496944 37.6755412 28.8890042 39.3439109 31.4951028M86.6045332 14.9309296C87.2276943 16.5484085 87.4655332 18.3275775 87.4049076 20.040338 87.4049076 20.040338 87.8578507 26.2625211 86.852282 31.9661408M2.77181374 13.7855859L6.28168578 13.7855859C6.28168578 13.7855859 10.9119654 13.7445859 11.5351265 14.2302338 12.1588706 14.7153042 11.5351265 15.1281915 11.5351265 15.1281915L7.19223555 19.811431C7.19223555 19.811431 5.52444882 21.2048535 5.03478057 21.337093 4.54511232 21.4693324 1.58961469 21.4727972 1.58961469 21.4727972M54.1563754 13.5783338C54.1540436 13.5783338 30.3689915 12.5417845 30.3689915 12.5417845L32.8179156 4.8782493C32.9817213 4.26844648 32.9228445 3.88154507 33.6608445 3.86884085 34.0420863 3.86248873 34.422745 3.86075634 34.8039867 3.85960141 35.9529583 3.85498169 37.1019299 3.85902394 38.2509014 3.86422113 41.1387782 3.87750282 44.026655 3.90117887 46.9145318 3.92831972 48.7630294 3.9450662 50.611527 3.96354507 52.4600246 3.98375634 52.4681858 3.98375634 52.6197498 3.98086901 52.6203327 3.98548873 52.6220815 3.99530563 54.1563754 13.5783338 54.1563754 13.5783338zM27.6084867 12.4978394L13.328245 12.3211352 15.98761 7.02867042C15.98761 7.02867042 17.813373 5.13227606 19.5942498 4.91168451 21.3751265 4.69109296 30.3692829 4.20602254 30.3692829 4.20602254L27.6084867 12.4978394zM115.111853 18.9568408C115.111853 18.9568408 110.204094 17.585362 109.31453 17.5391648 108.970597 17.5911366 109.022478 17.8850662 108.799796 18.1645592 108.656393 18.3441507 110.23499 20.0488268 110.437853 20.2197563 111.51454 21.1240662 112.648355 21.996038 113.897009 22.6560803 114.90899 23.1913901 115.916891 23.7636577 117.013981 24.1176437 118.236402 24.5120521 119.732222 24.9994324 121.031592 24.8319676 121.056658 24.8290803 120.452734 23.3923479 120.364127 23.2514465 119.599895 22.0353056 118.330255 20.520038 117.07927 19.7670239 116.479426 19.4066859 115.767658 19.1884042 115.111853 18.9568408z"/>
    <path d="M121.031475,24.8321408 C121.031475,24.8321408 122.123319,25.5175915 122.213674,25.9541549 C122.321518,26.4750282 122.238158,27.1194789 122.269054,27.6391972 C122.313357,28.3997183 122.337257,29.159662 122.382144,29.9201831 C122.444518,30.9578873 122.411291,32.0186901 122.541286,33.0511972 C122.585589,33.4040282 121.923954,33.5807324 121.923954,33.5807324 L109.158186,34.1541549 L109.158186,31.9049296 C109.158186,26.5189155 105.040892,21.8703239 99.6049919,21.8703239 L99.3374232,21.8703239 C93.9009398,21.8703239 89.338281,26.5189155 89.338281,31.9049296 L89.338281,34.5745493 L88.6993806,34.5745493 L34.5420725,34.5745493 L34.5420725,31.9049296 C34.5420725,26.5189155 29.9724185,21.8703239 24.536518,21.8703239 L24.2689493,21.8703239 C18.8330488,21.8703239 14.1392289,26.5189155 14.1392289,31.9049296 L14.1392289,33.1395493 L12.6387455,33.0667887 C9.1644327,32.7012535 1.1041436,31.832169 0.893702844,31.7276479 C0.626717062,31.5954085 0.0478592417,31.4625915 0.404034597,29.5661972 C0.760209953,27.6698028 1.65035687,20.6114507 1.82873602,17.5243239 C2.00711517,14.4366197 3.56530948,12.6268451 3.56530948,12.6268451 C4.96494455,10.258662 6.61116256,8.03080282 8.37688294,5.91901408 C9.43608199,4.65205634 10.6625844,2.75566197 12.3146318,2.3173662 C16.0541815,1.32470423 15.1861863,1.44366197 28.6771294,0.583239437 C42.1680725,-0.276605634 60.4006365,1.01922535 60.4006365,1.01922535 C63.6067976,1.34953521 69.1499588,2.5518169 69.1499588,2.5518169 C70.00921,2.73256338 74.7601578,4.64685915 77.6987502,6.0581831 C80.6373427,7.46950704 89.1861341,12.365831 90.3881531,13.0709155 C91.590172,13.7765775 93.5937313,14.1299859 93.5937313,14.1299859 C93.5937313,14.1299859 103.6774,16.2833521 110.927404,17.8315352"/>
  </g>
</svg>
