<svg xmlns="http://www.w3.org/2000/svg" width="137" height="50" viewBox="0 0 137 50">
  <g fill="none" fill-rule="evenodd" stroke="#000" transform="translate(12 5)">
    <path d="M101.844617,32.0455414 C101.844617,26.1913271 97.0570466,21.4019414 91.2050518,21.4019414 C85.353057,21.4019414 80.565487,26.1913271 80.565487,32.0455414 C80.565487,32.0455414 80.4876166,33.7564129 80.9700622,35.78357 L30.2383316,34.9366271 C30.4502798,34.27887 30.6920881,31.8241414 30.6920881,31.8241414 C30.6920881,26.0917557 26.0040518,21.4019414 20.2744249,21.4019414 C14.5447979,21.4019414 9.85617617,26.0917557 9.85617617,31.8241414 L9.90067358,32.9323129 L8.43401554,32.7688986 C5.69801036,32.4649129 1.82263731,31.5839986 0.608326425,28.8077129 C-0.072015544,27.2520557 0.508207254,25.39827 0.854818653,23.8572557 C1.05330052,22.9728271 1.30213472,22.0081557 2.00238342,21.3779271 C2.94385492,20.5303986 3.06505181,19.9651843 3.06505181,19.9651843 L3.13179793,12.9038129 C3.13179793,12.9038129 2.84900518,11.8676843 4.07268394,11.2087557 C5.29636269,10.5498271 8.12019171,7.81922714 8.12019171,7.81922714 C8.12019171,7.81922714 11.8849067,5.08862714 12.544171,4.71201286 C12.544171,4.71201286 11.5084352,3.67588429 12.2613782,2.92324143 C12.2613782,2.92324143 12.4499067,2.64034143 14.7555751,2.31117 C14.7555751,2.31117 38.191658,-0.0428157143 47.5097668,0.333798571 C47.5097668,0.333798571 59.133544,0.85157 65.1576736,3.29927 C71.1812176,5.74755571 75.6051969,7.34831286 84.5468342,12.2442986 C84.5468342,12.2442986 94.993772,13.3747271 104.406145,16.7642557 C104.406145,16.7642557 110.147482,18.7416271 110.429689,20.9070129 C110.429689,20.9070129 112.594254,22.9786843 112.594254,25.5206843 C112.594254,28.0626843 112.124104,30.9818843 112.124104,30.9818843 C112.124104,30.9818843 112.124104,31.3584986 112.406311,31.6408129 C112.688518,31.9231271 113.06499,32.4883414 112.877047,32.6763557 C112.688518,32.8649557 108.73586,35.0303414 101.582316,35.5955557 L101.844617,32.0455414 Z"/>
    <path d="M50.9451425 3.77053571C50.9451425 3.77053571 59.3223653 4.14715 64.5929663 6.59485 64.5929663 6.59485 70.8993031 9.32545 73.2518109 10.6438929 73.2518109 10.6438929 75.7928472 11.7737357 76.0756399 11.96175 76.3578472 12.15035 76.4521114 12.3383643 76.4521114 12.9035786 76.4521114 13.4687929 75.6991684 14.88095 75.6991684 14.88095 75.6991684 14.88095 75.4169611 15.4461643 74.6640181 15.4461643 73.9110751 15.4461643 52.4510285 13.6568071 52.4510285 13.6568071L50.9451425 3.77053571zM59.2523404 18.1883029C56.8424544 17.9903314 54.5531798 17.80056 52.8552523 17.6599886M34.3497751 16.30529C31.9398891 16.1073186 29.6506145 15.9175471 27.952687 15.7769757M46.8037803 3.58205286L47.0859876 13.18601 29.5797699 11.6795529C29.5797699 11.6795529 29.2032984 8.47803857 30.1441845 7.16018143 31.085656 5.84173857 32.1208062 4.42958143 32.1208062 4.42958143 32.1208062 4.42958143 40.3095005 3.20543857 46.8037803 3.58205286zM25.6525808 9.37857429C24.469301 10.86336 23.5559332 12.46236 23.5559332 14.2224314 23.5559332 15.9098743 23.9283062 17.3314029 24.5313632 18.6158743M78.4332415 16.2540986C78.7136922 16.93177 78.9701378 17.6188129 79.1656922 18.3275271 79.7371326 20.3991986 79.786314 22.8738414 79.5486041 25.3795271M14.3504145 32.0455414C14.3504145 35.3185129 17.0026943 37.9717986 20.2744249 37.9717986 23.5461554 37.9717986 26.1984352 35.3185129 26.1984352 32.0455414 26.1984352 28.77257 23.5461554 26.1192843 20.2744249 26.1192843 17.0026943 26.1192843 14.3504145 28.77257 14.3504145 32.0455414z"/>
    <path d="M11.8512409 32.0455414C11.8512409 36.6990414 15.6223964 40.4716271 20.2741321 40.4716271 24.9264534 40.4716271 28.6970233 36.6990414 28.6970233 32.0455414 28.6970233 27.3920414 24.9264534 23.6194557 20.2741321 23.6194557 15.6223964 23.6194557 11.8512409 27.3920414 11.8512409 32.0455414zM10.4260943 9.37283429C10.4260943 9.37283429 11.7434518 11.4445057 13.2499233 11.72682 13.2499233 11.72682 17.4385347 12.5269057 17.908685 12.90352 18.3794207 13.2801343 18.3794207 13.4687343 18.3794207 13.4687343 18.3794207 13.4687343 17.7201565 14.1276629 16.8735347 14.3156771 16.0263275 14.5042771 12.8260269 14.5985771 12.5438197 14.5985771 12.2616124 14.5985771 10.7551409 14.6928771 10.2849907 15.3518057 9.81425492 16.0107343 8.59057617 17.5171914 8.30836891 18.27042L5.10806839 17.7057914C5.10806839 17.7057914 3.79071088 17.3285914 3.60218238 16.6696629 3.41423938 16.0107343 3.22571088 14.6928771 3.60218238 13.9390629 3.97865389 13.1858343 4.26144663 12.7155057 4.26144663 12.7155057 4.26144663 12.7155057 4.44938964 12.2445914 6.33174715 11.3027629 8.21410466 10.3609343 10.4260943 9.37283429 10.4260943 9.37283429zM97.6764389 18.5060529C97.6764389 18.5060529 103.51204 18.3174529 106.241019 19.3535814 106.241019 19.3535814 109.488745 20.6245814 110.429631 22.1310386 110.429631 22.1310386 110.523895 22.4133529 110.429631 22.9785671 110.335952 23.5431957 109.95948 23.3551814 109.300216 23.2608814 108.641537 23.1665814 105.62918 22.6019529 105.62918 22.6019529 105.62918 22.6019529 103.653144 22.2253386 102.240936 21.28351 100.829315 20.3422671 97.6764389 18.5060529 97.6764389 18.5060529zM49.0156528 3.72332714C49.8511503 13.3805843 49.8119223 22.9148414 50.0098187 32.5820557M85.2810415 32.0455414C85.2810415 35.3185129 87.9333212 37.9717986 91.2050518 37.9717986 94.4767824 37.9717986 97.1290622 35.3185129 97.1290622 32.0455414 97.1290622 28.77257 94.4767824 26.1192843 91.2050518 26.1192843 87.9333212 26.1192843 85.2810415 28.77257 85.2810415 32.0455414z"/>
    <path d="M82.7821021,32.0455414 C82.7821021,36.6990414 86.5532575,40.4716271 91.2049933,40.4716271 C95.8573145,40.4716271 99.6278845,36.6990414 99.6278845,32.0455414 C99.6278845,27.3920414 95.8573145,23.6194557 91.2049933,23.6194557 C86.5532575,23.6194557 82.7821021,27.3920414 82.7821021,32.0455414 Z"/>
  </g>
</svg>
