<svg xmlns="http://www.w3.org/2000/svg" width="137" height="50" viewBox="0 0 137 50">
  <g fill="none" fill-rule="evenodd" stroke="#000" transform="translate(8 6)">
    <path d="M29.6946557,29.9886788 C29.6946557,33.0931636 27.1998868,35.6098 24.1218066,35.6098 C21.0448679,35.6098 18.5500991,33.0931636 18.5500991,29.9886788 C18.5500991,26.8841939 21.0448679,24.3675576 24.1218066,24.3675576 C27.1998868,24.3675576 29.6946557,26.8841939 29.6946557,29.9886788 Z"/>
    <path d="M32.0161434 29.9886788C32.0161434 34.3868909 28.4820302 37.9519818 24.1220349 37.9519818 19.7626104 37.9519818 16.2284972 34.3868909 16.2284972 29.9886788 16.2284972 25.5910424 19.7626104 22.0253758 24.1220349 22.0253758 28.4820302 22.0253758 32.0161434 25.5910424 32.0161434 29.9886788zM26.3665849 10.5490303L51.2092547 11.5249394 50.7452311 2.23451515 40.6069151 2.54715152C40.6069151 2.54715152 36.5825236 3.36645455 34.5318019 4.655 32.4805094 5.9429697 26.3665849 10.5490303 26.3665849 10.5490303zM53.2527849 13.3606273C53.3338321 14.1108394 53.4245821 14.8973242 53.4925019 15.3112939 53.6471764 16.2486273 54.0729594 18.8637182 54.0729594 20.3474455 54.0729594 23.8227182 53.6254877 27.2438697 53.7247991 30.7306576M24.5868575 12.4618121C25.2249613 14.6767515 25.6906972 16.6585091 27.7008953 17.9879333M83.8923821 16.0723879C83.9066509 18.3092061 83.9146415 21.1943273 83.8695519 22.0648727 83.8569953 22.2928727 83.820467 22.6458121 83.766816 23.0799333M100.508935 29.7545182C100.508935 32.859003 98.0141665 35.3756394 94.9360863 35.3756394 91.8591476 35.3756394 89.3643788 32.859003 89.3643788 29.7545182 89.3643788 26.6500333 91.8591476 24.133397 94.9360863 24.133397 98.0141665 24.133397 100.508935 26.6500333 100.508935 29.7545182z"/>
    <path d="M102.830423 29.7545182C102.830423 34.1527303 99.2963099 37.7178212 94.9363146 37.7178212 90.5763193 37.7178212 87.0422061 34.1527303 87.0422061 29.7545182 87.0422061 25.3563061 90.5763193 21.7912152 94.9363146 21.7912152 99.2963099 21.7912152 102.830423 25.3563061 102.830423 29.7545182zM81.8763623 13.4823424L55.408183 12.0746152 53.6091642 2.61664545C53.6091642 2.61664545 59.0073623 2.36676667 61.8508623 2.95231212 64.694933 3.53843333 67.2490604 4.20400909 68.4681925 4.6721 69.6873245 5.14076667 76.1300038 8.57688788 76.1300038 8.57688788L80.8895274 11.5345545 82.1668764 12.7620697 82.3986028 13.4823424 81.8763623 13.4823424zM106.972276 16.7926606C108.777002 16.801297 110.77179 17.4121758 112.561106 17.7156 113.654672 17.9009939 114.748809 18.0869636 115.842375 18.2729333 116.128323 18.321297 117.030686 18.3086303 117.254422 18.5124485 117.254422 18.5124485 118.793748 20.3301152 119.141908 20.7982061 119.277748 20.9801455 117.486149 20.9945394 117.35088 20.9899333 115.058158 20.9058727 112.439535 20.7308424 110.45388 19.4353879 109.835752 19.0329333 109.218196 18.6235697 108.618333 18.1934788 108.318116 17.9787212 108.023035 17.7570545 107.740512 17.5198424 107.613233 17.4127515 107.10355 16.7932364 106.972276 16.7926606zM27.2951458 14.2965212C27.2951458 14.2965212 29.3053439 14.3667636 32.2487259 14.4692485M56.2983321 15.2335091C56.2983321 15.2335091 58.3085302 15.3037515 61.2513415 15.4062364M2.9489184 12.9065848L6.70905047 12.9065848C6.70905047 12.9065848 7.347725 12.8991 7.40594198 13.0747061 7.46358821 13.2503121 7.347725 13.5974939 7.08631934 13.9492818 6.82491368 14.3004939 5.09096085 16.069797 5.09096085 16.069797 5.09096085 16.069797 3.83587123 16.9979182 3.45860236 17.2028879 3.08076274 17.4078576 2.0174467 17.7389182 2.0174467 17.7389182"/>
    <path d="M84.8522203,33.6338576 L84.8522203,29.5557667 C84.8522203,24.1724333 89.2184939,19.7678879 94.5550505,19.7678879 L95.1258052,19.7678879 C100.462362,19.7678879 104.828635,24.1724333 104.828635,29.5557667 L104.828635,32.7702212 L105.787503,32.7702212 C109.391249,32.4961606 118.112951,31.7453727 118.112951,31.7453727 C118.112951,31.7453727 119.333796,31.5144939 119.580362,31.1667364 C121.301187,28.7376152 120.742418,25.4166455 119.835489,22.8044333 C118.744206,19.6590697 117.904055,16.3870394 114.419027,15.5907667 C111.617763,14.9505242 108.752003,14.5187061 105.926767,13.998797 C101.246579,13.1374636 95.6263571,12.9658879 91.1510693,11.3105848 C91.1499278,11.3100091 87.0359278,9.78770606 86.2819608,9.20216061 C85.5274231,8.61661515 73.2248052,2.87861515 71.5416495,2.23434242 C69.8579231,1.59064545 63.7576967,0.699948485 62.4318335,0.634887879 C62.4318335,0.634887879 48.9654467,-0.101506061 41.3030646,0.571554545 C41.3030646,0.571554545 32.0163146,1.31773636 26.0958759,3.95816061 C20.1754373,6.59916061 13.6357297,9.39388788 13.6357297,9.39388788 L3.61327689,10.7521 C3.61327689,10.7521 3.03281934,10.9432515 2.91638538,11.3727667 C2.80052217,11.8022818 1.75604104,18.7873727 1.75604104,18.7873727 C1.75604104,18.7873727 1.52374387,19.8018576 1.36849858,20.0356152 C1.21439481,20.2699485 0.285206132,21.3627364 0.285206132,22.4946758 C0.285206132,23.6266152 0.788611792,28.5055848 0.788611792,28.5055848 C0.788611792,28.5055848 1.25263538,30.3399485 2.1812533,30.5357061 C2.95462594,30.6980697 11.3749703,31.4557667 14.0786354,31.7044939 L14.0786354,29.7808879 C14.0786354,24.3722212 18.4654561,19.9469485 23.8271259,19.9469485 L24.3065599,19.9469485 C29.6682297,19.9469485 34.0550505,24.3722212 34.0550505,29.7808879 C34.0550505,29.7808879 34.2451118,32.0027364 33.8649892,33.6338576 L34.3404278,33.6338576 L84.0240552,33.6338576 L84.8522203,33.6338576 Z"/>
  </g>
</svg>
