<?xml version="1.0" encoding="utf-8"?>
<!-- Generator: Adobe Illustrator 22.0.0, SVG Export Plug-In . SVG Version: 6.00 Build 0)  -->
<svg version="1.1" id="Слой_1" xmlns="http://www.w3.org/2000/svg" xmlns:xlink="http://www.w3.org/1999/xlink" x="0px" y="0px"
	 viewBox="0 0 22 19.2" style="enable-background:new 0 0 22 19.2;" xml:space="preserve">
<style type="text/css">
	.st0{fill:#31CB87;}
</style>
<path id="XMLID_1_" class="st0" d="M20,7.9c-2.1,2.8-2.4,2.6-0.6,4.1c1.7,1.6,2,2.3,2.1,2.4c0,0,0.7,1.2-0.8,1.2h-2.8
	c-0.6,0.1-1.4-0.4-1.4-0.4c-1.1-0.7-2-2.6-2.8-2.4c0,0-0.8,0.3-0.8,1.9c0,0.4-0.2,0.6-0.2,0.6s-0.2,0.2-0.6,0.2h-1.3
	c-2.8,0.2-5.2-2.4-5.2-2.4s-2.7-2.8-5-8.2c-0.2-0.4,0-0.5,0-0.5s0.2-0.2,0.6-0.2h3c0.3,0,0.5,0.2,0.5,0.2S4.9,4.5,5,4.8
	C5.5,6,6.1,7.1,6.1,7.1c1.1,2.3,1.8,2.6,2.3,2.4c0,0,0.6-0.3,0.4-3c0-1-0.3-1.4-0.3-1.4C8.2,4.8,7.8,4.7,7.6,4.6
	C7.4,4.6,7.7,4.2,8.1,4c0.5-0.3,1.5-0.3,2.6-0.3c0.9,0,1.1,0.1,1.5,0.1c1,0.3,0.7,1.2,0.7,3.4c0,0.7-0.1,1.8,0.4,2.1
	c0.2,0.2,0.8,0,2.2-2.4c0,0,0.7-1.1,1.2-2.5C16.8,4.2,17,4.1,17,4.1S17.2,4,17.4,4h3.2c1-0.1,1.1,0.3,1.1,0.3
	C21.8,5.2,21.3,6.2,20,7.9z"/>
</svg>
