<?xml version="1.0" encoding="utf-8"?>
<!-- Generator: Adobe Illustrator 22.0.0, SVG Export Plug-In . SVG Version: 6.00 Build 0)  -->
<svg version="1.1" id="Слой_1" xmlns="http://www.w3.org/2000/svg" xmlns:xlink="http://www.w3.org/1999/xlink" x="0px" y="0px"
	 viewBox="0 0 22 19.2" style="enable-background:new 0 0 22 19.2;" xml:space="preserve">
<style type="text/css">
	.st0{fill:#18191E;}
</style>
<path class="st0" d="M20,7.8c-2.1,2.8-2.4,2.6-0.6,4.2c1.7,1.6,2,2.3,2.1,2.4c0,0,0.7,1.2-0.8,1.2h-2.8c-0.6,0.1-1.4-0.4-1.4-0.4
	c-1.1-0.7-2-2.6-2.8-2.4c0,0-0.8,0.3-0.8,1.9c0,0.4-0.2,0.6-0.2,0.6s-0.2,0.2-0.6,0.2h-1.3c-2.8,0.2-5.2-2.4-5.2-2.4s-2.7-2.8-5-8.3
	c-0.2-0.4,0-0.5,0-0.5s0.3,0,0.8,0h3c0.3,0,0.5,0.2,0.5,0.2s0.2,0.1,0.3,0.4c0.5,1.2,1.1,2.3,1.1,2.3c1.1,2.3,1.8,2.6,2.3,2.4
	c0,0,0.6-0.3,0.4-3.1c0-1-0.3-1.4-0.3-1.4c-0.3-0.4-0.8-0.5-1-0.5S7.8,4.2,8.2,4c0.5-0.3,1.5-0.3,2.6-0.3c0.9,0,1.1,0.1,1.5,0.1
	C13.3,4.1,13,5,13,7.3c0,0.7-0.1,1.8,0.4,2.1c0.2,0.2,0.8,0,2.2-2.4c0,0,0.7-1.1,1.2-2.5c0.1-0.2,0.3-0.3,0.3-0.3s0.2-0.1,0.4-0.1
	h3.2c1-0.1,1.1,0.3,1.1,0.3C21.8,5,21.3,6.1,20,7.8z"/>
</svg>
