<svg xmlns="http://www.w3.org/2000/svg" width="20" height="25" viewBox="0 0 20 25">
  <g fill="#1D409D">
    <path d="M18,25 L2,25 C0.9,25 0,24.0927419 0,22.983871 L0,2.01612903 C0,0.907258065 0.9,0 2,0 L10.14,0 C10.68,0 11.18,0.201612903 11.56,0.584677419 L19.42,8.50806452 C19.8,8.89112903 20,9.39516129 20,9.93951613 L20,22.983871 C20,24.0927419 19.1,25 18,25 Z M2,0.806451613 C1.34,0.806451613 0.8,1.35080645 0.8,2.01612903 L0.8,22.983871 C0.8,23.6491935 1.34,24.1935484 2,24.1935484 L18,24.1935484 C18.66,24.1935484 19.2,23.6491935 19.2,22.983871 L19.2,9.93951613 C19.2,9.61693548 19.08,9.31451613 18.84,9.09274194 L10.98,1.16935484 C10.76,0.927419355 10.46,0.806451613 10.14,0.806451613 L2,0.806451613 Z"/>
    <path d="M12.94,18.9516129 L11.28,18.9516129 L10.36,15.3225806 C10.32,15.2016129 10.26,14.9193548 10.18,14.516129 C10.1,14.1129032 10.04,13.8306452 10.04,13.7096774 C10.02,13.8709677 9.98,14.1532258 9.9,14.5362903 C9.82,14.9193548 9.76,15.1814516 9.72,15.3427419 L8.8,18.9516129 L7.14,18.9516129 L5.4,12.0362903 L6.82,12.0362903 L7.7,15.8064516 C7.86,16.5120968 7.96,17.0967742 8.04,17.6209677 C8.06,17.4395161 8.1,17.1572581 8.16,16.7943548 C8.22,16.4314516 8.3,16.1290323 8.34,15.9274194 L9.34,12.0564516 L10.72,12.0564516 L11.72,15.9274194 C11.76,16.108871 11.82,16.3709677 11.88,16.7137097 C11.94,17.0564516 12,17.3790323 12.04,17.6209677 C12.08,17.3790323 12.12,17.0766129 12.2,16.6935484 C12.28,16.3104839 12.34,16.0282258 12.38,15.8064516 L13.26,12.0362903 L14.68,12.0362903 L12.94,18.9516129 Z"/>
  </g>
</svg>
