<svg xmlns="http://www.w3.org/2000/svg" width="118" height="17"><g fill="none"><path fill="#727D83" d="M94.65 5.558c-.62.808-.93 1.704-.93 2.674V17h3.908V8.343c0-.22.048-.426.155-.603a2.12 2.12 0 0 1 .463-.515 1.91 1.91 0 0 1 1.24-.439h3.29L103 4h-3.284c-1.267 0-2.36.057-2.933.19-.895.207-1.607.663-2.134 1.368zM85.907 4H82v13h3.907V4z"/><path fill="#3498DB" d="M82 0v3h4V0"/><path fill="#727D83" d="M80.985 4h-5.217L70 10.702 75.737 17H81l-6.26-6.43"/><path fill="#F39C12" d="M92 17v-3h-4v3"/><path fill="#727D83" d="M118 4.474h-3.824v9.842h-3.439c-.44 0-.864-.132-1.243-.429-.378-.298-.577-.642-.577-1.052V4.474h-3.824v8.63c0 .961.302 1.83.891 2.578.528.664 1.227 1.02 2.105 1.218.53.114 9.911.007 9.911.007V4.474zM44.838 7.158c.259.07.365.188.606.456.181.21.3.391.378.55.074.152.12.349.12.561v.67H39.6c-1.072 0-1.753.207-2.462.938a3.864 3.864 0 0 0-1.15 2.77c0 1.052.393 2.3 1.163 2.987.77.69 1.72.91 2.823.91h9.665V9.869c0-.996-.107-1.81-.303-2.442-.182-.631-.56-1.221-1.15-1.769-.452-.409-.995-.68-1.629-.877-.62-.212-1.37-.307-2.655-.307h-7.17l.239 2.684h7.867zm-3.783 4.898l4.76-.007.016 2.267h-4.817c-.378 0-.615.022-.916-.206-.287-.224-.478-.506-.478-.857 0-.393.198-.714.498-.95.32-.241.937-.248.937-.248zm-8.17-5.659c-1.074-1.281-2.438-1.923-4.056-1.923h-5.005V0H20v17h8.782c1.682 0 3.045-.54 4.118-1.891.985-1.25 1.485-2.728 1.485-4.441 0-1.643-.5-3.077-1.5-4.27zm-5.615.73c.953 0 1.727.364 2.345 1.113.622.741.925 1.601.925 2.568 0 .939-.289 1.785-.862 2.502-.561.715-1.304 1.082-2.227 1.082h-3.627V7.127h3.446zM70.187 0h-3.816v17h3.816V0zm-5.805 8.53c0-.931-.304-1.79-.906-2.564-.516-.676-1.211-1.112-2.09-1.311-.56-.127-1.469-.181-2.71-.181h-7.125V17h3.78V7.158h3.572c.454 0 .864.14 1.21.42.198.157.35.327.456.494.105.17.15.367.15.578V17h3.662l.002-8.47h-.001z"/><path fill="#3498DB" d="M16 4V0H9v4"/><path fill="#6CB44D" d="M17 10V6H5v4"/><path fill="#F39C12" d="M0 13v4h16v-4"/></g></svg>