<svg xmlns="http://www.w3.org/2000/svg" width="100" height="35"><g fill="none"><path fill="#0B60A3" d="M7.51 0c1.167.18 2.31.488 3.46.724 2.078.51 4.193.875 6.249 1.435a36.834 36.834 0 0 0-.524 2.03c-2.346 9.832-4.745 19.658-7.084 29.49-3.199-.71-6.405-1.427-9.611-2.137v-.38C2.519 20.777 5.022 10.392 7.51 0zm.27.366C5.358 10.679 2.802 20.956.38 31.269c2.997.653 5.979 1.342 8.983 1.966 2.354-10.084 4.858-20.14 7.234-30.216.03-.23.053-.451.068-.681A632.983 632.983 0 0 1 7.78.366zM45.035.007c.295 0 .59-.007.885-.007-.008.398-.008.796-.008 1.194.508.007 1.032.007 1.548.007V0h.884a217.192 217.192 0 0 0 0 3.267c-.294.007-.59.02-.884.035 0-.475 0-.95-.008-1.431-.516.007-1.024.007-1.532.007 0 .475-.008.95-.008 1.417h-.877c-.008-1.096.009-2.192 0-3.288zm5.456 0c.346 0 .7-.007 1.045-.007.463 1.103 1.068 2.164 1.445 3.295-.307 0-.613.007-.92.007a32.896 32.896 0 0 1-.36-.754c-.487 0-.974.007-1.461.02-.094.245-.189.497-.275.734l-.958-.021c.471-1.096 1.013-2.171 1.484-3.274zm.471.803c-.125.377-.267.747-.408 1.124.306.007.613.014.919.028a73.695 73.695 0 0 0-.51-1.152zM56.46 0c.252.007.51.007.762.007.022.882.007 1.757.022 2.64h.367c.007.44.007.874 0 1.315-.223-.007-.446-.007-.67-.014 0-.154-.006-.469-.006-.63-.87-.007-1.733-.007-2.603 0-.044-1.099-.022-2.205-.022-3.304.295 0 .59-.007.884-.007v2.632c.41.007.82.007 1.237.007.015-.882-.007-1.764.029-2.646zm5.379 0H62.9c.023 1.096.008 2.185.008 3.274l-.932.02c-.007-.704-.015-1.416-.03-2.121-.44.719-.932 1.417-1.386 2.129-.324-.007-.64-.007-.955-.007 0-1.103-.008-2.199 0-3.295h.824c0 .74 0 1.48-.016 2.22.432-.761.94-1.48 1.425-2.22zm3.41.117c.65-.243 1.455-.108 1.942.405.528.737.501 1.939-.27 2.506-.48.338-1.13.317-1.685.182-1.326-.425-1.34-2.694.014-3.093zm.305 2.6c.203.102.48.115.684.007.784-.425.811-2.161-.339-2.175-.927-.006-1.265 1.702-.345 2.168zm3.982-2.71C69.865 0 70.193 0 70.53 0l.024 1.208 1.42-.021c-.008-.398-.008-.79-.008-1.187h.878c.008 1.103 0 2.199 0 3.295-.213 0-.657.007-.87.007-.008-.475-.008-.95-.016-1.424-.46 0-.928-.007-1.396-.007-.016.475-.024.956-.049 1.43-.32-.006-.648-.006-.968-.013 0-1.096-.009-2.185-.009-3.281zm10.03-.002a154.85 154.85 0 0 1 2.545 0c0 1.087-.008 2.168.008 3.255-.292 0-.577 0-.861-.007.016-.857-.008-1.721.008-2.586h-.854c-.008.746.048 1.534-.276 2.23-.237.475-.862.384-1.328.405v-.55c.269-.05.6-.112.656-.405.205-.767.055-1.561.103-2.342zM84.107 0h.803c.015.37.022.746.045 1.123.46.02.981 0 1.382.251.684.433.491 1.583-.297 1.828-.617.167-1.271.07-1.91.09L84.105 0zm.84 1.765v.983c.967.021 1.45-.99 0-.983zM88.08 0h.859c.016.397.033.801.04 1.198h1.399V0c.335 0 .662.007.997.007l.017 3.281h-1.014V1.881c-.474-.007-.94-.014-1.406-.028v1.4c-.303.014-.597.035-.892.049V0zm6.047.007c.522-.04 1.113.081 1.5.46.65.816.528 2.26-.51 2.712-.658.209-1.526.195-2.001-.385-.807-.924-.353-2.726 1.01-2.787zm-.217 2.639C95 3.293 95.768 1.478 94.933.77c-1.092-.938-2.218 1.167-1.024 1.876zM98.013.007C98.667 0 99.32 0 99.973 0c.014.21.02.42.027.63a20.1 20.1 0 0 1-1.273.055v.504c.393.02.786.035 1.18.049-.007.217-.007.427-.007.643h-1.167c0 .182-.006.553-.006.742.42 0 .84.007 1.26.014-.007.223-.007.447-.007.664-.66 0-1.313.007-1.967-.02.007-1.092 0-2.183 0-3.274zM73.51 3.253c.506-1.077.997-2.162 1.48-3.253l1.036.042c.437 1.105.959 2.175 1.458 3.26l-1.067-.042c-.069-.23-.138-.459-.2-.688a95.617 95.617 0 0 0-1.41-.035c-.123.25-.246.508-.376.758l-.921-.042zM75.435.876c-.145.354-.276.716-.406 1.077.291 0 .583 0 .874.007-.145-.368-.299-.73-.468-1.084zM19.248.66c3.088.637 6.17 1.353 9.228 2.12a9865.704 9865.704 0 0 0-7.342 31.56c-3.081-.652-6.14-1.412-9.214-2.085C14.338 21.72 16.83 11.197 19.248.66zm-2.324 24.793c-1.61.34-2.608 2.272-1.88 3.755.584 1.426 2.419 2.041 3.788 1.404.663-.361 1.239-.94 1.457-1.671.364-1.122-.116-2.453-1.122-3.09-.648-.449-1.478-.521-2.243-.398zM93.726 5.971c1.204-.095 2.438.058 3.599.394 1.515.423 2.64 1.897 2.654 3.494.036 4.837.015 9.673.015 14.51.007 1.087-.455 2.225-1.364 2.845-1.514 1.145-3.505 1.255-5.322 1.152-1.32-.124-2.777-.386-3.722-1.422a3.18 3.18 0 0 1-.844-2.181c.015-5.034.007-10.067.007-15.093.008-1.19.714-2.32 1.731-2.89.981-.568 2.135-.729 3.246-.809zm-.137 3.4l.08 15.713c.13.284.598.248.9.211.196-.029.455-.167.462-.364V9.305c-.454-.314-1.017-.263-1.442.065zM45.04 5.965c3.038-.03 6.083-.03 9.12 0 0 .97.022 1.942-.028 2.913-1.411 0-2.815.008-4.226 0 0 1.706-.007 3.41 0 5.116 1.591-.022 3.225.036 4.751.54 1.166.395 1.598 1.712 1.627 2.834 0 2.26 0 4.518.007 6.77 0 1.187-.59 2.446-1.691 2.972-.929.424-1.966.518-2.973.604-2.181.029-4.37-.015-6.55.021-.08-7.259-.015-14.511-.037-21.77zm4.866 11.202c0 2.46-.007 4.92.008 7.381a4.22 4.22 0 0 0 1.252-.324c.158-.323.295-.669.26-1.036-.022-1.74.035-3.482-.037-5.216-.151-.669-.9-.82-1.483-.805zm7.048-11.104c1.727-.059 3.455-.008 5.19-.03-.008 2.874 0 5.748-.008 8.622.564.014 1.12.014 1.683.014-.066-1.181.178-2.341.119-3.515.015-1.24-.09-2.633.756-3.647C65.77 6.2 67.615 5.975 69.21 5.953c1.69-.05 3.537.066 4.93 1.123.972.715 1.298 1.955 1.358 3.093 0 4.712-.008 9.424 0 14.128-.015 1.13-.4 2.378-1.409 3.034-1.23.876-2.81.97-4.27 1.065-1.669-.087-3.53-.138-4.85-1.283-.897-.737-1.12-1.933-1.149-3.02 0-2.064.015-4.121-.007-6.185-.556.007-1.112.007-1.661.007-.022 3.399-.007 6.798-.015 10.197-1.72.007-3.447-.008-5.168 0-.03-7.345 0-14.697-.014-22.05zM68.935 9.44c-.037 5.018-.007 10.036-.015 15.054-.14.92 1.498.897 1.468.204.008-5.156.037-10.32-.015-15.477-.074-.343-1.453-.547-1.438.219zm7.238 18.267c0-7.252-.028-14.504.015-21.757 1.895.05 3.798-.086 5.687.108 1.47-.029 3.005.115 4.31.848.814.475 1.139 1.452 1.218 2.336.007 2.322-.007 4.65.007 6.98.014 1.2-.512 2.558-1.708 3.011-1.5.532-3.121.546-4.692.554 0 2.645.007 5.283 0 7.928-1.615-.015-3.222 0-4.837-.008zm4.83-18.458c.014 2.451.007 4.902.007 7.353.425-.079.93-.057 1.24-.41.41-.323.302-.883.317-1.336-.022-1.546.014-3.084-.015-4.63.036-.797-.915-1.034-1.55-.977z"/><path fill="#0B60A3" d="M5.003 24.52c2.013-.522 4.054 1.573 3.514 3.576-.327 1.88-2.696 2.854-4.296 1.924-1.43-.694-2.02-2.682-1.188-4.041.377-.773 1.152-1.28 1.97-1.46zm-.327.465c-.768.314-1.408.972-1.6 1.795-.441 1.452.747 3.018 2.183 3.218 1.501.294 3.066-1.108 2.952-2.632.078-1.745-1.97-3.082-3.535-2.381zm92.675 4.914l.447-.182a.823.823 0 0 0 1.114 0c.11.044.323.143.426.193-.42.617-1.595.633-1.987-.011zm-52.29 1.145h.821c.032.406.048.818.064 1.23a22.95 22.95 0 0 1 1.307-1.236c.35.006.709.006 1.06.006-.574.48-1.052 1.034-1.642 1.5.558.587 1.235 1.107 1.673 1.769-.374.013-.74.027-1.107.027-.423-.507-.877-1-1.315-1.493.008.493 0 .993-.032 1.493-.279-.007-.558-.007-.837-.007-.016-1.094-.04-2.195.008-3.289z"/><path fill="#0B60A3" d="M47.682 31.105c.89-.087 2.068-.221 2.543.563.2.314.111.783-.215 1.064-.319.395-.904.395-1.394.45 0 .387-.007.77-.007 1.158-.312-.007-.616-.02-.92-.027 0-1.072.023-2.143-.007-3.208zm.927.61c0 .287.007.569.022.857.363.013.756-.074.756-.422 0-.275-.133-.449-.778-.436zm2.401-.668a68.32 68.32 0 0 1 2.632.007c0 .155-.008.466-.008.629h-1.588c0 .21-.008.419-.008.628.458 0 .917 0 1.375.007-.008.217-.008.433-.008.65-.45-.008-.9-.008-1.35-.014-.009.155-.009.473-.017.628.535-.006 1.07 0 1.604.007-.008.25-.017.494-.017.744-.874 0-1.749.007-2.632.007.017-1.102-.017-2.198.017-3.293z"/><path fill="#0B60A3" d="M56.426 33.711c.006.26.006 1.023.02 1.289-.249 0-.498-.007-.74-.007 0-.15-.007-.464-.007-.614-.644-.006-1.295-.006-1.938-.006l-.021.62c-.25 0-.505.007-.755.007a44.8 44.8 0 0 1 0-1.364c.125-.014.367-.04.485-.055.353-.798.387-1.67.367-2.53.74-.02 1.488-.02 2.229.02.013.826-.028 1.651.013 2.476.077.034.229.103.347.164zm.214.634l-.014-3.3h.734c.007.75.014 1.507 0 2.257.436-.744.92-1.46 1.329-2.224.305-.006.61-.013.914-.027-.007 1.105 0 2.203 0 3.308l-.734.02c-.014-.736-.014-1.473-.014-2.216-.415.73-.893 1.432-1.28 2.175l-.935.007zm-2.125-2.653c0 .648.007 1.317-.2 1.937.332-.013.67-.027 1.01-.034 0-.634-.007-1.262 0-1.896-.27 0-.54-.007-.81-.007zm5.757-.647c.883-.006 1.759-.02 2.635.02.007.21.007.418.007.627h-.903c0 .883 0 1.765-.007 2.648a25.321 25.321 0 0 0-.728-.034 84.47 84.47 0 0 0 0-2.614c-.337 0-.674-.007-1.011-.007 0-.161.007-.478.007-.64zm3.304.033l.726-.04c0 .425 0 .844-.007 1.27.39.006.78.006 1.163.013 0-.419.006-.838.006-1.256h.76c0 1.08.006 2.167-.007 3.248-.249.006-.497.02-.746.027l-.02-1.385c-.383.007-.766.007-1.142.007-.007.46-.007.918-.014 1.378-.235-.007-.47-.007-.712-.007-.007-1.087.007-2.174-.007-3.255zm3.318-.04l.83.04v1.17c.52-.006 1.115-.067 1.54.276.455.484.323 1.385-.36 1.641-.652.175-1.335.175-2.01.168a246.621 246.621 0 0 1 0-3.295zm.837 1.688a42.62 42.62 0 0 0-.015.962c.154 0 .462-.007.617-.007l.388-.276c.015-.524-.557-.592-.99-.68zm2.468-1.648h.84c0 .837-.015 1.681 0 2.518-.1.268.155.449.286.65.123-.583.655-.978.964-1.48.185-.195-.077-.402-.177-.57-.278-.368-.579-.73-.841-1.111.362.047.895-.201 1.126.147.24.281.417.596.61.897.262-.361.524-.723.778-1.091.317.013.625.02.941.033-.324.516-.74.978-1.072 1.48.263.63.81 1.146 1.18 1.735-.324.013-.647.034-.971.054-.324-.396-.61-.804-.887-1.226-.301.402-.602.804-.88 1.212-.625-.04-1.257-.04-1.89 0 0-1.078.008-2.17-.007-3.248zm7.288-.034h.815c.008.755.016 1.51-.007 2.265.446-.762.984-1.476 1.454-2.224.346-.02.692-.034 1.038-.047.008 1.091 0 2.183.008 3.275-.277.013-.554.02-.823.027a71.428 71.428 0 0 1 0-2.224c-.531.728-1.016 1.482-1.531 2.224-.323-.014-.639-.02-.954-.027-.008-1.092 0-2.184 0-3.269z"/><path fill="#0B60A3" d="M81.34 31.44c.582-.481 1.39-.454 2.09-.311.007.156.014.468.014.63-.48-.026-1.063-.237-1.46.143-.48.34-.535 1.113-.09 1.507.398.427 1.029.264 1.543.203v.611c-.692.183-1.508.19-2.097-.271-.734-.543-.72-1.968 0-2.511zm2.773-.402c.865.006 1.73.006 2.602.006.006.163.027.48.04.642h-1.02c-.013.885 0 1.77-.006 2.654-.174 0-.537-.007-.718-.007v-2.647c-.301 0-.603 0-.905.007 0-.162.007-.486.007-.655z"/><path fill="#0B60A3" d="M87.963 31.092c.594-.128 1.27-.02 1.707.423.45.438.424 1.117.348 1.688-.238 1.103-1.822 1.466-2.662.8-.99-.76-.724-2.69.607-2.911zm.219.545c-.935.329-.799 2.151.3 2.138 1.23-.148 1.024-2.495-.3-2.138z"/><path fill="#0B60A3" d="M90.074 31.051c.703.007 1.467-.08 2.116.215.64.322.71 1.248.093 1.616-.394.255-.904.249-1.367.255-.008.403-.016.798-.031 1.194l-.819-.04c.015-1.08 0-2.16.008-3.24zm.842.61l-.024.84c.317-.028.865.053.85-.356.062-.416-.479-.477-.826-.483zm2.468-.61c.267-.007.54-.007.815-.013.03.756.045 1.512.03 2.269.457-.77 1.012-1.493 1.462-2.263h.981a68.335 68.335 0 0 1-.007 3.296c-.267-.007-.54-.007-.807-.007a74.283 74.283 0 0 1-.038-2.255c-.38.81-.967 1.505-1.454 2.255-.327 0-.654.007-.982.007 0-1.101-.015-2.195 0-3.289z"/><path fill="#0B60A3" d="M96.692 31.065c.305-.014.618-.02.923-.027.008.734.015 1.475.015 2.21.39-.768.962-1.449 1.396-2.197.313 0 .626-.007.946-.007.046 1.099.023 2.197.016 3.296-.275 0-.55-.007-.824-.007a50.17 50.17 0 0 1-.008-2.143 61.424 61.424 0 0 1-1.457 2.15 50.208 50.208 0 0 1-1.007-.027c0-1.085-.007-2.17 0-3.248z"/><path fill="#C63327" d="M30.243.66c2.934.745 5.896 1.38 8.83 2.125-.9 4.453-1.977 8.863-2.948 13.301-1.358 6.087-2.758 12.16-4.088 18.253-2.969-.614-5.896-1.417-8.858-2.046.042-.354.091-.708.169-1.055 2.315-10.185 4.56-20.393 6.895-30.578zM28.54 25.274c-1.308.101-2.568 1.28-2.497 2.682-.064 1.157.731 2.27 1.787 2.639 1.59.694 3.595-.673 3.595-2.45.113-1.591-1.365-3.008-2.885-2.87z"/></g></svg>