<svg xmlns="http://www.w3.org/2000/svg" width="59" height="36"><g fill="none"><path fill="#FF5F00" d="M37.145 31.89H21.424V4.357h15.721z"/><path fill="#EB001B" d="M22.422 18.123c0-5.585 2.683-10.56 6.862-13.766A18.187 18.187 0 0 0 18.18.613C8.258.613.214 8.453.214 18.123c0 9.671 8.044 17.51 17.966 17.51 4.191 0 8.048-1.399 11.104-3.743-4.179-3.207-6.862-8.182-6.862-13.767"/><path fill="#F79E1B" d="M58.354 18.123c0 9.671-8.044 17.51-17.966 17.51a18.197 18.197 0 0 1-11.105-3.743c4.18-3.207 6.863-8.182 6.863-13.767 0-5.585-2.683-10.56-6.863-13.766A18.193 18.193 0 0 1 40.388.613c9.922 0 17.966 7.84 17.966 17.51"/></g></svg>