<svg xmlns="http://www.w3.org/2000/svg" width="94" height="40" viewBox="0 0 94 40"><g fill="none" fill-rule="evenodd"><path fill="#607D8B" d="M0 29.94c1.844-2.493 8.773-2.584 11-.268v6.57c-1.08 1.034-3.234 1.55-5.39 1.55a8.531 8.531 0 0 1-2.429-.356V40H0V29.94zm8.058 1.388c-1.48-.535-3.4-.535-4.877 0v3.58c1.513.516 3.362.392 4.877-.125v-3.455zM14 40V28h3.163v9.017H22V40h-8m23 0h-3.112v-2.53h-4.774V40H26V29.938c1.879-2.584 9.121-2.584 11 0V40zm-3.112-5.432V31.47c-1.45-.554-3.326-.554-4.774 0v3.098h4.774zM39 30.982V28h11v2.982h-3.703V40h-3.596v-9.018H39M53 40h3V28h-3zm6.266-8.798V28h10.465v2.779l-5.886 6.019H70V40H59v-2.779l6.099-6.019h-5.833M84 40h-3.114v-2.53h-4.775V40H73V29.938c1.877-2.584 9.121-2.584 11 0V40zm-3.114-5.432V31.47c-1.45-.554-3.325-.554-4.775 0v3.098h4.775z"/><path fill="#00BDA0" d="M81.04 22c2.04 0 4.497-1.664 5.491-3.718l7.053-14.564C94.578 1.667 93.73 0 91.69 0H75.08c-2.039 0-4.5 1.667-5.493 3.718l-7.053 14.564C61.697 20.014 60.791 21.59 59 22h22.04M48.507 12c-1.357 0-1.898 1.132-1.206 2.524l2.445 4.929c.693 1.393 2.353 2.522 3.71 2.522.676 0 1.444.056 2.19 0 1.798-.132 3.065-1.984 3.887-3.714L62 13.066C61.238 12.422 60.298 12 59.47 12H48.506"/></g></svg>