<svg xmlns="http://www.w3.org/2000/svg" width="106" height="21"><g fill="none" fill-rule="evenodd"><path fill="#9A2A42" d="M4.345 1L2.536 9.309 1 16h14.039l.713-3.183H7.965l.713-3.238h6.58l.713-3.022h-6.58l.548-2.536h7.403L18 1z"/><path stroke="#9A2A42" stroke-width=".621" d="M17.534 3.974l.665-2.965H4.398L2.569 9.162l-1.552 6.565h14.189l.721-3.123h-7.87l.72-3.177h6.651l.72-2.965H9.497l.555-2.488z"/><path fill="#9A2A42" d="M74.568 5.244l.665-2.594h-12.36L59.88 15.727h5.709l1.275-5.612h5.597l.222-.953.333-1.483h-5.543l.554-2.435h6.54zM55.002 2.65l-1.496 6.512-1.497 6.565h5.654L60.711 2.65h-5.709zM28.397 9.533c-.53 2.282-1.252 4.203-4.046 4.182-2.805-.02-1.874-2.884-1.607-4.553.378-2.371 1.337-4.858 4.213-4.659 2.91.201 1.883 3.132 1.44 5.03zm.722-.106h4.822c.17-.957.487-2.385.554-3.547.076-1.361-.485-2.363-1.719-3.018-1.766-.935-4.368-.886-6.318-.953-2.673-.093-5.854.236-7.538 2.488-.869 1.162-1.358 2.961-1.55 4.368-.237 1.717-1.144 4.598.497 6.009 1.22 1.05 3.949 1.4 5.535 1.379 1.617-.022 3.186-.123 4.774-.426l4.157 4.818h6.484L29.12 9.427z"/><path fill="#9A2A42" d="M36.823 2.65h5.763l-2.162 9.265c-.263 1.133.85 1.724 1.804 1.803 1.228.1 2.329-.632 2.63-1.855l2.273-9.212h5.71l-2.273 9.794c-.973 2.554-3.227 3.557-5.716 3.807-1.543.156-3.176.024-4.65-.207l-5.098-5.824 1.719-7.57zm40.46 7.412l3.104-4.447.554 4.447h-3.657zm28.711-7.412h-5.543l-3.603 3.388-2.217-3.388h-7.26l4.49 6.565-4.6 4.023L85.93 2.65h-6.929l-9.644 13.077h3.99l2.051-2.859h5.875l.333 2.86h8.48l3.99-3.972 2.328 3.971h7.095L98.734 8.74l7.26-6.089z"/></g></svg>