<svg id="h-3" xmlns="http://www.w3.org/2000/svg" viewBox="0 0 81.3 102.5"><style>.st0{fill:none;stroke:#fff;stroke-miterlimit:10}</style><path id="_x33_" class="st0" d="M40.5 101.9c-7.5 0-14-1.5-19.6-4.4s-9.8-6.9-12.7-11.8l11.6-15.5C26.1 77.4 32.6 81 39.1 81c3.9 0 7-.9 9.1-2.7 2.1-1.8 3.2-4.1 3.2-6.9 0-7.2-5.6-10.8-16.7-10.8h-6.2v-21h5.6c4 0 7.3-.9 9.7-2.6 2.5-1.7 3.7-4.1 3.7-7.2 0-2.4-.7-4.4-2.2-6-1.5-1.5-3.7-2.3-6.7-2.3-6.5 0-12.2 2.9-16.9 8.8l-11.4-15C16.3 5.5 26.4.6 40.7.6c8.7 0 15.7 2.3 21.1 6.9C67.3 11.9 70 18 70 25.6c0 10.9-4.9 18.6-14.6 23v.4c5.8 1.1 10.3 3.8 13.5 7.9 3.2 4.2 4.8 9.3 4.8 15.3 0 9-3.2 16.2-9.5 21.7-6.1 5.4-14.1 8-23.7 8z"/></svg>