<svg id="h-6" xmlns="http://www.w3.org/2000/svg" viewBox="0 0 81.3 102.5"><style>.st0{fill:none;stroke:#31cb87;stroke-miterlimit:10}</style><path id="_x36_" class="st0" d="M6.4 65.5c0-8.4 1.5-16.5 4.5-24.2s7-14.3 11.9-19.8c10.3-11 21-18 32.3-21l8.5 15.8c-7.5 2.5-14 6.2-19.7 11.1-5.6 4.9-9.9 10.6-12.7 17 3.8-3.5 9.6-5.3 17.2-5.3 7.3 0 13.6 2.8 18.9 8.4 5.4 5.5 8.1 12.6 8.1 21.4 0 10.3-3.3 18.3-9.9 24.2-6.6 5.8-14.3 8.7-23.1 8.7-10.7 0-19.5-3.5-26.2-10.5-6.5-6.9-9.8-15.6-9.8-25.8zm22.4.2c0 4.8 1.2 8.5 3.6 11.2 2.4 2.7 5.8 4.1 10.2 4.1 3.3 0 5.8-1 7.7-2.9 1.9-2 2.8-4.4 2.8-7.4 0-3.5-1-6.4-3.1-8.5S45 59 41.2 59c-5.1-.2-9.2 2.1-12.4 6.7z"/></svg>