<svg id="Слой_1" xmlns="http://www.w3.org/2000/svg" viewBox="0 0 22 19.2"><style>.st0{fill:#18191e}</style><path class="st0" d="M19.5 13.1c-.1 1.3-.4 2.5-1.4 3.5s-2.2 1.3-3.5 1.4c-1.2.1-2.3.1-3.5.1s-2.3 0-3.5-.1c-1.3-.1-2.5-.4-3.5-1.4s-1.3-2.2-1.4-3.5V9.6c0-1.2 0-2.3.1-3.5 0-1.3.3-2.5 1.3-3.5s2.2-1.3 3.5-1.4c1.2-.1 2.3-.1 3.5-.1s2.3 0 3.5.1c1.3.1 2.5.4 3.5 1.4s1.3 2.2 1.4 3.5c.1 1.2.1 2.3.1 3.5s-.1 2.3-.1 3.5zM6.1 3c-.4.2-.7.3-1 .6-.2.4-.4.7-.6 1-.4 1.1-.3 3.8-.3 5s-.1 3.9.3 5c.2.4.3.7.6 1s.6.5 1 .6c1.1.4 3.7.3 5 .3s3.9.1 5-.3c.4-.2.7-.3 1-.6s.5-.6.6-1c.4-1.1.3-3.7.3-5s.1-3.9-.3-5c-.2-.4-.3-.7-.6-1s-.6-.5-1-.6c-1.1-.4-3.8-.3-5-.3s-3.9-.1-5 .3zm5 10.9c-2.4 0-4.3-1.9-4.3-4.3s1.9-4.3 4.3-4.3 4.3 1.9 4.3 4.3-1.9 4.3-4.3 4.3zm0-7.1c-1.5 0-2.8 1.3-2.8 2.8s1.3 2.8 2.8 2.8 2.8-1.3 2.8-2.8-1.3-2.8-2.8-2.8zm4.5-.7c-.6 0-1-.4-1-1s.4-1 1-1 1 .4 1 1-.5 1-1 1z"/></svg>