<svg id="Layer_1" xmlns="http://www.w3.org/2000/svg" viewBox="0 0 222 58"><style>.st0{fill:#fff}</style><title>logo</title><circle class="st0" cx="41" cy="1" r="1"/><circle class="st0" cx="45" cy="1" r="1"/><circle class="st0" cx="49" cy="1" r="1"/><circle class="st0" cx="53" cy="1" r="1"/><circle class="st0" cx="57" cy="1" r="1"/><circle class="st0" cx="61" cy="1" r="1"/><circle class="st0" cx="65" cy="1" r="1"/><circle class="st0" cx="69" cy="1" r="1"/><circle class="st0" cx="41" cy="5" r="1"/><circle class="st0" cx="45" cy="5" r="1"/><circle class="st0" cx="49" cy="5" r="1"/><circle class="st0" cx="53" cy="5" r="1"/><circle class="st0" cx="57" cy="5" r="1"/><circle class="st0" cx="61" cy="5" r="1"/><circle class="st0" cx="65" cy="5" r="1"/><circle class="st0" cx="69" cy="5" r="1"/><circle class="st0" cx="41" cy="9" r="1"/><circle class="st0" cx="45" cy="9" r="1"/><circle class="st0" cx="49" cy="9" r="1"/><circle class="st0" cx="53" cy="9" r="1"/><circle class="st0" cx="57" cy="9" r="1"/><circle class="st0" cx="61" cy="9" r="1"/><circle class="st0" cx="65" cy="9" r="1"/><circle class="st0" cx="69" cy="9" r="1"/><circle class="st0" cx="1" cy="1" r="1"/><circle class="st0" cx="5" cy="1" r="1"/><circle class="st0" cx="9" cy="1" r="1"/><circle class="st0" cx="13" cy="1" r="1"/><circle class="st0" cx="17" cy="1" r="1"/><circle class="st0" cx="21" cy="1" r="1"/><circle class="st0" cx="25" cy="1" r="1"/><circle class="st0" cx="29" cy="1" r="1"/><circle class="st0" cx="1" cy="5" r="1"/><circle class="st0" cx="5" cy="5" r="1"/><circle class="st0" cx="9" cy="5" r="1"/><circle class="st0" cx="13" cy="5" r="1"/><circle class="st0" cx="17" cy="5" r="1"/><circle class="st0" cx="21" cy="5" r="1"/><circle class="st0" cx="25" cy="5" r="1"/><circle class="st0" cx="29" cy="5" r="1"/><circle class="st0" cx="21" cy="13" r="1"/><circle class="st0" cx="25" cy="13" r="1"/><circle class="st0" cx="29" cy="13" r="1"/><circle class="st0" cx="21" cy="17" r="1"/><circle class="st0" cx="25" cy="17" r="1"/><circle class="st0" cx="29" cy="17" r="1"/><circle class="st0" cx="1" cy="45" r="1"/><circle class="st0" cx="5" cy="45" r="1"/><circle class="st0" cx="9" cy="45" r="1"/><circle class="st0" cx="1" cy="9" r="1"/><circle class="st0" cx="5" cy="9" r="1"/><circle class="st0" cx="9" cy="9" r="1"/><circle class="st0" cx="13" cy="9" r="1"/><circle class="st0" cx="17" cy="9" r="1"/><circle class="st0" cx="21" cy="9" r="1"/><circle class="st0" cx="25" cy="9" r="1"/><circle class="st0" cx="29" cy="9" r="1"/><circle class="st0" cx="1" cy="49" r="1"/><circle class="st0" cx="5" cy="49" r="1"/><circle class="st0" cx="9" cy="49" r="1"/><circle class="st0" cx="13" cy="49" r="1"/><circle class="st0" cx="17" cy="49" r="1"/><circle class="st0" cx="21" cy="49" r="1"/><circle class="st0" cx="25" cy="49" r="1"/><circle class="st0" cx="29" cy="49" r="1"/><circle class="st0" cx="1" cy="53" r="1"/><circle class="st0" cx="5" cy="53" r="1"/><circle class="st0" cx="9" cy="53" r="1"/><circle class="st0" cx="13" cy="53" r="1"/><circle class="st0" cx="17" cy="53" r="1"/><circle class="st0" cx="21" cy="53" r="1"/><circle class="st0" cx="25" cy="53" r="1"/><circle class="st0" cx="29" cy="53" r="1"/><circle class="st0" cx="1" cy="57" r="1"/><circle class="st0" cx="5" cy="57" r="1"/><circle class="st0" cx="9" cy="57" r="1"/><circle class="st0" cx="13" cy="57" r="1"/><circle class="st0" cx="17" cy="57" r="1"/><circle class="st0" cx="21" cy="57" r="1"/><circle class="st0" cx="25" cy="57" r="1"/><circle class="st0" cx="29" cy="57" r="1"/><circle class="st0" cx="209" cy="1" r="1"/><circle class="st0" cx="213" cy="1" r="1"/><circle class="st0" cx="217" cy="1" r="1"/><circle class="st0" cx="221" cy="1" r="1"/><circle class="st0" cx="209" cy="5" r="1"/><circle class="st0" cx="213" cy="5" r="1"/><circle class="st0" cx="217" cy="5" r="1"/><circle class="st0" cx="221" cy="5" r="1"/><circle class="st0" cx="209" cy="9" r="1"/><circle class="st0" cx="213" cy="9" r="1"/><circle class="st0" cx="217" cy="9" r="1"/><circle class="st0" cx="221" cy="9" r="1"/><circle class="st0" cx="177" cy="1" r="1"/><circle class="st0" cx="181" cy="1" r="1"/><circle class="st0" cx="185" cy="1" r="1"/><circle class="st0" cx="189" cy="1" r="1"/><circle class="st0" cx="177" cy="5" r="1"/><circle class="st0" cx="181" cy="5" r="1"/><circle class="st0" cx="185" cy="5" r="1"/><circle class="st0" cx="189" cy="5" r="1"/><circle class="st0" cx="177" cy="9" r="1"/><circle class="st0" cx="181" cy="9" r="1"/><circle class="st0" cx="185" cy="9" r="1"/><circle class="st0" cx="189" cy="9" r="1"/><circle class="st0" cx="41" cy="13" r="1"/><circle class="st0" cx="45" cy="13" r="1"/><circle class="st0" cx="49" cy="13" r="1"/><circle class="st0" cx="53" cy="13" r="1"/><circle class="st0" cx="41" cy="17" r="1"/><circle class="st0" cx="45" cy="17" r="1"/><circle class="st0" cx="49" cy="17" r="1"/><circle class="st0" cx="53" cy="17" r="1"/><circle class="st0" cx="41" cy="21" r="1"/><circle class="st0" cx="45" cy="21" r="1"/><circle class="st0" cx="49" cy="21" r="1"/><circle class="st0" cx="53" cy="21" r="1"/><circle class="st0" cx="41" cy="25" r="1"/><circle class="st0" cx="45" cy="25" r="1"/><circle class="st0" cx="49" cy="25" r="1"/><circle class="st0" cx="53" cy="25" r="1"/><circle class="st0" cx="57" cy="25" r="1"/><circle class="st0" cx="61" cy="25" r="1"/><circle class="st0" cx="65" cy="25" r="1"/><circle class="st0" cx="69" cy="25" r="1"/><circle class="st0" cx="41" cy="29" r="1"/><circle class="st0" cx="45" cy="29" r="1"/><circle class="st0" cx="49" cy="29" r="1"/><circle class="st0" cx="53" cy="29" r="1"/><circle class="st0" cx="57" cy="29" r="1"/><circle class="st0" cx="61" cy="29" r="1"/><circle class="st0" cx="65" cy="29" r="1"/><circle class="st0" cx="69" cy="29" r="1"/><circle class="st0" cx="41" cy="33" r="1"/><circle class="st0" cx="45" cy="33" r="1"/><circle class="st0" cx="49" cy="33" r="1"/><circle class="st0" cx="53" cy="33" r="1"/><circle class="st0" cx="57" cy="33" r="1"/><circle class="st0" cx="61" cy="33" r="1"/><circle class="st0" cx="65" cy="33" r="1"/><circle class="st0" cx="69" cy="33" r="1"/><circle class="st0" cx="41" cy="37" r="1"/><circle class="st0" cx="45" cy="37" r="1"/><circle class="st0" cx="49" cy="37" r="1"/><circle class="st0" cx="53" cy="37" r="1"/><circle class="st0" cx="41" cy="41" r="1"/><circle class="st0" cx="45" cy="41" r="1"/><circle class="st0" cx="49" cy="41" r="1"/><circle class="st0" cx="53" cy="41" r="1"/><circle class="st0" cx="41" cy="45" r="1"/><circle class="st0" cx="45" cy="45" r="1"/><circle class="st0" cx="49" cy="45" r="1"/><circle class="st0" cx="53" cy="45" r="1"/><circle class="st0" cx="41" cy="49" r="1"/><circle class="st0" cx="45" cy="49" r="1"/><circle class="st0" cx="49" cy="49" r="1"/><circle class="st0" cx="53" cy="49" r="1"/><circle class="st0" cx="57" cy="49" r="1"/><circle class="st0" cx="61" cy="49" r="1"/><circle class="st0" cx="65" cy="49" r="1"/><circle class="st0" cx="69" cy="49" r="1"/><circle class="st0" cx="41" cy="53" r="1"/><circle class="st0" cx="45" cy="53" r="1"/><circle class="st0" cx="49" cy="53" r="1"/><circle class="st0" cx="53" cy="53" r="1"/><circle class="st0" cx="57" cy="53" r="1"/><circle class="st0" cx="61" cy="53" r="1"/><circle class="st0" cx="65" cy="53" r="1"/><circle class="st0" cx="69" cy="53" r="1"/><circle class="st0" cx="41" cy="57" r="1"/><circle class="st0" cx="45" cy="57" r="1"/><circle class="st0" cx="49" cy="57" r="1"/><circle class="st0" cx="53" cy="57" r="1"/><circle class="st0" cx="57" cy="57" r="1"/><circle class="st0" cx="61" cy="57" r="1"/><circle class="st0" cx="65" cy="57" r="1"/><circle class="st0" cx="69" cy="57" r="1"/><circle class="st0" cx="147" cy="23" r="1"/><circle class="st0" cx="131" cy="23" r="1"/><circle class="st0" cx="135" cy="23" r="1"/><circle class="st0" cx="139" cy="23" r="1"/><circle class="st0" cx="143" cy="23" r="1"/><circle class="st0" cx="131" cy="27" r="1"/><circle class="st0" cx="135" cy="27" r="1"/><circle class="st0" cx="139" cy="27" r="1"/><circle class="st0" cx="143" cy="27" r="1"/><circle class="st0" cx="147" cy="27" r="1"/><circle class="st0" cx="131" cy="31" r="1"/><circle class="st0" cx="135" cy="31" r="1"/><circle class="st0" cx="139" cy="31" r="1"/><circle class="st0" cx="143" cy="31" r="1"/><circle class="st0" cx="147" cy="31" r="1"/><circle class="st0" cx="131" cy="35" r="1"/><circle class="st0" cx="135" cy="35" r="1"/><circle class="st0" cx="139" cy="35" r="1"/><circle class="st0" cx="143" cy="35" r="1"/><circle class="st0" cx="147" cy="35" r="1"/><circle class="st0" cx="157" cy="1" r="1"/><circle class="st0" cx="161" cy="1" r="1"/><circle class="st0" cx="165" cy="1" r="1"/><circle class="st0" cx="169" cy="1" r="1"/><circle class="st0" cx="157" cy="5" r="1"/><circle class="st0" cx="161" cy="5" r="1"/><circle class="st0" cx="165" cy="5" r="1"/><circle class="st0" cx="169" cy="5" r="1"/><circle class="st0" cx="157" cy="9" r="1"/><circle class="st0" cx="161" cy="9" r="1"/><circle class="st0" cx="165" cy="9" r="1"/><circle class="st0" cx="169" cy="9" r="1"/><circle class="st0" cx="157" cy="13" r="1"/><circle class="st0" cx="161" cy="13" r="1"/><circle class="st0" cx="165" cy="13" r="1"/><circle class="st0" cx="169" cy="13" r="1"/><circle class="st0" cx="157" cy="17" r="1"/><circle class="st0" cx="161" cy="17" r="1"/><circle class="st0" cx="165" cy="17" r="1"/><circle class="st0" cx="169" cy="17" r="1"/><circle class="st0" cx="157" cy="21" r="1"/><circle class="st0" cx="161" cy="21" r="1"/><circle class="st0" cx="165" cy="21" r="1"/><circle class="st0" cx="169" cy="21" r="1"/><circle class="st0" cx="157" cy="25" r="1"/><circle class="st0" cx="161" cy="25" r="1"/><circle class="st0" cx="165" cy="25" r="1"/><circle class="st0" cx="169" cy="25" r="1"/><circle class="st0" cx="157" cy="29" r="1"/><circle class="st0" cx="161" cy="29" r="1"/><circle class="st0" cx="165" cy="29" r="1"/><circle class="st0" cx="169" cy="29" r="1"/><circle class="st0" cx="157" cy="33" r="1"/><circle class="st0" cx="161" cy="33" r="1"/><circle class="st0" cx="165" cy="33" r="1"/><circle class="st0" cx="169" cy="33" r="1"/><circle class="st0" cx="157" cy="37" r="1"/><circle class="st0" cx="161" cy="37" r="1"/><circle class="st0" cx="165" cy="37" r="1"/><circle class="st0" cx="169" cy="37" r="1"/><circle class="st0" cx="157" cy="41" r="1"/><circle class="st0" cx="161" cy="41" r="1"/><circle class="st0" cx="165" cy="41" r="1"/><circle class="st0" cx="169" cy="41" r="1"/><circle class="st0" cx="157" cy="45" r="1"/><circle class="st0" cx="161" cy="45" r="1"/><circle class="st0" cx="165" cy="45" r="1"/><circle class="st0" cx="169" cy="45" r="1"/><circle class="st0" cx="157" cy="49" r="1"/><circle class="st0" cx="161" cy="49" r="1"/><circle class="st0" cx="165" cy="49" r="1"/><circle class="st0" cx="169" cy="49" r="1"/><circle class="st0" cx="157" cy="53" r="1"/><circle class="st0" cx="161" cy="53" r="1"/><circle class="st0" cx="165" cy="53" r="1"/><circle class="st0" cx="169" cy="53" r="1"/><circle class="st0" cx="157" cy="57" r="1"/><circle class="st0" cx="161" cy="57" r="1"/><circle class="st0" cx="165" cy="57" r="1"/><circle class="st0" cx="169" cy="57" r="1"/><circle class="st0" cx="109" cy="1" r="1"/><circle class="st0" cx="113" cy="1" r="1"/><circle class="st0" cx="117" cy="1" r="1"/><circle class="st0" cx="121" cy="1" r="1"/><circle class="st0" cx="109" cy="5" r="1"/><circle class="st0" cx="113" cy="5" r="1"/><circle class="st0" cx="117" cy="5" r="1"/><circle class="st0" cx="121" cy="5" r="1"/><circle class="st0" cx="109" cy="9" r="1"/><circle class="st0" cx="113" cy="9" r="1"/><circle class="st0" cx="117" cy="9" r="1"/><circle class="st0" cx="121" cy="9" r="1"/><circle class="st0" cx="109" cy="13" r="1"/><circle class="st0" cx="113" cy="13" r="1"/><circle class="st0" cx="117" cy="13" r="1"/><circle class="st0" cx="121" cy="13" r="1"/><circle class="st0" cx="109" cy="17" r="1"/><circle class="st0" cx="113" cy="17" r="1"/><circle class="st0" cx="117" cy="17" r="1"/><circle class="st0" cx="121" cy="17" r="1"/><circle class="st0" cx="109" cy="21" r="1"/><circle class="st0" cx="113" cy="21" r="1"/><circle class="st0" cx="117" cy="21" r="1"/><circle class="st0" cx="121" cy="21" r="1"/><circle class="st0" cx="109" cy="25" r="1"/><circle class="st0" cx="113" cy="25" r="1"/><circle class="st0" cx="117" cy="25" r="1"/><circle class="st0" cx="121" cy="25" r="1"/><circle class="st0" cx="109" cy="29" r="1"/><circle class="st0" cx="113" cy="29" r="1"/><circle class="st0" cx="117" cy="29" r="1"/><circle class="st0" cx="121" cy="29" r="1"/><circle class="st0" cx="109" cy="33" r="1"/><circle class="st0" cx="113" cy="33" r="1"/><circle class="st0" cx="117" cy="33" r="1"/><circle class="st0" cx="121" cy="33" r="1"/><circle class="st0" cx="109" cy="37" r="1"/><circle class="st0" cx="113" cy="37" r="1"/><circle class="st0" cx="117" cy="37" r="1"/><circle class="st0" cx="121" cy="37" r="1"/><circle class="st0" cx="109" cy="41" r="1"/><circle class="st0" cx="113" cy="41" r="1"/><circle class="st0" cx="117" cy="41" r="1"/><circle class="st0" cx="121" cy="41" r="1"/><circle class="st0" cx="109" cy="45" r="1"/><circle class="st0" cx="113" cy="45" r="1"/><circle class="st0" cx="117" cy="45" r="1"/><circle class="st0" cx="121" cy="45" r="1"/><circle class="st0" cx="109" cy="49" r="1"/><circle class="st0" cx="113" cy="49" r="1"/><circle class="st0" cx="117" cy="49" r="1"/><circle class="st0" cx="121" cy="49" r="1"/><circle class="st0" cx="109" cy="53" r="1"/><circle class="st0" cx="113" cy="53" r="1"/><circle class="st0" cx="117" cy="53" r="1"/><circle class="st0" cx="121" cy="53" r="1"/><circle class="st0" cx="109" cy="57" r="1"/><circle class="st0" cx="113" cy="57" r="1"/><circle class="st0" cx="117" cy="57" r="1"/><circle class="st0" cx="121" cy="57" r="1"/><circle class="st0" cx="77" cy="1" r="1"/><circle class="st0" cx="81" cy="1" r="1"/><circle class="st0" cx="85" cy="1" r="1"/><circle class="st0" cx="89" cy="1" r="1"/><circle class="st0" cx="77" cy="5" r="1"/><circle class="st0" cx="81" cy="5" r="1"/><circle class="st0" cx="85" cy="5" r="1"/><circle class="st0" cx="89" cy="5" r="1"/><circle class="st0" cx="77" cy="9" r="1"/><circle class="st0" cx="81" cy="9" r="1"/><circle class="st0" cx="85" cy="9" r="1"/><circle class="st0" cx="89" cy="9" r="1"/><circle class="st0" cx="77" cy="13" r="1"/><circle class="st0" cx="81" cy="13" r="1"/><circle class="st0" cx="85" cy="13" r="1"/><circle class="st0" cx="89" cy="13" r="1"/><circle class="st0" cx="77" cy="17" r="1"/><circle class="st0" cx="81" cy="17" r="1"/><circle class="st0" cx="85" cy="17" r="1"/><circle class="st0" cx="89" cy="17" r="1"/><circle class="st0" cx="77" cy="21" r="1"/><circle class="st0" cx="81" cy="21" r="1"/><circle class="st0" cx="85" cy="21" r="1"/><circle class="st0" cx="89" cy="21" r="1"/><circle class="st0" cx="77" cy="25" r="1"/><circle class="st0" cx="81" cy="25" r="1"/><circle class="st0" cx="85" cy="25" r="1"/><circle class="st0" cx="89" cy="25" r="1"/><circle class="st0" cx="77" cy="29" r="1"/><circle class="st0" cx="81" cy="29" r="1"/><circle class="st0" cx="85" cy="29" r="1"/><circle class="st0" cx="89" cy="29" r="1"/><circle class="st0" cx="77" cy="33" r="1"/><circle class="st0" cx="81" cy="33" r="1"/><circle class="st0" cx="85" cy="33" r="1"/><circle class="st0" cx="89" cy="33" r="1"/><circle class="st0" cx="77" cy="37" r="1"/><circle class="st0" cx="81" cy="37" r="1"/><circle class="st0" cx="85" cy="37" r="1"/><circle class="st0" cx="89" cy="37" r="1"/><circle class="st0" cx="77" cy="41" r="1"/><circle class="st0" cx="81" cy="41" r="1"/><circle class="st0" cx="85" cy="41" r="1"/><circle class="st0" cx="89" cy="41" r="1"/><circle class="st0" cx="77" cy="45" r="1"/><circle class="st0" cx="81" cy="45" r="1"/><circle class="st0" cx="85" cy="45" r="1"/><circle class="st0" cx="89" cy="45" r="1"/><circle class="st0" cx="77" cy="49" r="1"/><circle class="st0" cx="81" cy="49" r="1"/><circle class="st0" cx="85" cy="49" r="1"/><circle class="st0" cx="89" cy="49" r="1"/><circle class="st0" cx="77" cy="53" r="1"/><circle class="st0" cx="81" cy="53" r="1"/><circle class="st0" cx="85" cy="53" r="1"/><circle class="st0" cx="89" cy="53" r="1"/><circle class="st0" cx="77" cy="57" r="1"/><circle class="st0" cx="81" cy="57" r="1"/><circle class="st0" cx="85" cy="57" r="1"/><circle class="st0" cx="89" cy="57" r="1"/><circle class="st0" cx="93" cy="5" r="1"/><circle class="st0" cx="93" cy="9" r="1"/><circle class="st0" cx="97" cy="9" r="1"/><circle class="st0" cx="93" cy="13" r="1"/><circle class="st0" cx="97" cy="13" r="1"/><circle class="st0" cx="101" cy="13" r="1"/><circle class="st0" cx="93" cy="17" r="1"/><circle class="st0" cx="97" cy="17" r="1"/><circle class="st0" cx="101" cy="17" r="1"/><circle class="st0" cx="105" cy="17" r="1"/><circle class="st0" cx="97" cy="21" r="1"/><circle class="st0" cx="101" cy="21" r="1"/><circle class="st0" cx="105" cy="21" r="1"/><circle class="st0" cx="101" cy="25" r="1"/><circle class="st0" cx="105" cy="25" r="1"/><circle class="st0" cx="105" cy="29" r="1"/><circle class="st0" cx="193" cy="1" r="1"/><circle class="st0" cx="197" cy="1" r="1"/><circle class="st0" cx="201" cy="1" r="1"/><circle class="st0" cx="205" cy="1" r="1"/><circle class="st0" cx="193" cy="5" r="1"/><circle class="st0" cx="197" cy="5" r="1"/><circle class="st0" cx="201" cy="5" r="1"/><circle class="st0" cx="205" cy="5" r="1"/><circle class="st0" cx="193" cy="9" r="1"/><circle class="st0" cx="197" cy="9" r="1"/><circle class="st0" cx="201" cy="9" r="1"/><circle class="st0" cx="205" cy="9" r="1"/><circle class="st0" cx="193" cy="13" r="1"/><circle class="st0" cx="197" cy="13" r="1"/><circle class="st0" cx="201" cy="13" r="1"/><circle class="st0" cx="205" cy="13" r="1"/><circle class="st0" cx="193" cy="17" r="1"/><circle class="st0" cx="197" cy="17" r="1"/><circle class="st0" cx="201" cy="17" r="1"/><circle class="st0" cx="205" cy="17" r="1"/><circle class="st0" cx="193" cy="21" r="1"/><circle class="st0" cx="197" cy="21" r="1"/><circle class="st0" cx="201" cy="21" r="1"/><circle class="st0" cx="205" cy="21" r="1"/><circle class="st0" cx="193" cy="25" r="1"/><circle class="st0" cx="197" cy="25" r="1"/><circle class="st0" cx="201" cy="25" r="1"/><circle class="st0" cx="205" cy="25" r="1"/><circle class="st0" cx="193" cy="29" r="1"/><circle class="st0" cx="197" cy="29" r="1"/><circle class="st0" cx="201" cy="29" r="1"/><circle class="st0" cx="205" cy="29" r="1"/><circle class="st0" cx="193" cy="33" r="1"/><circle class="st0" cx="197" cy="33" r="1"/><circle class="st0" cx="201" cy="33" r="1"/><circle class="st0" cx="205" cy="33" r="1"/><circle class="st0" cx="193" cy="37" r="1"/><circle class="st0" cx="197" cy="37" r="1"/><circle class="st0" cx="201" cy="37" r="1"/><circle class="st0" cx="205" cy="37" r="1"/><circle class="st0" cx="193" cy="41" r="1"/><circle class="st0" cx="197" cy="41" r="1"/><circle class="st0" cx="201" cy="41" r="1"/><circle class="st0" cx="205" cy="41" r="1"/><circle class="st0" cx="193" cy="45" r="1"/><circle class="st0" cx="197" cy="45" r="1"/><circle class="st0" cx="201" cy="45" r="1"/><circle class="st0" cx="205" cy="45" r="1"/><circle class="st0" cx="193" cy="49" r="1"/><circle class="st0" cx="197" cy="49" r="1"/><circle class="st0" cx="201" cy="49" r="1"/><circle class="st0" cx="205" cy="49" r="1"/><circle class="st0" cx="193" cy="53" r="1"/><circle class="st0" cx="197" cy="53" r="1"/><circle class="st0" cx="201" cy="53" r="1"/><circle class="st0" cx="205" cy="53" r="1"/><circle class="st0" cx="193" cy="57" r="1"/><circle class="st0" cx="197" cy="57" r="1"/><circle class="st0" cx="201" cy="57" r="1"/><circle class="st0" cx="205" cy="57" r="1"/><circle class="st0" cx="21" cy="21" r="1"/><circle class="st0" cx="25" cy="21" r="1"/><circle class="st0" cx="29" cy="21" r="1"/><circle class="st0" cx="17" cy="25" r="1"/><circle class="st0" cx="21" cy="25" r="1"/><circle class="st0" cx="25" cy="25" r="1"/><circle class="st0" cx="29" cy="25" r="1"/><circle class="st0" cx="17" cy="29" r="1"/><circle class="st0" cx="21" cy="29" r="1"/><circle class="st0" cx="25" cy="29" r="1"/><circle class="st0" cx="17" cy="33" r="1"/><circle class="st0" cx="21" cy="33" r="1"/><circle class="st0" cx="17" cy="37" r="1"/><circle class="st0" cx="13" cy="45" r="1"/><circle class="st0" cx="13" cy="29" r="1"/><circle class="st0" cx="9" cy="33" r="1"/><circle class="st0" cx="13" cy="33" r="1"/><circle class="st0" cx="5" cy="37" r="1"/><circle class="st0" cx="9" cy="37" r="1"/><circle class="st0" cx="13" cy="37" r="1"/><circle class="st0" cx="1" cy="41" r="1"/><circle class="st0" cx="5" cy="41" r="1"/><circle class="st0" cx="9" cy="41" r="1"/><circle class="st0" cx="13" cy="41" r="1"/><circle class="st0" cx="33" cy="1" r="1"/><circle class="st0" cx="33" cy="5" r="1"/><circle class="st0" cx="33" cy="13" r="1"/><circle class="st0" cx="33" cy="17" r="1"/><circle class="st0" cx="33" cy="9" r="1"/><circle class="st0" cx="33" cy="49" r="1"/><circle class="st0" cx="33" cy="53" r="1"/><circle class="st0" cx="33" cy="57" r="1"/><circle class="st0" cx="33" cy="21" r="1"/></svg>