<svg xmlns="http://www.w3.org/2000/svg" xmlns:xlink="http://www.w3.org/1999/xlink" width="728" height="437" viewBox="0 0 728 437"><defs><path id="a" d="M0 437h728V0H0z"/></defs><g fill="none" fill-rule="evenodd"><path stroke="#2749FF" stroke-width="2" d="M265 269h-81c-1.65 0-3-1.35-3-3s1.35-3 3-3h81m-54 6v87m-17-87l16.375 16.375M256 352v-75h120v92"/><path stroke="#2749FF" stroke-linecap="round" d="M308.5 296v21m25-5v21m25-5v21"/><path stroke="#2749FF" stroke-width="2" d="M265 277v-75h81v75"/><path stroke="#2749FF" d="M244.5 353v-20c0-6.075-10.5-16-10.5-16s-10.5 9.925-10.5 16v22"/><path stroke="#2749FF" stroke-width="2" d="M184 263v-21h42"/><path stroke="#2749FF" d="M247.5 263v-36c0-6.075-10.5-16-10.5-16s-10.5 9.925-10.5 16v36m191 130.938V377.98c0-1.651 3-6.98 3-6.98s3 5.329 3 6.98V394m5-.063v-15.956c0-1.651 3-6.98 3-6.98s3 5.329 3 6.98V394m5-.063v-15.956c0-1.651 3-6.98 3-6.98s3 5.329 3 6.98V394m5-.063v-15.956c0-1.651 3-6.98 3-6.98s3 5.329 3 6.98V394m5-.063v-15.956c0-1.651 3-6.98 3-6.98s3 5.329 3 6.98V394m5-.063v-15.956c0-1.651 3-6.98 3-6.98s3 5.329 3 6.98V394m5-.063v-15.956c0-1.651 3-6.98 3-6.98s3 5.329 3 6.98V394m5-.063v-15.956c0-1.651 3-6.98 3-6.98s3 5.329 3 6.98V394m5-.063v-15.956c0-1.651 3-6.98 3-6.98s3 5.329 3 6.98V394m5-.063v-15.956c0-1.651 3-6.98 3-6.98s3 5.329 3 6.98V394m5-.063v-15.956c0-1.651 3-6.98 3-6.98s3 5.329 3 6.98V394m5-.063v-15.956c0-1.651 3-6.98 3-6.98s3 5.329 3 6.98V394m5-.063v-15.956c0-1.651 3-6.98 3-6.98s3 5.329 3 6.98V394m-365-152v21m6-21v21m6-21v21m6-21v21m6-21v21m6-21v21m33-21v21m6-21v21m93-21v21m6-21v21m6-21v21m6-21v21m-69-7v-25.615c0-4.323-7.5-11.385-7.5-11.385s-7.5 7.062-7.5 11.385V256h15zm24 0v-25.615c0-4.323-7.5-11.385-7.5-11.385s-7.5 7.062-7.5 11.385V256h15zm235 113v-36c0-6.075-10.5-16-10.5-16s-10.5 9.925-10.5 16v36"/><path stroke="#2749FF" stroke-width="2" d="M394 215l6-36h1l6 36zm1 48v-48h11v48m78-48l6-36h1l6 36zm1 48v-48h11v48m-120 0v-25h19m11 0h19v25m11 0v-25h19v25m11 0v-25h19"/><path stroke="#2749FF" stroke-width="2" d="M376 263h139v-25h-19"/><path stroke="#2749FF" d="M307 152.5H205c-1.65 0-3-1.35-3-3s1.35-3 3-3h102c1.65 0 3 1.35 3 3s-1.35 3-3 3zm0-34H205c-1.65 0-3-1.35-3-3s1.35-3 3-3h102c1.65 0 3 1.35 3 3s-1.35 3-3 3z"/><path stroke="#2749FF" stroke-width="2" d="M208.25 152l2.75 24h91.25l2.75-24m-94 24v66m91-66v4"/><path stroke="#2749FF" d="M455.5 355v-36c0-6.075-10.5-16-10.5-16s-10.5 9.925-10.5 16v36h21z"/><path stroke="#2749FF" stroke-width="2" d="M346 242h30m-30 21h30m-30 6h30M208 100V88h12v12m9 0V88h12v12m9 0V88h12v12m9 0V88h12v12m9 0V88h12v12m-96 12v-12h96v12m-92-47l9-36h2l8 36zm2 23V65h15v23m281 214h80v54.938M574 302v-17h16v17m-38 0v-17h16v17m-38 0v-17h16v17m-36-17h14v17"/><path stroke="#2749FF" stroke-width="2" d="M222 0v21m4 4a4 4 0 1 1-8 0 4 4 0 0 1 8 0zm55 40l9-36h2l8 36zm2 23V65h15v23"/><path stroke="#2749FF" stroke-width="2" d="M291 0v21m4 4a4 4 0 1 1-8 0 4 4 0 0 1 8 0zm-30 177h-6v-21h12v9h6v-9h9v9h7v-9h9v9h7v-9h9v9h7v-9h9v9h6v-9h12v21h-6m-15 167h237m160 25H398m-218 0H0m208-248v-28m96 0v28m205 223V263m-261.25-21h18M376 242v35m4.673 139.353c0-11.788-9.645-21.435-21.434-21.435-11.788 0-21.433 9.647-21.433 21.435 0 0-.157 3.445.815 7.526l-102.198-1.706c.425-1.322.914-6.267.914-6.267 0-11.543-9.445-20.988-20.988-20.988s-20.987 9.445-20.987 20.988l.09 2.233-2.956-.33c-5.51-.612-13.318-2.386-15.764-7.977-1.37-3.132-.2-6.865.496-9.969.401-1.781.902-3.724 2.312-4.991 1.896-1.708 2.141-2.846 2.141-2.846l.135-14.22s-.569-2.087 1.896-3.413c2.464-1.327 8.153-6.825 8.153-6.825s7.584-5.5 8.911-6.258c0 0-2.085-2.086-.569-3.603 0 0 .38-.568 5.025-1.233 0 0 47.212-4.74 65.983-3.98 0 0 23.417 1.042 35.552 5.971 12.135 4.93 21.046 8.155 39.06 18.014 0 0 21.045 2.274 40.006 9.101 0 0 11.566 3.982 12.135 8.341 0 0 4.361 4.173 4.361 9.291 0 5.12-.948 10.998-.948 10.998s0 .759.568 1.328c.57.568 1.328 1.707.95 2.085-.38.38-8.344 4.74-22.754 5.877l.528-7.147z"/><path stroke="#2749FF" stroke-linecap="round" stroke-width="1.5" d="M278.136 359.414s16.875.758 27.493 5.687c0 0 12.704 5.5 17.444 8.154 0 0 5.12 2.275 5.688 2.654.57.38.76.76.76 1.897s-1.518 3.981-1.518 3.981-.569 1.138-2.086 1.138-44.747-3.603-44.747-3.603l-3.034-19.908zm16.735 29.034c-4.855-.399-9.467-.78-12.888-1.064m-37.278-2.729c-4.854-.398-9.467-.78-12.887-1.063m37.975-24.558l.57 19.341-35.268-3.034s-.758-6.447 1.137-9.102c1.898-2.654 3.982-5.498 3.982-5.498s16.497-2.465 29.58-1.707z"/><path stroke="#2749FF" stroke-linecap="round" d="M227.184 370.707c-2.383 2.99-4.224 6.21-4.224 9.754.001 3.399.75 6.261 1.966 8.849m108.585-4.757c.566 1.365 1.082 2.748 1.476 4.176 1.15 4.172 1.25 9.155.77 14.2"/><path stroke="#2749FF" stroke-linecap="round" stroke-width="2" d="M204.416 416.353c0 6.59 5.343 11.933 11.934 11.933 6.59 0 11.933-5.343 11.933-11.933 0-6.591-5.343-11.935-11.933-11.935-6.591 0-11.934 5.344-11.934 11.935z"/><path stroke="#2749FF" stroke-linecap="round" stroke-width="2" d="M199.381 416.353c0 9.37 7.597 16.969 16.968 16.969 9.372 0 16.97-7.599 16.97-16.97 0-9.37-7.598-16.967-16.97-16.967-9.37 0-16.968 7.596-16.968 16.968z"/><path stroke="#2749FF" stroke-linecap="round" stroke-width="1.5" d="M196.51 370.695s2.655 4.172 5.688 4.74c0 0 8.438 1.612 9.386 2.37.948.76.948 1.138.948 1.138s-1.327 1.327-3.034 1.706c-1.706.38-8.153.57-8.722.57-.569 0-3.602.19-4.55 1.516-.948 1.327-3.413 4.361-3.982 5.878l-6.447-1.138s-2.654-.759-3.034-2.086c-.378-1.327-.758-3.98 0-5.498.76-1.516 1.328-2.465 1.328-2.465s.38-.948 4.171-2.844c3.792-1.896 8.248-3.887 8.248-3.887zm175.766 18.392s11.756-.38 17.254 1.707c0 0 6.542 2.56 8.438 5.594 0 0 .19.568 0 1.706s-.948.759-2.275.568c-1.328-.19-7.395-1.327-7.395-1.327s-3.982-.758-6.826-2.654c-2.844-1.896-9.196-5.594-9.196-5.594z"/><path stroke="#2749FF" stroke-linecap="round" d="M274.25 359.32c1.683 19.445 1.603 38.645 2.002 58.113"/><path stroke="#2749FF" stroke-linecap="round" stroke-width="2" d="M302.977 436h84.841m-231.303 0h75.017m-111.633 0h20.54M94 436h11.61m241.696-19.647c0 6.59 5.343 11.933 11.934 11.933 6.59 0 11.933-5.343 11.933-11.933 0-6.591-5.343-11.935-11.933-11.935s-11.934 5.344-11.934 11.935z"/><path stroke="#2749FF" stroke-linecap="round" stroke-width="2" d="M342.272 416.353c0 9.37 7.596 16.969 16.968 16.969 9.371 0 16.969-7.599 16.969-16.97 0-9.37-7.598-16.967-16.97-16.967-9.37 0-16.967 7.596-16.967 16.968z"/><path stroke="#2749FF" stroke-width="2" d="M696.662 393.216A19.874 19.874 0 0 0 698 386c0-8.941-5.8-16.34-13.397-17.741.251-.88.397-1.802.397-2.76 0-2.613-1-5.004-2.656-6.842M575 369c.106-.694.233-1.347.413-2.024 1.519-5.72 7.242-9.976 14.087-9.976 2.348 0 4.558.512 6.52 1.4-.004-.134-.02-.265-.02-.4 0-5.187 3.291-9.604 7.897-11.28"/><path stroke="#2749FF" stroke-width="2" d="M640.668 342.929c3.886-6.781 11.197-11.351 19.573-11.351 12.452 0 22.546 10.094 22.546 22.545 0 12.452-10.095 22.546-22.546 22.546-9.42 0-17.491-5.78-20.862-13.984"/><path stroke="#2749FF" stroke-linecap="round" stroke-width="1.5" d="M665.877 356.629l-5.845 5.636m-8.558-1.88l8.768 8.56"/><path stroke="#2749FF" stroke-linecap="round" stroke-width="2" d="M660 352.871v41.13"/><path stroke="#2749FF" stroke-width="2" d="M637.003 337.946c-1.453-1.652-1.572-4.452-.266-6.222 0 0 3.271-4.43 3.271-9.468 0-6.414-5.88-12.14-5.88-12.14-1.576-1.536-1.788-4.234-.47-5.996 0 0 1.842-2.465 1.842-6.213 0-6.973-5.653-12.625-12.626-12.625s-12.625 5.652-12.625 12.625c0 3.748 1.842 6.213 1.842 6.213 1.317 1.762 1.105 4.46-.47 5.995 0 0-5.88 5.727-5.88 12.141 0 5.037 3.27 9.468 3.27 9.468 1.307 1.77 1.187 4.57-.266 6.222 0 0-5.71 6.493-5.71 13.167 0 10.957 8.882 19.84 19.84 19.84 10.957 0 19.84-8.883 19.84-19.84 0-6.674-5.712-13.167-5.712-13.167z"/><path stroke="#2749FF" stroke-linecap="round" stroke-width="1.5" d="M622.875 362.837l5.41-5.411m-5.41-25.25l5.41-5.411m-5.41 21.643l-5.412-5.41"/><path fill="#FFF" d="M623 319.15V394"/><path stroke="#2749FF" stroke-linecap="round" stroke-width="2" d="M623 319.15V394"/><path stroke="#2749FF" stroke-width="2" d="M183.141 374.64c-1.719-2.887-4.135-5.348-7.029-7.173m-36.841-5.1a10.042 10.042 0 0 0-2.68-.367c-4.435 0-8.144 2.865-9.14 6.72a10.91 10.91 0 0 0-3.097-.445c-3.09 0-5.865 1.273-7.763 3.29"/><path stroke="#2749FF" stroke-width="2" d="M172.503 336.98a14.94 14.94 0 0 0 1.247-5.98c0-8.284-6.716-15-15-15-8.285 0-15 6.716-15 15 0 2.127.448 4.147 1.246 5.98-4.732 3.943-7.746 9.878-7.746 16.52 0 11.875 9.626 21.5 21.5 21.5s21.5-9.625 21.5-21.5c0-6.642-3.015-12.577-7.747-16.52z"/><path stroke="#2749FF" stroke-linecap="round" stroke-width="1.5" d="M164.877 351.629l-5.845 5.636m-8.558-1.88l8.768 8.56"/><path stroke="#2749FF" stroke-linecap="round" stroke-width="2" d="M159 347v47"/><path stroke="#2749FF" stroke-width="2" d="M24.894 307.63a8.88 8.88 0 0 1 17.759 0m-21.366 0h24.349m-18.939.001l1.804 18.036h10.821l1.804-18.036m-7.214 18.036v37.875m-5.411 29.76l3.607-29.76h3.607l3.608 29.76zM53 386h67m-59 0v8m51-8v8"/><mask id="b" fill="#fff"><use xlink:href="#a"/></mask><path stroke="#2749FF" stroke-width="2" mask="url(#b)" d="M57 382h59v-5H57zm0-8h59v-5H57z"/><path stroke="#2749FF" d="M351.573 377.433c.458-2.048 2.927-6.433 2.927-6.433s3 5.329 3 6.982m5 .955v-.956c0-1.651 3-6.98 3-6.98s3 5.329 3 6.98v3.02m5 .937v-3.957c0-1.651 3-6.981 3-6.981s3 5.33 3 6.981V383m5 1.938v-6.957c0-1.651 3-6.981 3-6.981s3 5.33 3 6.981v9.02m5 2.937V377.98c0-1.651 3-6.98 3-6.98s3 5.329 3 6.98V394m5-.063v-15.956c0-1.651 3-6.98 3-6.98s3 5.329 3 6.98V394" mask="url(#b)"/><path stroke="#2749FF" stroke-width="2" d="M556.258 393.901a19.416 19.416 0 0 1-1.258-6.9c0-10.495 8.282-19 18.5-19 .493 0 .982.018 1.466.057" mask="url(#b)"/></g></svg>