<svg id="Layer_1" xmlns="http://www.w3.org/2000/svg" viewBox="0 0 728 437" enable-background="new 0 0 728 437"><style>.st0{fill:none;stroke:#fff;stroke-width:2}.st1{stroke-linecap:round}.st1,.st2,.st3,.st4{fill:none;stroke:#fff}.st3,.st4{stroke-width:1.5;stroke-linecap:round}.st4{stroke-width:2}.st5{fill:#fff}.st6{filter:url(#Adobe_OpacityMaskFilter)}.st7{mask:url(#group-269-b_1_);fill:none;stroke:#fff;stroke-width:2}.st8{filter:url(#Adobe_OpacityMaskFilter_1_)}.st9{mask:url(#group-269-b_2_);fill:none;stroke:#fff;stroke-width:2}.st10{filter:url(#Adobe_OpacityMaskFilter_2_)}.st11{mask:url(#group-269-b_3_);fill:none;stroke:#fff}.st12{filter:url(#Adobe_OpacityMaskFilter_3_)}.st13{mask:url(#group-269-b_4_);fill:none;stroke:#fff;stroke-width:2}</style><path class="st0" d="M265 269h-81c-1.6 0-3-1.4-3-3s1.4-3 3-3h81m-54 6v87m-17-87l16.4 16.4M256 352v-75h120v92"/><path class="st1" d="M308.5 296v21m25-5v21m25-5v21"/><path class="st0" d="M265 277v-75h81v75"/><path class="st2" d="M244.5 353v-20c0-6.1-10.5-16-10.5-16s-10.5 9.9-10.5 16v22"/><path class="st0" d="M184 263v-21h42"/><path class="st2" d="M247.5 263v-36c0-6.1-10.5-16-10.5-16s-10.5 9.9-10.5 16v36m191 130.9v-16c0-1.7 3-7 3-7s3 5.3 3 7v16m5 0v-16c0-1.7 3-7 3-7s3 5.3 3 7v16m5 0v-16c0-1.7 3-7 3-7s3 5.3 3 7v16m5 0v-16c0-1.7 3-7 3-7s3 5.3 3 7v16m5 0v-16c0-1.7 3-7 3-7s3 5.3 3 7v16m5 0v-16c0-1.7 3-7 3-7s3 5.3 3 7v16m5 0v-16c0-1.7 3-7 3-7s3 5.3 3 7v16m5 0v-16c0-1.7 3-7 3-7s3 5.3 3 7v16m5 0v-16c0-1.7 3-7 3-7s3 5.3 3 7v16m5 0v-16c0-1.7 3-7 3-7s3 5.3 3 7v16m5 0v-16c0-1.7 3-7 3-7s3 5.3 3 7v16m5 0v-16c0-1.7 3-7 3-7s3 5.3 3 7v16m5 0v-16c0-1.7 3-7 3-7s3 5.3 3 7v16M190.5 242v21m6-21v21m6-21v21m6-21v21m6-21v21m6-21v21m33-21v21m6-21v21m93-21v21m6-21v21m6-21v21m6-21v21m-69-7v-25.6c0-4.3-7.5-11.4-7.5-11.4s-7.5 7.1-7.5 11.4V256h15zm24 0v-25.6c0-4.3-7.5-11.4-7.5-11.4s-7.5 7.1-7.5 11.4V256h15zm235 113v-36c0-6.1-10.5-16-10.5-16s-10.5 9.9-10.5 16v36"/><path class="st0" d="M394 215l6-36h1l6 36zm1 48v-48h11v48m78-48l6-36h1l6 36zm1 48v-48h11v48m-120 0v-25h19m11 0h19v25m11 0v-25h19v25m11 0v-25h19"/><path class="st0" d="M376 263h139v-25h-19"/><path class="st2" d="M307 152.5H205c-1.6 0-3-1.4-3-3s1.4-3 3-3h102c1.6 0 3 1.4 3 3s-1.4 3-3 3zm0-34H205c-1.6 0-3-1.3-3-3s1.4-3 3-3h102c1.6 0 3 1.3 3 3s-1.4 3-3 3z"/><path class="st0" d="M208.2 152l2.8 24h91.2l2.8-24m-94 24v66m91-66v4"/><path class="st2" d="M455.5 355v-36c0-6.1-10.5-16-10.5-16s-10.5 9.9-10.5 16v36h21z"/><path class="st0" d="M346 242h30m-30 21h30m-30 6h30M208 100V88h12v12m9 0V88h12v12m9 0V88h12v12m9 0V88h12v12m9 0V88h12v12m-96 12v-12h96v12m-92-47l9-36h2l8 36zm2 23V65h15v23m281 214h80v54.9M574 302v-17h16v17m-38 0v-17h16v17m-38 0v-17h16v17m-36-17h14v17M222 0v21m4 4c0 2.2-1.8 4-4 4s-4-1.8-4-4 1.8-4 4-4 4 1.8 4 4zm55 40l9-36h2l8 36zm2 23V65h15v23m-7-88v21m4 4c0 2.2-1.8 4-4 4s-4-1.8-4-4 1.8-4 4-4 4 1.8 4 4zm-30 177h-6v-21h12v9h6v-9h9v9h7v-9h9v9h7v-9h9v9h7v-9h9v9h6v-9h12v21h-6m-15 167h237m160 25H398m-218 0H0m208-248v-28m96 0v28m205 223V263m-261.2-21h18m110.2 0v35m4.7 139.4c0-11.8-9.6-21.4-21.4-21.4-11.8 0-21.4 9.6-21.4 21.4 0 0-.2 3.4.8 7.5l-102.2-1.7c.4-1.3.9-6.3.9-6.3 0-11.5-9.4-21-21-21s-21 9.4-21 21l.1 2.2-3-.3c-5.5-.6-13.3-2.4-15.8-8-1.4-3.1-.2-6.9.5-10 .4-1.8.9-3.7 2.3-5 1.9-1.7 2.1-2.8 2.1-2.8l.1-14.2s-.6-2.1 1.9-3.4c2.5-1.3 8.2-6.8 8.2-6.8s7.6-5.5 8.9-6.3c0 0-2.1-2.1-.6-3.6 0 0 .4-.6 5-1.2 0 0 47.2-4.7 66-4 0 0 23.4 1 35.6 6 12.1 4.9 21 8.2 39.1 18 0 0 21 2.3 40 9.1 0 0 11.6 4 12.1 8.3 0 0 4.4 4.2 4.4 9.3 0 5.1-.9 11-.9 11s0 .8.6 1.3c.6.6 1.3 1.7.9 2.1-.4.4-8.3 4.7-22.8 5.9l.6-7.1z"/><path class="st3" d="M278.1 359.4s16.9.8 27.5 5.7c0 0 12.7 5.5 17.4 8.2 0 0 5.1 2.3 5.7 2.7.6.4.8.8.8 1.9 0 1.1-1.5 4-1.5 4s-.6 1.1-2.1 1.1-44.7-3.6-44.7-3.6l-3.1-20zm16.8 29c-4.9-.4-9.5-.8-12.9-1.1m-37.3-2.6c-4.9-.4-9.5-.8-12.9-1.1m38-24.6l.6 19.3-35.3-3s-.8-6.4 1.1-9.1c1.9-2.7 4-5.5 4-5.5s16.5-2.4 29.6-1.7z"/><path class="st1" d="M227.2 370.7c-2.4 3-4.2 6.2-4.2 9.8 0 3.4.8 6.3 2 8.8m108.5-4.7c.6 1.4 1.1 2.7 1.5 4.2 1.2 4.2 1.2 9.2.8 14.2"/><path class="st4" d="M204.4 416.4c0 6.6 5.3 11.9 11.9 11.9 6.6 0 11.9-5.3 11.9-11.9s-5.3-11.9-11.9-11.9c-6.5-.1-11.9 5.3-11.9 11.9z"/><path class="st4" d="M199.4 416.4c0 9.4 7.6 17 17 17s17-7.6 17-17-7.6-17-17-17-17 7.6-17 17z"/><path class="st3" d="M196.5 370.7s2.7 4.2 5.7 4.7c0 0 8.4 1.6 9.4 2.4.9.8.9 1.1.9 1.1s-1.3 1.3-3 1.7c-1.7.4-8.2.6-8.7.6s-3.6.2-4.6 1.5-3.4 4.4-4 5.9l-6.4-1.1s-2.7-.8-3-2.1c-.4-1.3-.8-4 0-5.5s1.3-2.5 1.3-2.5.4-.9 4.2-2.8c3.8-1.9 8.2-3.9 8.2-3.9zm175.8 18.4s11.8-.4 17.3 1.7c0 0 6.5 2.6 8.4 5.6 0 0 .2.6 0 1.7s-.9.8-2.3.6c-1.3-.2-7.4-1.3-7.4-1.3s-4-.8-6.8-2.7c-2.9-1.9-9.2-5.6-9.2-5.6z"/><path class="st1" d="M274.2 359.3c1.7 19.4 1.6 38.6 2 58.1"/><path class="st4" d="M303 436h84.8m-231.3 0h75m-111.6 0h20.5M94 436h11.6m241.7-19.6c0 6.6 5.3 11.9 11.9 11.9 6.6 0 11.9-5.3 11.9-11.9s-5.3-11.9-11.9-11.9c-6.6-.1-11.9 5.3-11.9 11.9z"/><path class="st4" d="M342.3 416.4c0 9.4 7.6 17 17 17s17-7.6 17-17-7.6-17-17-17-17 7.6-17 17z"/><path class="st0" d="M696.7 393.2c.9-2.2 1.3-4.6 1.3-7.2 0-8.9-5.8-16.3-13.4-17.7.3-.9.4-1.8.4-2.8 0-2.6-1-5-2.7-6.8M575 369c.1-.7.2-1.3.4-2 1.5-5.7 7.2-10 14.1-10 2.3 0 4.6.5 6.5 1.4v-.4c0-5.2 3.3-9.6 7.9-11.3"/><path class="st0" d="M640.7 342.9c3.9-6.8 11.2-11.4 19.6-11.4 12.5 0 22.5 10.1 22.5 22.5 0 12.5-10.1 22.5-22.5 22.5-9.4 0-17.5-5.8-20.9-14"/><path class="st3" d="M665.9 356.6l-5.8 5.6m-8.6-1.8l8.8 8.6"/><path class="st4" d="M660 352.9V394"/><path class="st0" d="M637 337.9c-1.5-1.7-1.6-4.5-.3-6.2 0 0 3.3-4.4 3.3-9.5 0-6.4-5.9-12.1-5.9-12.1-1.6-1.5-1.8-4.2-.5-6 0 0 1.8-2.5 1.8-6.2 0-7-5.7-12.6-12.6-12.6-7 0-12.6 5.7-12.6 12.6 0 3.7 1.8 6.2 1.8 6.2 1.3 1.8 1.1 4.5-.5 6 0 0-5.9 5.7-5.9 12.1 0 5 3.3 9.5 3.3 9.5 1.3 1.8 1.2 4.6-.3 6.2 0 0-5.7 6.5-5.7 13.2 0 11 8.9 19.8 19.8 19.8 11 0 19.8-8.9 19.8-19.8.2-6.7-5.5-13.2-5.5-13.2z"/><path class="st3" d="M622.9 362.8l5.4-5.4m-5.4-25.2l5.4-5.4m-5.4 21.6l-5.4-5.4"/><path class="st5" d="M1 .2V75" transform="translate(622 319)"/><path class="st4" d="M1 .2V75" transform="translate(622 319)"/><path class="st0" d="M183.1 374.6c-1.7-2.9-4.1-5.3-7-7.2m-36.8-5c-.8-.2-1.7-.4-2.7-.4-4.4 0-8.1 2.9-9.1 6.7-1-.3-2-.4-3.1-.4-3.1 0-5.9 1.3-7.8 3.3"/><path class="st0" d="M172.5 337c.8-1.8 1.2-3.9 1.2-6 0-8.3-6.7-15-15-15s-15 6.7-15 15c0 2.1.4 4.1 1.2 6-4.7 3.9-7.7 9.9-7.7 16.5 0 11.9 9.6 21.5 21.5 21.5s21.5-9.6 21.5-21.5c.1-6.6-3-12.6-7.7-16.5z"/><path class="st3" d="M164.9 351.6l-5.8 5.6m-8.6-1.8l8.8 8.6"/><path class="st4" d="M159 347v47"/><path class="st0" d="M24.9 307.6c0-4.9 4-8.9 8.9-8.9s8.9 4 8.9 8.9m-21.4 0h24.3m-18.9 0l1.8 18.1h10.8l1.8-18.1m-7.2 18.1v37.9m-5.4 29.7l3.6-29.8h3.6l3.6 29.8zM53 386h67m-59 0v8m51-8v8"/><defs><filter id="Adobe_OpacityMaskFilter" filterUnits="userSpaceOnUse" x="56" y="376" width="61" height="7"><feColorMatrix values="1 0 0 0 0 0 1 0 0 0 0 0 1 0 0 0 0 0 1 0"/></filter></defs><mask maskUnits="userSpaceOnUse" x="56" y="376" width="61" height="7" id="group-269-b_1_"><g class="st6"><path id="group-269-a_1_" class="st5" d="M0 437h728V0H0z"/></g></mask><path class="st7" d="M57 382h59v-5H57z"/><defs><filter id="Adobe_OpacityMaskFilter_1_" filterUnits="userSpaceOnUse" x="56" y="368" width="61" height="7"><feColorMatrix values="1 0 0 0 0 0 1 0 0 0 0 0 1 0 0 0 0 0 1 0"/></filter></defs><mask maskUnits="userSpaceOnUse" x="56" y="368" width="61" height="7" id="group-269-b_2_"><g class="st8"><path id="group-269-a_2_" class="st5" d="M0 437h728V0H0z"/></g></mask><path class="st9" d="M57 374h59v-5H57z"/><defs><filter id="Adobe_OpacityMaskFilter_2_" filterUnits="userSpaceOnUse" x="351.1" y="370" width="61.9" height="24"><feColorMatrix values="1 0 0 0 0 0 1 0 0 0 0 0 1 0 0 0 0 0 1 0"/></filter></defs><mask maskUnits="userSpaceOnUse" x="351.1" y="370" width="61.9" height="24" id="group-269-b_3_"><g class="st10"><path id="group-269-a_3_" class="st5" d="M0 437h728V0H0z"/></g></mask><path class="st11" d="M351.6 377.4c.5-2 2.9-6.4 2.9-6.4s3 5.3 3 7m5 .9v-1c0-1.7 3-7 3-7s3 5.3 3 7v3m5 1v-4c0-1.7 3-7 3-7s3 5.3 3 7v5m5 2v-7c0-1.7 3-7 3-7s3 5.3 3 7v9m5 3v-12c0-1.7 3-7 3-7s3 5.3 3 7v16m5 0v-16c0-1.7 3-7 3-7s3 5.3 3 7v16"/><defs><filter id="Adobe_OpacityMaskFilter_3_" filterUnits="userSpaceOnUse" x="554" y="367" width="21" height="27.3"><feColorMatrix values="1 0 0 0 0 0 1 0 0 0 0 0 1 0 0 0 0 0 1 0"/></filter></defs><mask maskUnits="userSpaceOnUse" x="554" y="367" width="21" height="27.3" id="group-269-b_4_"><g class="st12"><path id="group-269-a_4_" class="st5" d="M0 437h728V0H0z"/></g></mask><path class="st13" d="M556.3 393.9c-.8-2.1-1.3-4.5-1.3-6.9 0-10.5 8.3-19 18.5-19 .5 0 1 0 1.5.1"/></svg>