<svg xmlns="http://www.w3.org/2000/svg" xmlns:xlink="http://www.w3.org/1999/xlink" width="961" height="451" viewBox="0 0 961 451"><defs><path id="a" d="M0 451h961V0H0z"/></defs><g fill="none" fill-rule="evenodd"><path stroke="#2749FF" d="M552.5 387.938v-9.957c0-1.651 3-6.98 3-6.98s3 5.329 3 6.98v12.02m5 .937V377.98c0-1.651 3-6.98 3-6.98s3 5.329 3 6.98V393"/><path stroke="#2749FF" stroke-width="2" d="M609 269h-81c-1.65 0-3-1.35-3-3s1.35-3 3-3h81m-54 6v100m-17-100l16.375 16.375M600 369v-92h120v92"/><path stroke="#2749FF" stroke-linecap="round" d="M652.5 296v21m25-5v21m25-5v21"/><path stroke="#2749FF" stroke-width="2" d="M609 277v-75h81v75"/><path stroke="#2749FF" d="M574.5 393.938V377.98c0-1.651 3-6.98 3-6.98s3 5.329 3 6.98V394m5-.063v-15.956c0-1.651 3-6.98 3-6.98s3 5.329 3 6.98V394m5-.063v-15.956c0-1.651 3-6.98 3-6.98s3 5.329 3 6.98V394m5-.063v-15.956c0-1.651 3-6.98 3-6.98s3 5.329 3 6.98V394m5-.063v-15.956c0-1.651 3-6.98 3-6.98s3 5.329 3 6.98V394m5-.063v-15.956c0-1.651 3-6.98 3-6.98s3 5.329 3 6.98V394m5-.063v-15.956c0-1.651 3-6.98 3-6.98s3 5.329 3 6.98V394m5-.063v-15.956c0-1.651 3-6.98 3-6.98s3 5.329 3 6.98V394m5-.063v-15.956c0-1.651 3-6.98 3-6.98s3 5.329 3 6.98V394m5-.063v-15.956c0-1.651 3-6.98 3-6.98s3 5.329 3 6.98V394m5-.063v-15.956c0-1.651 3-6.98 3-6.98s3 5.329 3 6.98V394m5-.063v-15.956c0-1.651 3-6.98 3-6.98s3 5.329 3 6.98V394m-113-25v-36c0-6.075-10.5-16-10.5-16s-10.5 9.925-10.5 16v36"/><path stroke="#2749FF" stroke-width="2" d="M528 263v-21h42"/><path stroke="#2749FF" d="M591.5 263v-36c0-6.075-10.5-16-10.5-16s-10.5 9.925-10.5 16v36M661 368.5c0-10.217-8.283-18.5-18.5-18.5s-18.5 8.283-18.5 18.5m82.5 25.438V377.98c0-1.651 3-6.98 3-6.98s3 5.329 3 6.98V394m5-.063v-15.956c0-1.651 3-6.98 3-6.98s3 5.329 3 6.98V394m5-.063v-15.956c0-1.651 3-6.98 3-6.98s3 5.329 3 6.98V394m5-.063v-15.956c0-1.651 3-6.98 3-6.98s3 5.329 3 6.98V394m5-.063v-15.956c0-1.651 3-6.98 3-6.98s3 5.329 3 6.98V394m5-.063v-15.956c0-1.651 3-6.98 3-6.98s3 5.329 3 6.98V394m5-.063v-15.956c0-1.651 3-6.98 3-6.98s3 5.329 3 6.98V394m5-.063v-15.956c0-1.651 3-6.98 3-6.98s3 5.329 3 6.98V394m5-.063v-15.956c0-1.651 3-6.98 3-6.98s3 5.329 3 6.98V394m5-.063v-15.956c0-1.651 3-6.98 3-6.98s3 5.329 3 6.98V394m5-.063v-15.956c0-1.651 3-6.98 3-6.98s3 5.329 3 6.98V394m5-.063v-15.956c0-1.651 3-6.98 3-6.98s3 5.329 3 6.98V394m5-.063v-15.956c0-1.651 3-6.98 3-6.98s3 5.329 3 6.98V394m5-.063v-15.956c0-1.651 3-6.98 3-6.98s3 5.329 3 6.98V394m5-.063v-15.956c0-1.651 3-6.98 3-6.98s3 5.329 3 6.98V394m5-.063v-15.956c0-1.651 3-6.98 3-6.98s3 5.329 3 6.98V394m5-.063v-15.956c0-1.651 3-6.98 3-6.98s3 5.329 3 6.98V394m5-.063v-15.956c0-1.651 3-6.98 3-6.98s3 5.329 3 6.98V394m5-.063v-15.956c0-1.651 3-6.98 3-6.98s3 5.329 3 6.98V394m5-.063v-15.956c0-1.651 3-6.98 3-6.98s3 5.329 3 6.98V394m5-.063v-15.956c0-1.651 3-6.98 3-6.98s3 5.329 3 6.98V394m5-.063v-15.956c0-1.651 3-6.98 3-6.98s3 5.329 3 6.98V394m5-.063v-15.956c0-1.651 3-6.98 3-6.98s3 5.329 3 6.98V394m-420-152v21m6-21v21m6-21v21m6-21v21m6-21v21m6-21v21m33-21v21m6-21v21m93-21v21m6-21v21m6-21v21m6-21v21m-69-7v-25.615c0-4.323-7.5-11.385-7.5-11.385s-7.5 7.062-7.5 11.385V256h15zm24 0v-25.615c0-4.323-7.5-11.385-7.5-11.385s-7.5 7.062-7.5 11.385V256h15zm235 113v-36c0-6.075-10.5-16-10.5-16s-10.5 9.925-10.5 16v36"/><path stroke="#2749FF" stroke-width="2" d="M738 215l6-36h1l6 36zm1 48v-48h11v48m78-48l6-36h1l6 36zm1 48v-48h11v48m-120 0v-25h19m11 0h19v25m11 0v-25h19v25m11 0v-25h19"/><path stroke="#2749FF" stroke-width="2" d="M720 263h139v-25h-19"/><path stroke="#2749FF" d="M651 152.5H549c-1.65 0-3-1.35-3-3s1.35-3 3-3h102c1.65 0 3 1.35 3 3s-1.35 3-3 3zm0-34H549c-1.65 0-3-1.35-3-3s1.35-3 3-3h102c1.65 0 3 1.35 3 3s-1.35 3-3 3z"/><path stroke="#2749FF" stroke-width="2" d="M552.25 152l2.75 24h91.25l2.75-24m-94 24v66m91-66v4"/><path stroke="#2749FF" d="M799.5 355v-36c0-6.075-10.5-16-10.5-16s-10.5 9.925-10.5 16v36h21z"/><path stroke="#2749FF" stroke-width="2" d="M690 242h30m-30 21h30m-30 6h30M552 100V88h12v12m9 0V88h12v12m9 0V88h12v12m9 0V88h12v12m9 0V88h12v12m-96 12v-12h96v12m-92-47l9-36h2l8 36zm2 23V65h15v23m281 214h80v67m-16-67v-17h16v17m-38 0v-17h16v17m-38 0v-17h16v17m-36-17h14v17"/><path stroke="#2749FF" stroke-width="2" d="M566 0v21m4 4a4 4 0 1 1-8 0 4 4 0 0 1 8 0zm55 40l9-36h2l8 36zm2 23V65h15v23"/><path stroke="#2749FF" stroke-width="2" d="M635 0v21m4 4a4 4 0 1 1-8 0 4 4 0 0 1 8 0zm-30 177h-6v-21h12v9h6v-9h9v9h7v-9h9v9h7v-9h9v9h7v-9h9v9h6v-9h12v21h-6M525 382v-13h435v25H575"/><path stroke="#2749FF" stroke-width="2" d="M552 146v-28m96 0v28m205 223V263m-261.25-21h18M720 242v35M566 428c0-13.2-10.8-24-24-24s-24 10.8-24 24c0 0-.175 3.858.912 8.429l-114.435-1.91c.476-1.483 1.023-7.019 1.023-7.019 0-12.925-10.575-23.5-23.5-23.5s-23.5 10.575-23.5 23.5l.1 2.5-3.309-.368c-6.171-.686-14.913-2.672-17.652-8.933-1.535-3.508-.225-7.687.555-11.163.449-1.994 1.01-4.17 2.589-5.59 2.124-1.912 2.397-3.185 2.397-3.185l.151-15.923s-.637-2.336 2.123-3.822c2.76-1.487 9.129-7.643 9.129-7.643s8.493-6.157 9.979-7.007c0 0-2.335-2.335-.637-4.034 0 0 .425-.637 5.626-1.38 0 0 52.866-5.307 73.885-4.458 0 0 26.22 1.168 39.808 6.688 13.588 5.52 23.567 9.13 43.736 20.17 0 0 23.566 2.547 44.798 10.19 0 0 12.951 4.459 13.588 9.342 0 0 4.883 4.671 4.883 10.403 0 5.733-1.062 12.315-1.062 12.315s0 .848.637 1.485c.637.638 1.487 1.911 1.062 2.336-.425.425-9.342 5.307-25.478 6.582L566 428z"/><path stroke="#2749FF" stroke-linecap="round" stroke-width="1.5" d="M451.185 364.243s18.896.85 30.785 6.37c0 0 14.225 6.156 19.533 9.13 0 0 5.732 2.547 6.37 2.971.636.425.848.85.848 2.124 0 1.273-1.698 4.458-1.698 4.458s-.637 1.274-2.336 1.274c-1.698 0-50.105-4.034-50.105-4.034l-3.397-22.293zm18.739 32.51c-5.437-.445-10.601-.873-14.431-1.19m-41.743-3.055c-5.437-.447-10.6-.874-14.43-1.191m42.523-27.499l.637 21.656-39.49-3.397s-.849-7.219 1.274-10.19c2.123-2.973 4.458-6.158 4.458-6.158s18.472-2.76 33.121-1.91z"/><path stroke="#2749FF" stroke-linecap="round" d="M394.132 376.889c-2.668 3.349-4.73 6.954-4.73 10.922 0 3.806.84 7.01 2.202 9.907m121.586-5.325c.634 1.528 1.21 3.077 1.653 4.676 1.289 4.67 1.399 10.25.864 15.9"/><path stroke="#2749FF" stroke-linecap="round" stroke-width="2" d="M368.637 428c0 7.38 5.983 13.362 13.363 13.362s13.363-5.982 13.363-13.362-5.983-13.362-13.363-13.362-13.363 5.982-13.363 13.362z"/><path stroke="#2749FF" stroke-linecap="round" stroke-width="2" d="M363 428c0 10.493 8.506 19 19 19s19-8.507 19-19-8.506-19-19-19-19 8.507-19 19z"/><path stroke="#2749FF" stroke-linecap="round" stroke-width="1.5" d="M359.785 376.876s2.972 4.671 6.37 5.308c0 0 9.447 1.804 10.51 2.654 1.06.849 1.06 1.273 1.06 1.273s-1.486 1.487-3.397 1.911c-1.91.424-9.129.637-9.766.637-.637 0-4.034.212-5.095 1.698-1.062 1.487-3.822 4.883-4.459 6.582l-7.219-1.274s-2.972-.849-3.397-2.335c-.424-1.486-.849-4.459 0-6.157a45.587 45.587 0 0 1 1.487-2.76s.424-1.061 4.671-3.184c4.246-2.124 9.235-4.353 9.235-4.353zm196.813 20.594s13.163-.425 19.32 1.91c0 0 7.325 2.867 9.448 6.264 0 0 .212.638 0 1.91-.212 1.274-1.061.85-2.548.638-1.486-.212-8.28-1.487-8.28-1.487s-4.46-.848-7.643-2.971c-3.185-2.123-10.297-6.264-10.297-6.264z"/><path stroke="#2749FF" stroke-linecap="round" d="M446.832 364.137c1.885 21.776 1.796 43.274 2.243 65.073"/><path stroke="#2749FF" stroke-linecap="round" stroke-width="2" d="M479 450h95m-259 0h84m-125 0h23m-52 0h13m270.637-22c0 7.38 5.983 13.362 13.363 13.362s13.363-5.982 13.363-13.362-5.983-13.362-13.363-13.362-13.363 5.982-13.363 13.362z"/><path stroke="#2749FF" stroke-linecap="round" stroke-width="2" d="M523 428c0 10.493 8.506 19 19 19s19-8.507 19-19-8.506-19-19-19-19 8.507-19 19z"/><path stroke="#2749FF" d="M530.5 383.938v-5.957c0-1.651 3-6.981 3-6.981s3 5.33 3 6.981V384m5 .938v-6.957c0-1.651 3-6.981 3-6.981s3 5.33 3 6.981v9.02M9.5 211v10"/><mask id="b" fill="#fff"><use xlink:href="#a"/></mask><path stroke="#2749FF" mask="url(#b)" d="M26.5 285.5h27v-38h-27zm28 76h-28V321c0-7.456 6.044-13.5 13.5-13.5h1c7.456 0 13.5 6.044 13.5 13.5v40.5zm53 32h50v-4h-50zm-67-86v54m-14-34.122h28"/><path stroke="#2749FF" stroke-width="2" mask="url(#b)" d="M1 211h170v-7H1z"/><path stroke="#2749FF" mask="url(#b)" d="M24.5 289.5h31v-4h-31z"/><path stroke="#2749FF" stroke-width="2" d="M406 327v30.5M271 343v-16" mask="url(#b)"/><path stroke="#2749FF" d="M347.5 346.5V379m-56 15.5v-48m0-41h20v-34h-20zm72 57v-21h22v18.25m-118-32.25h142v-9h-142zm34-56.5v34.5m10-17h-20m74 17h20v-34h-20zm10-34.5v34.5m10-17h-20m-37 17h20v-34h-20zm10-34.5v34.5m10-17h-20m-37-30h20v-34h-20zm10-34.5v34.5m10-17h-20m74 17h20v-34h-20zm10-34.5v34.5m10-17h-20m-37 17h20v-34h-20zm10-34.5v34.5m10-17h-20" mask="url(#b)"/><path stroke="#2749FF" stroke-width="2" d="M271 318V206m135 0v112" mask="url(#b)"/><path stroke="#2749FF" d="M271 211.5h134m-137.5-5h142v-9h-142z" mask="url(#b)"/><path stroke="#2749FF" stroke-width="2" mask="url(#b)" d="M271 196h11v-58h-11z"/><path stroke="#2749FF" d="M271 188.5h11" mask="url(#b)"/><path stroke="#2749FF" stroke-width="2" mask="url(#b)" d="M395 196h11v-58h-11z"/><path stroke="#2749FF" d="M395 188.5h11m-38.5 173v-16h12v15m-86-212.5v49m13-49v49m13-49v33m13-33v28m13-28v30m13-30v36m13-36v49m13-49v49" mask="url(#b)"/><path stroke="#2749FF" stroke-width="2" mask="url(#b)" d="M306 197v-10.604l31.291-12.625L367 187.298l.05 9.702"/><path stroke="#2749FF" d="M340.837 182.727a6.291 6.291 0 0 1-8.896 8.897 6.291 6.291 0 0 1 8.896-8.897zM298.5 393.751V359.5h42v34m-52-47h62v-5h-62z" mask="url(#b)"/><path stroke="#2749FF" d="M316.5 376.5a1 1 0 1 1-2 0 1 1 0 0 1 2 0zm8 0a1 1 0 1 1-2 0 1 1 0 0 1 2 0zm-26-21h42v-5h-42zm-179 30h26v-48h-26z" mask="url(#b)"/><path stroke="#2749FF" mask="url(#b)" d="M125.5 365.5h5v-22h-5zm-12 24h38v-4h-38zm12-9h14v-11h-14z"/><path stroke="#2749FF" stroke-width="2" mask="url(#b)" d="M1 229h170v-7H1zm5 165h160V229H6z"/><path stroke="#2749FF" d="M28.5 211v10m19-9v10m19-10v10m19-11v10m19-10v10m19-9v10m19-10v10m19-11v10m-27 144.5h5v-22h-5zm-63-80h27v-38h-27zm-2 4h31v-4h-31zm47-4h27v-38h-27zm-2 4h31v-4h-31zm-88 54.878h28m45 17.122h-28V321c0-7.456 6.044-13.5 13.5-13.5h1c7.456 0 13.5 6.044 13.5 13.5v40.5zm-14-54v54m-14-34.122h28m-28 17h28m220 15.122V394m-240-146.5v38m45-38v38m-90-38v38" mask="url(#b)"/><path stroke="#2749FF" stroke-width="2" d="M287.662 393.216A19.874 19.874 0 0 0 289 386c0-8.941-5.8-16.34-13.397-17.741.251-.88.397-1.802.397-2.76 0-2.613-1-5.004-2.656-6.842m-78.446-11.937C190.29 348.396 187 352.814 187 358c0 .135.016.266.02.4a15.772 15.772 0 0 0-6.52-1.4c-6.845 0-12.569 4.257-14.087 9.977" mask="url(#b)"/><path stroke="#2749FF" stroke-width="2" d="M231.667 342.929c3.887-6.781 11.197-11.351 19.575-11.351 12.45 0 22.544 10.094 22.544 22.545 0 12.452-10.094 22.546-22.544 22.546-9.421 0-17.492-5.78-20.863-13.984" mask="url(#b)"/><path stroke="#2749FF" stroke-linecap="round" stroke-width="1.5" d="M256.877 356.629l-5.845 5.636m-8.558-1.88l8.768 8.56" mask="url(#b)"/><path stroke="#2749FF" stroke-width="2" d="M228.003 337.946c-1.453-1.652-1.572-4.452-.266-6.222 0 0 3.271-4.43 3.271-9.468 0-6.414-5.88-12.14-5.88-12.14-1.576-1.536-1.788-4.234-.47-5.996 0 0 1.842-2.465 1.842-6.213 0-6.973-5.653-12.625-12.626-12.625s-12.625 5.652-12.625 12.625c0 3.748 1.842 6.213 1.842 6.213 1.317 1.762 1.105 4.46-.47 5.995 0 0-5.88 5.727-5.88 12.141 0 5.037 3.27 9.468 3.27 9.468 1.307 1.77 1.187 4.57-.266 6.222 0 0-5.71 6.493-5.71 13.167 0 10.957 8.882 19.84 19.84 19.84 10.957 0 19.84-8.883 19.84-19.84 0-6.674-5.712-13.167-5.712-13.167z" mask="url(#b)"/><path stroke="#2749FF" stroke-linecap="round" stroke-width="1.5" d="M213.875 362.837l5.41-5.411m-5.41-25.25l5.41-5.411m-5.41 21.643l-5.411-5.41" mask="url(#b)"/><path stroke="#2749FF" stroke-width="2" d="M282 148h112m-50.25 246H165" mask="url(#b)"/><path stroke="#2749FF" stroke-linecap="round" stroke-width="2" d="M251 352.871v41.13M214 317v75.85" mask="url(#b)"/></g></svg>