<svg id="Layer_1" xmlns="http://www.w3.org/2000/svg" viewBox="0 0 961 451" enable-background="new 0 0 961 451"><style>.st0,.st1,.st2,.st3,.st4{fill:none;stroke:#fff}.st1{stroke-width:2}.st2,.st3,.st4{stroke-linecap:round}.st3{stroke-width:1.5}.st4{stroke-width:2}.st5{filter:url(#Adobe_OpacityMaskFilter)}.st6{fill:#fff}.st7{mask:url(#group-358-b_1_);fill:none;stroke:#fff}.st8{filter:url(#Adobe_OpacityMaskFilter_1_)}.st9{mask:url(#group-358-b_2_);fill:none;stroke:#fff}.st10{filter:url(#Adobe_OpacityMaskFilter_2_)}.st11{mask:url(#group-358-b_3_);fill:none;stroke:#fff}.st12{filter:url(#Adobe_OpacityMaskFilter_3_)}.st13{mask:url(#group-358-b_4_);fill:none;stroke:#fff}.st14{filter:url(#Adobe_OpacityMaskFilter_4_)}.st15{mask:url(#group-358-b_5_);fill:none;stroke:#fff;stroke-width:2}.st16{filter:url(#Adobe_OpacityMaskFilter_5_)}.st17{mask:url(#group-358-b_6_);fill:none;stroke:#fff}.st18{filter:url(#Adobe_OpacityMaskFilter_6_)}.st19{mask:url(#group-358-b_7_);fill:none;stroke:#fff;stroke-width:2}.st20{filter:url(#Adobe_OpacityMaskFilter_7_)}.st21{mask:url(#group-358-b_8_);fill:none;stroke:#fff}.st22{filter:url(#Adobe_OpacityMaskFilter_8_)}.st23{mask:url(#group-358-b_9_);fill:none;stroke:#fff}.st24{filter:url(#Adobe_OpacityMaskFilter_9_)}.st25{mask:url(#group-358-b_10_);fill:none;stroke:#fff}.st26{filter:url(#Adobe_OpacityMaskFilter_10_)}.st27{mask:url(#group-358-b_11_);fill:none;stroke:#fff}.st28{filter:url(#Adobe_OpacityMaskFilter_11_)}.st29{mask:url(#group-358-b_12_);fill:none;stroke:#fff}.st30{filter:url(#Adobe_OpacityMaskFilter_12_)}.st31{mask:url(#group-358-b_13_);fill:none;stroke:#fff}.st32{filter:url(#Adobe_OpacityMaskFilter_13_)}.st33{mask:url(#group-358-b_14_);fill:none;stroke:#fff}.st34{filter:url(#Adobe_OpacityMaskFilter_14_)}.st35{mask:url(#group-358-b_15_);fill:none;stroke:#fff}.st36{filter:url(#Adobe_OpacityMaskFilter_15_)}.st37{mask:url(#group-358-b_16_);fill:none;stroke:#fff}.st38{filter:url(#Adobe_OpacityMaskFilter_16_)}.st39{mask:url(#group-358-b_17_);fill:none;stroke:#fff}.st40{filter:url(#Adobe_OpacityMaskFilter_17_)}.st41{mask:url(#group-358-b_18_);fill:none;stroke:#fff}.st42{filter:url(#Adobe_OpacityMaskFilter_18_)}.st43{mask:url(#group-358-b_19_);fill:none;stroke:#fff}.st44{filter:url(#Adobe_OpacityMaskFilter_19_)}.st45{mask:url(#group-358-b_20_);fill:none;stroke:#fff}.st46{filter:url(#Adobe_OpacityMaskFilter_20_)}.st47{mask:url(#group-358-b_21_);fill:none;stroke:#fff}.st48{filter:url(#Adobe_OpacityMaskFilter_21_)}.st49{mask:url(#group-358-b_22_);fill:none;stroke:#fff}.st50{filter:url(#Adobe_OpacityMaskFilter_22_)}.st51{mask:url(#group-358-b_23_);fill:none;stroke:#fff;stroke-width:2}.st52{filter:url(#Adobe_OpacityMaskFilter_23_)}.st53{mask:url(#group-358-b_24_);fill:none;stroke:#fff}.st54{filter:url(#Adobe_OpacityMaskFilter_24_)}.st55{mask:url(#group-358-b_25_);fill:none;stroke:#fff}.st56{filter:url(#Adobe_OpacityMaskFilter_25_)}.st57{mask:url(#group-358-b_26_);fill:none;stroke:#fff;stroke-width:2}.st58{filter:url(#Adobe_OpacityMaskFilter_26_)}.st59{mask:url(#group-358-b_27_);fill:none;stroke:#fff}.st60{filter:url(#Adobe_OpacityMaskFilter_27_)}.st61{mask:url(#group-358-b_28_);fill:none;stroke:#fff;stroke-width:2}.st62{filter:url(#Adobe_OpacityMaskFilter_28_)}.st63{mask:url(#group-358-b_29_);fill:none;stroke:#fff}.st64{filter:url(#Adobe_OpacityMaskFilter_29_)}.st65{mask:url(#group-358-b_30_);fill:none;stroke:#fff}.st66{filter:url(#Adobe_OpacityMaskFilter_30_)}.st67{mask:url(#group-358-b_31_);fill:none;stroke:#fff}.st68{filter:url(#Adobe_OpacityMaskFilter_31_)}.st69{mask:url(#group-358-b_32_);fill:none;stroke:#fff;stroke-width:2}.st70{filter:url(#Adobe_OpacityMaskFilter_32_)}.st71{mask:url(#group-358-b_33_);fill:none;stroke:#fff}.st72{filter:url(#Adobe_OpacityMaskFilter_33_)}.st73{mask:url(#group-358-b_34_);fill:none;stroke:#fff}.st74{filter:url(#Adobe_OpacityMaskFilter_34_)}.st75{mask:url(#group-358-b_35_);fill:none;stroke:#fff}.st76{filter:url(#Adobe_OpacityMaskFilter_35_)}.st77{mask:url(#group-358-b_36_);fill:none;stroke:#fff}.st78{filter:url(#Adobe_OpacityMaskFilter_36_)}.st79{mask:url(#group-358-b_37_);fill:none;stroke:#fff}.st80{filter:url(#Adobe_OpacityMaskFilter_37_)}.st81{mask:url(#group-358-b_38_);fill:none;stroke:#fff}.st82{filter:url(#Adobe_OpacityMaskFilter_38_)}.st83{mask:url(#group-358-b_39_);fill:none;stroke:#fff}.st84{filter:url(#Adobe_OpacityMaskFilter_39_)}.st85{mask:url(#group-358-b_40_);fill:none;stroke:#fff}.st86{filter:url(#Adobe_OpacityMaskFilter_40_)}.st87{mask:url(#group-358-b_41_);fill:none;stroke:#fff}.st88{filter:url(#Adobe_OpacityMaskFilter_41_)}.st89{mask:url(#group-358-b_42_);fill:none;stroke:#fff;stroke-width:2}.st90{filter:url(#Adobe_OpacityMaskFilter_42_)}.st91{mask:url(#group-358-b_43_);fill:none;stroke:#fff;stroke-width:2}.st92{filter:url(#Adobe_OpacityMaskFilter_43_)}.st93{mask:url(#group-358-b_44_);fill:none;stroke:#fff}.st94{filter:url(#Adobe_OpacityMaskFilter_44_)}.st95{mask:url(#group-358-b_45_);fill:none;stroke:#fff}.st96{filter:url(#Adobe_OpacityMaskFilter_45_)}.st97{mask:url(#group-358-b_46_);fill:none;stroke:#fff}.st98{filter:url(#Adobe_OpacityMaskFilter_46_)}.st99{mask:url(#group-358-b_47_);fill:none;stroke:#fff}.st100{filter:url(#Adobe_OpacityMaskFilter_47_)}.st101{mask:url(#group-358-b_48_);fill:none;stroke:#fff}.st102{filter:url(#Adobe_OpacityMaskFilter_48_)}.st103{mask:url(#group-358-b_49_);fill:none;stroke:#fff}.st104{filter:url(#Adobe_OpacityMaskFilter_49_)}.st105{mask:url(#group-358-b_50_);fill:none;stroke:#fff}.st106{filter:url(#Adobe_OpacityMaskFilter_50_)}.st107{mask:url(#group-358-b_51_);fill:none;stroke:#fff;stroke-width:2}.st108{filter:url(#Adobe_OpacityMaskFilter_51_)}.st109{mask:url(#group-358-b_52_);fill:none;stroke:#fff;stroke-width:2}.st110{filter:url(#Adobe_OpacityMaskFilter_52_)}.st111{mask:url(#group-358-b_53_);fill:none;stroke:#fff;stroke-width:1.5;stroke-linecap:round}.st112{filter:url(#Adobe_OpacityMaskFilter_53_)}.st113{mask:url(#group-358-b_54_);fill:none;stroke:#fff;stroke-width:2}.st114{filter:url(#Adobe_OpacityMaskFilter_54_)}.st115{mask:url(#group-358-b_55_);fill:none;stroke:#fff;stroke-width:1.5;stroke-linecap:round}.st116{filter:url(#Adobe_OpacityMaskFilter_55_)}.st117{mask:url(#group-358-b_56_);fill:none;stroke:#fff;stroke-width:2}.st118{filter:url(#Adobe_OpacityMaskFilter_56_)}.st119{mask:url(#group-358-b_57_);fill:none;stroke:#fff;stroke-width:2;stroke-linecap:round}</style><path class="st0" d="M552.5 387.9v-10c0-1.7 3-7 3-7s3 5.3 3 7v12m5 1v-13c0-1.7 3-7 3-7s3 5.3 3 7v15"/><path class="st1" d="M609 269h-81c-1.7 0-3-1.4-3-3s1.3-3 3-3h81m-54 6v100m-17-100l16.4 16.4M600 369v-92h120v92"/><path class="st2" d="M652.5 296v21m25-5v21m25-5v21"/><path class="st1" d="M609 277v-75h81v75"/><path class="st0" d="M574.5 393.9v-16c0-1.7 3-7 3-7s3 5.3 3 7v16m5 0v-16c0-1.7 3-7 3-7s3 5.3 3 7v16m5 0v-16c0-1.7 3-7 3-7s3 5.3 3 7v16m5 0v-16c0-1.7 3-7 3-7s3 5.3 3 7v16m5 0v-16c0-1.7 3-7 3-7s3 5.3 3 7v16m5 0v-16c0-1.7 3-7 3-7s3 5.3 3 7v16m5 0v-16c0-1.7 3-7 3-7s3 5.3 3 7v16m5 0v-16c0-1.7 3-7 3-7s3 5.3 3 7v16m5 0v-16c0-1.7 3-7 3-7s3 5.3 3 7v16m5 0v-16c0-1.7 3-7 3-7s3 5.3 3 7v16m5 0v-16c0-1.7 3-7 3-7s3 5.3 3 7v16m5 0v-16c0-1.7 3-7 3-7s3 5.3 3 7v16m-113-24.9v-36c0-6.1-10.5-16-10.5-16s-10.5 9.9-10.5 16v36"/><path class="st1" d="M528 263v-21h42"/><path class="st0" d="M591.5 263v-36c0-6.1-10.5-16-10.5-16s-10.5 9.9-10.5 16v36M661 368.5c0-10.2-8.3-18.5-18.5-18.5s-18.5 8.3-18.5 18.5m82.5 25.4v-16c0-1.7 3-7 3-7s3 5.3 3 7v16m5 0v-16c0-1.7 3-7 3-7s3 5.3 3 7v16m5 0v-16c0-1.7 3-7 3-7s3 5.3 3 7v16m5 0v-16c0-1.7 3-7 3-7s3 5.3 3 7v16m5 0v-16c0-1.7 3-7 3-7s3 5.3 3 7v16m5 0v-16c0-1.7 3-7 3-7s3 5.3 3 7v16m5 0v-16c0-1.7 3-7 3-7s3 5.3 3 7v16m5 0v-16c0-1.7 3-7 3-7s3 5.3 3 7v16m5 0v-16c0-1.7 3-7 3-7s3 5.3 3 7v16m5 0v-16c0-1.7 3-7 3-7s3 5.3 3 7v16m5 0v-16c0-1.7 3-7 3-7s3 5.3 3 7v16m5 0v-16c0-1.7 3-7 3-7s3 5.3 3 7v16m5 0v-16c0-1.7 3-7 3-7s3 5.3 3 7v16m5 0v-16c0-1.7 3-7 3-7s3 5.3 3 7v16m5 0v-16c0-1.7 3-7 3-7s3 5.3 3 7v16m5 0v-16c0-1.7 3-7 3-7s3 5.3 3 7v16m5 0v-16c0-1.7 3-7 3-7s3 5.3 3 7v16m5 0v-16c0-1.7 3-7 3-7s3 5.3 3 7v16m5 0v-16c0-1.7 3-7 3-7s3 5.3 3 7v16m5 0v-16c0-1.7 3-7 3-7s3 5.3 3 7v16m5 0v-16c0-1.7 3-7 3-7s3 5.3 3 7v16m5 0v-16c0-1.7 3-7 3-7s3 5.3 3 7v16m5 0v-16c0-1.7 3-7 3-7s3 5.3 3 7v16M534.5 242v21m6-21v21m6-21v21m6-21v21m6-21v21m6-21v21m33-21v21m6-21v21m93-21v21m6-21v21m6-21v21m6-21v21m-69-7v-25.6c0-4.3-7.5-11.4-7.5-11.4s-7.5 7.1-7.5 11.4V256h15zm24 0v-25.6c0-4.3-7.5-11.4-7.5-11.4s-7.5 7.1-7.5 11.4V256h15zm235 113v-36c0-6.1-10.5-16-10.5-16s-10.5 9.9-10.5 16v36"/><path class="st1" d="M738 215l6-36h1l6 36zm1 48v-48h11v48m78-48l6-36h1l6 36zm1 48v-48h11v48m-120 0v-25h19m11 0h19v25m11 0v-25h19v25m11 0v-25h19"/><path class="st1" d="M720 263h139v-25h-19"/><path class="st0" d="M651 152.5H549c-1.7 0-3-1.4-3-3s1.3-3 3-3h102c1.7 0 3 1.4 3 3s-1.3 3-3 3zm0-34H549c-1.7 0-3-1.3-3-3s1.3-3 3-3h102c1.7 0 3 1.3 3 3s-1.3 3-3 3z"/><path class="st1" d="M552.2 152l2.8 24h91.2l2.8-24m-94 24v66m91-66v4"/><path class="st0" d="M799.5 355v-36c0-6.1-10.5-16-10.5-16s-10.5 9.9-10.5 16v36h21z"/><path class="st1" d="M690 242h30m-30 21h30m-30 6h30M552 100V88h12v12m9 0V88h12v12m9 0V88h12v12m9 0V88h12v12m9 0V88h12v12m-96 12v-12h96v12m-92-47l9-36h2l8 36zm2 23V65h15v23m281 214h80v67m-16-67v-17h16v17m-38 0v-17h16v17m-38 0v-17h16v17m-36-17h14v17M566 0v21m4 4c0 2.2-1.8 4-4 4s-4-1.8-4-4 1.8-4 4-4 4 1.8 4 4zm55 40l9-36h2l8 36zm2 23V65h15v23m-7-88v21m4 4c0 2.2-1.8 4-4 4s-4-1.8-4-4 1.8-4 4-4 4 1.8 4 4zm-30 177h-6v-21h12v9h6v-9h9v9h7v-9h9v9h7v-9h9v9h7v-9h9v9h6v-9h12v21h-6M525 382v-13h435v25H575"/><path class="st1" d="M552 146v-28m96 0v28m205 223V263m-261.2-21h18m110.2 0v35M566 428c0-13.2-10.8-24-24-24s-24 10.8-24 24c0 0-.2 3.9.9 8.4l-114.4-1.9c.5-1.5 1-7 1-7 0-12.9-10.6-23.5-23.5-23.5s-23.5 10.6-23.5 23.5l.1 2.5-3.3-.4c-6.2-.7-14.9-2.7-17.7-8.9-1.5-3.5-.2-7.7.6-11.2.4-2 1-4.2 2.6-5.6 2.1-1.9 2.4-3.2 2.4-3.2l.2-15.9s-.6-2.3 2.1-3.8c2.8-1.5 9.1-7.6 9.1-7.6s8.5-6.2 10-7c0 0-2.3-2.3-.6-4 0 0 .4-.6 5.6-1.4 0 0 52.9-5.3 73.9-4.5 0 0 26.2 1.2 39.8 6.7 13.6 5.5 23.6 9.1 43.7 20.2 0 0 23.6 2.5 44.8 10.2 0 0 13 4.5 13.6 9.3 0 0 4.9 4.7 4.9 10.4s-1.1 12.3-1.1 12.3 0 .8.6 1.5c.6.6 1.5 1.9 1.1 2.3-.4.4-9.3 5.3-25.5 6.6l.6-8z"/><path class="st3" d="M451.2 364.2s18.9.9 30.8 6.4c0 0 14.2 6.2 19.5 9.1 0 0 5.7 2.5 6.4 3 .6.4.8.8.8 2.1s-1.7 4.5-1.7 4.5-.6 1.3-2.3 1.3c-1.7 0-50.1-4-50.1-4l-3.4-22.4zm18.7 32.6c-5.4-.4-10.6-.9-14.4-1.2m-41.7-3.1c-5.4-.4-10.6-.9-14.4-1.2m42.4-27.5l.6 21.7-39.5-3.4s-.8-7.2 1.3-10.2c2.1-3 4.5-6.2 4.5-6.2s18.5-2.7 33.1-1.9z"/><path class="st2" d="M394.1 376.9c-2.7 3.3-4.7 7-4.7 10.9 0 3.8.8 7 2.2 9.9m121.6-5.3c.6 1.5 1.2 3.1 1.7 4.7 1.3 4.7 1.4 10.3.9 15.9"/><path class="st4" d="M368.6 428c0 7.4 6 13.4 13.4 13.4s13.4-6 13.4-13.4-6-13.4-13.4-13.4-13.4 6-13.4 13.4z"/><path class="st4" d="M363 428c0 10.5 8.5 19 19 19s19-8.5 19-19-8.5-19-19-19-19 8.5-19 19z"/><path class="st3" d="M359.8 376.9s3 4.7 6.4 5.3c0 0 9.4 1.8 10.5 2.7 1.1.8 1.1 1.3 1.1 1.3s-1.5 1.5-3.4 1.9c-1.9.4-9.1.6-9.8.6s-4 .2-5.1 1.7c-1.1 1.5-3.8 4.9-4.5 6.6l-7.2-1.3s-3-.8-3.4-2.3c-.4-1.5-.8-4.5 0-6.2.8-1.7 1.5-2.8 1.5-2.8s.4-1.1 4.7-3.2c4.2-2.1 9.2-4.3 9.2-4.3zm196.8 20.6s13.2-.4 19.3 1.9c0 0 7.3 2.9 9.4 6.3 0 0 .2.6 0 1.9-.2 1.3-1.1.9-2.5.6-1.5-.2-8.3-1.5-8.3-1.5s-4.5-.8-7.6-3c-3.2-2.1-10.3-6.2-10.3-6.2z"/><path class="st2" d="M446.8 364.1c1.9 21.8 1.8 43.3 2.2 65.1"/><path class="st4" d="M479 450h95m-259 0h84m-125 0h23m-52 0h13m270.6-22c0 7.4 6 13.4 13.4 13.4s13.4-6 13.4-13.4-6-13.4-13.4-13.4-13.4 6-13.4 13.4z"/><path class="st4" d="M523 428c0 10.5 8.5 19 19 19s19-8.5 19-19-8.5-19-19-19-19 8.5-19 19z"/><path class="st0" d="M530.5 383.9v-6c0-1.7 3-7 3-7s3 5.3 3 7v6m5 1v-7c0-1.7 3-7 3-7s3 5.3 3 7v9M9.5 211v10"/><defs><filter id="Adobe_OpacityMaskFilter" filterUnits="userSpaceOnUse" x="26" y="247" width="28" height="39"><feColorMatrix values="1 0 0 0 0 0 1 0 0 0 0 0 1 0 0 0 0 0 1 0"/></filter></defs><mask maskUnits="userSpaceOnUse" x="26" y="247" width="28" height="39" id="group-358-b_1_"><g class="st5"><path id="group-358-a_1_" class="st6" d="M0 451h961V0H0z"/></g></mask><path class="st7" d="M26.5 285.5h27v-38h-27z"/><defs><filter id="Adobe_OpacityMaskFilter_1_" filterUnits="userSpaceOnUse" x="26" y="307" width="29" height="55"><feColorMatrix values="1 0 0 0 0 0 1 0 0 0 0 0 1 0 0 0 0 0 1 0"/></filter></defs><mask maskUnits="userSpaceOnUse" x="26" y="307" width="29" height="55" id="group-358-b_2_"><g class="st8"><path id="group-358-a_2_" class="st6" d="M0 451h961V0H0z"/></g></mask><path class="st9" d="M54.5 361.5h-28V321c0-7.5 6-13.5 13.5-13.5h1c7.5 0 13.5 6 13.5 13.5v40.5z"/><defs><filter id="Adobe_OpacityMaskFilter_2_" filterUnits="userSpaceOnUse" x="107" y="389" width="51" height="5"><feColorMatrix values="1 0 0 0 0 0 1 0 0 0 0 0 1 0 0 0 0 0 1 0"/></filter></defs><mask maskUnits="userSpaceOnUse" x="107" y="389" width="51" height="5" id="group-358-b_3_"><g class="st10"><path id="group-358-a_3_" class="st6" d="M0 451h961V0H0z"/></g></mask><path class="st11" d="M107.5 393.5h50v-4h-50z"/><defs><filter id="Adobe_OpacityMaskFilter_3_" filterUnits="userSpaceOnUse" x="26.5" y="307.5" width="28" height="54"><feColorMatrix values="1 0 0 0 0 0 1 0 0 0 0 0 1 0 0 0 0 0 1 0"/></filter></defs><mask maskUnits="userSpaceOnUse" x="26.5" y="307.5" width="28" height="54" id="group-358-b_4_"><g class="st12"><path id="group-358-a_4_" class="st6" d="M0 451h961V0H0z"/></g></mask><path class="st13" d="M40.5 307.5v54m-14-34.1h28"/><defs><filter id="Adobe_OpacityMaskFilter_4_" filterUnits="userSpaceOnUse" x="0" y="203" width="172" height="9"><feColorMatrix values="1 0 0 0 0 0 1 0 0 0 0 0 1 0 0 0 0 0 1 0"/></filter></defs><mask maskUnits="userSpaceOnUse" x="0" y="203" width="172" height="9" id="group-358-b_5_"><g class="st14"><path id="group-358-a_5_" class="st6" d="M0 451h961V0H0z"/></g></mask><path class="st15" d="M1 211h170v-7H1z"/><defs><filter id="Adobe_OpacityMaskFilter_5_" filterUnits="userSpaceOnUse" x="24" y="285" width="32" height="5"><feColorMatrix values="1 0 0 0 0 0 1 0 0 0 0 0 1 0 0 0 0 0 1 0"/></filter></defs><mask maskUnits="userSpaceOnUse" x="24" y="285" width="32" height="5" id="group-358-b_6_"><g class="st16"><path id="group-358-a_6_" class="st6" d="M0 451h961V0H0z"/></g></mask><path class="st17" d="M24.5 289.5h31v-4h-31z"/><defs><filter id="Adobe_OpacityMaskFilter_6_" filterUnits="userSpaceOnUse" x="270" y="327" width="137" height="30.5"><feColorMatrix values="1 0 0 0 0 0 1 0 0 0 0 0 1 0 0 0 0 0 1 0"/></filter></defs><mask maskUnits="userSpaceOnUse" x="270" y="327" width="137" height="30.5" id="group-358-b_7_"><g class="st18"><path id="group-358-a_7_" class="st6" d="M0 451h961V0H0z"/></g></mask><path class="st19" d="M406 327v30.5M271 343v-16"/><defs><filter id="Adobe_OpacityMaskFilter_7_" filterUnits="userSpaceOnUse" x="291" y="346.5" width="57" height="48"><feColorMatrix values="1 0 0 0 0 0 1 0 0 0 0 0 1 0 0 0 0 0 1 0"/></filter></defs><mask maskUnits="userSpaceOnUse" x="291" y="346.5" width="57" height="48" id="group-358-b_8_"><g class="st20"><path id="group-358-a_8_" class="st6" d="M0 451h961V0H0z"/></g></mask><path class="st21" d="M347.5 346.5V379m-56 15.5v-48"/><defs><filter id="Adobe_OpacityMaskFilter_8_" filterUnits="userSpaceOnUse" x="291" y="271" width="21" height="35"><feColorMatrix values="1 0 0 0 0 0 1 0 0 0 0 0 1 0 0 0 0 0 1 0"/></filter></defs><mask maskUnits="userSpaceOnUse" x="291" y="271" width="21" height="35" id="group-358-b_9_"><g class="st22"><path id="group-358-a_9_" class="st6" d="M0 451h961V0H0z"/></g></mask><path class="st23" d="M291.5 305.5h20v-34h-20z"/><defs><filter id="Adobe_OpacityMaskFilter_9_" filterUnits="userSpaceOnUse" x="363" y="341" width="23" height="21.5"><feColorMatrix values="1 0 0 0 0 0 1 0 0 0 0 0 1 0 0 0 0 0 1 0"/></filter></defs><mask maskUnits="userSpaceOnUse" x="363" y="341" width="23" height="21.5" id="group-358-b_10_"><g class="st24"><path id="group-358-a_10_" class="st6" d="M0 451h961V0H0z"/></g></mask><path class="st25" d="M363.5 362.5v-21h22v18.3"/><defs><filter id="Adobe_OpacityMaskFilter_10_" filterUnits="userSpaceOnUse" x="267" y="318" width="143" height="10"><feColorMatrix values="1 0 0 0 0 0 1 0 0 0 0 0 1 0 0 0 0 0 1 0"/></filter></defs><mask maskUnits="userSpaceOnUse" x="267" y="318" width="143" height="10" id="group-358-b_11_"><g class="st26"><path id="group-358-a_11_" class="st6" d="M0 451h961V0H0z"/></g></mask><path class="st27" d="M267.5 327.5h142v-9h-142z"/><defs><filter id="Adobe_OpacityMaskFilter_11_" filterUnits="userSpaceOnUse" x="291.5" y="271" width="20" height="34.5"><feColorMatrix values="1 0 0 0 0 0 1 0 0 0 0 0 1 0 0 0 0 0 1 0"/></filter></defs><mask maskUnits="userSpaceOnUse" x="291.5" y="271" width="20" height="34.5" id="group-358-b_12_"><g class="st28"><path id="group-358-a_12_" class="st6" d="M0 451h961V0H0z"/></g></mask><path class="st29" d="M301.5 271v34.5m10-17h-20"/><defs><filter id="Adobe_OpacityMaskFilter_12_" filterUnits="userSpaceOnUse" x="365" y="271" width="21" height="35"><feColorMatrix values="1 0 0 0 0 0 1 0 0 0 0 0 1 0 0 0 0 0 1 0"/></filter></defs><mask maskUnits="userSpaceOnUse" x="365" y="271" width="21" height="35" id="group-358-b_13_"><g class="st30"><path id="group-358-a_13_" class="st6" d="M0 451h961V0H0z"/></g></mask><path class="st31" d="M365.5 305.5h20v-34h-20z"/><defs><filter id="Adobe_OpacityMaskFilter_13_" filterUnits="userSpaceOnUse" x="365.5" y="271" width="20" height="34.5"><feColorMatrix values="1 0 0 0 0 0 1 0 0 0 0 0 1 0 0 0 0 0 1 0"/></filter></defs><mask maskUnits="userSpaceOnUse" x="365.5" y="271" width="20" height="34.5" id="group-358-b_14_"><g class="st32"><path id="group-358-a_14_" class="st6" d="M0 451h961V0H0z"/></g></mask><path class="st33" d="M375.5 271v34.5m10-17h-20"/><defs><filter id="Adobe_OpacityMaskFilter_14_" filterUnits="userSpaceOnUse" x="328" y="271" width="21" height="35"><feColorMatrix values="1 0 0 0 0 0 1 0 0 0 0 0 1 0 0 0 0 0 1 0"/></filter></defs><mask maskUnits="userSpaceOnUse" x="328" y="271" width="21" height="35" id="group-358-b_15_"><g class="st34"><path id="group-358-a_15_" class="st6" d="M0 451h961V0H0z"/></g></mask><path class="st35" d="M328.5 305.5h20v-34h-20z"/><defs><filter id="Adobe_OpacityMaskFilter_15_" filterUnits="userSpaceOnUse" x="328.5" y="271" width="20" height="34.5"><feColorMatrix values="1 0 0 0 0 0 1 0 0 0 0 0 1 0 0 0 0 0 1 0"/></filter></defs><mask maskUnits="userSpaceOnUse" x="328.5" y="271" width="20" height="34.5" id="group-358-b_16_"><g class="st36"><path id="group-358-a_16_" class="st6" d="M0 451h961V0H0z"/></g></mask><path class="st37" d="M338.5 271v34.5m10-17h-20"/><defs><filter id="Adobe_OpacityMaskFilter_16_" filterUnits="userSpaceOnUse" x="291" y="224" width="21" height="35"><feColorMatrix values="1 0 0 0 0 0 1 0 0 0 0 0 1 0 0 0 0 0 1 0"/></filter></defs><mask maskUnits="userSpaceOnUse" x="291" y="224" width="21" height="35" id="group-358-b_17_"><g class="st38"><path id="group-358-a_17_" class="st6" d="M0 451h961V0H0z"/></g></mask><path class="st39" d="M291.5 258.5h20v-34h-20z"/><defs><filter id="Adobe_OpacityMaskFilter_17_" filterUnits="userSpaceOnUse" x="291.5" y="224" width="20" height="34.5"><feColorMatrix values="1 0 0 0 0 0 1 0 0 0 0 0 1 0 0 0 0 0 1 0"/></filter></defs><mask maskUnits="userSpaceOnUse" x="291.5" y="224" width="20" height="34.5" id="group-358-b_18_"><g class="st40"><path id="group-358-a_18_" class="st6" d="M0 451h961V0H0z"/></g></mask><path class="st41" d="M301.5 224v34.5m10-17h-20"/><defs><filter id="Adobe_OpacityMaskFilter_18_" filterUnits="userSpaceOnUse" x="365" y="224" width="21" height="35"><feColorMatrix values="1 0 0 0 0 0 1 0 0 0 0 0 1 0 0 0 0 0 1 0"/></filter></defs><mask maskUnits="userSpaceOnUse" x="365" y="224" width="21" height="35" id="group-358-b_19_"><g class="st42"><path id="group-358-a_19_" class="st6" d="M0 451h961V0H0z"/></g></mask><path class="st43" d="M365.5 258.5h20v-34h-20z"/><defs><filter id="Adobe_OpacityMaskFilter_19_" filterUnits="userSpaceOnUse" x="365.5" y="224" width="20" height="34.5"><feColorMatrix values="1 0 0 0 0 0 1 0 0 0 0 0 1 0 0 0 0 0 1 0"/></filter></defs><mask maskUnits="userSpaceOnUse" x="365.5" y="224" width="20" height="34.5" id="group-358-b_20_"><g class="st44"><path id="group-358-a_20_" class="st6" d="M0 451h961V0H0z"/></g></mask><path class="st45" d="M375.5 224v34.5m10-17h-20"/><defs><filter id="Adobe_OpacityMaskFilter_20_" filterUnits="userSpaceOnUse" x="328" y="224" width="21" height="35"><feColorMatrix values="1 0 0 0 0 0 1 0 0 0 0 0 1 0 0 0 0 0 1 0"/></filter></defs><mask maskUnits="userSpaceOnUse" x="328" y="224" width="21" height="35" id="group-358-b_21_"><g class="st46"><path id="group-358-a_21_" class="st6" d="M0 451h961V0H0z"/></g></mask><path class="st47" d="M328.5 258.5h20v-34h-20z"/><defs><filter id="Adobe_OpacityMaskFilter_21_" filterUnits="userSpaceOnUse" x="328.5" y="224" width="20" height="34.5"><feColorMatrix values="1 0 0 0 0 0 1 0 0 0 0 0 1 0 0 0 0 0 1 0"/></filter></defs><mask maskUnits="userSpaceOnUse" x="328.5" y="224" width="20" height="34.5" id="group-358-b_22_"><g class="st48"><path id="group-358-a_22_" class="st6" d="M0 451h961V0H0z"/></g></mask><path class="st49" d="M338.5 224v34.5m10-17h-20"/><defs><filter id="Adobe_OpacityMaskFilter_22_" filterUnits="userSpaceOnUse" x="270" y="206" width="137" height="112"><feColorMatrix values="1 0 0 0 0 0 1 0 0 0 0 0 1 0 0 0 0 0 1 0"/></filter></defs><mask maskUnits="userSpaceOnUse" x="270" y="206" width="137" height="112" id="group-358-b_23_"><g class="st50"><path id="group-358-a_23_" class="st6" d="M0 451h961V0H0z"/></g></mask><path class="st51" d="M271 318V206m135 0v112"/><defs><filter id="Adobe_OpacityMaskFilter_23_" filterUnits="userSpaceOnUse" x="271" y="211" width="134" height="1"><feColorMatrix values="1 0 0 0 0 0 1 0 0 0 0 0 1 0 0 0 0 0 1 0"/></filter></defs><mask maskUnits="userSpaceOnUse" x="271" y="211" width="134" height="1" id="group-358-b_24_"><g class="st52"><path id="group-358-a_24_" class="st6" d="M0 451h961V0H0z"/></g></mask><path class="st53" d="M271 211.5h134"/><defs><filter id="Adobe_OpacityMaskFilter_24_" filterUnits="userSpaceOnUse" x="267" y="197" width="143" height="10"><feColorMatrix values="1 0 0 0 0 0 1 0 0 0 0 0 1 0 0 0 0 0 1 0"/></filter></defs><mask maskUnits="userSpaceOnUse" x="267" y="197" width="143" height="10" id="group-358-b_25_"><g class="st54"><path id="group-358-a_25_" class="st6" d="M0 451h961V0H0z"/></g></mask><path class="st55" d="M267.5 206.5h142v-9h-142z"/><defs><filter id="Adobe_OpacityMaskFilter_25_" filterUnits="userSpaceOnUse" x="270" y="137" width="13" height="60"><feColorMatrix values="1 0 0 0 0 0 1 0 0 0 0 0 1 0 0 0 0 0 1 0"/></filter></defs><mask maskUnits="userSpaceOnUse" x="270" y="137" width="13" height="60" id="group-358-b_26_"><g class="st56"><path id="group-358-a_26_" class="st6" d="M0 451h961V0H0z"/></g></mask><path class="st57" d="M271 196h11v-58h-11z"/><defs><filter id="Adobe_OpacityMaskFilter_26_" filterUnits="userSpaceOnUse" x="271" y="188" width="11" height="1"><feColorMatrix values="1 0 0 0 0 0 1 0 0 0 0 0 1 0 0 0 0 0 1 0"/></filter></defs><mask maskUnits="userSpaceOnUse" x="271" y="188" width="11" height="1" id="group-358-b_27_"><g class="st58"><path id="group-358-a_27_" class="st6" d="M0 451h961V0H0z"/></g></mask><path class="st59" d="M271 188.5h11"/><defs><filter id="Adobe_OpacityMaskFilter_27_" filterUnits="userSpaceOnUse" x="394" y="137" width="13" height="60"><feColorMatrix values="1 0 0 0 0 0 1 0 0 0 0 0 1 0 0 0 0 0 1 0"/></filter></defs><mask maskUnits="userSpaceOnUse" x="394" y="137" width="13" height="60" id="group-358-b_28_"><g class="st60"><path id="group-358-a_28_" class="st6" d="M0 451h961V0H0z"/></g></mask><path class="st61" d="M395 196h11v-58h-11z"/><defs><filter id="Adobe_OpacityMaskFilter_28_" filterUnits="userSpaceOnUse" x="395" y="188" width="11" height="1"><feColorMatrix values="1 0 0 0 0 0 1 0 0 0 0 0 1 0 0 0 0 0 1 0"/></filter></defs><mask maskUnits="userSpaceOnUse" x="395" y="188" width="11" height="1" id="group-358-b_29_"><g class="st62"><path id="group-358-a_29_" class="st6" d="M0 451h961V0H0z"/></g></mask><path class="st63" d="M395 188.5h11"/><defs><filter id="Adobe_OpacityMaskFilter_29_" filterUnits="userSpaceOnUse" x="367" y="345" width="13" height="16.5"><feColorMatrix values="1 0 0 0 0 0 1 0 0 0 0 0 1 0 0 0 0 0 1 0"/></filter></defs><mask maskUnits="userSpaceOnUse" x="367" y="345" width="13" height="16.5" id="group-358-b_30_"><g class="st64"><path id="group-358-a_30_" class="st6" d="M0 451h961V0H0z"/></g></mask><path class="st65" d="M367.5 361.5v-16h12v15"/><defs><filter id="Adobe_OpacityMaskFilter_30_" filterUnits="userSpaceOnUse" x="293" y="148" width="92" height="49"><feColorMatrix values="1 0 0 0 0 0 1 0 0 0 0 0 1 0 0 0 0 0 1 0"/></filter></defs><mask maskUnits="userSpaceOnUse" x="293" y="148" width="92" height="49" id="group-358-b_31_"><g class="st66"><path id="group-358-a_31_" class="st6" d="M0 451h961V0H0z"/></g></mask><path class="st67" d="M293.5 148v49m13-49v49m13-49v33m13-33v28m13-28v30m13-30v36m13-36v49m13-49v49"/><defs><filter id="Adobe_OpacityMaskFilter_31_" filterUnits="userSpaceOnUse" x="305" y="172.7" width="63" height="24.3"><feColorMatrix values="1 0 0 0 0 0 1 0 0 0 0 0 1 0 0 0 0 0 1 0"/></filter></defs><mask maskUnits="userSpaceOnUse" x="305" y="172.7" width="63" height="24.3" id="group-358-b_32_"><g class="st68"><path id="group-358-a_32_" class="st6" d="M0 451h961V0H0z"/></g></mask><path class="st69" d="M306 197v-10.6l31.3-12.6 29.7 13.5v9.7"/><defs><filter id="Adobe_OpacityMaskFilter_32_" filterUnits="userSpaceOnUse" x="329.6" y="180.4" width="13.6" height="13.6"><feColorMatrix values="1 0 0 0 0 0 1 0 0 0 0 0 1 0 0 0 0 0 1 0"/></filter></defs><mask maskUnits="userSpaceOnUse" x="329.6" y="180.4" width="13.6" height="13.6" id="group-358-b_33_"><g class="st70"><path id="group-358-a_33_" class="st6" d="M0 451h961V0H0z"/></g></mask><path class="st71" d="M340.8 182.7c2.5 2.5 2.5 6.4 0 8.9s-6.4 2.5-8.9 0-2.5-6.4 0-8.9c2.5-2.4 6.5-2.4 8.9 0z"/><defs><filter id="Adobe_OpacityMaskFilter_33_" filterUnits="userSpaceOnUse" x="298" y="359" width="43" height="34.8"><feColorMatrix values="1 0 0 0 0 0 1 0 0 0 0 0 1 0 0 0 0 0 1 0"/></filter></defs><mask maskUnits="userSpaceOnUse" x="298" y="359" width="43" height="34.8" id="group-358-b_34_"><g class="st72"><path id="group-358-a_34_" class="st6" d="M0 451h961V0H0z"/></g></mask><path class="st73" d="M298.5 393.8v-34.3h42v34"/><defs><filter id="Adobe_OpacityMaskFilter_34_" filterUnits="userSpaceOnUse" x="288" y="341" width="63" height="6"><feColorMatrix values="1 0 0 0 0 0 1 0 0 0 0 0 1 0 0 0 0 0 1 0"/></filter></defs><mask maskUnits="userSpaceOnUse" x="288" y="341" width="63" height="6" id="group-358-b_35_"><g class="st74"><path id="group-358-a_35_" class="st6" d="M0 451h961V0H0z"/></g></mask><path class="st75" d="M288.5 346.5h62v-5h-62z"/><defs><filter id="Adobe_OpacityMaskFilter_35_" filterUnits="userSpaceOnUse" x="314" y="375" width="11" height="3"><feColorMatrix values="1 0 0 0 0 0 1 0 0 0 0 0 1 0 0 0 0 0 1 0"/></filter></defs><mask maskUnits="userSpaceOnUse" x="314" y="375" width="11" height="3" id="group-358-b_36_"><g class="st76"><path id="group-358-a_36_" class="st6" d="M0 451h961V0H0z"/></g></mask><path class="st77" d="M316.5 376.5c0 .6-.4 1-1 1s-1-.4-1-1 .4-1 1-1 1 .4 1 1zm8 0c0 .6-.4 1-1 1s-1-.4-1-1 .4-1 1-1 1 .4 1 1z"/><defs><filter id="Adobe_OpacityMaskFilter_36_" filterUnits="userSpaceOnUse" x="298" y="350" width="43" height="6"><feColorMatrix values="1 0 0 0 0 0 1 0 0 0 0 0 1 0 0 0 0 0 1 0"/></filter></defs><mask maskUnits="userSpaceOnUse" x="298" y="350" width="43" height="6" id="group-358-b_37_"><g class="st78"><path id="group-358-a_37_" class="st6" d="M0 451h961V0H0z"/></g></mask><path class="st79" d="M298.5 355.5h42v-5h-42z"/><defs><filter id="Adobe_OpacityMaskFilter_37_" filterUnits="userSpaceOnUse" x="119" y="337" width="27" height="49"><feColorMatrix values="1 0 0 0 0 0 1 0 0 0 0 0 1 0 0 0 0 0 1 0"/></filter></defs><mask maskUnits="userSpaceOnUse" x="119" y="337" width="27" height="49" id="group-358-b_38_"><g class="st80"><path id="group-358-a_38_" class="st6" d="M0 451h961V0H0z"/></g></mask><path class="st81" d="M119.5 385.5h26v-48h-26z"/><defs><filter id="Adobe_OpacityMaskFilter_38_" filterUnits="userSpaceOnUse" x="125" y="343" width="6" height="23"><feColorMatrix values="1 0 0 0 0 0 1 0 0 0 0 0 1 0 0 0 0 0 1 0"/></filter></defs><mask maskUnits="userSpaceOnUse" x="125" y="343" width="6" height="23" id="group-358-b_39_"><g class="st82"><path id="group-358-a_39_" class="st6" d="M0 451h961V0H0z"/></g></mask><path class="st83" d="M125.5 365.5h5v-22h-5z"/><defs><filter id="Adobe_OpacityMaskFilter_39_" filterUnits="userSpaceOnUse" x="113" y="385" width="39" height="5"><feColorMatrix values="1 0 0 0 0 0 1 0 0 0 0 0 1 0 0 0 0 0 1 0"/></filter></defs><mask maskUnits="userSpaceOnUse" x="113" y="385" width="39" height="5" id="group-358-b_40_"><g class="st84"><path id="group-358-a_40_" class="st6" d="M0 451h961V0H0z"/></g></mask><path class="st85" d="M113.5 389.5h38v-4h-38z"/><defs><filter id="Adobe_OpacityMaskFilter_40_" filterUnits="userSpaceOnUse" x="125" y="369" width="15" height="12"><feColorMatrix values="1 0 0 0 0 0 1 0 0 0 0 0 1 0 0 0 0 0 1 0"/></filter></defs><mask maskUnits="userSpaceOnUse" x="125" y="369" width="15" height="12" id="group-358-b_41_"><g class="st86"><path id="group-358-a_41_" class="st6" d="M0 451h961V0H0z"/></g></mask><path class="st87" d="M125.5 380.5h14v-11h-14z"/><defs><filter id="Adobe_OpacityMaskFilter_41_" filterUnits="userSpaceOnUse" x="0" y="221" width="172" height="9"><feColorMatrix values="1 0 0 0 0 0 1 0 0 0 0 0 1 0 0 0 0 0 1 0"/></filter></defs><mask maskUnits="userSpaceOnUse" x="0" y="221" width="172" height="9" id="group-358-b_42_"><g class="st88"><path id="group-358-a_42_" class="st6" d="M0 451h961V0H0z"/></g></mask><path class="st89" d="M1 229h170v-7H1z"/><defs><filter id="Adobe_OpacityMaskFilter_42_" filterUnits="userSpaceOnUse" x="5" y="228" width="162" height="167"><feColorMatrix values="1 0 0 0 0 0 1 0 0 0 0 0 1 0 0 0 0 0 1 0"/></filter></defs><mask maskUnits="userSpaceOnUse" x="5" y="228" width="162" height="167" id="group-358-b_43_"><g class="st90"><path id="group-358-a_43_" class="st6" d="M0 451h961V0H0z"/></g></mask><path class="st91" d="M6 394h160V229H6z"/><defs><filter id="Adobe_OpacityMaskFilter_43_" filterUnits="userSpaceOnUse" x="28" y="211" width="134" height="11"><feColorMatrix values="1 0 0 0 0 0 1 0 0 0 0 0 1 0 0 0 0 0 1 0"/></filter></defs><mask maskUnits="userSpaceOnUse" x="28" y="211" width="134" height="11" id="group-358-b_44_"><g class="st92"><path id="group-358-a_44_" class="st6" d="M0 451h961V0H0z"/></g></mask><path class="st93" d="M28.5 211v10m19-9v10m19-10v10m19-11v10m19-10v10m19-9v10m19-10v10m19-11v10"/><defs><filter id="Adobe_OpacityMaskFilter_44_" filterUnits="userSpaceOnUse" x="134" y="343" width="6" height="23"><feColorMatrix values="1 0 0 0 0 0 1 0 0 0 0 0 1 0 0 0 0 0 1 0"/></filter></defs><mask maskUnits="userSpaceOnUse" x="134" y="343" width="6" height="23" id="group-358-b_45_"><g class="st94"><path id="group-358-a_45_" class="st6" d="M0 451h961V0H0z"/></g></mask><path class="st95" d="M134.5 365.5h5v-22h-5z"/><defs><filter id="Adobe_OpacityMaskFilter_45_" filterUnits="userSpaceOnUse" x="71" y="247" width="28" height="39"><feColorMatrix values="1 0 0 0 0 0 1 0 0 0 0 0 1 0 0 0 0 0 1 0"/></filter></defs><mask maskUnits="userSpaceOnUse" x="71" y="247" width="28" height="39" id="group-358-b_46_"><g class="st96"><path id="group-358-a_46_" class="st6" d="M0 451h961V0H0z"/></g></mask><path class="st97" d="M71.5 285.5h27v-38h-27z"/><defs><filter id="Adobe_OpacityMaskFilter_46_" filterUnits="userSpaceOnUse" x="69" y="285" width="32" height="5"><feColorMatrix values="1 0 0 0 0 0 1 0 0 0 0 0 1 0 0 0 0 0 1 0"/></filter></defs><mask maskUnits="userSpaceOnUse" x="69" y="285" width="32" height="5" id="group-358-b_47_"><g class="st98"><path id="group-358-a_47_" class="st6" d="M0 451h961V0H0z"/></g></mask><path class="st99" d="M69.5 289.5h31v-4h-31z"/><defs><filter id="Adobe_OpacityMaskFilter_47_" filterUnits="userSpaceOnUse" x="116" y="247" width="28" height="39"><feColorMatrix values="1 0 0 0 0 0 1 0 0 0 0 0 1 0 0 0 0 0 1 0"/></filter></defs><mask maskUnits="userSpaceOnUse" x="116" y="247" width="28" height="39" id="group-358-b_48_"><g class="st100"><path id="group-358-a_48_" class="st6" d="M0 451h961V0H0z"/></g></mask><path class="st101" d="M116.5 285.5h27v-38h-27z"/><defs><filter id="Adobe_OpacityMaskFilter_48_" filterUnits="userSpaceOnUse" x="114" y="285" width="32" height="5"><feColorMatrix values="1 0 0 0 0 0 1 0 0 0 0 0 1 0 0 0 0 0 1 0"/></filter></defs><mask maskUnits="userSpaceOnUse" x="114" y="285" width="32" height="5" id="group-358-b_49_"><g class="st102"><path id="group-358-a_49_" class="st6" d="M0 451h961V0H0z"/></g></mask><path class="st103" d="M114.5 289.5h31v-4h-31z"/><defs><filter id="Adobe_OpacityMaskFilter_49_" filterUnits="userSpaceOnUse" x="26.5" y="247.5" width="293.5" height="146.5"><feColorMatrix values="1 0 0 0 0 0 1 0 0 0 0 0 1 0 0 0 0 0 1 0"/></filter></defs><mask maskUnits="userSpaceOnUse" x="26.5" y="247.5" width="293.5" height="146.5" id="group-358-b_50_"><g class="st104"><path id="group-358-a_50_" class="st6" d="M0 451h961V0H0z"/></g></mask><path class="st105" d="M26.5 344.4h28m45 17.1h-28V321c0-7.5 6-13.5 13.5-13.5h1c7.5 0 13.5 6 13.5 13.5v40.5zm-14-54v54m-14-34.1h28m-28 17h28m220 15.1V394m-240-146.5v38m45-38v38m-90-38v38"/><defs><filter id="Adobe_OpacityMaskFilter_50_" filterUnits="userSpaceOnUse" x="165.4" y="345.8" width="124.6" height="47.8"><feColorMatrix values="1 0 0 0 0 0 1 0 0 0 0 0 1 0 0 0 0 0 1 0"/></filter></defs><mask maskUnits="userSpaceOnUse" x="165.4" y="345.8" width="124.6" height="47.8" id="group-358-b_51_"><g class="st106"><path id="group-358-a_51_" class="st6" d="M0 451h961V0H0z"/></g></mask><path class="st107" d="M287.7 393.2c.9-2.2 1.3-4.6 1.3-7.2 0-8.9-5.8-16.3-13.4-17.7.3-.9.4-1.8.4-2.8 0-2.6-1-5-2.7-6.8m-78.4-12c-4.6 1.7-7.9 6.1-7.9 11.3v.4c-2-.9-4.2-1.4-6.5-1.4-6.8 0-12.6 4.3-14.1 10"/><defs><filter id="Adobe_OpacityMaskFilter_51_" filterUnits="userSpaceOnUse" x="229.5" y="330.6" width="45.3" height="47.1"><feColorMatrix values="1 0 0 0 0 0 1 0 0 0 0 0 1 0 0 0 0 0 1 0"/></filter></defs><mask maskUnits="userSpaceOnUse" x="229.5" y="330.6" width="45.3" height="47.1" id="group-358-b_52_"><g class="st108"><path id="group-358-a_52_" class="st6" d="M0 451h961V0H0z"/></g></mask><path class="st109" d="M231.7 342.9c3.9-6.8 11.2-11.4 19.6-11.4 12.5 0 22.5 10.1 22.5 22.5 0 12.5-10.1 22.5-22.5 22.5-9.4 0-17.5-5.8-20.9-14"/><defs><filter id="Adobe_OpacityMaskFilter_52_" filterUnits="userSpaceOnUse" x="241.7" y="355.9" width="15.9" height="13.8"><feColorMatrix values="1 0 0 0 0 0 1 0 0 0 0 0 1 0 0 0 0 0 1 0"/></filter></defs><mask maskUnits="userSpaceOnUse" x="241.7" y="355.9" width="15.9" height="13.8" id="group-358-b_53_"><g class="st110"><path id="group-358-a_53_" class="st6" d="M0 451h961V0H0z"/></g></mask><path class="st111" d="M256.9 356.6l-5.8 5.6m-8.6-1.8l8.8 8.6"/><defs><filter id="Adobe_OpacityMaskFilter_53_" filterUnits="userSpaceOnUse" x="193" y="284.3" width="41.7" height="87.7"><feColorMatrix values="1 0 0 0 0 0 1 0 0 0 0 0 1 0 0 0 0 0 1 0"/></filter></defs><mask maskUnits="userSpaceOnUse" x="193" y="284.3" width="41.7" height="87.7" id="group-358-b_54_"><g class="st112"><path id="group-358-a_54_" class="st6" d="M0 451h961V0H0z"/></g></mask><path class="st113" d="M228 337.9c-1.5-1.7-1.6-4.5-.3-6.2 0 0 3.3-4.4 3.3-9.5 0-6.4-5.9-12.1-5.9-12.1-1.6-1.5-1.8-4.2-.5-6 0 0 1.8-2.5 1.8-6.2 0-7-5.7-12.6-12.6-12.6-7 0-12.6 5.7-12.6 12.6 0 3.7 1.8 6.2 1.8 6.2 1.3 1.8 1.1 4.5-.5 6 0 0-5.9 5.7-5.9 12.1 0 5 3.3 9.5 3.3 9.5 1.3 1.8 1.2 4.6-.3 6.2 0 0-5.7 6.5-5.7 13.2 0 11 8.9 19.8 19.8 19.8 11 0 19.8-8.9 19.8-19.8.2-6.7-5.5-13.2-5.5-13.2z"/><defs><filter id="Adobe_OpacityMaskFilter_54_" filterUnits="userSpaceOnUse" x="207.7" y="326" width="12.3" height="37.6"><feColorMatrix values="1 0 0 0 0 0 1 0 0 0 0 0 1 0 0 0 0 0 1 0"/></filter></defs><mask maskUnits="userSpaceOnUse" x="207.7" y="326" width="12.3" height="37.6" id="group-358-b_55_"><g class="st114"><path id="group-358-a_55_" class="st6" d="M0 451h961V0H0z"/></g></mask><path class="st115" d="M213.9 362.8l5.4-5.4m-5.4-25.2l5.4-5.4m-5.4 21.6l-5.4-5.4"/><defs><filter id="Adobe_OpacityMaskFilter_55_" filterUnits="userSpaceOnUse" x="165" y="147" width="229" height="248"><feColorMatrix values="1 0 0 0 0 0 1 0 0 0 0 0 1 0 0 0 0 0 1 0"/></filter></defs><mask maskUnits="userSpaceOnUse" x="165" y="147" width="229" height="248" id="group-358-b_56_"><g class="st116"><path id="group-358-a_56_" class="st6" d="M0 451h961V0H0z"/></g></mask><path class="st117" d="M282 148h112m-50.2 246H165"/><defs><filter id="Adobe_OpacityMaskFilter_56_" filterUnits="userSpaceOnUse" x="213" y="316" width="39" height="79"><feColorMatrix values="1 0 0 0 0 0 1 0 0 0 0 0 1 0 0 0 0 0 1 0"/></filter></defs><mask maskUnits="userSpaceOnUse" x="213" y="316" width="39" height="79" id="group-358-b_57_"><g class="st118"><path id="group-358-a_57_" class="st6" d="M0 451h961V0H0z"/></g></mask><path class="st119" d="M251 352.9V394m-37-77v75.9"/></svg>