<svg id="n-2" xmlns="http://www.w3.org/2000/svg" viewBox="0 0 81.3 102.5"><style>.st0{fill:none;stroke:#31cb87;stroke-miterlimit:10}</style><path id="_x32_" class="st0" d="M72.6 100.8H9.4V84c.1-.1 2.4-2.3 6.9-6.6l7.7-7.7c1.7-1.9 3.9-4.2 6.7-7 3.2-3.4 5.4-6 6.7-8l4.6-7.1c3.3-4.9 4.9-10 4.9-15.3 0-6.4-3-9.7-9-9.7-2.7 0-4.9.9-6.4 2.6-1.6 1.7-3 4.4-4.3 7.9l-17.5-8c1.7-7.4 5.2-13.1 10.4-17.3 5.3-4.2 12.1-6.2 20.4-6.2 9.1 0 16.1 2.6 21.1 7.7 5.1 5.1 7.7 11.4 7.7 18.8 0 18.6-10.9 36.3-32.8 53.1h36.1v19.6z"/></svg>