<svg id="n-8" xmlns="http://www.w3.org/2000/svg" viewBox="0 0 81.3 102.5"><style>.st0{fill:none;stroke:#31cb87;stroke-miterlimit:10}</style><path id="_x38_" class="st0" d="M41.1 101.9c-10.5 0-18.9-2.4-25.5-7.3s-10-11.5-10-19.7c0-6 1.4-11.1 4.1-15.4s6.3-7.4 10.9-9.4v-.4c-3.8-2.1-6.9-5.1-9.2-9.1-2.2-4-3.4-8.7-3.4-14.1 0-7.6 3.1-13.8 9.4-18.6C23.7 3 31.5.6 40.9.6S58.2 3 64.4 7.9C70.8 12.8 74 19 74 26.5c0 4.9-1.3 9.4-3.8 13.6s-5.9 7.4-10.2 9.5v.4c4.8 1.2 8.7 3.9 11.8 8 3.1 4.2 4.6 9.2 4.6 15 0 9.1-3.3 16.1-9.8 21.3-6.7 5.1-15.2 7.6-25.5 7.6zm.9-41.5h-1.7c-3.5 0-6.4.9-8.8 2.8-2.3 1.8-3.5 4.4-3.5 7.5 0 3.2 1.1 5.7 3.2 7.5s5.4 2.7 9.7 2.7c4.4 0 7.7-.8 9.9-2.5s3.2-4.2 3.1-7.7c-.1-3.3-1.2-5.8-3.3-7.6-2-1.8-4.9-2.7-8.6-2.7zm-1.8-21H42c3 0 5.3-.9 7-2.6 1.7-1.7 2.5-3.9 2.5-6.5 0-5.8-3.6-8.7-10.8-8.7-3.4 0-5.9.8-7.7 2.4s-2.7 3.7-2.7 6.3.9 4.8 2.6 6.5c1.8 1.7 4.2 2.6 7.3 2.6z"/></svg>