<svg id="n-9" xmlns="http://www.w3.org/2000/svg" viewBox="0 0 81.3 102.5"><style>.st0{fill:none;stroke:#31cb87;stroke-miterlimit:10}</style><path id="_x39_" class="st0" d="M75.9 38.4c0 18.3-4.9 33.1-14.6 44.4s-22 17.7-37 19.2l-6.9-16.7C35.2 81.5 46.3 72.8 51 59.4c-3.8 3.5-8.9 5.3-15.3 5.3-8 0-15-2.9-21-8.7C9 50.2 6.1 43 6.1 34.2c0-10.4 3.4-18.5 10.2-24.5C23.2 3.6 31 .6 39.8.6 50.6.6 59.4 4 66 10.9c6.6 7 9.9 16.1 9.9 27.5zm-22.4-.2c0-4.9-1.3-8.8-3.8-12-2.5-3.1-5.9-4.7-10.1-4.7-3.3 0-5.9 1.1-8 3.3s-3.1 4.8-3.1 7.8c0 3.5 1.2 6.5 3.5 8.9s5.4 3.6 9.1 3.6c5.1 0 9.3-2.3 12.4-6.9z"/></svg>