<svg id="Слой_1" xmlns="http://www.w3.org/2000/svg" viewBox="0 0 22 19.2"><style>.st0{fill:#31cb87}</style><path class="st0" d="M15.1 12c-1 .6-2.3.9-3.2.9l.7.7 2.7 2.7c.4.4.4 1.1 0 1.5l-.1.1c-.4.4-1.1.4-1.5 0L11 15.2l-2.7 2.7c-.4.4-1.1.4-1.5 0l-.1-.1c-.4-.4-.4-1.1 0-1.5l2.7-2.7.7-.7c-.7-.1-2.1-.3-3.1-.9-1.1-.7-1.6-1.2-1.2-2.1.3-.5 1-.9 1.9-.2 0 0 1.3 1 3.3 1s3.3-1 3.3-1c.9-.7 1.7-.3 1.9.2.6.9.1 1.3-1.1 2.1zM6.5 4.8c0-2.5 2-4.6 4.6-4.6s4.6 2 4.6 4.6c0 2.5-2 4.5-4.6 4.5s-4.6-2-4.6-4.5zm2.4 0C8.9 6 9.9 7 11.1 7s2.2-1 2.2-2.2-1-2.2-2.2-2.2-2.2 1-2.2 2.2z"/></svg>