<svg xmlns="http://www.w3.org/2000/svg" width="81" height="76" viewBox="0 0 81 76"><g fill="none" fill-rule="evenodd"><path stroke="#1838FF" stroke-width="2" d="M64 59H4c-1.65 0-3-1.35-3-3V12c0-1.65 1.35-3 3-3h60c1.65 0 3 1.35 3 3v44c0 1.65-1.35 3-3 3zM1 49h65"/><path fill="#1838FF" d="M36 54a2 2 0 1 1-4.001-.001A2 2 0 0 1 36 54"/><path stroke="#1838FF" stroke-width="2" d="M34 59v8"/><path stroke="#1838FF" stroke-linecap="round" stroke-width="2" d="M17 67h34"/><path stroke="#1838FF" stroke-width="2" d="M15 37a3 3 0 1 1-6 0 3 3 0 0 1 6 0zm16-14a3 3 0 1 1-6 0 3 3 0 0 1 6 0zm12 11a3 3 0 1 1-6 0 3 3 0 0 1 6 0zm16-14a3 3 0 1 1-6 0 3 3 0 0 1 6 0zM15 35l10.667-10M43 32l10.667-10m-23.334 2.666L37.668 32"/></g></svg>