<svg xmlns="http://www.w3.org/2000/svg" width="81" height="76" viewBox="0 0 81 76"><g fill="none" fill-rule="evenodd" stroke="#1838FF" stroke-width="2"><path d="M9.274 74.407L2.255 52.256l8.512-2.697 7.019 22.151z"/><path d="M11.772 53.044c3.721-6.268 9.008-16.037 15.018-20.398 2.934-2.128 6.922-2.385 10.425-3.005M16.453 67.806l5.857-1.056c5.602-1.009 12.391-3.697 15.946-8.438m5.349-5.755l4.432 3.6 30.86-38.017-19.38-15.734-30.861 38.017 7.644 6.204.435.356.19-.163 6.213-7.547a4.223 4.223 0 0 1 5.927-.574 4.222 4.222 0 0 1 .575 5.928l-9.428 11.45-1.956 2.235"/><path d="M64.972 15.491a1.92 1.92 0 1 1-2.42 2.982 1.92 1.92 0 0 1 2.42-2.982zm-6.656 8.2c4.94 4.01 6.913 9.764 4.407 12.852-2.507 3.087-8.544 2.339-13.484-1.671-4.94-4.01-6.913-9.764-4.406-12.852 2.506-3.088 8.543-2.34 13.483 1.67z"/></g></svg>