<svg xmlns="http://www.w3.org/2000/svg" width="81" height="76" viewBox="0 0 81 76"><g fill="none" fill-rule="evenodd" stroke="#1838FF" stroke-width="2"><path d="M50.908 37a4 4 0 0 0 8 0l-.23-1.658C56.863 21.102 44.62 10 29.907 10 14.928 10 2.503 21.514 1.05 36.13c-.125 1.265-.067 2.421.798 3.447A4.028 4.028 0 0 0 4.908 41c1.054 0 2.08-.425 2.826-1.169 1.372-1.37 1.403-3.777 1.672-5.573a41.748 41.748 0 0 1 1.35-5.991c1.088-3.559 2.678-6.995 4.88-10.005 1.901-2.604 4.29-4.911 7.151-6.434C24.977 10.663 27.422 10 29.908 10 40.361 10 49.03 21.274 50.64 36.034l.268.966z"/><path d="M37.908 37.5c0 3.59-3.582 6.5-8 6.5s-8-2.91-8-6.5l.134-2.168C22.728 20.917 25.99 10 29.908 10c3.936 0 7.208 11.013 7.875 25.521l.125 1.979zm-16-1a6.5 6.5 0 0 1-12.704 1.946L8.908 37m42-.5a6.5 6.5 0 1 1-13 0"/><path stroke-linecap="round" d="M4.158 41.125L19.908 66m35-24.875L39.158 66m-24.25-23l10 23m19-23l-9 23"/></g></svg>