<svg xmlns="http://www.w3.org/2000/svg" width="137" height="50" viewBox="0 0 137 50"><g fill="none" fill-rule="evenodd" stroke="#000"><path d="M37.695 35.989c0 3.104-2.495 5.62-5.573 5.62-3.077 0-5.572-2.516-5.572-5.62 0-3.105 2.495-5.621 5.572-5.621 3.078 0 5.573 2.516 5.573 5.62z"/><path d="M40.016 35.989c0 4.398-3.534 7.963-7.894 7.963s-7.894-3.565-7.894-7.963 3.535-7.964 7.894-7.964c4.36 0 7.894 3.566 7.894 7.964zm-5.65-19.44l24.843.976-.464-9.29-10.138.312s-4.024.82-6.075 2.108c-2.051 1.288-8.165 5.894-8.165 5.894zm26.887 2.812c.08.75.172 1.536.24 1.95.154.938.58 3.553.58 5.036 0 3.476-.448 6.897-.348 10.384M32.587 18.46c.638 2.216 1.104 4.198 3.114 5.527m56.191-1.916c.015 2.237.023 5.122-.022 5.993-.013.228-.05.58-.103 1.015m16.742 6.675c0 3.104-2.495 5.62-5.573 5.62-3.077 0-5.572-2.516-5.572-5.62 0-3.105 2.495-5.622 5.572-5.622 3.078 0 5.573 2.517 5.573 5.622z"/><path d="M110.83 35.755c0 4.398-3.534 7.963-7.894 7.963s-7.894-3.565-7.894-7.963c0-4.399 3.534-7.964 7.894-7.964s7.894 3.565 7.894 7.964zM89.876 19.482l-26.468-1.407-1.799-9.458s5.398-.25 8.242.335c2.844.586 5.398 1.252 6.617 1.72 1.22.469 7.662 3.905 7.662 3.905l4.76 2.958 1.277 1.227.232.72h-.523zm25.096 3.31c1.805.01 3.8.62 5.59.924l3.28.557c.286.048 1.189.036 1.412.24 0 0 1.54 1.817 1.888 2.285.136.182-1.656.197-1.791.192-2.293-.084-4.911-.26-6.897-1.555a49.431 49.431 0 0 1-1.836-1.242c-.3-.214-.595-.436-.877-.673-.128-.107-.637-.727-.769-.727zm-79.677-2.495l4.954.172m24.05.765l4.952.172m-58.302-2.5h3.76s.639-.007.697.169c.058.175-.058.522-.32.874-.261.351-1.995 2.12-1.995 2.12s-1.255.929-1.632 1.134c-.378.205-1.442.536-1.442.536"/><path d="M92.852 39.634v-4.078c0-5.384 4.366-9.788 9.703-9.788h.57c5.337 0 9.704 4.404 9.704 9.788v3.214h.959c3.603-.274 12.325-1.025 12.325-1.025s1.22-.23 1.467-.578c1.721-2.43 1.162-5.75.255-8.363-1.09-3.145-1.93-6.417-5.416-7.213-2.801-.64-5.667-1.072-8.492-1.592-4.68-.862-10.3-1.033-14.776-2.688-.001-.001-4.115-1.523-4.869-2.109-.755-.585-13.057-6.323-14.74-6.968-1.684-.643-7.784-1.534-9.11-1.6 0 0-13.467-.736-21.129-.062 0 0-9.287.746-15.207 3.386-5.92 2.641-12.46 5.436-12.46 5.436l-10.023 1.358s-.58.191-.697.62c-.115.43-1.16 7.415-1.16 7.415s-.232 1.015-.388 1.249c-.154.234-1.083 1.327-1.083 2.459 0 1.132.504 6.01.504 6.01s.464 1.835 1.392 2.03c.774.163 9.194.92 11.898 1.17V35.78c0-5.409 4.386-9.834 9.748-9.834h.48c5.361 0 9.748 4.425 9.748 9.834 0 0 .19 2.222-.19 3.853h50.987z"/></g></svg>