<svg id="Слой_1" data-name="Слой 1" xmlns="http://www.w3.org/2000/svg" viewBox="0 0 112.95838 42.95064"><defs><style>.cls-1{fill:none;stroke:#000;}</style></defs><title>tariff-companion</title><path class="cls-1" d="M70.19258,40.40372,42.238,39.937a27.99477,27.99477,0,0,0,.454-3.113,10.418,10.418,0,1,0-20.836,0l.045,1.108-1.467-.163c-2.736-.304-6.611-1.185-7.826-3.961-.68-1.556-.1-3.41.247-4.95a4.52831,4.52831,0,0,1,1.147-2.48,3.17518,3.17518,0,0,0,1.063-1.413l.067-7.061a1.53252,1.53252,0,0,1,.94-1.695,32.0182,32.0182,0,0,0,4.048-3.39s3.765-2.73,4.424-3.107c0,0-1.036-1.036-.283-1.789,0,0,.189-.283,2.495-.612,0,0,23.436-2.354,32.754-1.977,0,0,11.624.518,17.648,2.965,2.09219.85069,3.99143,1.59907,5.95412,2.41873" transform="translate(-11.79267 -3.84383)"/><path class="cls-1" d="M78.00208,19.77381C71.76426,19.266,64.451,18.656,64.451,18.656L62.945,8.77s8.377.377,13.648,2.825c0,0,2.475,1.07146,4.90241,2.1962M46.35,21.305l-6.397-.528M58.803,8.582l.283,9.604L41.58,16.68s-.377-3.202.564-4.52c.942-1.318,1.977-2.73,1.977-2.73a85.78339,85.78339,0,0,1,14.683-.848Zm-21.15,5.797a7.97865,7.97865,0,0,0-2.097,4.843,10.09413,10.09413,0,0,0,.975,4.394M26.35,37.046a5.925,5.925,0,0,0,11.848.21787q.002-.10893,0-.21787a5.925,5.925,0,0,0-11.848-.21776Q26.348,36.93711,26.35,37.046Z" transform="translate(-11.79267 -3.84383)"/><path class="cls-1" d="M23.851,37.046a8.423,8.423,0,1,0,16.846.001v-.001a8.424,8.424,0,0,0-8.421-8.427h-.002a8.425,8.425,0,0,0-8.423,8.427ZM22.426,14.373s1.317,2.072,2.824,2.354a30.5627,30.5627,0,0,1,4.659,1.177c.47.376.47.565.47.565a3.50648,3.50648,0,0,1-1.505.847,41.26621,41.26621,0,0,1-4.33.283c-.282,0-1.789.094-2.259.753a19.99157,19.99157,0,0,0-1.977,2.918l-3.2-.564s-1.317-.377-1.506-1.036a4.5078,4.5078,0,0,1,0-2.73c.377-.754.66-1.224.66-1.224s.187-.471,2.07-1.413C20.214,15.361,22.426,14.373,22.426,14.373Z" transform="translate(-11.79267 -3.84383)"/><circle class="cls-1" cx="101.45838" cy="16.03677" r="5.5"/><path class="cls-1" d="M102.25105,39.78653V33.95148a5.14506,5.14506,0,0,1,5.13-5.13h11.74a5.14506,5.14506,0,0,1,5.13,5.13v5.83505" transform="translate(-11.79267 -3.84383)"/><circle class="cls-1" cx="86.45838" cy="12.03677" r="5.5"/><path class="cls-1" d="M87.25105,35.78653v-5.835a5.14506,5.14506,0,0,1,5.13-5.13h11.74a5.107,5.107,0,0,1,3.4026,1.299" transform="translate(-11.79267 -3.84383)"/><line class="cls-1" x1="76.65932" y1="0.19872" x2="58.22861" y2="42.75191"/></svg>