<svg xmlns="http://www.w3.org/2000/svg" width="137" height="50" viewBox="0 0 137 50"><g fill="none" fill-rule="evenodd" stroke="#18191E"><path d="M94.545 35.97c0 2.777 2.224 5.029 4.969 5.029 2.744 0 4.968-2.252 4.968-5.03 0-2.778-2.224-5.029-4.968-5.029-2.745 0-4.969 2.251-4.969 5.03z"/><path d="M91.785 35.97c0 4.32 3.46 7.823 7.729 7.823 4.268 0 7.729-3.503 7.729-7.824 0-4.32-3.46-7.823-7.73-7.823-4.268 0-7.728 3.503-7.728 7.823zM59.662 8.462c.245 1.751.478 3.505.708 5.259.479 3.678.936 7.36 1.338 11.049.341 3.149.686 6.304.787 9.47.016.507.052 1.06.008 1.59m55.873-12.947c-.735-.513-2.014-.775-2.014-.775-.516-.222-1.064-.28-1.603-.379-.547-.1-1.093-.207-1.64-.31a49.17 49.17 0 0 0-1.838-.317c-.187-.028-.484-.147-.645.03-.13.144-.085.39.01.541.155.25.4.373.596.568.234.23.419.525.648.764.258.271.544.537.792.802.524.562 1.105.85 1.784 1.077.699.234 1.422.352 2.127.558.863.253 1.606.747 2.52.747M16.976 19.441l4.657.162c.486.017 2.524.227 1.523 1.085-.656.562-1.388 1.073-1.942 1.745-.655.792-1.16 1.575-2.05 2.109-.678.405-1.641 1.09-2.464 1.09m71.913-8.683c.458 3.493.623 7.065.406 10.598M35.9 14.574c.078 3.13.3 6.526 1.497 9.476"/><path d="M17.469 36.8c-.734-.3-1.355-.812-1.626-1.582-.448-1.278-.477-2.67-.545-4.011-.063-1.242-.014-2.498.44-3.67.202-.518.551-1.036.75-1.581.252-.692.157-1.348.138-2.068-.022-.847-.22-1.734-.106-2.58.136-.997.804-2.07.682-3.072-.109-.892.64-1.229 1.39-1.229 0 0 3.525-.486 4.166-.648.641-.163 2.725-.163 3.366-.65.641-.486 9.135-5.353 9.135-5.353s3.847-2.109 8.335-2.758C48.08 6.95 54.973 6.138 60.742 6.3c5.77.162 12.181.65 16.668 2.434 4.488 1.784 7.854 3.244 12.502 5.678 4.648 2.433 3.365 1.784 3.846 2.109.48.324 4.487.649 5.45.811.96.162 6.57.487 8.814 1.136 2.244.648 5.77 1.135 8.174 2.433 2.404 1.298 3.686 4.218 3.045 5.353 0 0 1.443 2.11 1.283 3.732-.161 1.622-.321 1.46-.482 1.622-.128.131-.105.579-.121.744-.05.502-.086 1.005-.119 1.508-.034.512-.065 1.025-.093 1.538-.021.39-.034.84-.24 1.184a.755.755 0 0 1-.202.227c-.274.198-.636.14-.997.189l-1.368.187-3.25.445-4.201.575v-2.236c0-5.532-4.472-10.059-9.937-10.059-5.466 0-9.938 4.527-9.938 10.06v1.955H43.753V35.97c0-5.532-4.472-10.059-9.937-10.059-5.466 0-9.938 4.527-9.938 10.06v1.955L17.47 36.8z"/><path d="M28.847 35.97c0 2.777 2.224 5.029 4.969 5.029 2.744 0 4.969-2.252 4.969-5.03 0-2.778-2.225-5.029-4.97-5.029-2.744 0-4.968 2.251-4.968 5.03z"/><path d="M26.087 35.97c0 4.32 3.46 7.823 7.729 7.823s7.729-3.503 7.729-7.824c0-4.32-3.46-7.823-7.73-7.823-4.268 0-7.728 3.503-7.728 7.823zM62.094 8.854c-.242.164-.385.443-.385.89 0 .26 1.084 5.783 1.418 7.48l.097.492 2.457.11 5.704.26 6.456.292 4.716.214c.33.015.74.113.942-.232.257-.437-.186-1.234-.368-1.62-.325-.69-.924-1.205-1.45-1.736-2.049-2.063-4.682-3.269-7.35-4.283-3.165-1.202-6.448-1.762-9.81-1.992-.476-.032-.952-.052-1.429-.073-.403-.017-.752.03-.998.198zm-21.876 7.29c.144.271.47.63.725.798 0 0 .48.318 1.154.336l4.577.123 10.761.289.39.01a.495.495 0 0 0 .513-.542l-.218-3.096a396.74 396.74 0 0 1-.26-4.639.748.748 0 0 0-.57-.662l-.71-.138c-.285-.024-.577-.014-.855-.026-.773-.032-1.546.013-2.318.052l-.311.016c-1.883.097-3.762.241-5.64.41-1.677.148-3.443.376-4.89 1.316-1.352.878-2.953 2.304-2.953 4.063 0 .559.605 1.69.605 1.69zm24.725 4.443l.738.034 5.703.258m-29.076-.85c.246.01.492.022.737.033l5.704.258"/></g></svg>