<svg xmlns="http://www.w3.org/2000/svg" width="137" height="50" viewBox="0 0 137 50"><g fill="none" fill-rule="evenodd" stroke="#000"><path d="M37.814 37.302c0 3.507-2.87 6.351-6.411 6.351-3.541 0-6.412-2.844-6.412-6.351 0-3.508 2.87-6.352 6.412-6.352 3.541 0 6.411 2.844 6.411 6.352z"/><path d="M39.818 37.302c0 4.604-3.768 8.336-8.415 8.336-4.648 0-8.416-3.732-8.416-8.336s3.768-8.337 8.416-8.337c4.647 0 8.415 3.733 8.415 8.337zm73.064 0c0 3.507-2.87 6.351-6.411 6.351-3.541 0-6.411-2.844-6.411-6.351 0-3.508 2.87-6.352 6.41-6.352 3.542 0 6.412 2.844 6.412 6.352z"/><path d="M114.886 37.302c0 4.604-3.767 8.336-8.415 8.336s-8.415-3.732-8.415-8.336 3.767-8.337 8.415-8.337 8.415 3.733 8.415 8.337zM61.382 8.886l2.034 10.112s1.113 3.837 1.068 7.542c-.044 3.705-.267 9.835-.534 10.761m-.4-28.415s5.832.055 8.905.717c3.072.662 5.565 1.19 9.082 2.955 1.803.905 3.545 1.933 5.254 3a71.13 71.13 0 0 1 2.114 1.368c.705.475 1.374.788 1.6 1.659.031.116.235 1.693.204 1.692l-24.755-1.412-2.404-9.98zm9.27 14.575l-6.28-.358m-20.484-.965l-6.28-.358M36.2 20.537c1.733 2.813 8.476 13.352 10.144 15.958m47.26-16.564c.624 1.617.862 3.397.8 5.11 0 0 .454 6.222-.552 11.925m-84.08-18.18h3.51s4.63-.041 5.253.444c.624.485 0 .898 0 .898l-4.343 4.683s-1.668 1.394-2.157 1.526c-.49.132-3.445.136-3.445.136m52.566-7.895L37.37 17.542l2.449-7.664c.164-.61.105-.996.843-1.01.381-.006.762-.007 1.143-.008 1.149-.005 2.298-.001 3.447.004a2959.016 2959.016 0 0 1 14.21.12c.007 0 .159-.003.16.001l1.535 9.593zm-26.548-1.08l-14.28-.177 2.66-5.292s1.825-1.897 3.606-2.117c1.781-.22 10.775-.706 10.775-.706l-2.76 8.292zm87.504 6.459s-4.908-1.372-5.797-1.418c-.344.052-.293.346-.515.626-.144.18 1.435 1.884 1.638 2.055 1.077.904 2.21 1.776 3.459 2.436 1.012.535 2.02 1.108 3.117 1.462 1.222.394 2.718.881 4.018.714.025-.003-.58-1.44-.668-1.58-.764-1.217-2.034-2.732-3.285-3.485-.6-.36-1.311-.579-1.967-.81z"/><path d="M128.031 29.832s1.092.686 1.183 1.122c.108.521.024 1.165.055 1.685.044.76.068 1.52.113 2.281.063 1.038.03 2.099.16 3.131.044.353-.618.53-.618.53l-12.766.573v-2.25c0-5.385-4.117-10.034-9.553-10.034h-.268c-5.436 0-9.999 4.649-9.999 10.035v2.67H41.542v-2.67c0-5.386-4.57-10.035-10.005-10.035h-.268c-5.436 0-10.13 4.649-10.13 10.035v1.235l-1.5-.073c-3.475-.366-11.535-1.235-11.745-1.34-.267-.132-.846-.264-.49-2.16.356-1.897 1.246-8.956 1.425-12.043.178-3.087 1.736-4.897 1.736-4.897 1.4-2.368 3.046-4.596 4.812-6.708 1.06-1.267 2.286-3.163 3.938-3.602 3.74-.992 2.871-.873 16.362-1.734 13.491-.86 31.724.436 31.724.436 3.206.33 8.749 1.533 8.749 1.533.86.18 5.61 2.095 8.549 3.506 2.938 1.412 11.487 6.308 12.69 7.013 1.201.706 3.205 1.059 3.205 1.059l17.333 3.702"/></g></svg>