<svg xmlns="http://www.w3.org/2000/svg" width="137" height="50" viewBox="0 0 137 50"><g fill="none" fill-rule="evenodd" stroke="#000"><path d="M24.57 39.522v-.608c0-5.219 4.3-9.708 9.511-9.708h.236c5.212 0 9.628 4.49 9.628 9.708v2.12h52.929V39.05c0-5.38 4.395-9.845 9.77-9.845h-.015c5.374 0 10.093 4.464 10.093 9.845v1.886l.295-.052c.197.003.29.003.485-.007 1.162-.063 2.28-.276 3.365-.699 1.005-.392 1.98-.83 2.425-1.882.345-.812.558-1.833.533-2.723 0-2.247-.871-4.35-1.21-6.54-.408-1.916-.983-3.9-2.062-5.556-.407-.626-.863-1.173-1.546-1.504-.84-.406-1.789-.61-2.66-.952a41091.059 41091.059 0 0 1-9.868-3.877c-.753-.26-1.5-.587-2.174-1.016 0 0-6.237-4.477-13.36-8.484C83.824 3.637 77.765 3.7 77.765 3.7L22.44 3.237s-1.691-.015-2.545 1.252c-.853 1.267-3.268 6.01-3.62 7.042-.353 1.031-1.854 6.13-2.03 7.308-.177 1.178.117 6.128 0 7.484-.118 1.355.294 3.89-.706 5.481-.562.894-1.293 1.833-1.294 2.948 0 .686-.096 1.482.31 2.107.382.586.915 1.478 1.64 1.671.883.236 9.47.953 9.47.953l.904.04z"/><path d="M98.947 39.169c0 4.296 3.478 7.778 7.77 7.778 4.29 0 7.77-3.482 7.77-7.778 0-4.296-3.48-7.779-7.77-7.779-4.292 0-7.77 3.483-7.77 7.779z"/><path d="M101.772 39.169a4.948 4.948 0 0 0 4.945 4.95 4.947 4.947 0 0 0 4.944-4.95 4.947 4.947 0 0 0-4.944-4.95 4.947 4.947 0 0 0-4.945 4.95zm-75.343 0c0 4.296 3.479 7.778 7.77 7.778 4.291 0 7.77-3.482 7.77-7.778 0-4.296-3.479-7.779-7.77-7.779-4.291 0-7.77 3.483-7.77 7.779z"/><path d="M29.255 39.169a4.947 4.947 0 0 0 4.944 4.95 4.948 4.948 0 0 0 4.945-4.95 4.947 4.947 0 0 0-4.945-4.95 4.947 4.947 0 0 0-4.944 4.95zM98.323 21.73c.11 3.02-.06 5.95-.449 8.995M73.83 5.701c.34 7.624.359 15.227.359 22.86 0 3.535-.135 7.073-.203 10.608m8.003-17.06h-5.671M45.97 17.836s.06 19.034 1.943 21.215"/><path d="M33.885 4.872s22.525.157 24.526.157c2.001 0 10.242.236 10.673.236 0 0 1.845.04 2.551.432.706.393.589 2.75.589 2.75l.007 7.268s-.164 2.16-.478 2.357c-.314.196-.667.55-2.198.55-1.53 0-45.362-1.453-45.362-1.453s-1.688.078-2.472-1.415a50.455 50.455 0 0 1-1.177-2.357s-.236-.59 0-1.65c.235-1.06 2.197-5.618 2.197-5.618s.863-1.022 1.805-1.022 9.34-.235 9.34-.235zm12.086 12.964s.23-11.864.385-12.493m-31.655 11.57s1.015-1.08 1.29-1.12c.275-.039.707-.196.942.275l1.217 4.4s.235 1.258 0 2.122c-.236.864-1.672 3.929-1.672 3.929s-.919 1.453-1.31 1.61c-.393.158-.934.315-.934.315m99.625-6.328s4.709 1.613 6.357 4.324c0 0 1.687 2.593 1.844 3.614 0 0 .039.59 0 .707-.04.118-2.276-.432-2.276-.432s-.98-.236-1.609-.942c-.627-.708-3.296-3.3-3.296-3.3l-1.216-1.376-1.295-1.807-.236-.393s.912-.711 1.727-.395zM75.569 6.053c.244-.395.772-.39 1.442-.39 1.614.003 3.247.127 4.827.466 0 0 3.649.786 7.535 3.025 3.435 1.98 6.622 4.455 9.794 6.826.592.443 1.183.888 1.773 1.335.286.217.583.423.847.669.407.38.714.874-.054.874-.589 0-16.834-1.297-16.834-1.297-1.367-.12-2.746-.201-4.1-.43-1.152-.193-2.413-.104-3.193-1.119-.839-1.093-1.47-2.386-1.693-3.752-.197-1.205-.282-2.429-.348-3.647-.035-.647-.159-1.286-.144-1.937.005-.276.057-.477.148-.623z"/></g></svg>