<svg xmlns="http://www.w3.org/2000/svg" width="137" height="50" viewBox="0 0 137 50"><g fill="none" fill-rule="evenodd" stroke="#000"><path d="M113.845 37.046c0-5.855-4.788-10.644-10.64-10.644s-10.64 4.79-10.64 10.644c0 0-.077 1.71.405 3.738l-50.732-.847c.212-.658.454-3.113.454-3.113 0-5.732-4.688-10.422-10.418-10.422-5.73 0-10.418 4.69-10.418 10.422l.045 1.108-1.467-.163c-2.736-.304-6.611-1.185-7.826-3.961-.68-1.556-.1-3.41.247-4.95.198-.885.447-1.85 1.147-2.48.942-.848 1.063-1.413 1.063-1.413l.067-7.061s-.283-1.036.94-1.695c1.224-.66 4.048-3.39 4.048-3.39s3.765-2.73 4.424-3.107c0 0-1.036-1.036-.283-1.789 0 0 .189-.283 2.495-.612 0 0 23.436-2.354 32.754-1.977 0 0 11.624.518 17.648 2.965 6.023 2.449 10.447 4.05 19.389 8.945 0 0 10.447 1.13 19.86 4.52 0 0 5.74 1.978 6.023 4.143 0 0 2.164 2.072 2.164 4.614s-.47 5.46-.47 5.46 0 .377.282.66c.283.282.659.847.471 1.035-.188.189-4.141 2.354-11.295 2.92l.263-3.55z"/><path d="M62.945 8.77s8.377.377 13.648 2.825c0 0 6.306 2.73 8.659 4.049 0 0 2.54 1.13 2.824 1.318.282.188.376.376.376.942 0 .565-.753 1.977-.753 1.977s-.282.565-1.035.565c-.753 0-22.213-1.79-22.213-1.79l-1.506-9.885zm8.307 14.418l-6.397-.528M46.35 21.305l-6.397-.528m18.85-12.195l.283 9.604L41.58 16.68s-.377-3.202.564-4.52c.942-1.318 1.977-2.73 1.977-2.73s8.189-1.225 14.683-.848zm-21.15 5.797c-1.184 1.484-2.097 3.083-2.097 4.843 0 1.688.372 3.11.975 4.394m53.902-2.362c.28.678.537 1.365.733 2.074.571 2.071.62 4.546.383 7.052M26.35 37.046a5.925 5.925 0 1 0 11.848 0 5.925 5.925 0 1 0-11.848 0z"/><path d="M23.851 37.046a8.425 8.425 0 0 0 8.423 8.426 8.424 8.424 0 0 0 8.423-8.426 8.424 8.424 0 0 0-8.423-8.427 8.425 8.425 0 0 0-8.423 8.427zm-1.425-22.673s1.317 2.072 2.824 2.354c0 0 4.189.8 4.659 1.177.47.376.47.565.47.565s-.659.659-1.505.847c-.848.188-4.048.283-4.33.283-.282 0-1.789.094-2.259.753s-1.694 2.165-1.977 2.918l-3.2-.564s-1.317-.377-1.506-1.036c-.188-.66-.376-1.977 0-2.73.377-.754.66-1.224.66-1.224s.187-.471 2.07-1.413c1.882-.942 4.094-1.93 4.094-1.93zm87.25 9.133s5.836-.189 8.565.848c0 0 3.248 1.27 4.189 2.777 0 0 .094.282 0 .848-.094.564-.47.376-1.13.282-.658-.094-3.67-.659-3.67-.659s-1.977-.377-3.39-1.318c-1.41-.942-4.564-2.778-4.564-2.778zM61.016 8.723c.835 9.658.796 19.192.994 28.86m35.271-.537a5.925 5.925 0 1 0 11.848 0 5.925 5.925 0 1 0-11.848 0z"/><path d="M94.782 37.046a8.425 8.425 0 0 0 8.423 8.426 8.424 8.424 0 0 0 8.423-8.426 8.424 8.424 0 0 0-8.423-8.427 8.425 8.425 0 0 0-8.423 8.427z"/></g></svg>