<svg xmlns="http://www.w3.org/2000/svg" width="137" height="50" viewBox="0 0 137 50"><g fill="none" fill-rule="evenodd" stroke="#000"><path d="M106.517 36.266c0 4.143 3.326 7.501 7.429 7.501s7.43-3.358 7.43-7.5c0-4.144-3.327-7.502-7.43-7.502s-7.43 3.358-7.43 7.501z"/><path d="M104.84 36.266c0 5.079 4.076 9.195 9.106 9.195s9.107-4.116 9.107-9.195c0-5.078-4.077-9.194-9.107-9.194-5.03 0-9.107 4.116-9.107 9.194zM61.141 6.221l.949 5.375c.427 2.42.67 4.756 1.323 7.134.61 2.225 1.279 4.75 1.043 7.077 0 0 .28 5.257-.56 10.782M63.14 6.221s10.545.403 14.34 2.621c0 0 11.542 7.541 12.062 7.985.52.444.56.686.56.686s.279.323-.92.242c-1.198-.08-23.805-1.694-23.805-1.694l-2.237-9.84zm-3.675 0l.599 9.315-27.041-.524s5.592-5.686 10.185-7.3C47.8 6.1 59.464 6.222 59.464 6.222zm12.662 14.84l-6.111-.604m-21.57-1.29l-6.23-.363m56.618 1.286c2.643 4.3 2.938 12.734.536 16.959M32.022 17.404c.087 1.57.423 3.141 1.248 4.468.278.447.614.829.987 1.166m-9.584 13.107c0 4.143 3.326 7.502 7.43 7.502 4.103 0 7.43-3.359 7.43-7.502 0-4.142-3.327-7.501-7.43-7.501-4.104 0-7.43 3.359-7.43 7.501z"/><path d="M22.996 36.145c0 5.079 4.077 9.195 9.106 9.195 5.03 0 9.108-4.116 9.108-9.195 0-5.078-4.077-9.195-9.108-9.195-5.029 0-9.106 4.117-9.106 9.195zM8.46 18.82h3.712c.615 0 1.076-.29 1.614.056.483.31 1.73.793 1.381 1.616-.12.282-3.156 2.564-3.156 2.564s-.798.455-1.877.535c-1.078.08-3.516.216-3.516.216"/><path d="M43.237 39.775c.063 0 54.022.766 59.327.84l.538.007v-4.355c0-6.023 4.88-10.95 10.844-10.95 5.965 0 10.845 4.927 10.845 10.95v5.08l2.09-.264c4.228-.373 5.969-1.59 5.969-1.59 1.078-.767.908-1.815.988-2.46.08-.645 0-2.46 0-2.46s-.439-5.808-.52-7.099c-.08-1.29-.678-3.347-1.877-4.637-1.198-1.291-8.068-2.823-8.068-2.823-11.304-2.582-23.527-3.47-25.204-3.55a4.707 4.707 0 0 1-2.198-.686l-4.074-2.5s-7.509-4.557-12.182-6.332c-4.673-1.774-9.226-2.097-14.82-2.5-5.591-.403-18.213.242-18.213.242-6.67.484-11.064 2.299-11.064 2.299l-.072.032c-3.374 1.522-6.781 2.968-10.04 4.728-2.012 1.087-4.268 2.502-6.584 2.741 0 0-6.232.646-8.348 1.089-1.237.26-1.875.688-2.335 1.871-.565 1.454-1.122 2.923-1.42 4.46-.222 1.145-.7 2.246-1.19 3.296-.221.474-.406.903-.748 1.3-.322.374-.69.717-.921 1.16-.29.56-.445 1.18-.535 1.802-.18 1.236-.093 2.488-.094 3.732 0 1.308.019 2.95 1.69 3.19l15.815 2.259.423.04v-2.592c0-6.023 4.879-10.95 10.843-10.95 5.966 0 10.846 4.927 10.846 10.95v3.68h.29z"/><path d="M121.19 22.965c-.034-.03 1.074-.658 1.147-.687 1.765-.704 3.835.264 5.372 1.161 1.604.936 3.155 2.346 3.486 4.272 0 0 .173 1.09 0 1.612-1.48-.886-3.033-1.5-4.582-2.237-2.103-1-3.706-2.559-5.424-4.121z"/></g></svg>