<svg id="Слой_1" xmlns="http://www.w3.org/2000/svg" viewBox="0 0 22 19.2"><style>.st0{fill:#18191e}</style><path class="st0" d="M20 7.8c-2.1 2.8-2.4 2.6-.6 4.2 1.7 1.6 2 2.3 2.1 2.4 0 0 .7 1.2-.8 1.2h-2.8c-.6.1-1.4-.4-1.4-.4-1.1-.7-2-2.6-2.8-2.4 0 0-.8.3-.8 1.9 0 .4-.2.6-.2.6s-.2.2-.6.2h-1.3c-2.8.2-5.2-2.4-5.2-2.4s-2.7-2.8-5-8.3c-.2-.4 0-.5 0-.5h3.8c.3 0 .5.2.5.2s.2.1.3.4c.5 1.2 1.1 2.3 1.1 2.3 1.1 2.3 1.8 2.6 2.3 2.4 0 0 .6-.3.4-3.1 0-1-.3-1.4-.3-1.4-.3-.4-.8-.5-1-.5s.1-.4.5-.6c.5-.3 1.5-.3 2.6-.3.9 0 1.1.1 1.5.1 1 .3.7 1.2.7 3.5 0 .7-.1 1.8.4 2.1.2.2.8 0 2.2-2.4 0 0 .7-1.1 1.2-2.5.1-.2.3-.3.3-.3s.2-.1.4-.1h3.2c1-.1 1.1.3 1.1.3 0 .6-.5 1.7-1.8 3.4z"/></svg>