<svg xmlns="http://www.w3.org/2000/svg" width="20" height="25" viewBox="0 0 20 25"><g fill="#1D409D"><path d="M18 25H2c-1.1 0-2-.907-2-2.016V2.016C0 .907.9 0 2 0h8.14c.54 0 1.04.202 1.42.585l7.86 7.923c.38.383.58.887.58 1.432v13.044C20 24.093 19.1 25 18 25zM2 .806c-.66 0-1.2.545-1.2 1.21v20.968c0 .665.54 1.21 1.2 1.21h16c.66 0 1.2-.545 1.2-1.21V9.94c0-.323-.12-.625-.36-.847l-7.86-7.924a1.115 1.115 0 0 0-.84-.363H2z"/><path d="M12.94 18.952h-1.66l-.92-3.63c-.04-.12-.1-.403-.18-.806-.08-.403-.14-.685-.14-.806-.02.161-.06.443-.14.826-.08.383-.14.645-.18.807l-.92 3.609H7.14L5.4 12.036h1.42l.88 3.77c.16.706.26 1.29.34 1.815.02-.181.06-.464.12-.827.06-.363.14-.665.18-.867l1-3.87h1.38l1 3.87c.04.182.1.444.16.787.06.342.12.665.16.907.04-.242.08-.544.16-.927.08-.384.14-.666.18-.888l.88-3.77h1.42l-1.74 6.916z"/></g></svg>