<svg xmlns="http://www.w3.org/2000/svg" width="68" height="20"><g fill="none"><path fill="#00579F" d="M29.537 20H24l3.463-19H33zM50 .824C48.882.433 47.11 0 44.917 0c-5.597 0-9.538 2.636-9.562 6.405-.046 2.78 2.822 4.325 4.967 5.253 2.193.947 2.938 1.565 2.938 2.41-.022 1.297-1.772 1.895-3.403 1.895-2.263 0-3.475-.308-5.318-1.03l-.746-.31L33 18.97c1.33.535 3.778 1.01 6.32 1.03 5.947 0 9.818-2.595 9.864-6.612.023-2.204-1.492-3.893-4.757-5.272-1.982-.886-3.196-1.484-3.196-2.39.023-.824 1.027-1.668 3.264-1.668a10.74 10.74 0 0 1 4.222.741l.512.206L50 .825zM63.503 1L68 20h-5.16s-.506-2.183-.666-2.85h-7.156L53.848 20H48l8.279-17.424C56.853 1.343 57.863 1 59.192 1h4.311zm-6.88 12.27h4.633c-.229-.95-1.284-5.499-1.284-5.499l-.39-1.637c-.275.707-.756 1.86-.733 1.819 0 0-1.767 4.225-2.226 5.316zM20.003 1l-5.555 12.97-.607-2.63C12.815 8.303 9.594 5.006 6 3.366L11.088 20h5.997L26 1h-5.997z"/><path fill="#FAA61A" d="M8.703 1H.088L0 1.409C6.72 3.088 11.171 7.135 13 12l-1.873-9.3C10.82 1.41 9.871 1.044 8.703 1z"/></g></svg>