<svg xmlns="http://www.w3.org/2000/svg" width="94" height="40" viewBox="0 0 94 40">
  <g fill="none" fill-rule="evenodd">
    <path fill="#607D8B" d="M0,29.9396239 C1.84394981,27.4468903 8.77275104,27.3559398 11,29.6719449 L11,36.2410716 C9.92087908,37.2760108 7.76639723,37.7915407 5.6099248,37.7915407 C4.7864841,37.7915407 3.94822455,37.6667531 3.18140507,37.4359285 L3.18140507,40 L0,40 L0,29.9396239 Z M8.05790807,31.32802 C6.57845739,30.7930931 4.65864399,30.7930931 3.18140507,31.32802 L3.18140507,34.9080647 C4.69403225,35.4235946 6.54262677,35.3001002 8.05790807,34.7834927 L8.05790807,31.32802 Z"/>
    <polyline fill="#607D8B" points="14 40 14 28 17.163 28 17.163 37.017 22 37.017 22 40 14 40"/>
    <path fill="#607D8B" d="M37,40 L33.8884057,40 L33.8884057,37.4704509 L29.1139754,37.4704509 L29.1139754,40 L26,40 L26,29.9380636 C27.8788618,27.3539788 35.1211382,27.3539788 37,29.9380636 L37,40 Z M33.8884057,34.5682055 L33.8884057,31.4695886 C32.4383486,30.916041 30.5616514,30.916041 29.1139754,31.4695886 L29.1139754,34.5682055 L33.8884057,34.5682055 Z"/>
    <polyline fill="#607D8B" points="39 30.982 39 28 50 28 50 30.982 46.297 30.982 46.297 40 42.701 40 42.701 30.982 39 30.982"/>
    <polygon fill="#607D8B" points="53 40 56 40 56 28 53 28"/>
    <polyline fill="#607D8B" points="59.266 31.202 59.266 28 69.731 28 69.731 30.779 63.845 36.798 70 36.798 70 40 59 40 59 37.221 65.099 31.202 59.266 31.202"/>
    <path fill="#607D8B" d="M84,40 L80.886335,40 L80.886335,37.4704509 L76.1112838,37.4704509 L76.1112838,40 L73,40 L73,29.9380636 C74.8765546,27.3539788 82.1210642,27.3539788 84,29.9380636 L84,40 Z M80.886335,34.5682055 L80.886335,31.4695886 C79.4360044,30.916041 77.561398,30.916041 76.1112838,31.4695886 L76.1112838,34.5682055 L80.886335,34.5682055 Z"/>
    <path fill="#00BDA0" d="M81.0402065 22C83.0791864 22 85.5372624 20.3360722 86.5313165 18.2824917L93.5838622 3.71772635C94.5779163 1.66654443 93.7299829 0 91.6907865 0L75.0812935 0C73.0423136 0 70.5818564 1.66654443 69.5880187 3.71772635L62.5352566 18.2824917C61.6966316 20.0140146 60.7906829 21.5891967 59 22L81.0402065 22M48.5070076 12C47.1495637 12 46.6093434 13.1318727 47.3014277 14.5238409L49.7463114 19.4525845C50.439032 20.8456418 52.0985072 21.9751184 53.455739 21.9751184 54.1321279 21.9751184 54.8995079 22.0311021 55.6463141 21.9751184 57.444291 21.8433279 58.7109558 19.9910736 59.5328457 18.2612427L62 13.0656507C61.2377104 12.4219472 60.2976805 12 59.4692155 12L48.5070076 12"/>
  </g>
</svg>
